<?xml version="1.0" encoding="utf-8"?>
<!-- Generator: Adobe Illustrator 16.0.0, SVG Export Plug-In . SVG Version: 6.00 Build 0)  -->
<!DOCTYPE svg PUBLIC "-//W3C//DTD SVG 1.1//EN" "http://www.w3.org/Graphics/SVG/1.1/DTD/svg11.dtd">
<svg version="1.1" id="Layer_1" xmlns="http://www.w3.org/2000/svg" xmlns:xlink="http://www.w3.org/1999/xlink" x="0px" y="0px"
	 width="540px" height="378px" viewBox="0 0 540 378" enable-background="new 0 0 540 378" xml:space="preserve">
<polygon fill="#BFFFBF" points="398,282.89 534,282.89 534,306.89 398,306.89 398,282.89 "/>
<polygon fill="#FFFFFF" points="397,281.89 398,281.89 398,307.89 397,307.89 397,281.89 "/>
<polygon fill="#FFFFFF" points="398,281.89 534,281.89 534,282.89 398,282.89 398,281.89 "/>
<polygon fill="#85B285" points="398,306.89 535,306.89 535,307.89 398,307.89 398,306.89 "/>
<polygon fill="#85B285" points="534,281.89 535,281.89 535,306.89 534,306.89 534,281.89 "/>
<path d="M418.496,300.535h-2.047l-0.811-2.11h-3.719l-0.768,2.11h-2l3.625-9.313h1.986L418.496,300.535L418.496,300.535z
	 M415.027,296.847l-1.281-3.453l-1.25,3.453H415.027L415.027,296.847z M419.478,291.222h3.438c0.771,0,1.359,0.063,1.766,0.188
	c0.553,0.155,1.021,0.439,1.406,0.851c0.387,0.412,0.68,0.914,0.883,1.508c0.203,0.595,0.305,1.328,0.305,2.203
	c0,0.762-0.094,1.422-0.281,1.985c-0.229,0.677-0.563,1.224-1,1.64c-0.322,0.313-0.76,0.559-1.313,0.735
	c-0.416,0.135-0.975,0.203-1.672,0.203h-3.531V291.222L419.478,291.222z M421.353,292.8v6.172h1.406
	c0.531,0,0.912-0.031,1.141-0.093c0.303-0.073,0.555-0.201,0.758-0.383c0.203-0.184,0.367-0.482,0.492-0.899
	c0.125-0.416,0.188-0.983,0.188-1.703c0-0.719-0.063-1.271-0.188-1.655c-0.125-0.386-0.301-0.688-0.531-0.906
	c-0.229-0.219-0.52-0.365-0.875-0.438c-0.26-0.062-0.775-0.094-1.547-0.094H421.353L421.353,292.8z M428.492,295.94
	c0-0.947,0.141-1.744,0.422-2.391c0.219-0.468,0.51-0.893,0.875-1.272c0.365-0.381,0.766-0.659,1.203-0.837
	c0.572-0.25,1.24-0.375,2-0.375c1.375,0,2.475,0.428,3.297,1.281c0.822,0.855,1.234,2.037,1.234,3.547
	c0,1.5-0.408,2.676-1.227,3.524s-1.908,1.273-3.273,1.273c-1.385,0-2.488-0.423-3.305-1.267
	C428.9,298.582,428.492,297.42,428.492,295.94L428.492,295.94z M430.429,295.879c0,1.052,0.244,1.849,0.734,2.39
	c0.49,0.542,1.104,0.813,1.844,0.813c0.75,0,1.367-0.27,1.852-0.805c0.484-0.536,0.727-1.347,0.727-2.431
	c0-1.062-0.234-1.855-0.703-2.382c-0.469-0.527-1.094-0.79-1.875-0.79c-0.771,0-1.393,0.266-1.867,0.797
	C430.666,294.004,430.429,294.806,430.429,295.879L430.429,295.879z M438.978,291.222h3.439c0.77,0,1.357,0.063,1.764,0.188
	c0.553,0.155,1.021,0.439,1.406,0.851c0.387,0.412,0.68,0.914,0.883,1.508c0.203,0.595,0.305,1.328,0.305,2.203
	c0,0.762-0.094,1.422-0.281,1.985c-0.229,0.677-0.563,1.224-1,1.64c-0.322,0.313-0.76,0.559-1.313,0.735
	c-0.416,0.135-0.973,0.203-1.672,0.203h-3.531V291.222L438.978,291.222z M440.853,292.8v6.172h1.406
	c0.533,0,0.912-0.031,1.141-0.093c0.303-0.073,0.555-0.201,0.758-0.383c0.203-0.184,0.367-0.482,0.492-0.899
	c0.125-0.416,0.188-0.983,0.188-1.703c0-0.719-0.063-1.271-0.188-1.655c-0.125-0.386-0.301-0.688-0.531-0.906
	c-0.229-0.219-0.52-0.365-0.875-0.438c-0.26-0.062-0.775-0.094-1.547-0.094H440.853L440.853,292.8z M448.382,291.222h3.719
	c0.74,0,1.289,0.032,1.648,0.095s0.682,0.192,0.969,0.391s0.525,0.458,0.719,0.781c0.193,0.322,0.289,0.682,0.289,1.078
	c0,0.438-0.119,0.839-0.359,1.202c-0.238,0.365-0.557,0.642-0.953,0.828c0.563,0.157,0.996,0.436,1.305,0.836
	c0.307,0.401,0.461,0.867,0.461,1.399c0,0.427-0.1,0.841-0.297,1.242c-0.197,0.4-0.467,0.721-0.805,0.961
	c-0.338,0.238-0.758,0.385-1.258,0.437c-0.313,0.032-1.066,0.052-2.266,0.063h-3.172V291.222L448.382,291.222z M450.257,292.785
	v2.14h1.234c0.729,0,1.182-0.01,1.359-0.031c0.322-0.03,0.578-0.14,0.766-0.328c0.188-0.187,0.281-0.432,0.281-0.733
	c0-0.282-0.08-0.513-0.242-0.696c-0.162-0.182-0.398-0.289-0.711-0.319c-0.188-0.021-0.725-0.031-1.609-0.031H450.257
	L450.257,292.785z M450.257,296.472v2.5h1.75c0.678,0,1.104-0.02,1.281-0.062c0.281-0.053,0.51-0.177,0.688-0.375
	s0.266-0.458,0.266-0.781c0-0.282-0.068-0.521-0.203-0.719s-0.334-0.341-0.594-0.431c-0.26-0.088-0.816-0.133-1.672-0.133H450.257
	L450.257,296.472z M457.755,300.535v-1.781h1.783v1.781H457.755L457.755,300.535z M467.339,297.113l1.811,0.578
	c-0.281,1.011-0.75,1.763-1.391,2.258c-0.65,0.495-1.471,0.742-2.471,0.742c-1.238,0-2.26-0.423-3.059-1.267
	c-0.791-0.843-1.191-2-1.191-3.468c0-1.542,0.4-2.742,1.201-3.603c0.799-0.858,1.859-1.289,3.16-1.289
	c1.129,0,2.061,0.34,2.779,1.017c0.42,0.396,0.73,0.968,0.951,1.718l-1.861,0.438c-0.109-0.479-0.34-0.859-0.689-1.142
	c-0.35-0.28-0.779-0.422-1.279-0.422c-0.682,0-1.24,0.248-1.682,0.743c-0.43,0.494-0.639,1.299-0.639,2.414
	c0,1.166,0.209,2,0.639,2.5c0.42,0.5,0.98,0.75,1.65,0.75c0.5,0,0.93-0.159,1.291-0.478
	C466.919,298.287,467.179,297.79,467.339,297.113L467.339,297.113z M470.33,297.065c0-0.594,0.15-1.167,0.439-1.719
	c0.291-0.552,0.711-0.974,1.24-1.265c0.541-0.292,1.141-0.438,1.811-0.438c1.01,0,1.84,0.331,2.5,0.992
	c0.65,0.662,0.98,1.498,0.98,2.508c0,1.021-0.33,1.867-0.99,2.539s-1.49,1.009-2.49,1.009c-0.621,0-1.211-0.142-1.77-0.423
	c-0.561-0.28-0.99-0.689-1.281-1.226C470.48,298.506,470.33,297.847,470.33,297.065L470.33,297.065z M472.16,297.16
	c0,0.667,0.16,1.18,0.48,1.539c0.32,0.358,0.709,0.539,1.18,0.539c0.469,0,0.859-0.181,1.17-0.539
	c0.311-0.359,0.471-0.878,0.471-1.556c0-0.655-0.16-1.16-0.471-1.515c-0.311-0.355-0.701-0.532-1.17-0.532
	c-0.471,0-0.859,0.177-1.18,0.532C472.32,295.983,472.16,296.493,472.16,297.16L472.16,297.16z M478.56,293.8h1.639v0.907
	c0.59-0.709,1.291-1.063,2.111-1.063c0.42,0,0.799,0.09,1.109,0.267c0.32,0.177,0.58,0.442,0.789,0.797
	c0.291-0.354,0.611-0.62,0.961-0.797c0.34-0.177,0.699-0.267,1.09-0.267c0.5,0,0.92,0.1,1.26,0.298
	c0.35,0.197,0.6,0.494,0.771,0.891c0.129,0.281,0.189,0.745,0.189,1.39v4.313h-1.781v-3.86c0-0.666-0.068-1.093-0.189-1.281
	c-0.17-0.26-0.42-0.39-0.77-0.39c-0.25,0-0.48,0.075-0.701,0.226c-0.219,0.151-0.379,0.375-0.479,0.673
	c-0.102,0.297-0.141,0.763-0.141,1.397v3.235h-1.789v-3.688c0-0.655-0.031-1.08-0.092-1.272c-0.059-0.193-0.158-0.336-0.299-0.431
	c-0.131-0.094-0.311-0.14-0.541-0.14c-0.27,0-0.52,0.075-0.738,0.226c-0.221,0.151-0.381,0.365-0.471,0.642
	c-0.1,0.275-0.15,0.736-0.15,1.383v3.281h-1.779V293.8L478.56,293.8z M490.109,293.8h1.65v0.907c0.59-0.709,1.291-1.063,2.1-1.063
	c0.432,0,0.801,0.09,1.121,0.267s0.58,0.442,0.789,0.797c0.291-0.354,0.611-0.62,0.951-0.797c0.35-0.177,0.709-0.267,1.1-0.267
	c0.5,0,0.92,0.1,1.26,0.298c0.35,0.197,0.6,0.494,0.77,0.891c0.121,0.281,0.189,0.745,0.189,1.39v4.313h-1.779v-3.86
	c0-0.666-0.07-1.093-0.189-1.281c-0.17-0.26-0.42-0.39-0.77-0.39c-0.25,0-0.48,0.075-0.701,0.226
	c-0.219,0.151-0.379,0.375-0.48,0.673c-0.1,0.297-0.148,0.763-0.148,1.397v3.235h-1.781v-3.688c0-0.655-0.029-1.08-0.09-1.272
	c-0.061-0.193-0.16-0.336-0.299-0.431c-0.131-0.094-0.32-0.14-0.541-0.14c-0.279,0-0.52,0.075-0.74,0.226
	c-0.219,0.151-0.379,0.365-0.479,0.642c-0.092,0.275-0.141,0.736-0.141,1.383v3.281h-1.791V293.8L490.109,293.8z M503.14,295.847
	l-1.621-0.297c0.189-0.645,0.5-1.125,0.939-1.437c0.451-0.313,1.102-0.47,1.98-0.47c0.801,0,1.4,0.095,1.781,0.281
	c0.389,0.188,0.66,0.428,0.82,0.719c0.158,0.292,0.238,0.823,0.238,1.595l-0.01,2.077c0,0.595,0.031,1.031,0.08,1.313
	c0.061,0.281,0.17,0.583,0.32,0.906h-1.76c-0.051-0.115-0.109-0.292-0.17-0.531c-0.029-0.105-0.061-0.172-0.07-0.204
	c-0.311,0.292-0.641,0.513-0.98,0.665c-0.34,0.151-0.709,0.227-1.109,0.227c-0.699,0-1.24-0.19-1.641-0.57s-0.59-0.857-0.59-1.431
	c0-0.375,0.09-0.713,0.27-1.016c0.182-0.302,0.441-0.531,0.762-0.687c0.33-0.156,0.799-0.298,1.42-0.422
	c0.83-0.156,1.408-0.303,1.729-0.438v-0.172c0-0.344-0.08-0.589-0.25-0.735c-0.18-0.145-0.5-0.218-0.969-0.218
	c-0.311,0-0.551,0.063-0.73,0.187C503.4,295.315,503.259,295.535,503.14,295.847L503.14,295.847z M505.529,297.3
	c-0.229,0.073-0.59,0.162-1.08,0.266c-0.5,0.104-0.818,0.208-0.979,0.313c-0.23,0.166-0.34,0.375-0.34,0.625s0.09,0.466,0.279,0.648
	c0.189,0.182,0.42,0.272,0.699,0.272c0.32,0,0.631-0.104,0.92-0.312c0.221-0.156,0.361-0.354,0.43-0.595
	c0.051-0.146,0.07-0.432,0.07-0.858V297.3L505.529,297.3z M515.169,300.535h-1.779v-3.438c0-0.729-0.041-1.2-0.121-1.414
	c-0.08-0.213-0.199-0.38-0.369-0.5c-0.18-0.12-0.381-0.179-0.621-0.179c-0.299,0-0.58,0.086-0.82,0.257
	c-0.25,0.172-0.42,0.396-0.51,0.672c-0.09,0.276-0.139,0.795-0.139,1.556v3.047h-1.781V293.8h1.66v0.985
	c0.58-0.762,1.32-1.142,2.211-1.142c0.4,0,0.76,0.071,1.08,0.211c0.32,0.142,0.57,0.32,0.74,0.539c0.18,0.22,0.289,0.47,0.359,0.75
	c0.061,0.281,0.09,0.684,0.09,1.203V300.535L515.169,300.535z M523.16,300.535h-1.66v-0.985c-0.27,0.386-0.59,0.672-0.971,0.86
	c-0.369,0.187-0.75,0.281-1.119,0.281c-0.779,0-1.451-0.313-2-0.938c-0.551-0.625-0.83-1.495-0.83-2.61
	c0-1.146,0.27-2.015,0.801-2.608c0.539-0.594,1.219-0.892,2.039-0.892c0.75,0,1.4,0.313,1.961,0.938v-3.36h1.779V300.535
	L523.16,300.535z M518.41,297.019c0,0.72,0.1,1.24,0.289,1.563c0.291,0.468,0.691,0.703,1.211,0.703c0.4,0,0.75-0.176,1.039-0.524
	c0.301-0.349,0.441-0.872,0.441-1.57c0-0.771-0.141-1.327-0.42-1.672c-0.281-0.344-0.641-0.515-1.08-0.515
	c-0.42,0-0.771,0.169-1.051,0.507C518.55,295.85,518.41,296.353,518.41,297.019L518.41,297.019z"/>
<polygon fill="#FFCC99" points="240,235.89 306,235.89 306,259.89 240,259.89 240,235.89 "/>
<polygon fill="#FFFFDA" points="239,234.89 240,234.89 240,260.89 239,260.89 239,234.89 "/>
<polygon fill="#FFFFDA" points="240,234.89 306,234.89 306,235.89 240,235.89 240,234.89 "/>
<polygon fill="#B28E6B" points="240,259.89 307,259.89 307,260.89 240,260.89 240,259.89 "/>
<polygon fill="#B28E6B" points="306,234.89 307,234.89 307,259.89 306,259.89 306,234.89 "/>
<path d="M243.538,250.307l1.828-0.171c0.114,0.614,0.338,1.065,0.672,1.352c0.333,0.286,0.786,0.43,1.359,0.43
	c0.604,0,1.06-0.128,1.367-0.383c0.308-0.255,0.461-0.556,0.461-0.898c0-0.219-0.065-0.407-0.195-0.563
	c-0.13-0.156-0.357-0.292-0.68-0.406c-0.219-0.073-0.719-0.208-1.5-0.406c-1.01-0.25-1.719-0.558-2.125-0.922
	c-0.562-0.511-0.844-1.136-0.844-1.875c0-0.469,0.133-0.909,0.399-1.321c0.265-0.411,0.651-0.726,1.156-0.944
	c0.505-0.22,1.117-0.328,1.836-0.328c1.167,0,2.044,0.258,2.633,0.772c0.588,0.517,0.898,1.201,0.93,2.056l-1.875,0.078
	c-0.084-0.479-0.256-0.823-0.516-1.031c-0.261-0.208-0.656-0.313-1.188-0.313c-0.552,0-0.979,0.11-1.281,0.329
	c-0.198,0.146-0.297,0.338-0.297,0.578c0,0.218,0.089,0.406,0.266,0.563c0.239,0.209,0.818,0.42,1.734,0.633
	c0.917,0.214,1.594,0.435,2.032,0.664c0.437,0.229,0.778,0.544,1.023,0.944c0.245,0.401,0.367,0.899,0.367,1.493
	c0,0.531-0.148,1.028-0.445,1.492c-0.297,0.463-0.716,0.81-1.258,1.039c-0.542,0.229-1.214,0.344-2.016,0.344
	c-1.177,0-2.08-0.273-2.711-0.821C244.04,252.143,243.663,251.349,243.538,250.307L243.538,250.307z M260.177,252.151
	c0.459,0.334,0.959,0.599,1.5,0.797l-0.688,1.328c-0.281-0.084-0.557-0.203-0.828-0.359c-0.063-0.021-0.479-0.292-1.25-0.813
	c-0.615,0.262-1.292,0.392-2.032,0.392c-1.427,0-2.546-0.422-3.359-1.267c-0.812-0.843-1.219-2.025-1.219-3.547
	c0-1.52,0.407-2.703,1.219-3.546c0.813-0.844,1.917-1.266,3.313-1.266c1.375,0,2.466,0.422,3.273,1.266
	c0.807,0.843,1.211,2.026,1.211,3.546c0,0.804-0.109,1.511-0.328,2.125C260.822,251.276,260.552,251.724,260.177,252.151
	L260.177,252.151z M258.662,251.104c0.239-0.291,0.422-0.638,0.547-1.039c0.125-0.4,0.187-0.861,0.187-1.383
	c0-1.071-0.237-1.875-0.711-2.405c-0.474-0.531-1.096-0.798-1.867-0.798s-1.393,0.267-1.867,0.798
	c-0.474,0.53-0.711,1.334-0.711,2.405c0,1.095,0.237,1.909,0.711,2.446c0.474,0.536,1.075,0.804,1.804,0.804
	c0.271,0,0.532-0.041,0.782-0.125c-0.386-0.25-0.776-0.446-1.172-0.593l0.531-1.063
	C257.511,250.359,258.099,250.677,258.662,251.104L258.662,251.104z M262.852,253.339v-9.235h1.875v7.673h4.671v1.563H262.852
	L262.852,253.339z M270.729,245.682v-1.655h1.782v1.655H270.729L270.729,245.682z M270.729,253.339v-6.735h1.782v6.735H270.729
	L270.729,253.339z M277.435,246.604v1.423h-1.219v2.702c0,0.553,0.01,0.875,0.031,0.97c0.021,0.094,0.072,0.169,0.156,0.227
	c0.084,0.057,0.184,0.086,0.297,0.086c0.166,0,0.406-0.058,0.719-0.172l0.156,1.39c-0.416,0.178-0.885,0.267-1.406,0.267
	c-0.322,0-0.615-0.056-0.875-0.164c-0.26-0.109-0.451-0.25-0.57-0.422s-0.201-0.404-0.242-0.695
	c-0.041-0.209-0.063-0.625-0.063-1.25v-2.938h-0.813v-1.423h0.813v-1.343l1.797-1.047v2.39H277.435L277.435,246.604z
	 M282.576,251.198l1.768,0.297c-0.23,0.646-0.59,1.141-1.078,1.483c-0.49,0.345-1.105,0.517-1.844,0.517
	c-1.178,0-2.049-0.385-2.609-1.156c-0.449-0.615-0.672-1.386-0.672-2.313c0-1.125,0.293-2.002,0.883-2.633
	c0.588-0.63,1.324-0.944,2.209-0.944c1.012,0,1.805,0.331,2.383,0.991c0.578,0.662,0.854,1.676,0.822,3.039h-4.469
	c0.02,0.532,0.166,0.943,0.436,1.235c0.271,0.291,0.615,0.438,1.033,0.438c0.281,0,0.514-0.075,0.703-0.227
	C282.326,251.773,282.472,251.531,282.576,251.198L282.576,251.198z M282.671,249.386c-0.012-0.511-0.145-0.901-0.398-1.172
	c-0.256-0.271-0.566-0.407-0.93-0.407c-0.387,0-0.709,0.142-0.971,0.422c-0.25,0.292-0.375,0.678-0.375,1.157H282.671
	L282.671,249.386z M285.9,244.026h3.438c0.771,0,1.359,0.063,1.766,0.188c0.553,0.156,1.021,0.44,1.406,0.851
	c0.387,0.412,0.68,0.914,0.883,1.509c0.203,0.594,0.305,1.328,0.305,2.203c0,0.761-0.094,1.422-0.281,1.984
	c-0.229,0.677-0.563,1.225-1,1.641c-0.322,0.313-0.76,0.558-1.313,0.734c-0.416,0.135-0.973,0.203-1.672,0.203H285.9V244.026
	L285.9,244.026z M287.775,245.604v6.173h1.406c0.531,0,0.912-0.031,1.141-0.095c0.303-0.071,0.557-0.2,0.758-0.382
	c0.203-0.183,0.367-0.482,0.492-0.899c0.125-0.416,0.188-0.983,0.188-1.702c0-0.72-0.063-1.271-0.188-1.656
	c-0.125-0.386-0.301-0.688-0.529-0.906c-0.23-0.219-0.521-0.365-0.877-0.438c-0.26-0.063-0.775-0.095-1.547-0.095H287.775
	L287.775,245.604z M295.304,244.026h3.719c0.74,0,1.289,0.03,1.648,0.094c0.359,0.062,0.682,0.192,0.969,0.391
	s0.525,0.458,0.719,0.781s0.289,0.682,0.289,1.078c0,0.437-0.119,0.839-0.359,1.203c-0.238,0.364-0.557,0.641-0.953,0.828
	c0.563,0.155,0.998,0.435,1.305,0.836c0.307,0.4,0.461,0.866,0.461,1.398c0,0.427-0.098,0.841-0.297,1.242
	c-0.197,0.401-0.465,0.721-0.805,0.961c-0.338,0.239-0.758,0.385-1.258,0.438c-0.313,0.03-1.066,0.052-2.266,0.063h-3.172V244.026
	L295.304,244.026z M297.179,245.589v2.14h1.234c0.729,0,1.182-0.01,1.359-0.03c0.322-0.031,0.578-0.142,0.766-0.328
	c0.188-0.188,0.281-0.433,0.281-0.734c0-0.282-0.08-0.513-0.242-0.696c-0.16-0.182-0.398-0.288-0.711-0.319
	c-0.188-0.021-0.725-0.031-1.609-0.031H297.179L297.179,245.589z M297.179,249.275v2.501h1.75c0.678,0,1.104-0.021,1.281-0.063
	c0.281-0.052,0.51-0.177,0.688-0.375s0.266-0.459,0.266-0.782c0-0.28-0.068-0.52-0.203-0.718s-0.332-0.341-0.594-0.43
	c-0.26-0.088-0.816-0.134-1.672-0.134H297.179L297.179,249.275z"/>
<polygon fill="#FFCC99" points="50,190.89 101,190.89 101,214.89 50,214.89 50,190.89 "/>
<polygon fill="#FFFFDA" points="49,189.89 50,189.89 50,215.89 49,215.89 49,189.89 "/>
<polygon fill="#FFFFDA" points="50,189.89 101,189.89 101,190.89 50,190.89 50,189.89 "/>
<polygon fill="#B28E6B" points="50,214.89 102,214.89 102,215.89 50,215.89 50,214.89 "/>
<polygon fill="#B28E6B" points="101,189.89 102,189.89 102,214.89 101,214.89 101,189.89 "/>
<path d="M55.552,205.216l1.829-0.172c0.114,0.615,0.338,1.064,0.671,1.352c0.334,0.286,0.787,0.43,1.36,0.43
	c0.604,0,1.06-0.127,1.367-0.383c0.307-0.256,0.461-0.555,0.461-0.898c0-0.219-0.065-0.406-0.195-0.563
	c-0.131-0.156-0.357-0.292-0.68-0.406c-0.219-0.072-0.719-0.208-1.5-0.406c-1.01-0.25-1.719-0.557-2.125-0.922
	c-0.563-0.51-0.844-1.135-0.844-1.875c0-0.468,0.133-0.908,0.399-1.32c0.265-0.411,0.651-0.727,1.156-0.945
	c0.505-0.219,1.117-0.327,1.836-0.327c1.167,0,2.044,0.257,2.633,0.772c0.588,0.516,0.898,1.201,0.929,2.055l-1.875,0.078
	c-0.083-0.479-0.255-0.822-0.515-1.03c-0.261-0.209-0.657-0.313-1.188-0.313c-0.552,0-0.979,0.109-1.281,0.328
	c-0.198,0.146-0.297,0.339-0.297,0.578c0,0.219,0.089,0.407,0.266,0.563c0.239,0.208,0.817,0.419,1.734,0.633
	s1.594,0.436,2.031,0.664c0.438,0.229,0.779,0.545,1.024,0.945c0.245,0.401,0.367,0.898,0.367,1.492
	c0,0.531-0.148,1.029-0.445,1.492c-0.297,0.464-0.716,0.81-1.258,1.039s-1.214,0.344-2.016,0.344c-1.177,0-2.08-0.273-2.711-0.82
	C56.055,207.052,55.677,206.258,55.552,205.216L55.552,205.216z M72.191,207.06c0.458,0.333,0.958,0.6,1.5,0.797l-0.687,1.328
	c-0.282-0.083-0.558-0.203-0.828-0.359c-0.063-0.021-0.48-0.291-1.25-0.813c-0.615,0.26-1.292,0.392-2.032,0.392
	c-1.427,0-2.547-0.423-3.359-1.267c-0.813-0.844-1.219-2.025-1.219-3.547c0-1.521,0.406-2.703,1.219-3.547
	c0.812-0.844,1.917-1.265,3.312-1.265c1.375,0,2.467,0.421,3.274,1.265s1.211,2.026,1.211,3.547c0,0.802-0.11,1.511-0.328,2.125
	C72.837,206.185,72.566,206.633,72.191,207.06L72.191,207.06z M70.677,206.013c0.239-0.292,0.421-0.638,0.546-1.039
	c0.125-0.4,0.188-0.861,0.188-1.383c0-1.073-0.237-1.875-0.711-2.406c-0.474-0.53-1.096-0.797-1.867-0.797s-1.393,0.267-1.867,0.797
	c-0.474,0.531-0.711,1.333-0.711,2.406c0,1.094,0.237,1.909,0.711,2.445c0.474,0.537,1.075,0.805,1.804,0.805
	c0.271,0,0.532-0.042,0.782-0.125c-0.386-0.25-0.777-0.448-1.172-0.594l0.531-1.063C69.524,205.268,70.114,205.586,70.677,206.013
	L70.677,206.013z M74.866,208.247v-9.234h1.875v7.672h4.672v1.563H74.866L74.866,208.247z M82.745,208.247v-9.313h1.781v9.313
	H82.745L82.745,208.247z M86.356,200.591v-1.656h1.781v1.656H86.356L86.356,200.591z M86.356,208.247v-6.734h1.781v6.734H86.356
	L86.356,208.247z M89.89,208.247v-9.313h1.782v3.359c0.552-0.625,1.203-0.938,1.953-0.938c0.823,0,1.502,0.298,2.039,0.891
	c0.536,0.594,0.805,1.448,0.805,2.563c0,1.146-0.274,2.031-0.821,2.656s-1.211,0.938-1.992,0.938c-0.385,0-0.766-0.098-1.141-0.289
	c-0.375-0.193-0.698-0.478-0.968-0.853v0.984H89.89L89.89,208.247z M91.656,204.731c0,0.698,0.109,1.214,0.328,1.548
	c0.313,0.479,0.724,0.718,1.235,0.718c0.395,0,0.731-0.169,1.007-0.507c0.276-0.339,0.414-0.873,0.414-1.603
	c0-0.76-0.138-1.313-0.414-1.656s-0.632-0.516-1.07-0.516c-0.427,0-0.784,0.167-1.07,0.5
	C91.798,203.549,91.656,204.055,91.656,204.731L91.656,204.731z"/>
<polygon fill="#FFCC99" points="50,282.89 101,282.89 101,306.89 50,306.89 50,282.89 "/>
<polygon fill="#FFFFDA" points="49,281.89 50,281.89 50,307.89 49,307.89 49,281.89 "/>
<polygon fill="#FFFFDA" points="50,281.89 101,281.89 101,282.89 50,282.89 50,281.89 "/>
<polygon fill="#B28E6B" points="50,306.89 102,306.89 102,307.89 50,307.89 50,306.89 "/>
<polygon fill="#B28E6B" points="101,281.89 102,281.89 102,306.89 101,306.89 101,281.89 "/>
<path d="M63.345,300.535h-2.047l-0.812-2.11h-3.719L56,300.535h-2l3.625-9.313h1.985L63.345,300.535L63.345,300.535z
	 M59.875,296.847l-1.281-3.453l-1.25,3.453H59.875L59.875,296.847z M64.327,291.222h3.438c0.77,0,1.359,0.063,1.765,0.188
	c0.552,0.155,1.021,0.439,1.407,0.851c0.385,0.412,0.679,0.914,0.882,1.508c0.203,0.595,0.305,1.328,0.305,2.203
	c0,0.762-0.094,1.422-0.281,1.985c-0.229,0.677-0.563,1.224-1,1.64c-0.323,0.313-0.761,0.559-1.313,0.735
	c-0.416,0.135-0.974,0.203-1.672,0.203h-3.531V291.222L64.327,291.222z M66.202,292.8v6.172h1.406c0.532,0,0.912-0.031,1.141-0.093
	c0.302-0.073,0.555-0.201,0.758-0.383c0.203-0.184,0.367-0.482,0.492-0.899c0.125-0.416,0.188-0.983,0.188-1.703
	c0-0.719-0.063-1.271-0.188-1.655c-0.125-0.386-0.302-0.688-0.531-0.906c-0.229-0.219-0.521-0.365-0.875-0.438
	c-0.261-0.062-0.776-0.094-1.547-0.094H66.202L66.202,292.8z M73.339,295.94c0-0.947,0.141-1.744,0.422-2.391
	c0.219-0.468,0.511-0.893,0.875-1.272c0.365-0.381,0.766-0.659,1.203-0.837c0.573-0.25,1.24-0.375,2-0.375
	c1.375,0,2.474,0.428,3.297,1.281c0.823,0.855,1.235,2.037,1.235,3.547c0,1.5-0.409,2.676-1.227,3.524s-1.909,1.273-3.273,1.273
	c-1.386,0-2.487-0.423-3.305-1.267C73.749,298.582,73.339,297.42,73.339,295.94L73.339,295.94z M75.277,295.879
	c0,1.052,0.245,1.849,0.734,2.39c0.49,0.542,1.104,0.813,1.844,0.813c0.75,0,1.367-0.27,1.852-0.805
	c0.484-0.536,0.726-1.347,0.726-2.431c0-1.062-0.234-1.855-0.703-2.382c-0.469-0.527-1.094-0.79-1.875-0.79
	c-0.771,0-1.393,0.266-1.867,0.797C75.515,294.004,75.277,294.806,75.277,295.879L75.277,295.879z M83.827,300.535v-9.313h1.781
	v9.313H83.827L83.827,300.535z M87.438,292.879v-1.657h1.781v1.657H87.438L87.438,292.879z M87.438,300.535V293.8h1.781v6.735
	H87.438L87.438,300.535z M90.973,300.535v-9.313h1.781v3.36c0.552-0.625,1.203-0.938,1.953-0.938c0.823,0,1.503,0.298,2.039,0.892
	c0.537,0.594,0.805,1.448,0.805,2.562c0,1.146-0.274,2.032-0.821,2.657c-0.546,0.625-1.21,0.938-1.992,0.938
	c-0.385,0-0.765-0.097-1.14-0.289c-0.375-0.193-0.698-0.478-0.969-0.853v0.985H90.973L90.973,300.535z M92.737,297.019
	c0,0.698,0.11,1.215,0.328,1.547c0.313,0.479,0.724,0.72,1.235,0.72c0.396,0,0.732-0.169,1.008-0.508
	c0.276-0.34,0.414-0.872,0.414-1.603c0-0.76-0.138-1.312-0.414-1.656c-0.276-0.344-0.633-0.515-1.071-0.515
	c-0.427,0-0.784,0.166-1.07,0.5C92.881,295.837,92.737,296.342,92.737,297.019L92.737,297.019z"/>
<polygon fill="#BFFFBF" points="398,190.89 534,190.89 534,214.89 398,214.89 398,190.89 "/>
<polygon fill="#FFFFFF" points="397,189.89 398,189.89 398,215.89 397,215.89 397,189.89 "/>
<polygon fill="#FFFFFF" points="398,189.89 534,189.89 534,190.89 398,190.89 398,189.89 "/>
<polygon fill="#85B285" points="398,214.89 535,214.89 535,215.89 398,215.89 398,214.89 "/>
<polygon fill="#85B285" points="534,189.89 535,189.89 535,214.89 534,214.89 534,189.89 "/>
<path d="M414.529,208.247h-2.047l-0.813-2.109h-3.719l-0.766,2.109h-2l3.625-9.313h1.984L414.529,208.247L414.529,208.247z
	 M411.06,204.56l-1.281-3.453l-1.25,3.453H411.06L411.06,204.56z M415.511,198.935h3.438c0.771,0,1.359,0.063,1.766,0.188
	c0.553,0.157,1.021,0.439,1.406,0.852c0.387,0.411,0.68,0.914,0.883,1.508s0.305,1.328,0.305,2.203c0,0.761-0.094,1.422-0.281,1.984
	c-0.229,0.677-0.563,1.224-1,1.641c-0.324,0.313-0.76,0.558-1.313,0.734c-0.416,0.136-0.975,0.203-1.672,0.203h-3.531V198.935
	L415.511,198.935z M417.386,200.513v6.172h1.406c0.531,0,0.91-0.03,1.141-0.094c0.303-0.073,0.555-0.2,0.758-0.383
	c0.203-0.182,0.367-0.481,0.492-0.898s0.188-0.984,0.188-1.703s-0.063-1.271-0.188-1.656s-0.301-0.688-0.531-0.906
	c-0.229-0.219-0.52-0.364-0.875-0.438c-0.26-0.063-0.777-0.094-1.547-0.094H417.386L417.386,200.513z M424.525,203.654
	c0-0.948,0.141-1.745,0.422-2.392c0.219-0.469,0.51-0.893,0.875-1.272c0.363-0.382,0.766-0.659,1.203-0.836
	c0.572-0.25,1.238-0.375,2-0.375c1.375,0,2.473,0.427,3.297,1.28c0.822,0.854,1.234,2.036,1.234,3.547c0,1.5-0.41,2.675-1.227,3.523
	c-0.818,0.849-1.908,1.274-3.273,1.274c-1.385,0-2.488-0.423-3.307-1.267C424.933,206.294,424.525,205.133,424.525,203.654
	L424.525,203.654z M426.462,203.591c0,1.052,0.244,1.849,0.734,2.391c0.488,0.541,1.104,0.813,1.844,0.813
	c0.75,0,1.367-0.268,1.852-0.804c0.482-0.537,0.727-1.348,0.727-2.431c0-1.063-0.234-1.856-0.703-2.383
	c-0.469-0.525-1.094-0.789-1.875-0.789c-0.771,0-1.395,0.267-1.867,0.797C426.699,201.716,426.462,202.518,426.462,203.591
	L426.462,203.591z M435.011,198.935h3.438c0.771,0,1.359,0.063,1.766,0.188c0.553,0.157,1.021,0.439,1.406,0.852
	c0.387,0.411,0.68,0.914,0.883,1.508s0.305,1.328,0.305,2.203c0,0.761-0.094,1.422-0.281,1.984c-0.229,0.677-0.563,1.224-1,1.641
	c-0.324,0.313-0.76,0.558-1.313,0.734c-0.416,0.136-0.975,0.203-1.672,0.203h-3.531V198.935L435.011,198.935z M436.886,200.513
	v6.172h1.406c0.531,0,0.91-0.03,1.141-0.094c0.303-0.073,0.555-0.2,0.758-0.383c0.203-0.182,0.367-0.481,0.492-0.898
	s0.188-0.984,0.188-1.703s-0.063-1.271-0.188-1.656s-0.301-0.688-0.531-0.906c-0.229-0.219-0.52-0.364-0.875-0.438
	c-0.26-0.063-0.777-0.094-1.547-0.094H436.886L436.886,200.513z M444.416,198.935h3.719c0.74,0,1.289,0.031,1.648,0.095
	c0.359,0.062,0.682,0.191,0.967,0.39c0.287,0.198,0.527,0.459,0.721,0.781c0.191,0.322,0.289,0.683,0.289,1.079
	c0,0.437-0.121,0.838-0.359,1.202c-0.24,0.364-0.557,0.641-0.953,0.828c0.563,0.156,0.996,0.436,1.305,0.836
	c0.307,0.401,0.461,0.867,0.461,1.398c0,0.427-0.1,0.841-0.297,1.242c-0.197,0.4-0.467,0.722-0.805,0.961
	c-0.34,0.24-0.758,0.386-1.258,0.438c-0.313,0.031-1.068,0.053-2.266,0.063h-3.172V198.935L444.416,198.935z M446.291,200.497v2.141
	h1.234c0.729,0,1.182-0.01,1.359-0.031c0.322-0.031,0.578-0.141,0.766-0.327c0.188-0.188,0.281-0.434,0.281-0.735
	c0-0.281-0.082-0.513-0.242-0.695c-0.162-0.182-0.398-0.289-0.711-0.319c-0.188-0.021-0.725-0.032-1.609-0.032H446.291
	L446.291,200.497z M446.291,204.185v2.5h1.75c0.678,0,1.104-0.021,1.281-0.063c0.281-0.052,0.51-0.177,0.688-0.375
	c0.176-0.198,0.266-0.458,0.266-0.781c0-0.281-0.068-0.521-0.203-0.719c-0.137-0.198-0.334-0.341-0.594-0.43
	s-0.818-0.133-1.672-0.133H446.291L446.291,204.185z M453.787,208.247v-1.781h1.781v1.781H453.787L453.787,208.247z
	 M463.369,204.825l1.811,0.579c-0.279,1.01-0.74,1.763-1.391,2.257c-0.648,0.495-1.469,0.743-2.469,0.743
	c-1.24,0-2.26-0.423-3.053-1.267c-0.797-0.844-1.195-2-1.195-3.469c0-1.541,0.4-2.742,1.203-3.602
	c0.805-0.859,1.855-1.288,3.154-1.288c1.141,0,2.061,0.338,2.781,1.015c0.42,0.396,0.738,0.969,0.959,1.719l-1.859,0.438
	c-0.121-0.479-0.35-0.859-0.701-1.141c-0.35-0.28-0.77-0.422-1.27-0.422c-0.689,0-1.25,0.247-1.68,0.742s-0.65,1.3-0.65,2.414
	c0,1.167,0.211,2,0.641,2.5s0.98,0.75,1.66,0.75c0.5,0,0.93-0.159,1.289-0.477C462.949,206,463.21,205.503,463.369,204.825
	L463.369,204.825z M466.369,204.779c0-0.595,0.141-1.167,0.432-1.72c0.299-0.552,0.709-0.974,1.25-1.266
	c0.529-0.291,1.129-0.438,1.799-0.438c1.01,0,1.84,0.33,2.5,0.992c0.66,0.661,0.98,1.497,0.98,2.508c0,1.021-0.33,1.867-0.99,2.539
	s-1.49,1.009-2.49,1.009c-0.609,0-1.199-0.142-1.77-0.423c-0.561-0.281-0.98-0.689-1.279-1.227
	C466.509,206.219,466.369,205.56,466.369,204.779L466.369,204.779z M468.189,204.872c0,0.667,0.16,1.18,0.48,1.539
	s0.711,0.539,1.18,0.539c0.471,0,0.861-0.18,1.17-0.539c0.311-0.359,0.471-0.877,0.471-1.555c0-0.656-0.16-1.161-0.471-1.516
	c-0.309-0.354-0.699-0.531-1.17-0.531c-0.469,0-0.859,0.178-1.18,0.531C468.349,203.695,468.189,204.206,468.189,204.872
	L468.189,204.872z M480.849,208.247h-1.779v-3.438c0-0.729-0.041-1.201-0.109-1.414c-0.08-0.214-0.211-0.38-0.381-0.5
	c-0.17-0.119-0.381-0.18-0.619-0.18c-0.301,0-0.57,0.086-0.82,0.258c-0.24,0.172-0.41,0.396-0.5,0.672
	c-0.102,0.276-0.15,0.794-0.15,1.555v3.047h-1.779v-6.734h1.658v0.984c0.58-0.76,1.32-1.141,2.221-1.141
	c0.391,0,0.75,0.07,1.08,0.211c0.32,0.141,0.57,0.32,0.74,0.539s0.289,0.469,0.35,0.75s0.09,0.683,0.09,1.203V208.247
	L480.849,208.247z M488.789,208.247h-1.779v-3.438c0-0.729-0.039-1.201-0.109-1.414c-0.08-0.214-0.211-0.38-0.381-0.5
	c-0.17-0.119-0.379-0.18-0.619-0.18c-0.301,0-0.57,0.086-0.82,0.258c-0.24,0.172-0.41,0.396-0.5,0.672
	c-0.1,0.276-0.141,0.794-0.141,1.555v3.047h-1.789v-6.734h1.66v0.984c0.58-0.76,1.32-1.141,2.219-1.141c0.4,0,0.75,0.07,1.08,0.211
	c0.32,0.141,0.57,0.32,0.74,0.539s0.291,0.469,0.35,0.75c0.061,0.281,0.09,0.683,0.09,1.203V208.247L488.789,208.247z
	 M494.519,206.106l1.76,0.298c-0.229,0.645-0.59,1.14-1.08,1.483c-0.479,0.344-1.1,0.517-1.84,0.517
	c-1.18,0-2.049-0.387-2.609-1.157c-0.449-0.614-0.67-1.385-0.67-2.313c0-1.125,0.289-2.003,0.879-2.633
	c0.592-0.63,1.33-0.945,2.211-0.945c1.01,0,1.811,0.33,2.391,0.992c0.57,0.661,0.85,1.674,0.82,3.039h-4.471
	c0.02,0.531,0.16,0.943,0.439,1.234c0.27,0.292,0.611,0.438,1.031,0.438c0.279,0,0.51-0.076,0.699-0.227
	C494.269,206.682,494.41,206.439,494.519,206.106L494.519,206.106z M494.609,204.294c-0.01-0.51-0.139-0.901-0.4-1.172
	c-0.25-0.271-0.559-0.406-0.93-0.406c-0.379,0-0.709,0.141-0.969,0.422c-0.25,0.292-0.371,0.677-0.371,1.156H494.609
	L494.609,204.294z M503.72,203.497l-1.771,0.313c-0.049-0.344-0.18-0.604-0.398-0.78c-0.211-0.178-0.49-0.267-0.82-0.267
	c-0.439,0-0.791,0.151-1.051,0.453c-0.27,0.302-0.4,0.818-0.4,1.547c0,0.792,0.131,1.354,0.4,1.688c0.279,0.334,0.631,0.5,1.08,0.5
	c0.35,0,0.631-0.097,0.84-0.289c0.211-0.192,0.361-0.523,0.439-0.992l1.771,0.297c-0.191,0.802-0.541,1.409-1.061,1.82
	c-0.51,0.412-1.199,0.618-2.07,0.618c-0.99,0-1.77-0.313-2.35-0.938c-0.59-0.625-0.881-1.484-0.881-2.578
	c0-1.115,0.291-1.981,0.881-2.602c0.58-0.619,1.381-0.93,2.391-0.93c0.818,0,1.469,0.178,1.959,0.531
	C503.16,202.242,503.509,202.779,503.72,203.497L503.72,203.497z M508.16,201.513v1.422h-1.211v2.703
	c0,0.552,0.01,0.875,0.031,0.969c0.02,0.094,0.07,0.17,0.15,0.227c0.09,0.058,0.189,0.086,0.299,0.086
	c0.17,0,0.41-0.057,0.721-0.172l0.16,1.391c-0.42,0.177-0.891,0.267-1.41,0.267c-0.32,0-0.621-0.056-0.881-0.164
	c-0.26-0.11-0.449-0.25-0.57-0.423c-0.119-0.172-0.199-0.403-0.24-0.695c-0.039-0.208-0.059-0.625-0.059-1.25v-2.938h-0.811v-1.422
	h0.811v-1.344l1.799-1.047v2.391H508.16L508.16,201.513z M509.4,200.591v-1.656h1.779v1.656H509.4L509.4,200.591z M509.4,208.247
	v-6.734h1.779v6.734H509.4L509.4,208.247z M512.589,204.779c0-0.595,0.15-1.167,0.439-1.72c0.291-0.552,0.701-0.974,1.24-1.266
	c0.541-0.291,1.141-0.438,1.801-0.438c1.01,0,1.85,0.33,2.5,0.992c0.66,0.661,0.99,1.497,0.99,2.508c0,1.021-0.33,1.867-0.99,2.539
	c-0.67,0.672-1.5,1.009-2.5,1.009c-0.609,0-1.201-0.142-1.76-0.423c-0.561-0.281-0.99-0.689-1.281-1.227
	C512.74,206.219,512.589,205.56,512.589,204.779L512.589,204.779z M514.419,204.872c0,0.667,0.16,1.18,0.471,1.539
	c0.318,0.359,0.719,0.539,1.18,0.539c0.469,0,0.859-0.18,1.18-0.539c0.311-0.359,0.461-0.877,0.461-1.555
	c0-0.656-0.15-1.161-0.461-1.516c-0.32-0.354-0.711-0.531-1.18-0.531c-0.461,0-0.861,0.178-1.18,0.531
	C514.58,203.695,514.419,204.206,514.419,204.872L514.419,204.872z M527.08,208.247H525.3v-3.438c0-0.729-0.041-1.201-0.121-1.414
	c-0.08-0.214-0.199-0.38-0.379-0.5c-0.17-0.119-0.371-0.18-0.611-0.18c-0.309,0-0.58,0.086-0.82,0.258
	c-0.25,0.172-0.42,0.396-0.51,0.672c-0.09,0.276-0.139,0.794-0.139,1.555v3.047h-1.781v-6.734h1.65v0.984
	c0.59-0.76,1.33-1.141,2.221-1.141c0.4,0,0.76,0.07,1.08,0.211c0.318,0.141,0.568,0.32,0.74,0.539c0.17,0.219,0.289,0.469,0.35,0.75
	c0.07,0.281,0.1,0.683,0.1,1.203V208.247L527.08,208.247z"/>
<polygon fill="#FFCC99" points="214,154.89 331,154.89 331,178.89 214,178.89 214,154.89 "/>
<polygon fill="#FFFFDA" points="213,153.89 214,153.89 214,179.89 213,179.89 213,153.89 "/>
<polygon fill="#FFFFDA" points="214,153.89 331,153.89 331,154.89 214,154.89 214,153.89 "/>
<polygon fill="#B28E6B" points="214,178.89 332,178.89 332,179.89 214,179.89 214,178.89 "/>
<polygon fill="#B28E6B" points="331,153.89 332,153.89 332,178.89 331,178.89 331,153.89 "/>
<path d="M218.987,169.216l1.828-0.172c0.115,0.615,0.339,1.065,0.672,1.352c0.333,0.286,0.787,0.429,1.359,0.429
	c0.605,0,1.06-0.127,1.368-0.382c0.307-0.256,0.461-0.555,0.461-0.899c0-0.219-0.066-0.406-0.196-0.562
	c-0.13-0.157-0.356-0.292-0.679-0.407c-0.219-0.072-0.719-0.208-1.5-0.406c-1.011-0.25-1.719-0.557-2.125-0.922
	c-0.563-0.51-0.844-1.135-0.844-1.875c0-0.468,0.133-0.909,0.398-1.32c0.266-0.411,0.651-0.727,1.157-0.945
	c0.505-0.219,1.117-0.328,1.835-0.328c1.167,0,2.045,0.257,2.633,0.773c0.589,0.516,0.899,1.201,0.93,2.055l-1.875,0.078
	c-0.083-0.479-0.255-0.823-0.516-1.031c-0.26-0.209-0.656-0.313-1.187-0.313c-0.552,0-0.979,0.109-1.281,0.328
	c-0.198,0.146-0.297,0.339-0.297,0.578c0,0.219,0.088,0.407,0.265,0.563c0.24,0.208,0.818,0.419,1.735,0.633
	c0.916,0.213,1.593,0.435,2.031,0.664c0.437,0.229,0.779,0.544,1.023,0.945c0.245,0.401,0.368,0.898,0.368,1.492
	c0,0.531-0.149,1.029-0.446,1.492c-0.297,0.464-0.716,0.81-1.258,1.039c-0.541,0.23-1.213,0.344-2.015,0.344
	c-1.177,0-2.081-0.273-2.711-0.82C219.491,171.052,219.112,170.258,218.987,169.216L218.987,169.216z M235.627,171.06
	c0.458,0.333,0.958,0.599,1.5,0.797l-0.688,1.328c-0.281-0.084-0.557-0.203-0.828-0.36c-0.062-0.02-0.479-0.291-1.25-0.812
	c-0.614,0.26-1.292,0.391-2.031,0.391c-1.427,0-2.547-0.422-3.36-1.266c-0.812-0.844-1.218-2.026-1.218-3.547
	s0.406-2.703,1.218-3.547c0.813-0.844,1.917-1.265,3.313-1.265c1.375,0,2.466,0.421,3.273,1.265
	c0.808,0.844,1.211,2.026,1.211,3.547c0,0.802-0.109,1.51-0.328,2.125C236.273,170.185,236.002,170.633,235.627,171.06
	L235.627,171.06z M234.111,170.013c0.24-0.292,0.422-0.638,0.547-1.039c0.125-0.401,0.187-0.862,0.187-1.383
	c0-1.073-0.236-1.875-0.71-2.406c-0.474-0.531-1.097-0.797-1.868-0.797c-0.77,0-1.393,0.266-1.867,0.797
	c-0.474,0.531-0.711,1.333-0.711,2.406c0,1.094,0.237,1.909,0.711,2.445c0.474,0.537,1.076,0.805,1.805,0.805
	c0.271,0,0.531-0.042,0.781-0.125c-0.385-0.25-0.776-0.448-1.172-0.594l0.531-1.062C232.96,169.268,233.549,169.586,234.111,170.013
	L234.111,170.013z M238.302,172.247v-9.234h1.875v7.672h4.672v1.562H238.302L238.302,172.247z M246.18,164.591v-1.656h1.782v1.656
	H246.18L246.18,164.591z M246.18,172.247v-6.734h1.782v6.734H246.18L246.18,172.247z M252.886,165.513v1.422h-1.219v2.703
	c0,0.552,0.011,0.875,0.032,0.969c0.02,0.093,0.072,0.169,0.156,0.226c0.083,0.058,0.182,0.086,0.297,0.086
	c0.166,0,0.406-0.057,0.718-0.172l0.157,1.391c-0.417,0.177-0.886,0.266-1.407,0.266c-0.322,0-0.614-0.055-0.875-0.164
	c-0.26-0.11-0.45-0.25-0.57-0.422c-0.12-0.172-0.2-0.404-0.242-0.696c-0.042-0.208-0.063-0.625-0.063-1.25v-2.937h-0.812v-1.422
	h0.812v-1.344l1.797-1.047v2.391H252.886L252.886,165.513z M258.027,170.107l1.765,0.297c-0.229,0.645-0.588,1.14-1.078,1.484
	c-0.489,0.344-1.104,0.516-1.844,0.516c-1.177,0-2.046-0.386-2.609-1.157c-0.448-0.614-0.672-1.385-0.672-2.312
	c0-1.125,0.294-2.003,0.883-2.633c0.589-0.63,1.325-0.945,2.211-0.945c1.01,0,1.805,0.33,2.383,0.992
	c0.578,0.661,0.851,1.674,0.82,3.039h-4.469c0.021,0.531,0.167,0.943,0.438,1.234c0.271,0.292,0.614,0.438,1.031,0.438
	c0.281,0,0.516-0.076,0.703-0.227C257.777,170.682,257.922,170.44,258.027,170.107L258.027,170.107z M258.121,168.294
	c-0.01-0.51-0.143-0.901-0.398-1.172s-0.565-0.406-0.93-0.406c-0.385,0-0.708,0.141-0.968,0.422
	c-0.25,0.292-0.375,0.677-0.375,1.156H258.121L258.121,168.294z M260.882,169.216l1.828-0.172c0.114,0.615,0.338,1.065,0.672,1.352
	c0.333,0.286,0.786,0.429,1.359,0.429c0.604,0,1.06-0.127,1.367-0.382c0.307-0.256,0.461-0.555,0.461-0.899
	c0-0.219-0.065-0.406-0.195-0.562c-0.13-0.157-0.357-0.292-0.68-0.407c-0.219-0.072-0.719-0.208-1.5-0.406
	c-1.01-0.25-1.719-0.557-2.125-0.922c-0.562-0.51-0.844-1.135-0.844-1.875c0-0.468,0.133-0.909,0.399-1.32
	c0.265-0.411,0.651-0.727,1.156-0.945c0.505-0.219,1.117-0.328,1.836-0.328c1.167,0,2.044,0.257,2.633,0.773
	c0.588,0.516,0.898,1.201,0.93,2.055l-1.875,0.078c-0.084-0.479-0.256-0.823-0.516-1.031c-0.261-0.209-0.656-0.313-1.188-0.313
	c-0.552,0-0.979,0.109-1.281,0.328c-0.198,0.146-0.297,0.339-0.297,0.578c0,0.219,0.089,0.407,0.266,0.563
	c0.239,0.208,0.818,0.419,1.734,0.633c0.917,0.213,1.594,0.435,2.032,0.664c0.437,0.229,0.778,0.544,1.023,0.945
	c0.245,0.401,0.367,0.898,0.367,1.492c0,0.531-0.148,1.029-0.445,1.492c-0.297,0.464-0.716,0.81-1.258,1.039
	c-0.542,0.23-1.214,0.344-2.016,0.344c-1.177,0-2.08-0.273-2.711-0.82C261.385,171.052,261.007,170.258,260.882,169.216
	L260.882,169.216z M277.521,171.06c0.459,0.333,0.959,0.599,1.5,0.797l-0.686,1.328c-0.281-0.084-0.559-0.203-0.828-0.36
	c-0.064-0.02-0.48-0.291-1.25-0.812c-0.615,0.26-1.293,0.391-2.033,0.391c-1.426,0-2.546-0.422-3.358-1.266
	c-0.812-0.844-1.219-2.026-1.219-3.547s0.407-2.703,1.219-3.547c0.813-0.844,1.917-1.265,3.313-1.265
	c1.375,0,2.465,0.421,3.271,1.265c0.809,0.844,1.211,2.026,1.211,3.547c0,0.802-0.107,1.51-0.326,2.125
	C278.167,170.185,277.896,170.633,277.521,171.06L277.521,171.06z M276.007,170.013c0.238-0.292,0.422-0.638,0.547-1.039
	c0.125-0.401,0.186-0.862,0.186-1.383c0-1.073-0.236-1.875-0.711-2.406c-0.473-0.531-1.096-0.797-1.867-0.797
	c-0.77,0-1.393,0.266-1.865,0.797c-0.476,0.531-0.712,1.333-0.712,2.406c0,1.094,0.236,1.909,0.712,2.445
	c0.473,0.537,1.074,0.805,1.803,0.805c0.271,0,0.533-0.042,0.783-0.125c-0.387-0.25-0.777-0.448-1.172-0.594l0.529-1.062
	C274.855,169.268,275.443,169.586,276.007,170.013L276.007,170.013z M280.197,172.247v-9.234h1.875v7.672h4.67v1.562H280.197
	L280.197,172.247z M288.074,162.935h3.439c0.77,0,1.357,0.062,1.764,0.187c0.553,0.157,1.021,0.44,1.406,0.852
	c0.387,0.411,0.68,0.914,0.883,1.508c0.203,0.593,0.305,1.328,0.305,2.203c0,0.76-0.094,1.422-0.279,1.984
	c-0.23,0.677-0.564,1.224-1,1.641c-0.324,0.312-0.762,0.557-1.314,0.734c-0.416,0.136-0.973,0.203-1.672,0.203h-3.531V162.935
	L288.074,162.935z M289.949,164.513v6.172h1.406c0.533,0,0.912-0.031,1.141-0.094c0.303-0.073,0.557-0.2,0.76-0.383
	c0.201-0.182,0.365-0.482,0.49-0.898c0.125-0.417,0.188-0.985,0.188-1.703c0-0.719-0.063-1.271-0.188-1.657
	c-0.125-0.385-0.301-0.687-0.529-0.906c-0.23-0.219-0.521-0.364-0.875-0.437c-0.262-0.063-0.777-0.094-1.547-0.094H289.949
	L289.949,164.513z M297.384,172.247v-9.312h1.781v3.359c0.553-0.625,1.203-0.937,1.953-0.937c0.822,0,1.502,0.297,2.039,0.89
	c0.537,0.594,0.805,1.448,0.805,2.563c0,1.146-0.273,2.031-0.82,2.656s-1.211,0.938-1.992,0.938c-0.385,0-0.766-0.097-1.141-0.289
	c-0.375-0.193-0.697-0.477-0.969-0.852v0.984H297.384L297.384,172.247z M299.15,168.732c0,0.698,0.109,1.213,0.328,1.547
	c0.313,0.479,0.725,0.718,1.234,0.718c0.396,0,0.732-0.169,1.008-0.507c0.275-0.339,0.414-0.873,0.414-1.602
	c0-0.76-0.139-1.313-0.414-1.656c-0.275-0.344-0.633-0.516-1.07-0.516c-0.426,0-0.783,0.167-1.07,0.5
	C299.294,167.549,299.15,168.055,299.15,168.732L299.15,168.732z M305.357,172.247v-9.312h1.875v9.312H305.357L305.357,172.247z
	 M315.14,172.247h-1.781v-3.437c0-0.729-0.039-1.201-0.117-1.414c-0.078-0.214-0.203-0.38-0.375-0.5s-0.377-0.18-0.617-0.18
	c-0.303,0-0.574,0.086-0.82,0.258c-0.244,0.172-0.414,0.396-0.508,0.672s-0.141,0.794-0.141,1.554v3.047H309v-6.734h1.656v0.984
	c0.584-0.76,1.322-1.14,2.219-1.14c0.396,0,0.756,0.07,1.078,0.211c0.322,0.14,0.57,0.32,0.742,0.539
	c0.172,0.218,0.289,0.468,0.352,0.75c0.063,0.281,0.094,0.682,0.094,1.203V172.247L315.14,172.247z M316.175,165.513h0.984v-0.516
	c0-0.562,0.061-0.984,0.18-1.265c0.119-0.282,0.342-0.511,0.664-0.688c0.322-0.177,0.734-0.265,1.234-0.265
	c0.51,0,1.004,0.078,1.484,0.234l-0.234,1.25c-0.281-0.073-0.553-0.109-0.813-0.109c-0.262,0-0.447,0.059-0.563,0.179
	s-0.172,0.352-0.172,0.696v0.484h1.344v1.391h-1.344v5.343h-1.781v-5.343h-0.984V165.513L316.175,165.513z M320.863,168.779
	c0-0.594,0.146-1.167,0.439-1.719c0.291-0.552,0.705-0.974,1.242-1.266c0.535-0.291,1.137-0.437,1.803-0.437
	c1.012,0,1.844,0.33,2.5,0.992c0.658,0.661,0.986,1.497,0.986,2.508c0,1.021-0.332,1.867-0.992,2.539
	c-0.662,0.672-1.494,1.008-2.494,1.008c-0.613,0-1.203-0.141-1.764-0.422c-0.564-0.282-0.99-0.69-1.281-1.227
	C321.009,170.219,320.863,169.56,320.863,168.779L320.863,168.779z M322.691,168.872c0,0.667,0.16,1.18,0.479,1.539
	c0.316,0.36,0.711,0.539,1.178,0.539c0.469,0,0.861-0.179,1.172-0.539c0.313-0.359,0.469-0.877,0.469-1.554
	c0-0.657-0.156-1.162-0.469-1.516c-0.311-0.354-0.703-0.531-1.172-0.531c-0.467,0-0.861,0.177-1.178,0.531
	C322.851,167.695,322.691,168.206,322.691,168.872L322.691,168.872z"/>
<polygon fill="#FFCC99" points="199,73.89 347,73.89 347,97.89 199,97.89 199,73.89 "/>
<polygon fill="#FFFFDA" points="198,72.89 199,72.89 199,98.89 198,98.89 198,72.89 "/>
<polygon fill="#FFFFDA" points="199,72.89 347,72.89 347,73.89 199,73.89 199,72.89 "/>
<polygon fill="#B28E6B" points="199,97.89 348,97.89 348,98.89 199,98.89 199,97.89 "/>
<polygon fill="#B28E6B" points="347,72.89 348,72.89 348,97.89 347,97.89 347,72.89 "/>
<path d="M205.984,88.125l1.828-0.172c0.115,0.614,0.339,1.065,0.672,1.351c0.333,0.287,0.786,0.43,1.359,0.43
	c0.604,0,1.06-0.128,1.367-0.383c0.308-0.255,0.461-0.554,0.461-0.898c0-0.219-0.065-0.406-0.195-0.563
	c-0.13-0.156-0.357-0.291-0.68-0.406c-0.218-0.073-0.718-0.208-1.5-0.406c-1.01-0.25-1.718-0.557-2.125-0.922
	c-0.562-0.51-0.843-1.135-0.843-1.875c0-0.469,0.132-0.909,0.398-1.32c0.266-0.412,0.651-0.727,1.156-0.946
	c0.506-0.218,1.118-0.328,1.836-0.328c1.167,0,2.045,0.258,2.633,0.774c0.589,0.515,0.899,1.2,0.93,2.054l-1.875,0.078
	c-0.084-0.479-0.255-0.822-0.516-1.031c-0.26-0.208-0.656-0.312-1.187-0.312c-0.552,0-0.979,0.109-1.282,0.328
	c-0.197,0.146-0.296,0.338-0.296,0.578c0,0.219,0.088,0.406,0.265,0.562c0.24,0.209,0.818,0.42,1.735,0.633
	c0.916,0.214,1.593,0.435,2.031,0.664c0.437,0.23,0.778,0.545,1.023,0.946c0.245,0.401,0.367,0.898,0.367,1.492
	c0,0.531-0.148,1.028-0.445,1.492c-0.297,0.464-0.716,0.81-1.258,1.039c-0.541,0.229-1.213,0.344-2.015,0.344
	c-1.177,0-2.081-0.274-2.711-0.82C206.487,89.961,206.109,89.166,205.984,88.125L205.984,88.125z M222.625,89.968
	c0.458,0.334,0.958,0.599,1.5,0.797l-0.688,1.328c-0.281-0.083-0.557-0.203-0.828-0.359c-0.063-0.021-0.479-0.292-1.25-0.812
	c-0.615,0.26-1.292,0.39-2.031,0.39c-1.427,0-2.547-0.422-3.36-1.265c-0.812-0.844-1.218-2.026-1.218-3.547s0.406-2.703,1.218-3.547
	c0.813-0.844,1.917-1.266,3.313-1.266c1.375,0,2.466,0.422,3.273,1.266c0.808,0.844,1.211,2.026,1.211,3.547
	c0,0.802-0.109,1.51-0.328,2.125C223.27,89.093,223,89.541,222.625,89.968L222.625,89.968z M221.108,88.922
	c0.24-0.292,0.422-0.638,0.547-1.039c0.125-0.402,0.188-0.862,0.188-1.383c0-1.073-0.237-1.875-0.711-2.407
	c-0.474-0.531-1.096-0.796-1.867-0.796s-1.393,0.265-1.867,0.796c-0.474,0.532-0.711,1.334-0.711,2.407
	c0,1.093,0.237,1.909,0.711,2.445c0.474,0.536,1.076,0.805,1.805,0.805c0.271,0,0.531-0.042,0.781-0.125
	c-0.385-0.25-0.776-0.448-1.172-0.594l0.531-1.063C219.958,88.177,220.545,88.495,221.108,88.922L221.108,88.922z M225.298,91.156
	v-9.234h1.875v7.671h4.672v1.563H225.298L225.298,91.156z M233.177,83.5v-1.657h1.782V83.5H233.177L233.177,83.5z M233.177,91.156
	v-6.734h1.782v6.734H233.177L233.177,91.156z M239.882,84.422v1.421h-1.219v2.704c0,0.552,0.011,0.875,0.031,0.968
	c0.021,0.094,0.073,0.17,0.157,0.227c0.083,0.057,0.182,0.086,0.296,0.086c0.167,0,0.407-0.057,0.719-0.172l0.156,1.391
	c-0.416,0.177-0.885,0.265-1.406,0.265c-0.323,0-0.614-0.054-0.875-0.164c-0.26-0.109-0.45-0.25-0.57-0.422
	c-0.12-0.172-0.201-0.403-0.242-0.695c-0.042-0.208-0.063-0.625-0.063-1.25v-2.938h-0.812v-1.421h0.812v-1.344l1.797-1.047v2.391
	H239.882L239.882,84.422z M245.023,89.015l1.766,0.297c-0.229,0.646-0.588,1.141-1.078,1.485c-0.49,0.343-1.104,0.515-1.844,0.515
	c-1.177,0-2.047-0.385-2.609-1.156c-0.448-0.615-0.672-1.385-0.672-2.313c0-1.125,0.294-2.002,0.883-2.632
	c0.588-0.631,1.325-0.946,2.211-0.946c1.01,0,1.804,0.331,2.383,0.993c0.578,0.661,0.851,1.674,0.82,3.039h-4.469
	c0.021,0.531,0.167,0.942,0.438,1.234c0.27,0.292,0.614,0.437,1.031,0.437c0.281,0,0.515-0.075,0.703-0.226
	C244.773,89.591,244.919,89.349,245.023,89.015L245.023,89.015z M245.118,87.203c-0.01-0.511-0.143-0.901-0.398-1.172
	c-0.255-0.271-0.565-0.406-0.93-0.406c-0.385,0-0.708,0.14-0.969,0.422c-0.25,0.291-0.375,0.677-0.375,1.156H245.118L245.118,87.203
	z M247.878,88.125l1.829-0.172c0.114,0.614,0.338,1.065,0.671,1.351c0.334,0.287,0.787,0.43,1.36,0.43
	c0.604,0,1.06-0.128,1.367-0.383c0.307-0.255,0.461-0.554,0.461-0.898c0-0.219-0.065-0.406-0.195-0.563
	c-0.131-0.156-0.357-0.291-0.68-0.406c-0.219-0.073-0.719-0.208-1.5-0.406c-1.01-0.25-1.719-0.557-2.125-0.922
	c-0.563-0.51-0.844-1.135-0.844-1.875c0-0.469,0.133-0.909,0.399-1.32c0.265-0.412,0.651-0.727,1.156-0.946
	c0.505-0.218,1.117-0.328,1.836-0.328c1.166,0,2.044,0.258,2.633,0.774c0.588,0.515,0.898,1.2,0.929,2.054l-1.875,0.078
	c-0.083-0.479-0.255-0.822-0.515-1.031c-0.261-0.208-0.657-0.312-1.188-0.312c-0.552,0-0.979,0.109-1.281,0.328
	c-0.198,0.146-0.297,0.338-0.297,0.578c0,0.219,0.089,0.406,0.266,0.562c0.239,0.209,0.817,0.42,1.734,0.633
	c0.917,0.214,1.594,0.435,2.031,0.664c0.438,0.23,0.779,0.545,1.024,0.946c0.245,0.401,0.367,0.898,0.367,1.492
	c0,0.531-0.148,1.028-0.445,1.492c-0.297,0.464-0.717,0.81-1.258,1.039c-0.542,0.229-1.214,0.344-2.016,0.344
	c-1.177,0-2.081-0.274-2.711-0.82C248.381,89.961,248.003,89.166,247.878,88.125L247.878,88.125z M264.519,89.968
	c0.458,0.334,0.958,0.599,1.5,0.797l-0.687,1.328c-0.282-0.083-0.558-0.203-0.829-0.359c-0.062-0.021-0.479-0.292-1.25-0.812
	c-0.614,0.26-1.291,0.39-2.031,0.39c-1.427,0-2.547-0.422-3.359-1.265c-0.813-0.844-1.219-2.026-1.219-3.547
	s0.406-2.703,1.219-3.547c0.812-0.844,1.917-1.266,3.312-1.266c1.375,0,2.466,0.422,3.274,1.266
	c0.807,0.844,1.211,2.026,1.211,3.547c0,0.802-0.11,1.51-0.328,2.125C265.165,89.093,264.894,89.541,264.519,89.968L264.519,89.968z
	 M263.002,88.922c0.24-0.292,0.422-0.638,0.547-1.039c0.125-0.402,0.188-0.862,0.188-1.383c0-1.073-0.237-1.875-0.711-2.407
	c-0.474-0.531-1.096-0.796-1.867-0.796s-1.394,0.265-1.867,0.796c-0.474,0.532-0.711,1.334-0.711,2.407
	c0,1.093,0.237,1.909,0.711,2.445c0.473,0.536,1.075,0.805,1.804,0.805c0.271,0,0.531-0.042,0.781-0.125
	c-0.385-0.25-0.776-0.448-1.171-0.594l0.531-1.063C261.852,88.177,262.44,88.495,263.002,88.922L263.002,88.922z M267.192,91.156
	v-9.234h1.875v7.671h4.672v1.563H267.192L267.192,91.156z M275.087,91.156v-9.313h6.891v1.579h-5.016v2.062h4.672v1.578h-4.672
	v2.531h5.203v1.563H275.087L275.087,91.156z M289.867,91.156h-1.781v-3.438c0-0.729-0.039-1.2-0.117-1.414
	c-0.078-0.213-0.203-0.38-0.375-0.5c-0.172-0.119-0.377-0.179-0.617-0.179c-0.301,0-0.574,0.086-0.82,0.258
	c-0.244,0.171-0.414,0.395-0.508,0.671c-0.094,0.276-0.141,0.795-0.141,1.555v3.047h-1.781v-6.734h1.656v0.984
	c0.584-0.76,1.322-1.141,2.219-1.141c0.396,0,0.756,0.071,1.078,0.211c0.324,0.141,0.57,0.321,0.742,0.539
	c0.172,0.219,0.289,0.469,0.352,0.75c0.063,0.282,0.094,0.683,0.094,1.203V91.156L289.867,91.156z M291.511,91.593l2.047,0.25
	c0.031,0.24,0.109,0.407,0.234,0.5c0.168,0.125,0.432,0.188,0.797,0.188c0.459,0,0.807-0.073,1.047-0.219
	c0.156-0.094,0.275-0.239,0.359-0.437c0.053-0.157,0.078-0.433,0.078-0.828v-0.985c-0.531,0.729-1.203,1.094-2.016,1.094
	c-0.906,0-1.625-0.385-2.156-1.156c-0.416-0.604-0.625-1.354-0.625-2.25c0-1.136,0.273-2,0.82-2.594
	c0.547-0.594,1.221-0.891,2.023-0.891c0.832,0,1.521,0.365,2.063,1.094v-0.937h1.672v6.046c0,0.792-0.066,1.386-0.195,1.782
	c-0.131,0.396-0.314,0.705-0.555,0.929c-0.24,0.224-0.557,0.399-0.953,0.524c-0.395,0.125-0.895,0.187-1.5,0.187
	c-1.135,0-1.941-0.195-2.422-0.586c-0.479-0.39-0.719-0.888-0.719-1.492C291.511,91.76,291.511,91.687,291.511,91.593
	L291.511,91.593z M293.105,87.64c0,0.719,0.139,1.245,0.414,1.578c0.277,0.334,0.617,0.5,1.023,0.5c0.438,0,0.807-0.171,1.109-0.515
	c0.301-0.344,0.453-0.849,0.453-1.516c0-0.698-0.143-1.216-0.43-1.554c-0.287-0.339-0.654-0.508-1.102-0.508
	c-0.428,0-0.777,0.166-1.055,0.5C293.244,86.458,293.105,86.963,293.105,87.64L293.105,87.64z M299.625,83.5v-1.657h1.781V83.5
	H299.625L299.625,83.5z M299.625,91.156v-6.734h1.781v6.734H299.625L299.625,91.156z M309.361,91.156h-1.781v-3.438
	c0-0.729-0.039-1.2-0.117-1.414c-0.078-0.213-0.203-0.38-0.375-0.5c-0.172-0.119-0.377-0.179-0.617-0.179
	c-0.301,0-0.576,0.086-0.82,0.258c-0.244,0.171-0.414,0.395-0.508,0.671c-0.094,0.276-0.141,0.795-0.141,1.555v3.047h-1.781v-6.734
	h1.656v0.984c0.584-0.76,1.322-1.141,2.219-1.141c0.396,0,0.756,0.071,1.078,0.211c0.322,0.141,0.57,0.321,0.742,0.539
	c0.172,0.219,0.289,0.469,0.352,0.75c0.063,0.282,0.094,0.683,0.094,1.203V91.156L309.361,91.156z M315.083,89.015l1.766,0.297
	c-0.23,0.646-0.588,1.141-1.078,1.485c-0.49,0.343-1.104,0.515-1.844,0.515c-1.178,0-2.047-0.385-2.609-1.156
	c-0.449-0.615-0.672-1.385-0.672-2.313c0-1.125,0.293-2.002,0.883-2.632c0.588-0.631,1.324-0.946,2.211-0.946
	c1.01,0,1.805,0.331,2.383,0.993c0.578,0.661,0.852,1.674,0.82,3.039h-4.469c0.02,0.531,0.166,0.942,0.438,1.234
	s0.613,0.437,1.031,0.437c0.281,0,0.516-0.075,0.703-0.226C314.833,89.591,314.978,89.349,315.083,89.015L315.083,89.015z
	 M315.177,87.203c-0.012-0.511-0.145-0.901-0.398-1.172c-0.256-0.271-0.564-0.406-0.93-0.406c-0.385,0-0.709,0.14-0.969,0.422
	c-0.25,0.291-0.375,0.677-0.375,1.156H315.177L315.177,87.203z M318.359,91.156v-9.313h1.875v9.313H318.359L318.359,91.156z
	 M328.144,91.156h-1.781v-3.438c0-0.729-0.039-1.2-0.117-1.414c-0.078-0.213-0.203-0.38-0.375-0.5
	c-0.172-0.119-0.379-0.179-0.617-0.179c-0.303,0-0.576,0.086-0.82,0.258c-0.246,0.171-0.414,0.395-0.508,0.671
	c-0.094,0.276-0.141,0.795-0.141,1.555v3.047h-1.781v-6.734h1.656v0.984c0.582-0.76,1.322-1.141,2.219-1.141
	c0.395,0,0.756,0.071,1.078,0.211c0.322,0.141,0.57,0.321,0.742,0.539c0.172,0.219,0.289,0.469,0.352,0.75
	c0.063,0.282,0.094,0.683,0.094,1.203V91.156L328.144,91.156z M329.179,84.422h0.982v-0.516c0-0.563,0.061-0.984,0.182-1.266
	c0.119-0.281,0.34-0.51,0.664-0.687c0.322-0.177,0.732-0.266,1.232-0.266c0.512,0,1.006,0.078,1.486,0.235l-0.236,1.25
	c-0.279-0.073-0.551-0.11-0.811-0.11c-0.262,0-0.449,0.06-0.564,0.18c-0.113,0.12-0.172,0.351-0.172,0.695v0.485h1.344v1.39h-1.344
	v5.344h-1.781v-5.344h-0.982V84.422L329.179,84.422z M333.867,87.687c0-0.594,0.146-1.166,0.438-1.719
	c0.291-0.552,0.705-0.973,1.242-1.265s1.139-0.438,1.805-0.438c1.01,0,1.844,0.331,2.5,0.993c0.656,0.661,0.984,1.497,0.984,2.507
	c0,1.021-0.33,1.868-0.992,2.539c-0.662,0.672-1.492,1.008-2.492,1.008c-0.615,0-1.203-0.14-1.766-0.422
	c-0.563-0.281-0.99-0.69-1.281-1.226C334.013,89.127,333.867,88.468,333.867,87.687L333.867,87.687z M335.695,87.781
	c0,0.667,0.158,1.18,0.477,1.539s0.711,0.539,1.18,0.539s0.859-0.18,1.172-0.539s0.469-0.878,0.469-1.555
	c0-0.656-0.156-1.161-0.469-1.515s-0.703-0.532-1.172-0.532s-0.861,0.178-1.18,0.532S335.695,87.114,335.695,87.781L335.695,87.781z
	"/>
<polygon fill="#FFCC99" points="7,9.89 143,9.89 143,33.89 7,33.89 7,9.89 "/>
<polygon fill="#FFFFDA" points="6,8.89 7,8.89 7,34.89 6,34.89 6,8.89 "/>
<polygon fill="#FFFFDA" points="7,8.89 143,8.89 143,9.89 7,9.89 7,8.89 "/>
<polygon fill="#B28E6B" points="7,33.89 144,33.89 144,34.89 7,34.89 7,33.89 "/>
<polygon fill="#B28E6B" points="143,8.89 144,8.89 144,33.89 143,33.89 143,8.89 "/>
<path d="M15.466,24.809l1.828-0.172c0.115,0.615,0.339,1.065,0.672,1.352c0.333,0.286,0.786,0.43,1.359,0.43
	c0.605,0,1.06-0.128,1.368-0.383c0.307-0.255,0.461-0.555,0.461-0.899c0-0.218-0.066-0.406-0.196-0.562
	c-0.13-0.156-0.357-0.292-0.679-0.406c-0.219-0.073-0.719-0.209-1.5-0.407c-1.011-0.25-1.719-0.557-2.125-0.922
	c-0.563-0.51-0.844-1.135-0.844-1.875c0-0.468,0.133-0.908,0.398-1.32c0.266-0.411,0.651-0.726,1.156-0.945
	c0.506-0.219,1.118-0.328,1.836-0.328c1.167,0,2.045,0.257,2.633,0.773c0.589,0.516,0.899,1.201,0.93,2.055l-1.875,0.078
	c-0.083-0.479-0.255-0.823-0.516-1.031c-0.26-0.209-0.656-0.313-1.187-0.313c-0.552,0-0.979,0.11-1.281,0.328
	c-0.198,0.146-0.297,0.339-0.297,0.578c0,0.219,0.088,0.407,0.265,0.563c0.24,0.208,0.818,0.419,1.735,0.633
	c0.916,0.213,1.593,0.435,2.031,0.664c0.437,0.229,0.779,0.544,1.023,0.945c0.245,0.401,0.368,0.899,0.368,1.492
	c0,0.532-0.149,1.029-0.446,1.492c-0.297,0.464-0.716,0.81-1.258,1.04c-0.541,0.229-1.213,0.343-2.015,0.343
	c-1.177,0-2.081-0.273-2.711-0.82C15.969,26.645,15.591,25.851,15.466,24.809L15.466,24.809z M32.106,26.653
	c0.458,0.333,0.958,0.599,1.5,0.797l-0.688,1.328c-0.281-0.083-0.557-0.203-0.828-0.359c-0.062-0.021-0.479-0.292-1.25-0.813
	c-0.615,0.26-1.292,0.391-2.031,0.391c-1.427,0-2.547-0.422-3.36-1.266c-0.812-0.844-1.218-2.026-1.218-3.547
	s0.406-2.703,1.218-3.547c0.813-0.843,1.917-1.265,3.313-1.265c1.375,0,2.466,0.422,3.273,1.265
	c0.808,0.844,1.211,2.026,1.211,3.547c0,0.802-0.109,1.511-0.328,2.125C32.752,25.778,32.481,26.226,32.106,26.653L32.106,26.653z
	 M30.59,25.606c0.24-0.292,0.422-0.638,0.547-1.039s0.187-0.862,0.187-1.383c0-1.073-0.237-1.875-0.71-2.406
	c-0.474-0.531-1.097-0.797-1.868-0.797s-1.393,0.266-1.867,0.797c-0.474,0.531-0.711,1.333-0.711,2.406
	c0,1.094,0.237,1.909,0.711,2.445c0.474,0.537,1.076,0.805,1.805,0.805c0.271,0,0.531-0.042,0.781-0.125
	c-0.385-0.25-0.776-0.448-1.172-0.594l0.531-1.062C29.439,24.861,30.028,25.179,30.59,25.606L30.59,25.606z M34.78,27.84v-9.234
	h1.875v7.672h4.672v1.562H34.78L34.78,27.84z M42.659,20.184v-1.656h1.782v1.656H42.659L42.659,20.184z M42.659,27.84v-6.734h1.782
	v6.734H42.659L42.659,27.84z M49.364,21.106v1.422h-1.219v2.703c0,0.552,0.011,0.875,0.031,0.969
	c0.021,0.094,0.073,0.169,0.157,0.226c0.083,0.058,0.182,0.086,0.297,0.086c0.166,0,0.406-0.057,0.718-0.172l0.157,1.391
	c-0.417,0.177-0.886,0.266-1.407,0.266c-0.323,0-0.614-0.055-0.875-0.164c-0.26-0.11-0.45-0.25-0.57-0.422
	c-0.12-0.172-0.2-0.404-0.242-0.696c-0.042-0.208-0.063-0.625-0.063-1.25v-2.937h-0.812v-1.422h0.812v-1.344l1.797-1.047v2.391
	H49.364L49.364,21.106z M54.506,25.7l1.765,0.297c-0.229,0.645-0.588,1.14-1.078,1.484c-0.489,0.344-1.104,0.516-1.844,0.516
	c-1.177,0-2.047-0.386-2.609-1.157c-0.448-0.614-0.672-1.385-0.672-2.312c0-1.125,0.294-2.003,0.883-2.633
	c0.588-0.63,1.325-0.945,2.211-0.945c1.01,0,1.805,0.331,2.383,0.992c0.578,0.661,0.851,1.674,0.82,3.039h-4.469
	c0.021,0.531,0.167,0.943,0.438,1.234c0.271,0.292,0.614,0.438,1.031,0.438c0.281,0,0.516-0.076,0.703-0.227
	C54.256,26.275,54.401,26.033,54.506,25.7L54.506,25.7z M54.6,23.887c-0.01-0.51-0.143-0.901-0.398-1.172
	c-0.255-0.27-0.565-0.406-0.93-0.406c-0.385,0-0.708,0.141-0.969,0.422c-0.25,0.292-0.375,0.677-0.375,1.156H54.6L54.6,23.887z
	 M57.361,24.809l1.828-0.172c0.114,0.615,0.338,1.065,0.672,1.352c0.333,0.286,0.786,0.43,1.359,0.43
	c0.604,0,1.06-0.128,1.367-0.383c0.307-0.255,0.461-0.555,0.461-0.899c0-0.218-0.065-0.406-0.195-0.562
	c-0.13-0.156-0.357-0.292-0.68-0.406c-0.219-0.073-0.719-0.209-1.5-0.407c-1.01-0.25-1.719-0.557-2.125-0.922
	c-0.562-0.51-0.844-1.135-0.844-1.875c0-0.468,0.133-0.908,0.399-1.32c0.265-0.411,0.651-0.726,1.156-0.945
	c0.505-0.219,1.117-0.328,1.836-0.328c1.167,0,2.044,0.257,2.633,0.773c0.588,0.516,0.898,1.201,0.929,2.055l-1.875,0.078
	c-0.083-0.479-0.255-0.823-0.515-1.031c-0.261-0.209-0.656-0.313-1.188-0.313c-0.552,0-0.979,0.11-1.281,0.328
	c-0.198,0.146-0.297,0.339-0.297,0.578c0,0.219,0.089,0.407,0.266,0.563c0.239,0.208,0.818,0.419,1.734,0.633
	c0.917,0.213,1.594,0.435,2.031,0.664c0.438,0.229,0.779,0.544,1.024,0.945c0.245,0.401,0.367,0.899,0.367,1.492
	c0,0.532-0.148,1.029-0.445,1.492c-0.297,0.464-0.716,0.81-1.258,1.04c-0.542,0.229-1.214,0.343-2.016,0.343
	c-1.177,0-2.08-0.273-2.711-0.82C57.863,26.645,57.486,25.851,57.361,24.809L57.361,24.809z M74,26.653
	c0.459,0.333,0.959,0.599,1.5,0.797l-0.687,1.328c-0.282-0.083-0.558-0.203-0.828-0.359c-0.063-0.021-0.48-0.292-1.25-0.813
	c-0.615,0.26-1.292,0.391-2.032,0.391c-1.427,0-2.547-0.422-3.359-1.266c-0.813-0.844-1.219-2.026-1.219-3.547
	s0.406-2.703,1.219-3.547c0.813-0.843,1.917-1.265,3.312-1.265c1.375,0,2.467,0.422,3.274,1.265
	c0.807,0.844,1.211,2.026,1.211,3.547c0,0.802-0.11,1.511-0.328,2.125C74.646,25.778,74.375,26.226,74,26.653L74,26.653z
	 M72.485,25.606c0.239-0.292,0.421-0.638,0.546-1.039c0.125-0.401,0.188-0.862,0.188-1.383c0-1.073-0.237-1.875-0.711-2.406
	c-0.474-0.531-1.096-0.797-1.867-0.797s-1.393,0.266-1.867,0.797c-0.474,0.531-0.711,1.333-0.711,2.406
	c0,1.094,0.237,1.909,0.711,2.445c0.474,0.537,1.075,0.805,1.804,0.805c0.271,0,0.532-0.042,0.782-0.125
	c-0.386-0.25-0.776-0.448-1.172-0.594l0.531-1.062C71.334,24.861,71.922,25.179,72.485,25.606L72.485,25.606z M76.675,27.84v-9.234
	h1.875v7.672h4.671v1.562H76.675L76.675,27.84z M84.554,18.528h3.437c0.771,0,1.36,0.062,1.766,0.187
	c0.552,0.157,1.021,0.441,1.406,0.852c0.386,0.411,0.68,0.914,0.883,1.508c0.203,0.594,0.305,1.328,0.305,2.203
	c0,0.76-0.094,1.422-0.281,1.984c-0.23,0.677-0.563,1.224-1,1.641c-0.323,0.312-0.761,0.557-1.313,0.734
	c-0.417,0.136-0.974,0.203-1.672,0.203h-3.531V18.528L84.554,18.528z M86.429,20.106v6.172h1.406c0.531,0,0.912-0.031,1.141-0.094
	c0.302-0.073,0.555-0.2,0.758-0.383c0.203-0.182,0.367-0.481,0.492-0.898s0.187-0.984,0.187-1.703c0-0.719-0.062-1.271-0.187-1.656
	c-0.125-0.386-0.302-0.688-0.531-0.907c-0.23-0.218-0.521-0.364-0.875-0.437c-0.261-0.063-0.776-0.094-1.547-0.094H86.429
	L86.429,20.106z M93.863,27.84v-9.312h1.781v3.359c0.552-0.625,1.203-0.937,1.953-0.937c0.823,0,1.503,0.297,2.039,0.89
	c0.537,0.594,0.805,1.448,0.805,2.563c0,1.146-0.273,2.031-0.82,2.656s-1.211,0.938-1.992,0.938c-0.386,0-0.766-0.097-1.141-0.289
	c-0.375-0.193-0.698-0.477-0.969-0.852v0.984H93.863L93.863,27.84z M95.629,24.325c0,0.698,0.109,1.213,0.328,1.547
	c0.312,0.479,0.724,0.718,1.234,0.718c0.396,0,0.732-0.169,1.008-0.507c0.276-0.339,0.414-0.873,0.414-1.602
	c0-0.76-0.138-1.312-0.414-1.656c-0.276-0.344-0.633-0.516-1.07-0.516c-0.427,0-0.784,0.167-1.071,0.5
	C95.772,23.142,95.629,23.648,95.629,24.325L95.629,24.325z M101.835,27.84v-9.312h1.875v9.312H101.835L101.835,27.84z
	 M111.667,27.84h-1.657v-0.984c-0.27,0.385-0.593,0.672-0.968,0.859c-0.375,0.188-0.75,0.282-1.125,0.282
	c-0.782,0-1.448-0.313-2-0.938s-0.828-1.495-0.828-2.609c0-1.146,0.268-2.016,0.804-2.61c0.537-0.593,1.216-0.89,2.039-0.89
	c0.75,0,1.401,0.312,1.953,0.937v-3.359h1.782V27.84L111.667,27.84z M106.917,24.325c0,0.719,0.099,1.239,0.297,1.562
	c0.281,0.469,0.682,0.703,1.203,0.703c0.406,0,0.755-0.174,1.047-0.523c0.291-0.349,0.437-0.872,0.437-1.57
	c0-0.771-0.141-1.328-0.422-1.672c-0.281-0.344-0.64-0.516-1.078-0.516c-0.417,0-0.768,0.169-1.055,0.508
	C107.06,23.156,106.917,23.658,106.917,24.325L106.917,24.325z M112.576,27.84l2.422-3.468l-2.328-3.266h2.188l1.187,1.844
	l1.266-1.844h2.094l-2.297,3.188l2.5,3.546h-2.188l-1.375-2.093l-1.375,2.093H112.576L112.576,27.84z M120.681,27.84v-9.312h6.391
	v1.578h-4.5v2.203h3.875v1.578h-3.875v3.953H120.681L120.681,27.84z M128.638,27.84v-9.312h1.875v4.141l3.797-4.141h2.531
	l-3.5,3.625l3.688,5.687h-2.422l-2.563-4.375l-1.531,1.563v2.812H128.638L128.638,27.84z"/>
<polygon fill="#FFCC99" points="214,344.89 331,344.89 331,368.89 214,368.89 214,344.89 "/>
<polygon fill="#FFFFDA" points="213,343.89 214,343.89 214,369.89 213,369.89 213,343.89 "/>
<polygon fill="#FFFFDA" points="214,343.89 331,343.89 331,344.89 214,344.89 214,343.89 "/>
<polygon fill="#B28E6B" points="214,368.89 332,368.89 332,369.89 214,369.89 214,368.89 "/>
<polygon fill="#B28E6B" points="331,343.89 332,343.89 332,368.89 331,368.89 331,343.89 "/>
<path d="M217.527,359.689l1.828-0.172c0.115,0.614,0.339,1.065,0.672,1.352c0.333,0.287,0.787,0.43,1.36,0.43
	c0.604,0,1.059-0.127,1.367-0.383c0.307-0.255,0.461-0.554,0.461-0.898c0-0.219-0.065-0.405-0.196-0.563
	c-0.13-0.156-0.356-0.291-0.679-0.406c-0.219-0.073-0.719-0.208-1.5-0.406c-1.011-0.25-1.719-0.557-2.125-0.922
	c-0.563-0.51-0.844-1.135-0.844-1.875c0-0.469,0.133-0.909,0.398-1.319c0.266-0.412,0.651-0.728,1.157-0.946
	c0.505-0.218,1.117-0.328,1.836-0.328c1.166,0,2.044,0.258,2.632,0.774c0.589,0.515,0.899,1.199,0.93,2.054l-1.875,0.078
	c-0.083-0.479-0.255-0.822-0.516-1.031c-0.26-0.208-0.656-0.313-1.187-0.313c-0.552,0-0.979,0.109-1.281,0.328
	c-0.198,0.146-0.297,0.338-0.297,0.578c0,0.219,0.088,0.406,0.265,0.563c0.24,0.209,0.818,0.42,1.735,0.633
	c0.916,0.214,1.594,0.435,2.031,0.664c0.438,0.229,0.779,0.545,1.023,0.946c0.245,0.4,0.368,0.897,0.368,1.491
	c0,0.531-0.149,1.029-0.446,1.492c-0.297,0.464-0.716,0.811-1.257,1.039c-0.542,0.229-1.214,0.344-2.016,0.344
	c-1.177,0-2.081-0.273-2.711-0.819C218.031,361.526,217.652,360.73,217.527,359.689L217.527,359.689z M228.433,353.408v3.422
	c0.584-0.666,1.276-1,2.079-1c0.406,0,0.773,0.076,1.101,0.227c0.328,0.151,0.576,0.347,0.742,0.586
	c0.167,0.239,0.282,0.502,0.344,0.789c0.063,0.286,0.094,0.732,0.094,1.336v3.953h-1.781v-3.563c0-0.708-0.034-1.156-0.102-1.344
	c-0.068-0.188-0.188-0.339-0.359-0.452c-0.172-0.115-0.388-0.173-0.649-0.173c-0.292,0-0.555,0.073-0.789,0.219
	c-0.234,0.146-0.406,0.361-0.516,0.648c-0.109,0.286-0.164,0.716-0.164,1.289v3.375h-1.781v-9.313H228.433L228.433,353.408z
	 M238.515,360.58l1.766,0.297c-0.229,0.646-0.589,1.141-1.079,1.485c-0.489,0.343-1.104,0.515-1.843,0.515
	c-1.177,0-2.047-0.385-2.61-1.156c-0.448-0.615-0.672-1.385-0.672-2.313c0-1.125,0.295-2.002,0.883-2.632
	c0.589-0.632,1.326-0.946,2.211-0.946c1.011,0,1.805,0.331,2.383,0.993c0.578,0.66,0.852,1.674,0.82,3.039h-4.468
	c0.021,0.53,0.167,0.941,0.438,1.233s0.615,0.438,1.031,0.438c0.282,0,0.516-0.075,0.703-0.227
	C238.265,361.156,238.411,360.914,238.515,360.58L238.515,360.58z M238.608,358.768c-0.011-0.511-0.144-0.9-0.399-1.172
	c-0.255-0.271-0.565-0.406-0.929-0.406c-0.386,0-0.709,0.141-0.969,0.423c-0.25,0.291-0.375,0.677-0.375,1.155H238.608
	L238.608,358.768z M241.838,362.721v-9.313h1.781v9.313H241.838L241.838,362.721z M245.451,362.721v-9.313h1.781v9.313H245.451
	L245.451,362.721z M249.078,362.721v-9.313h3.953c1,0,1.724,0.086,2.172,0.258c0.448,0.172,0.807,0.472,1.078,0.898
	c0.271,0.428,0.406,0.911,0.406,1.453c0,0.698-0.205,1.276-0.617,1.734c-0.411,0.459-1.023,0.745-1.836,0.86
	c0.406,0.238,0.742,0.5,1.008,0.78c0.266,0.281,0.622,0.786,1.07,1.516l1.125,1.813h-2.234l-1.359-2.031
	c-0.49-0.719-0.823-1.172-1-1.359c-0.178-0.188-0.365-0.317-0.563-0.391c-0.198-0.072-0.51-0.109-0.937-0.109h-0.391v3.891H249.078
	L249.078,362.721z M250.953,357.346h1.391c0.906,0,1.471-0.036,1.695-0.108c0.224-0.073,0.398-0.204,0.523-0.392
	s0.188-0.422,0.188-0.703c0-0.313-0.084-0.564-0.25-0.758c-0.167-0.192-0.401-0.314-0.703-0.367c-0.157-0.021-0.615-0.03-1.375-0.03
	h-1.469V357.346L250.953,357.346z M258.028,359.252c0-0.594,0.145-1.166,0.437-1.719s0.706-0.974,1.242-1.266
	c0.537-0.292,1.138-0.438,1.805-0.438c1.01,0,1.844,0.331,2.5,0.993c0.656,0.66,0.984,1.497,0.984,2.507
	c0,1.021-0.33,1.868-0.992,2.539c-0.661,0.672-1.492,1.008-2.492,1.008c-0.615,0-1.203-0.14-1.766-0.422
	c-0.562-0.281-0.989-0.69-1.281-1.227C258.173,360.691,258.028,360.033,258.028,359.252L258.028,359.252z M259.856,359.346
	c0,0.667,0.159,1.181,0.476,1.539c0.318,0.359,0.711,0.539,1.18,0.539c0.469,0,0.859-0.18,1.172-0.539
	c0.312-0.358,0.469-0.878,0.469-1.555c0-0.656-0.157-1.161-0.469-1.516c-0.313-0.354-0.703-0.531-1.172-0.531
	c-0.469,0-0.862,0.178-1.18,0.531C260.016,358.169,259.856,358.679,259.856,359.346L259.856,359.346z M270.829,362.721v-1.016
	c-0.25,0.365-0.576,0.65-0.977,0.859c-0.401,0.208-0.82,0.313-1.257,0.313c-0.459,0-0.868-0.099-1.227-0.297
	c-0.359-0.198-0.62-0.479-0.781-0.843c-0.162-0.365-0.242-0.86-0.242-1.485v-4.265h1.781v3.093c0,0.948,0.034,1.529,0.101,1.743
	c0.068,0.213,0.188,0.382,0.36,0.507s0.393,0.188,0.664,0.188c0.302,0,0.575-0.083,0.82-0.25c0.245-0.167,0.413-0.375,0.5-0.625
	c0.089-0.25,0.133-0.854,0.133-1.813v-2.843h1.78v6.733H270.829L270.829,362.721z M277.425,355.987v1.421h-1.219v2.704
	c0,0.552,0.012,0.875,0.031,0.968c0.021,0.094,0.074,0.17,0.156,0.227c0.084,0.058,0.182,0.086,0.297,0.086
	c0.166,0,0.406-0.057,0.719-0.172l0.156,1.392c-0.416,0.177-0.885,0.265-1.406,0.265c-0.322,0-0.613-0.054-0.875-0.164
	c-0.26-0.109-0.449-0.25-0.57-0.422c-0.119-0.172-0.199-0.403-0.242-0.695c-0.041-0.208-0.063-0.625-0.063-1.25v-2.938h-0.813
	v-1.421h0.813v-1.345l1.797-1.047v2.392H277.425L277.425,355.987z M278.66,355.064v-1.656h1.783v1.656H278.66L278.66,355.064z
	 M278.66,362.721v-6.733h1.783v6.733H278.66L278.66,362.721z M288.398,362.721h-1.781v-3.438c0-0.729-0.039-1.2-0.117-1.414
	c-0.078-0.213-0.203-0.38-0.375-0.5c-0.172-0.119-0.379-0.18-0.617-0.18c-0.303,0-0.576,0.086-0.82,0.259
	c-0.244,0.171-0.414,0.395-0.508,0.671c-0.094,0.275-0.141,0.795-0.141,1.555v3.047h-1.781v-6.733h1.656v0.983
	c0.582-0.76,1.322-1.141,2.219-1.141c0.395,0,0.756,0.071,1.078,0.211c0.322,0.141,0.57,0.321,0.742,0.539
	c0.172,0.219,0.289,0.469,0.352,0.75c0.063,0.282,0.094,0.683,0.094,1.203V362.721L288.398,362.721z M294.119,360.58l1.768,0.297
	c-0.23,0.646-0.588,1.141-1.078,1.485c-0.49,0.343-1.105,0.515-1.844,0.515c-1.178,0-2.049-0.385-2.609-1.156
	c-0.449-0.615-0.672-1.385-0.672-2.313c0-1.125,0.293-2.002,0.883-2.632c0.588-0.632,1.324-0.946,2.211-0.946
	c1.01,0,1.803,0.331,2.381,0.993c0.58,0.66,0.854,1.674,0.822,3.039h-4.469c0.02,0.53,0.166,0.941,0.438,1.233
	c0.27,0.292,0.613,0.438,1.031,0.438c0.281,0,0.514-0.075,0.703-0.227C293.869,361.156,294.015,360.914,294.119,360.58
	L294.119,360.58z M294.214,358.768c-0.012-0.511-0.145-0.9-0.398-1.172c-0.256-0.271-0.564-0.406-0.93-0.406
	c-0.385,0-0.709,0.141-0.971,0.423c-0.25,0.291-0.375,0.677-0.375,1.155H294.214L294.214,358.768z M296.818,360.799l1.781-0.281
	c0.074,0.354,0.227,0.62,0.461,0.797c0.236,0.178,0.561,0.266,0.977,0.266c0.471,0,0.818-0.083,1.049-0.25
	c0.154-0.114,0.232-0.271,0.232-0.468c0-0.137-0.041-0.25-0.125-0.345c-0.094-0.083-0.291-0.162-0.594-0.234
	c-1.438-0.313-2.35-0.604-2.734-0.875c-0.541-0.364-0.811-0.869-0.811-1.516c0-0.583,0.23-1.072,0.693-1.469
	c0.465-0.396,1.182-0.594,2.148-0.594c0.928,0,1.615,0.148,2.064,0.446c0.447,0.297,0.754,0.741,0.922,1.336l-1.689,0.312
	c-0.072-0.26-0.207-0.461-0.406-0.601c-0.197-0.142-0.482-0.211-0.857-0.211c-0.469,0-0.809,0.062-1.018,0.187
	c-0.135,0.094-0.201,0.219-0.201,0.375c0,0.125,0.061,0.229,0.186,0.313c0.158,0.125,0.711,0.294,1.664,0.507
	c0.953,0.214,1.619,0.477,1.994,0.789c0.375,0.322,0.561,0.766,0.561,1.329c0,0.613-0.26,1.145-0.779,1.593
	c-0.521,0.448-1.287,0.672-2.299,0.672c-0.916,0-1.643-0.188-2.18-0.563C297.322,361.939,296.974,361.435,296.818,360.799
	L296.818,360.799z M304.673,362.721v-1.781h1.781v1.781H304.673L304.673,362.721z M308.207,362.721v-9.313h1.781v3.359
	c0.553-0.625,1.203-0.938,1.953-0.938c0.824,0,1.504,0.297,2.039,0.891c0.537,0.594,0.805,1.448,0.805,2.563
	c0,1.146-0.271,2.031-0.818,2.656s-1.211,0.938-1.994,0.938c-0.385,0-0.766-0.096-1.141-0.289s-0.697-0.476-0.969-0.851v0.983
	H308.207L308.207,362.721z M309.972,359.205c0,0.698,0.109,1.214,0.33,1.547c0.311,0.479,0.723,0.719,1.232,0.719
	c0.396,0,0.732-0.169,1.01-0.508c0.275-0.338,0.412-0.872,0.412-1.601c0-0.762-0.137-1.313-0.412-1.657
	c-0.277-0.343-0.635-0.516-1.072-0.516c-0.426,0-0.783,0.166-1.07,0.5C310.117,358.022,309.972,358.528,309.972,359.205
	L309.972,359.205z M317.554,358.033l-1.625-0.296c0.188-0.646,0.504-1.125,0.945-1.438c0.443-0.312,1.102-0.469,1.977-0.469
	c0.803,0,1.396,0.094,1.781,0.282c0.387,0.187,0.658,0.427,0.82,0.718c0.162,0.292,0.242,0.823,0.242,1.594l-0.016,2.078
	c0,0.594,0.029,1.031,0.086,1.313s0.164,0.583,0.32,0.906h-1.766c-0.051-0.115-0.109-0.292-0.172-0.531
	c-0.031-0.104-0.051-0.172-0.063-0.202c-0.313,0.291-0.641,0.513-0.984,0.664c-0.344,0.15-0.713,0.226-1.109,0.226
	c-0.697,0-1.244-0.19-1.641-0.57s-0.594-0.856-0.594-1.43c0-0.375,0.092-0.713,0.273-1.015c0.184-0.303,0.438-0.532,0.766-0.688
	s0.801-0.297,1.414-0.422c0.834-0.156,1.412-0.302,1.734-0.438v-0.172c0-0.344-0.086-0.589-0.258-0.734s-0.492-0.219-0.961-0.219
	c-0.313,0-0.557,0.063-0.734,0.188S317.669,357.721,317.554,358.033L317.554,358.033z M319.945,359.487
	c-0.229,0.072-0.592,0.16-1.086,0.265c-0.494,0.104-0.82,0.209-0.977,0.313c-0.229,0.166-0.344,0.375-0.344,0.625
	s0.094,0.467,0.281,0.648s0.422,0.274,0.703,0.274c0.324,0,0.631-0.105,0.922-0.313c0.219-0.156,0.359-0.354,0.422-0.594
	c0.053-0.146,0.078-0.433,0.078-0.859V359.487L319.945,359.487z M322.832,360.799l1.781-0.281c0.072,0.354,0.227,0.62,0.461,0.797
	c0.234,0.178,0.561,0.266,0.977,0.266c0.469,0,0.816-0.083,1.047-0.25c0.156-0.114,0.234-0.271,0.234-0.468
	c0-0.137-0.043-0.25-0.125-0.345c-0.094-0.083-0.293-0.162-0.594-0.234c-1.438-0.313-2.35-0.604-2.734-0.875
	c-0.541-0.364-0.813-0.869-0.813-1.516c0-0.583,0.232-1.072,0.695-1.469c0.463-0.396,1.18-0.594,2.148-0.594
	c0.928,0,1.615,0.148,2.063,0.446c0.447,0.297,0.756,0.741,0.922,1.336l-1.688,0.312c-0.072-0.26-0.209-0.461-0.406-0.601
	c-0.197-0.142-0.484-0.211-0.859-0.211c-0.469,0-0.807,0.062-1.016,0.187c-0.137,0.094-0.203,0.219-0.203,0.375
	c0,0.125,0.063,0.229,0.188,0.313c0.156,0.125,0.711,0.294,1.664,0.507c0.953,0.214,1.617,0.477,1.992,0.789
	c0.375,0.322,0.563,0.766,0.563,1.329c0,0.613-0.262,1.145-0.781,1.593c-0.521,0.448-1.287,0.672-2.297,0.672
	c-0.916,0-1.645-0.188-2.18-0.563C323.333,361.939,322.988,361.435,322.832,360.799L322.832,360.799z"/>
<line fill="none" stroke="#000000" stroke-miterlimit="1.45" stroke-dasharray="6,2" x1="307.501" y1="256.84" x2="407.537" y2="281.282"/>
<polygon points="411.423,282.231 401.191,273.555 411.423,282.231 398.343,285.212 "/>
<polygon fill="none" stroke="#000000" stroke-linecap="square" stroke-miterlimit="10" points="411.423,282.231 401.191,273.555 
	411.423,282.231 398.343,285.212 "/>
<path fill="#808080" d="M339.376,254.437l0.859,2.438h-0.734l-1.141-2.563l2.156-2.313h0.766L339.376,254.437L339.376,254.437z
	 M341.501,254.437l0.844,2.438h-0.781l-1.078-2.563l2.094-2.313h0.828L341.501,254.437L341.501,254.437z M347.886,256.233
	c-0.689,0.771-1.393,1.156-2.111,1.156c-0.436,0-0.791-0.125-1.061-0.375c-0.271-0.25-0.408-0.558-0.408-0.922
	c0-0.24,0.063-0.65,0.188-1.233l0.688-3.298h0.969l-0.764,3.641c-0.064,0.313-0.096,0.552-0.096,0.719
	c0,0.208,0.066,0.372,0.195,0.492c0.131,0.12,0.32,0.18,0.57,0.18c0.283,0,0.551-0.064,0.805-0.195
	c0.256-0.131,0.479-0.308,0.664-0.531c0.189-0.225,0.344-0.492,0.469-0.805c0.074-0.197,0.162-0.542,0.268-1.031l0.514-2.469h0.986
	l-1.205,5.703h-0.889L347.886,256.233L347.886,256.233z M350.191,255.312l0.969-0.063c0,0.281,0.043,0.521,0.131,0.719
	c0.09,0.198,0.248,0.359,0.479,0.484c0.229,0.125,0.5,0.188,0.811,0.188c0.43,0,0.748-0.086,0.961-0.258
	c0.215-0.172,0.322-0.372,0.322-0.602c0-0.166-0.063-0.328-0.188-0.484c-0.137-0.146-0.459-0.331-0.971-0.555
	c-0.51-0.225-0.838-0.377-0.982-0.461c-0.24-0.146-0.422-0.317-0.547-0.516c-0.125-0.197-0.188-0.427-0.188-0.688
	c0-0.448,0.178-0.833,0.539-1.156c0.359-0.323,0.861-0.484,1.508-0.484c0.719,0,1.266,0.164,1.641,0.492s0.566,0.763,0.578,1.305
	l-0.953,0.063c-0.012-0.344-0.131-0.615-0.359-0.813s-0.553-0.297-0.969-0.297c-0.344,0-0.607,0.075-0.789,0.227
	c-0.184,0.15-0.273,0.32-0.273,0.508c0,0.177,0.078,0.333,0.234,0.469c0.104,0.094,0.379,0.234,0.828,0.422
	c0.75,0.323,1.219,0.578,1.406,0.766c0.313,0.302,0.469,0.667,0.469,1.094c0,0.281-0.086,0.557-0.258,0.828
	c-0.172,0.271-0.438,0.487-0.799,0.648c-0.357,0.161-0.777,0.242-1.256,0.242c-0.656,0-1.219-0.162-1.688-0.484
	C350.388,256.582,350.169,256.051,350.191,255.312L350.191,255.312z M359.8,255.327l0.938,0.094
	c-0.137,0.469-0.449,0.914-0.938,1.336c-0.49,0.422-1.074,0.633-1.75,0.633c-0.416,0-0.803-0.097-1.156-0.289
	c-0.355-0.192-0.625-0.477-0.814-0.852c-0.186-0.375-0.279-0.797-0.279-1.266c0-0.625,0.145-1.231,0.438-1.82
	c0.291-0.588,0.666-1.023,1.125-1.304c0.457-0.282,0.953-0.423,1.484-0.423c0.676,0,1.219,0.211,1.625,0.633
	s0.607,0.997,0.607,1.727c0,0.281-0.02,0.568-0.061,0.859h-4.203c-0.021,0.114-0.031,0.214-0.031,0.297
	c0,0.531,0.121,0.938,0.367,1.219c0.244,0.281,0.543,0.422,0.898,0.422c0.334,0,0.662-0.109,0.984-0.328
	S359.613,255.733,359.8,255.327L359.8,255.327z M356.972,253.905h3.203c0-0.094,0-0.161,0-0.203c0-0.489-0.123-0.864-0.367-1.125
	c-0.246-0.261-0.561-0.391-0.945-0.391c-0.408,0-0.783,0.144-1.125,0.43C357.394,252.903,357.138,253.332,356.972,253.905
	L356.972,253.905z M363.777,254.468l-0.797-2.469h0.766l1.031,2.594l-2.094,2.281h-0.875L363.777,254.468L363.777,254.468z
	 M365.871,254.515l-0.797-2.516h0.734l1.094,2.609l-2.172,2.266h-0.781L365.871,254.515L365.871,254.515z"/>
<line fill="none" stroke="#000000" stroke-miterlimit="1.45" stroke-dasharray="6,2" x1="239.335" y1="240.726" x2="107.814" y2="210.68"/>
<polygon points="103.915,209.789 114.276,218.311 103.915,209.789 116.95,206.612 "/>
<polygon fill="none" stroke="#000000" stroke-linecap="square" stroke-miterlimit="10" points="103.915,209.789 114.276,218.311 
	103.915,209.789 116.95,206.612 "/>
<path fill="#808080" d="M158.026,212.021l0.859,2.438h-0.734l-1.141-2.563l2.157-2.313h0.765L158.026,212.021L158.026,212.021z
	 M160.151,212.021l0.844,2.438h-0.781l-1.079-2.563l2.094-2.313h0.828L160.151,212.021L160.151,212.021z M166.535,213.817
	c-0.687,0.771-1.39,1.156-2.109,1.156c-0.438,0-0.792-0.125-1.063-0.375c-0.27-0.25-0.406-0.557-0.406-0.922
	c0-0.24,0.063-0.65,0.188-1.234l0.687-3.297h0.969l-0.766,3.641c-0.062,0.313-0.093,0.552-0.093,0.719
	c0,0.208,0.065,0.372,0.195,0.492c0.13,0.12,0.32,0.18,0.57,0.18c0.281,0,0.55-0.064,0.805-0.195
	c0.255-0.131,0.476-0.308,0.664-0.531c0.187-0.225,0.344-0.492,0.469-0.805c0.073-0.197,0.161-0.542,0.265-1.031l0.516-2.469h0.984
	l-1.203,5.703h-0.89L166.535,213.817L166.535,213.817z M168.84,212.896l0.968-0.063c0,0.281,0.045,0.521,0.133,0.719
	c0.089,0.198,0.247,0.359,0.477,0.484c0.229,0.125,0.5,0.188,0.812,0.188c0.427,0,0.748-0.086,0.961-0.258
	c0.214-0.172,0.32-0.372,0.32-0.602c0-0.166-0.062-0.328-0.187-0.484c-0.136-0.146-0.458-0.331-0.969-0.555
	c-0.51-0.225-0.838-0.377-0.984-0.461c-0.24-0.146-0.422-0.317-0.547-0.516c-0.125-0.197-0.188-0.427-0.188-0.688
	c0-0.448,0.18-0.833,0.539-1.156c0.36-0.323,0.862-0.484,1.508-0.484c0.719,0,1.266,0.164,1.641,0.492s0.568,0.764,0.578,1.305
	l-0.953,0.063c-0.011-0.344-0.13-0.615-0.359-0.813c-0.23-0.197-0.553-0.297-0.969-0.297c-0.344,0-0.607,0.075-0.789,0.227
	c-0.183,0.15-0.274,0.32-0.274,0.508c0,0.177,0.078,0.333,0.235,0.469c0.104,0.094,0.38,0.234,0.828,0.422
	c0.75,0.323,1.219,0.578,1.406,0.766c0.313,0.302,0.469,0.667,0.469,1.094c0,0.281-0.086,0.557-0.258,0.828
	c-0.172,0.271-0.438,0.487-0.797,0.648c-0.359,0.161-0.779,0.242-1.258,0.242c-0.656,0-1.218-0.162-1.687-0.484
	C169.038,214.167,168.819,213.635,168.84,212.896L168.84,212.896z M178.45,212.911l0.937,0.094
	c-0.135,0.469-0.448,0.914-0.937,1.336c-0.49,0.422-1.073,0.633-1.75,0.633c-0.417,0-0.802-0.097-1.156-0.289
	c-0.355-0.192-0.625-0.477-0.813-0.852c-0.187-0.375-0.281-0.797-0.281-1.266c0-0.625,0.146-1.231,0.437-1.82
	c0.292-0.588,0.667-1.023,1.125-1.305c0.459-0.281,0.954-0.422,1.485-0.422c0.677,0,1.219,0.211,1.625,0.633
	c0.406,0.422,0.609,0.998,0.609,1.727c0,0.281-0.021,0.568-0.062,0.859h-4.203c-0.021,0.114-0.032,0.214-0.032,0.297
	c0,0.531,0.123,0.938,0.367,1.219c0.245,0.281,0.545,0.422,0.899,0.422c0.333,0,0.661-0.109,0.984-0.328
	C178.006,213.63,178.262,213.317,178.45,212.911L178.45,212.911z M175.622,211.489h3.203c0-0.094,0-0.161,0-0.203
	c0-0.489-0.123-0.864-0.367-1.125c-0.245-0.26-0.56-0.391-0.946-0.391c-0.406,0-0.781,0.144-1.125,0.43
	C176.043,210.487,175.788,210.917,175.622,211.489L175.622,211.489z M182.427,212.052l-0.797-2.469h0.766l1.031,2.594l-2.094,2.281
	h-0.875L182.427,212.052L182.427,212.052z M184.521,212.099l-0.797-2.516h0.734l1.094,2.609l-2.172,2.266h-0.781L184.521,212.099
	L184.521,212.099z"/>
<line fill="none" stroke="#000000" stroke-miterlimit="1.45" stroke-dasharray="6,2" x1="239.335" y1="256.656" x2="107.803" y2="288.108"/>
<polygon points="103.913,289.038 116.979,292.082 103.913,289.038 114.188,280.412 "/>
<polygon fill="none" stroke="#000000" stroke-linecap="square" stroke-miterlimit="10" points="103.913,289.038 116.979,292.082 
	103.913,289.038 114.188,280.412 "/>
<path fill="#808080" d="M158.026,259.657l0.859,2.437h-0.734l-1.141-2.562l2.157-2.313h0.765L158.026,259.657L158.026,259.657z
	 M160.151,259.657l0.844,2.437h-0.781l-1.079-2.562l2.094-2.313h0.828L160.151,259.657L160.151,259.657z M166.535,261.453
	c-0.687,0.771-1.39,1.157-2.109,1.157c-0.438,0-0.792-0.125-1.063-0.375c-0.27-0.251-0.406-0.559-0.406-0.923
	c0-0.239,0.063-0.65,0.188-1.234l0.687-3.296h0.969l-0.766,3.64c-0.062,0.313-0.093,0.552-0.093,0.719
	c0,0.208,0.065,0.372,0.195,0.492c0.13,0.12,0.32,0.18,0.57,0.18c0.281,0,0.55-0.064,0.805-0.194
	c0.255-0.131,0.476-0.309,0.664-0.532c0.187-0.224,0.344-0.492,0.469-0.804c0.073-0.198,0.161-0.542,0.265-1.032l0.516-2.468h0.984
	l-1.203,5.703h-0.89L166.535,261.453L166.535,261.453z M168.84,260.532l0.968-0.063c0,0.281,0.045,0.521,0.133,0.719
	c0.089,0.198,0.247,0.359,0.477,0.484c0.229,0.125,0.5,0.188,0.812,0.188c0.427,0,0.748-0.087,0.961-0.259
	c0.214-0.172,0.32-0.372,0.32-0.602c0-0.166-0.062-0.328-0.187-0.484c-0.136-0.146-0.458-0.331-0.969-0.555
	c-0.51-0.224-0.838-0.377-0.984-0.461c-0.24-0.146-0.422-0.317-0.547-0.516c-0.125-0.197-0.188-0.427-0.188-0.688
	c0-0.448,0.18-0.833,0.539-1.156c0.36-0.323,0.862-0.483,1.508-0.483c0.719,0,1.266,0.164,1.641,0.491
	c0.375,0.328,0.568,0.764,0.578,1.305l-0.953,0.063c-0.011-0.344-0.13-0.615-0.359-0.813c-0.23-0.197-0.553-0.296-0.969-0.296
	c-0.344,0-0.607,0.074-0.789,0.226c-0.183,0.151-0.274,0.32-0.274,0.508c0,0.177,0.078,0.333,0.235,0.469
	c0.104,0.094,0.38,0.234,0.828,0.423c0.75,0.322,1.219,0.578,1.406,0.765c0.313,0.302,0.469,0.667,0.469,1.094
	c0,0.281-0.086,0.558-0.258,0.828c-0.172,0.271-0.438,0.487-0.797,0.649c-0.359,0.161-0.779,0.242-1.258,0.242
	c-0.656,0-1.218-0.162-1.687-0.485C169.038,261.802,168.819,261.271,168.84,260.532L168.84,260.532z M178.45,260.547l0.937,0.094
	c-0.135,0.47-0.448,0.914-0.937,1.336c-0.49,0.422-1.073,0.634-1.75,0.634c-0.417,0-0.802-0.098-1.156-0.289
	c-0.355-0.193-0.625-0.478-0.813-0.853c-0.187-0.375-0.281-0.797-0.281-1.266c0-0.625,0.146-1.231,0.437-1.82
	c0.292-0.588,0.667-1.022,1.125-1.305c0.459-0.281,0.954-0.421,1.485-0.421c0.677,0,1.219,0.211,1.625,0.632
	c0.406,0.422,0.609,0.998,0.609,1.727c0,0.281-0.021,0.568-0.062,0.859h-4.203c-0.021,0.115-0.032,0.214-0.032,0.297
	c0,0.531,0.123,0.938,0.367,1.219c0.245,0.281,0.545,0.422,0.899,0.422c0.333,0,0.661-0.109,0.984-0.327
	C178.006,261.266,178.262,260.953,178.45,260.547L178.45,260.547z M175.622,259.125h3.203c0-0.093,0-0.161,0-0.203
	c0-0.489-0.123-0.864-0.367-1.125c-0.245-0.26-0.56-0.39-0.946-0.39c-0.406,0-0.781,0.143-1.125,0.429
	C176.043,258.123,175.788,258.552,175.622,259.125L175.622,259.125z M182.427,259.688l-0.797-2.469h0.766l1.031,2.594l-2.094,2.281
	h-0.875L182.427,259.688L182.427,259.688z M184.521,259.734l-0.797-2.516h0.734l1.094,2.609l-2.172,2.266h-0.781L184.521,259.734
	L184.521,259.734z"/>
<line fill="none" stroke="#000000" stroke-miterlimit="1.45" stroke-dasharray="6,2" x1="307.501" y1="240.55" x2="404.962" y2="217.799"/>
<polygon points="408.859,216.89 395.808,213.774 408.859,216.89 398.537,225.461 "/>
<polygon fill="none" stroke="#000000" stroke-linecap="square" stroke-miterlimit="10" points="408.859,216.89 395.808,213.774 
	408.859,216.89 398.537,225.461 "/>
<path fill="#808080" d="M339.376,216.839l0.859,2.438h-0.734l-1.141-2.563l2.156-2.313h0.766L339.376,216.839L339.376,216.839z
	 M341.501,216.839l0.844,2.438h-0.781l-1.078-2.563l2.094-2.313h0.828L341.501,216.839L341.501,216.839z M347.886,218.636
	c-0.689,0.771-1.393,1.156-2.111,1.156c-0.436,0-0.791-0.125-1.061-0.375c-0.271-0.25-0.408-0.557-0.408-0.922
	c0-0.24,0.063-0.651,0.188-1.234l0.688-3.297h0.969l-0.764,3.64c-0.064,0.313-0.096,0.553-0.096,0.72
	c0,0.208,0.066,0.373,0.195,0.491c0.131,0.12,0.32,0.181,0.57,0.181c0.283,0,0.551-0.065,0.805-0.195
	c0.256-0.131,0.479-0.308,0.664-0.532c0.189-0.224,0.344-0.491,0.469-0.804c0.074-0.198,0.162-0.542,0.268-1.032l0.514-2.468h0.986
	l-1.205,5.703h-0.889L347.886,218.636L347.886,218.636z M350.191,217.714l0.969-0.063c0,0.28,0.043,0.521,0.131,0.719
	c0.09,0.197,0.248,0.358,0.479,0.483c0.229,0.125,0.5,0.188,0.811,0.188c0.43,0,0.748-0.086,0.961-0.258
	c0.215-0.172,0.322-0.372,0.322-0.603c0-0.166-0.063-0.328-0.188-0.483c-0.137-0.146-0.459-0.331-0.971-0.556
	c-0.51-0.224-0.838-0.377-0.982-0.461c-0.24-0.145-0.422-0.316-0.547-0.515s-0.188-0.427-0.188-0.688
	c0-0.447,0.178-0.833,0.539-1.155c0.359-0.323,0.861-0.484,1.508-0.484c0.719,0,1.266,0.164,1.641,0.492s0.566,0.763,0.578,1.305
	l-0.953,0.063c-0.012-0.345-0.131-0.614-0.359-0.813s-0.553-0.297-0.969-0.297c-0.344,0-0.607,0.075-0.789,0.226
	c-0.184,0.151-0.273,0.321-0.273,0.509c0,0.177,0.078,0.333,0.234,0.469c0.104,0.094,0.379,0.234,0.828,0.422
	c0.75,0.323,1.219,0.578,1.406,0.765c0.313,0.303,0.469,0.667,0.469,1.095c0,0.28-0.086,0.557-0.258,0.828
	c-0.172,0.271-0.438,0.486-0.799,0.648c-0.357,0.161-0.777,0.242-1.256,0.242c-0.656,0-1.219-0.162-1.688-0.485
	C350.388,218.985,350.169,218.453,350.191,217.714L350.191,217.714z M359.8,217.729l0.938,0.095
	c-0.137,0.469-0.449,0.914-0.938,1.336c-0.49,0.422-1.074,0.633-1.75,0.633c-0.416,0-0.803-0.096-1.156-0.289
	c-0.355-0.193-0.625-0.477-0.814-0.852c-0.186-0.375-0.279-0.798-0.279-1.266c0-0.625,0.145-1.231,0.438-1.821
	c0.291-0.588,0.666-1.022,1.125-1.304c0.457-0.282,0.953-0.422,1.484-0.422c0.676,0,1.219,0.211,1.625,0.633
	c0.406,0.421,0.607,0.997,0.607,1.727c0,0.28-0.02,0.567-0.061,0.858h-4.203c-0.021,0.115-0.031,0.214-0.031,0.297
	c0,0.532,0.121,0.938,0.367,1.22c0.244,0.28,0.543,0.422,0.898,0.422c0.334,0,0.662-0.109,0.984-0.328
	S359.613,218.136,359.8,217.729L359.8,217.729z M356.972,216.307h3.203c0-0.093,0-0.161,0-0.203c0-0.488-0.123-0.863-0.367-1.125
	c-0.246-0.26-0.561-0.39-0.945-0.39c-0.408,0-0.783,0.143-1.125,0.429C357.394,215.305,357.138,215.735,356.972,216.307
	L356.972,216.307z M363.777,216.87l-0.797-2.469h0.766l1.031,2.594l-2.094,2.281h-0.875L363.777,216.87L363.777,216.87z
	 M365.871,216.917l-0.797-2.516h0.734l1.094,2.609l-2.172,2.266h-0.781L365.871,216.917L365.871,216.917z"/>
<line fill="none" stroke="#000000" stroke-miterlimit="1.45" x1="273.404" y1="228.245" x2="273.404" y2="180.632"/>
<polygon points="273.404,235.245 268.403,228.245 273.404,221.245 278.404,228.245 "/>
<line fill="none" stroke="#000000" stroke-miterlimit="1.45" x1="273.404" y1="147.154" x2="273.404" y2="99.541"/>
<polygon points="273.404,154.154 268.403,147.154 273.404,140.154 278.404,147.154 "/>
<line fill="none" stroke="#000000" stroke-miterlimit="1.45" stroke-dasharray="6,2" x1="232.131" y1="73.087" x2="122.063" y2="37.779"/>
<polygon points="118.254,36.557 127.848,45.935 118.254,36.557 131.514,34.509 "/>
<polygon fill="none" stroke="#000000" stroke-linecap="square" stroke-miterlimit="10" points="118.254,36.557 127.848,45.935 
	118.254,36.557 131.514,34.509 "/>
<path fill="#808080" d="M161.605,39.975l0.859,2.438h-0.734l-1.141-2.563l2.156-2.312h0.766L161.605,39.975L161.605,39.975z
	 M163.73,39.975l0.843,2.438h-0.781l-1.078-2.563l2.094-2.312h0.828L163.73,39.975L163.73,39.975z M170.113,41.772
	c-0.687,0.771-1.391,1.156-2.109,1.156c-0.438,0-0.792-0.125-1.063-0.375s-0.406-0.557-0.406-0.922c0-0.239,0.062-0.651,0.187-1.234
	l0.688-3.297h0.969l-0.766,3.641c-0.063,0.312-0.094,0.552-0.094,0.718c0,0.209,0.065,0.373,0.196,0.493
	c0.13,0.119,0.32,0.179,0.57,0.179c0.281,0,0.549-0.065,0.805-0.195c0.255-0.13,0.476-0.307,0.664-0.531
	c0.187-0.224,0.343-0.492,0.468-0.805c0.073-0.198,0.162-0.542,0.266-1.031l0.516-2.469h0.984l-1.203,5.703h-0.891L170.113,41.772
	L170.113,41.772z M172.418,40.85l0.969-0.062c0,0.281,0.044,0.52,0.133,0.718c0.088,0.198,0.247,0.36,0.476,0.485
	s0.5,0.187,0.813,0.187c0.427,0,0.747-0.086,0.961-0.258c0.213-0.171,0.32-0.372,0.32-0.601c0-0.167-0.062-0.328-0.187-0.485
	c-0.136-0.145-0.459-0.33-0.969-0.554c-0.511-0.224-0.839-0.378-0.985-0.461c-0.239-0.146-0.421-0.318-0.546-0.516
	c-0.125-0.198-0.188-0.427-0.188-0.687c0-0.448,0.18-0.834,0.539-1.157c0.36-0.322,0.862-0.484,1.508-0.484
	c0.719,0,1.266,0.164,1.641,0.492s0.567,0.763,0.578,1.305l-0.953,0.062c-0.011-0.343-0.131-0.614-0.36-0.812
	c-0.229-0.198-0.552-0.297-0.969-0.297c-0.343,0-0.606,0.076-0.789,0.227c-0.182,0.151-0.273,0.32-0.273,0.507
	c0,0.178,0.078,0.334,0.234,0.469c0.104,0.094,0.381,0.235,0.828,0.422c0.75,0.323,1.219,0.578,1.407,0.766
	c0.312,0.302,0.468,0.666,0.468,1.093c0,0.282-0.085,0.558-0.257,0.829c-0.172,0.27-0.438,0.487-0.797,0.648
	c-0.36,0.162-0.779,0.242-1.258,0.242c-0.656,0-1.219-0.161-1.688-0.484C172.617,42.121,172.397,41.59,172.418,40.85L172.418,40.85z
	 M182.028,40.866l0.937,0.093c-0.135,0.469-0.448,0.915-0.937,1.336c-0.49,0.422-1.073,0.633-1.75,0.633
	c-0.417,0-0.803-0.096-1.157-0.289c-0.354-0.193-0.625-0.476-0.812-0.851c-0.188-0.375-0.281-0.797-0.281-1.266
	c0-0.625,0.145-1.232,0.437-1.82c0.292-0.589,0.667-1.024,1.125-1.305c0.458-0.281,0.953-0.422,1.484-0.422
	c0.678,0,1.219,0.211,1.625,0.633c0.407,0.422,0.61,0.997,0.61,1.726c0,0.282-0.021,0.568-0.063,0.86h-4.203
	c-0.021,0.114-0.031,0.213-0.031,0.297c0,0.531,0.122,0.937,0.367,1.218c0.245,0.282,0.544,0.422,0.899,0.422
	c0.333,0,0.661-0.109,0.984-0.328C181.585,41.584,181.84,41.272,182.028,40.866L182.028,40.866z M179.2,39.444h3.204
	c0-0.094,0-0.162,0-0.203c0-0.49-0.123-0.865-0.368-1.125c-0.244-0.261-0.56-0.391-0.945-0.391c-0.406,0-0.781,0.143-1.125,0.43
	C179.622,38.441,179.367,38.871,179.2,39.444L179.2,39.444z M186.005,40.006l-0.797-2.468h0.765l1.032,2.593l-2.094,2.282h-0.875
	L186.005,40.006L186.005,40.006z M188.099,40.053l-0.797-2.515h0.735l1.094,2.609l-2.172,2.266h-0.782L188.099,40.053
	L188.099,40.053z"/>
<line fill="none" stroke="#000000" stroke-miterlimit="1.45" stroke-dasharray="6,2" x1="273.404" y1="261.728" x2="273.404" y2="339.697"/>
<polygon points="273.404,343.697 279.404,331.697 273.404,343.697 267.403,331.697 "/>
<polygon fill="none" stroke="#000000" stroke-linecap="square" stroke-miterlimit="10" points="273.404,343.697 279.404,331.697 
	273.404,343.697 267.403,331.697 "/>
<path fill="#808080" d="M241.309,304.693l0.859,2.438h-0.734l-1.141-2.563l2.156-2.312h0.766L241.309,304.693L241.309,304.693z
	 M243.434,304.693l0.843,2.438h-0.781l-1.078-2.563l2.094-2.312h0.828L243.434,304.693L243.434,304.693z M249.816,306.49
	c-0.688,0.771-1.391,1.156-2.109,1.156c-0.438,0-0.792-0.125-1.063-0.375s-0.406-0.558-0.406-0.922c0-0.239,0.063-0.65,0.188-1.234
	l0.688-3.298h0.969l-0.766,3.642c-0.063,0.313-0.094,0.552-0.094,0.719c0,0.208,0.065,0.372,0.196,0.492
	c0.13,0.12,0.32,0.18,0.57,0.18c0.281,0,0.549-0.064,0.805-0.195c0.255-0.131,0.476-0.308,0.664-0.531
	c0.187-0.225,0.343-0.492,0.468-0.806c0.073-0.196,0.162-0.54,0.266-1.03l0.516-2.47h0.984l-1.203,5.704h-0.891L249.816,306.49
	L249.816,306.49z M252.122,305.567l0.969-0.062c0,0.281,0.044,0.521,0.133,0.719c0.088,0.198,0.247,0.359,0.476,0.484
	s0.5,0.188,0.813,0.188c0.427,0,0.747-0.086,0.961-0.258c0.213-0.172,0.32-0.373,0.32-0.602c0-0.166-0.062-0.328-0.187-0.484
	c-0.136-0.146-0.459-0.331-0.969-0.555c-0.511-0.225-0.839-0.377-0.985-0.461c-0.239-0.146-0.421-0.317-0.546-0.516
	c-0.125-0.197-0.188-0.427-0.188-0.688c0-0.448,0.18-0.833,0.539-1.156s0.862-0.484,1.508-0.484c0.719,0,1.266,0.164,1.641,0.492
	s0.567,0.764,0.578,1.305l-0.953,0.063c-0.011-0.344-0.131-0.615-0.36-0.813c-0.229-0.198-0.552-0.297-0.969-0.297
	c-0.343,0-0.606,0.075-0.789,0.227c-0.182,0.151-0.273,0.32-0.273,0.508c0,0.177,0.078,0.333,0.234,0.469
	c0.104,0.094,0.38,0.234,0.828,0.421c0.75,0.323,1.219,0.579,1.407,0.767c0.312,0.302,0.468,0.667,0.468,1.094
	c0,0.281-0.086,0.558-0.257,0.828c-0.172,0.271-0.438,0.487-0.797,0.648c-0.36,0.161-0.779,0.242-1.258,0.242
	c-0.656,0-1.219-0.161-1.688-0.484C252.319,306.839,252.101,306.308,252.122,305.567L252.122,305.567z M261.731,305.584l0.937,0.094
	c-0.135,0.469-0.448,0.914-0.937,1.336c-0.49,0.422-1.073,0.633-1.75,0.633c-0.417,0-0.803-0.097-1.157-0.288
	c-0.354-0.193-0.625-0.478-0.812-0.853c-0.188-0.375-0.281-0.797-0.281-1.266c0-0.625,0.145-1.231,0.437-1.82
	s0.667-1.023,1.125-1.305s0.953-0.422,1.484-0.422c0.677,0,1.219,0.211,1.625,0.633c0.407,0.422,0.61,0.998,0.61,1.727
	c0,0.281-0.021,0.568-0.063,0.859h-4.203c-0.021,0.115-0.031,0.214-0.031,0.297c0,0.531,0.122,0.938,0.367,1.219
	s0.544,0.422,0.899,0.422c0.333,0,0.661-0.109,0.984-0.328C261.289,306.303,261.543,305.99,261.731,305.584L261.731,305.584z
	 M258.902,304.162h3.204c0-0.095,0-0.161,0-0.203c0-0.489-0.123-0.864-0.368-1.125c-0.244-0.26-0.56-0.391-0.945-0.391
	c-0.406,0-0.781,0.144-1.125,0.43C259.325,303.16,259.069,303.589,258.902,304.162L258.902,304.162z M265.708,304.725l-0.797-2.469
	h0.765l1.032,2.594l-2.094,2.281h-0.875L265.708,304.725L265.708,304.725z M267.802,304.771l-0.797-2.516h0.735l1.094,2.609
	l-2.172,2.266h-0.782L267.802,304.771L267.802,304.771z"/>
</svg>
