<?xml version="1.0" encoding="utf-8"?>
<!-- Generator: Adobe Illustrator 16.0.0, SVG Export Plug-In . SVG Version: 6.00 Build 0)  -->
<!DOCTYPE svg PUBLIC "-//W3C//DTD SVG 1.1//EN" "http://www.w3.org/Graphics/SVG/1.1/DTD/svg11.dtd">
<svg version="1.1" id="Layer_1" xmlns="http://www.w3.org/2000/svg" xmlns:xlink="http://www.w3.org/1999/xlink" x="0px" y="0px"
	 width="540px" height="324px" viewBox="0 0 540 324" enable-background="new 0 0 540 324" xml:space="preserve">
<polygon fill="#BFFFBF" points="398,286.89 534,286.89 534,310.89 398,310.89 398,286.89 "/>
<polygon fill="#FFFFFF" points="397,285.89 398,285.89 398,311.89 397,311.89 397,285.89 "/>
<polygon fill="#FFFFFF" points="398,285.89 534,285.89 534,286.89 398,286.89 398,285.89 "/>
<polygon fill="#85B285" points="398,310.89 535,310.89 535,311.89 398,311.89 398,310.89 "/>
<polygon fill="#85B285" points="534,285.89 535,285.89 535,310.89 534,310.89 534,285.89 "/>
<path d="M418.496,304.535h-2.047l-0.811-2.11h-3.719l-0.768,2.11h-2l3.625-9.313h1.986L418.496,304.535L418.496,304.535z
	 M415.027,300.847l-1.281-3.453l-1.25,3.453H415.027L415.027,300.847z M419.478,295.222h3.438c0.771,0,1.359,0.063,1.766,0.188
	c0.553,0.155,1.021,0.439,1.406,0.851c0.387,0.412,0.68,0.914,0.883,1.508c0.203,0.595,0.305,1.328,0.305,2.203
	c0,0.762-0.094,1.422-0.281,1.985c-0.229,0.677-0.563,1.224-1,1.64c-0.322,0.313-0.76,0.559-1.313,0.735
	c-0.416,0.135-0.975,0.203-1.672,0.203h-3.531V295.222L419.478,295.222z M421.353,296.8v6.172h1.406
	c0.531,0,0.912-0.031,1.141-0.093c0.303-0.073,0.555-0.201,0.758-0.383c0.203-0.184,0.367-0.482,0.492-0.899
	c0.125-0.416,0.188-0.983,0.188-1.703c0-0.719-0.063-1.271-0.188-1.655c-0.125-0.386-0.301-0.688-0.531-0.906
	c-0.229-0.219-0.52-0.365-0.875-0.438c-0.26-0.062-0.775-0.094-1.547-0.094H421.353L421.353,296.8z M428.492,299.94
	c0-0.947,0.141-1.744,0.422-2.391c0.219-0.468,0.51-0.893,0.875-1.272c0.365-0.381,0.766-0.659,1.203-0.837
	c0.572-0.25,1.24-0.375,2-0.375c1.375,0,2.475,0.428,3.297,1.281c0.822,0.855,1.234,2.037,1.234,3.547
	c0,1.5-0.408,2.676-1.227,3.524s-1.908,1.272-3.273,1.272c-1.385,0-2.488-0.422-3.305-1.266
	C428.9,302.582,428.492,301.42,428.492,299.94L428.492,299.94z M430.429,299.879c0,1.052,0.244,1.849,0.734,2.39
	c0.49,0.542,1.104,0.813,1.844,0.813c0.75,0,1.367-0.27,1.852-0.805c0.484-0.536,0.727-1.347,0.727-2.431
	c0-1.062-0.234-1.855-0.703-2.382c-0.469-0.527-1.094-0.79-1.875-0.79c-0.771,0-1.393,0.266-1.867,0.797
	C430.666,298.004,430.429,298.806,430.429,299.879L430.429,299.879z M438.978,295.222h3.439c0.77,0,1.357,0.063,1.764,0.188
	c0.553,0.155,1.021,0.439,1.406,0.851c0.387,0.412,0.68,0.914,0.883,1.508c0.203,0.595,0.305,1.328,0.305,2.203
	c0,0.762-0.094,1.422-0.281,1.985c-0.229,0.677-0.563,1.224-1,1.64c-0.322,0.313-0.76,0.559-1.313,0.735
	c-0.416,0.135-0.973,0.203-1.672,0.203h-3.531V295.222L438.978,295.222z M440.853,296.8v6.172h1.406
	c0.533,0,0.912-0.031,1.141-0.093c0.303-0.073,0.555-0.201,0.758-0.383c0.203-0.184,0.367-0.482,0.492-0.899
	c0.125-0.416,0.188-0.983,0.188-1.703c0-0.719-0.063-1.271-0.188-1.655c-0.125-0.386-0.301-0.688-0.531-0.906
	c-0.229-0.219-0.52-0.365-0.875-0.438c-0.26-0.062-0.775-0.094-1.547-0.094H440.853L440.853,296.8z M448.382,295.222h3.719
	c0.74,0,1.289,0.032,1.648,0.094c0.359,0.063,0.682,0.193,0.969,0.392s0.525,0.458,0.719,0.781c0.193,0.322,0.289,0.682,0.289,1.077
	c0,0.438-0.119,0.84-0.359,1.203c-0.238,0.365-0.557,0.642-0.953,0.828c0.563,0.157,0.996,0.436,1.305,0.836
	c0.307,0.401,0.461,0.867,0.461,1.399c0,0.427-0.1,0.841-0.297,1.242c-0.197,0.4-0.467,0.721-0.805,0.961
	c-0.338,0.238-0.758,0.385-1.258,0.437c-0.313,0.032-1.066,0.052-2.266,0.063h-3.172V295.222L448.382,295.222z M450.257,296.785
	v2.14h1.234c0.729,0,1.182-0.01,1.359-0.031c0.322-0.03,0.578-0.14,0.766-0.328c0.188-0.187,0.281-0.432,0.281-0.733
	c0-0.282-0.08-0.513-0.242-0.696c-0.162-0.182-0.398-0.289-0.711-0.32c-0.188-0.021-0.725-0.03-1.609-0.03H450.257L450.257,296.785z
	 M450.257,300.472v2.5h1.75c0.678,0,1.104-0.02,1.281-0.062c0.281-0.053,0.51-0.178,0.688-0.375
	c0.178-0.198,0.266-0.458,0.266-0.781c0-0.282-0.068-0.521-0.203-0.719c-0.135-0.198-0.334-0.341-0.594-0.431
	c-0.26-0.088-0.816-0.133-1.672-0.133H450.257L450.257,300.472z M457.755,304.535v-1.781h1.783v1.781H457.755L457.755,304.535z
	 M467.339,301.113l1.811,0.577c-0.281,1.012-0.75,1.764-1.391,2.259c-0.65,0.495-1.471,0.741-2.471,0.741
	c-1.238,0-2.26-0.422-3.059-1.266c-0.791-0.843-1.191-2-1.191-3.468c0-1.542,0.4-2.742,1.201-3.603
	c0.799-0.858,1.859-1.289,3.16-1.289c1.129,0,2.061,0.34,2.779,1.017c0.42,0.396,0.73,0.968,0.951,1.718l-1.861,0.438
	c-0.109-0.479-0.34-0.859-0.689-1.142c-0.35-0.281-0.779-0.422-1.279-0.422c-0.682,0-1.24,0.248-1.682,0.743
	c-0.43,0.494-0.639,1.299-0.639,2.414c0,1.166,0.209,2,0.639,2.5c0.42,0.5,0.98,0.75,1.65,0.75c0.5,0,0.93-0.159,1.291-0.478
	C466.919,302.287,467.179,301.79,467.339,301.113L467.339,301.113z M470.33,301.065c0-0.594,0.15-1.167,0.439-1.719
	c0.291-0.552,0.711-0.974,1.24-1.265c0.541-0.292,1.141-0.438,1.811-0.438c1.01,0,1.84,0.331,2.5,0.992
	c0.65,0.662,0.98,1.498,0.98,2.508c0,1.021-0.33,1.867-0.99,2.539s-1.49,1.008-2.49,1.008c-0.621,0-1.211-0.141-1.77-0.422
	c-0.561-0.28-0.99-0.689-1.281-1.226C470.48,302.506,470.33,301.847,470.33,301.065L470.33,301.065z M472.16,301.16
	c0,0.667,0.16,1.18,0.48,1.539c0.32,0.358,0.709,0.539,1.18,0.539c0.469,0,0.859-0.181,1.17-0.539
	c0.311-0.359,0.471-0.878,0.471-1.556c0-0.655-0.16-1.16-0.471-1.515c-0.311-0.355-0.701-0.532-1.17-0.532
	c-0.471,0-0.859,0.177-1.18,0.532C472.32,299.983,472.16,300.493,472.16,301.16L472.16,301.16z M478.56,297.8h1.639v0.907
	c0.59-0.709,1.291-1.063,2.111-1.063c0.42,0,0.799,0.09,1.109,0.267c0.32,0.177,0.58,0.442,0.789,0.797
	c0.291-0.354,0.611-0.62,0.961-0.797c0.34-0.177,0.699-0.267,1.09-0.267c0.5,0,0.92,0.1,1.26,0.297
	c0.35,0.198,0.6,0.495,0.771,0.892c0.129,0.281,0.189,0.745,0.189,1.39v4.313h-1.781v-3.86c0-0.666-0.068-1.093-0.189-1.281
	c-0.17-0.26-0.42-0.39-0.77-0.39c-0.25,0-0.48,0.075-0.701,0.226c-0.219,0.151-0.379,0.375-0.479,0.673
	c-0.102,0.297-0.141,0.763-0.141,1.397v3.235h-1.789v-3.688c0-0.656-0.031-1.08-0.092-1.272c-0.059-0.193-0.158-0.336-0.299-0.431
	c-0.131-0.094-0.311-0.14-0.541-0.14c-0.27,0-0.52,0.075-0.738,0.226c-0.221,0.151-0.381,0.365-0.471,0.642
	c-0.1,0.275-0.15,0.736-0.15,1.383v3.281h-1.779V297.8L478.56,297.8z M490.109,297.8h1.65v0.907c0.59-0.709,1.291-1.063,2.1-1.063
	c0.432,0,0.801,0.09,1.121,0.267s0.58,0.442,0.789,0.797c0.291-0.354,0.611-0.62,0.951-0.797c0.35-0.177,0.709-0.267,1.1-0.267
	c0.5,0,0.92,0.1,1.26,0.297c0.35,0.198,0.6,0.495,0.77,0.892c0.121,0.281,0.189,0.745,0.189,1.39v4.313h-1.779v-3.86
	c0-0.666-0.07-1.093-0.189-1.281c-0.17-0.26-0.42-0.39-0.77-0.39c-0.25,0-0.48,0.075-0.701,0.226
	c-0.219,0.151-0.379,0.375-0.48,0.673c-0.1,0.297-0.148,0.763-0.148,1.397v3.235h-1.781v-3.688c0-0.656-0.029-1.08-0.09-1.272
	c-0.061-0.193-0.16-0.336-0.299-0.431c-0.131-0.094-0.32-0.14-0.541-0.14c-0.279,0-0.52,0.075-0.74,0.226
	c-0.219,0.151-0.379,0.365-0.479,0.642c-0.092,0.275-0.141,0.736-0.141,1.383v3.281h-1.791V297.8L490.109,297.8z M503.14,299.847
	l-1.621-0.297c0.189-0.645,0.5-1.125,0.939-1.437c0.451-0.313,1.102-0.47,1.98-0.47c0.801,0,1.4,0.095,1.781,0.281
	c0.389,0.188,0.66,0.428,0.82,0.719c0.158,0.292,0.238,0.823,0.238,1.595l-0.01,2.077c0,0.595,0.031,1.031,0.08,1.313
	c0.061,0.281,0.17,0.583,0.32,0.906h-1.76c-0.051-0.115-0.109-0.292-0.17-0.531c-0.029-0.105-0.061-0.172-0.07-0.204
	c-0.311,0.292-0.641,0.513-0.98,0.665c-0.34,0.151-0.709,0.226-1.109,0.226c-0.699,0-1.24-0.189-1.641-0.569s-0.59-0.857-0.59-1.431
	c0-0.375,0.09-0.713,0.27-1.016c0.182-0.302,0.441-0.531,0.762-0.687c0.33-0.156,0.799-0.298,1.42-0.423
	c0.83-0.155,1.408-0.302,1.729-0.437v-0.172c0-0.344-0.08-0.589-0.25-0.735c-0.18-0.145-0.5-0.218-0.969-0.218
	c-0.311,0-0.551,0.062-0.73,0.187S503.259,299.535,503.14,299.847L503.14,299.847z M505.529,301.3
	c-0.229,0.073-0.59,0.162-1.08,0.266c-0.5,0.104-0.818,0.208-0.979,0.313c-0.23,0.166-0.34,0.375-0.34,0.625s0.09,0.466,0.279,0.648
	c0.189,0.182,0.42,0.272,0.699,0.272c0.32,0,0.631-0.104,0.92-0.312c0.221-0.156,0.361-0.354,0.43-0.595
	c0.051-0.146,0.07-0.432,0.07-0.858V301.3L505.529,301.3z M515.169,304.535h-1.779v-3.438c0-0.729-0.041-1.2-0.121-1.414
	c-0.08-0.213-0.199-0.38-0.369-0.5c-0.18-0.12-0.381-0.179-0.621-0.179c-0.299,0-0.58,0.086-0.82,0.257
	c-0.25,0.172-0.42,0.396-0.51,0.672c-0.09,0.276-0.139,0.795-0.139,1.556v3.047h-1.781V297.8h1.66v0.985
	c0.58-0.762,1.32-1.142,2.211-1.142c0.4,0,0.76,0.071,1.08,0.211c0.32,0.142,0.57,0.32,0.74,0.539c0.18,0.22,0.289,0.47,0.359,0.75
	c0.061,0.281,0.09,0.684,0.09,1.203V304.535L515.169,304.535z M523.16,304.535h-1.66v-0.985c-0.27,0.386-0.59,0.672-0.971,0.86
	c-0.369,0.187-0.75,0.28-1.119,0.28c-0.779,0-1.451-0.312-2-0.937c-0.551-0.625-0.83-1.495-0.83-2.61
	c0-1.146,0.27-2.015,0.801-2.608c0.539-0.595,1.219-0.892,2.039-0.892c0.75,0,1.4,0.313,1.961,0.938v-3.36h1.779V304.535
	L523.16,304.535z M518.41,301.019c0,0.72,0.1,1.24,0.289,1.563c0.291,0.468,0.691,0.703,1.211,0.703c0.4,0,0.75-0.176,1.039-0.524
	c0.301-0.349,0.441-0.872,0.441-1.57c0-0.771-0.141-1.327-0.42-1.672c-0.281-0.344-0.641-0.515-1.08-0.515
	c-0.42,0-0.771,0.169-1.051,0.507C518.55,299.85,518.41,300.353,518.41,301.019L518.41,301.019z"/>
<polygon fill="#FFCC99" points="240,239.89 306,239.89 306,263.89 240,263.89 240,239.89 "/>
<polygon fill="#FFFFDA" points="239,238.89 240,238.89 240,264.89 239,264.89 239,238.89 "/>
<polygon fill="#FFFFDA" points="240,238.89 306,238.89 306,239.89 240,239.89 240,238.89 "/>
<polygon fill="#B28E6B" points="240,263.89 307,263.89 307,264.89 240,264.89 240,263.89 "/>
<polygon fill="#B28E6B" points="306,238.89 307,238.89 307,263.89 306,263.89 306,238.89 "/>
<path d="M243.538,254.307l1.828-0.171c0.114,0.614,0.338,1.065,0.672,1.352c0.333,0.286,0.786,0.43,1.359,0.43
	c0.604,0,1.06-0.128,1.367-0.383c0.308-0.255,0.461-0.556,0.461-0.898c0-0.219-0.065-0.407-0.195-0.563
	c-0.13-0.156-0.357-0.292-0.68-0.406c-0.219-0.073-0.719-0.208-1.5-0.406c-1.01-0.25-1.719-0.558-2.125-0.922
	c-0.562-0.511-0.844-1.136-0.844-1.875c0-0.469,0.133-0.909,0.399-1.321c0.265-0.411,0.651-0.726,1.156-0.944
	c0.505-0.22,1.117-0.328,1.836-0.328c1.167,0,2.044,0.258,2.633,0.772c0.588,0.517,0.898,1.201,0.93,2.056l-1.875,0.078
	c-0.084-0.479-0.256-0.823-0.516-1.031c-0.261-0.208-0.656-0.313-1.188-0.313c-0.552,0-0.979,0.11-1.281,0.329
	c-0.198,0.146-0.297,0.338-0.297,0.578c0,0.218,0.089,0.406,0.266,0.562c0.239,0.21,0.818,0.421,1.734,0.634
	c0.917,0.214,1.594,0.435,2.032,0.664c0.437,0.229,0.778,0.544,1.023,0.944c0.245,0.401,0.367,0.899,0.367,1.493
	c0,0.531-0.148,1.028-0.445,1.492c-0.297,0.463-0.716,0.81-1.258,1.039c-0.542,0.229-1.214,0.344-2.016,0.344
	c-1.177,0-2.08-0.273-2.711-0.821C244.04,256.143,243.663,255.349,243.538,254.307L243.538,254.307z M260.177,256.15
	c0.459,0.334,0.959,0.6,1.5,0.798l-0.688,1.328c-0.281-0.084-0.557-0.203-0.828-0.359c-0.063-0.021-0.479-0.292-1.25-0.813
	c-0.615,0.262-1.292,0.392-2.032,0.392c-1.427,0-2.546-0.422-3.359-1.267c-0.812-0.843-1.219-2.025-1.219-3.547
	c0-1.52,0.407-2.703,1.219-3.546c0.813-0.844,1.917-1.266,3.313-1.266c1.375,0,2.466,0.422,3.273,1.266
	c0.807,0.843,1.211,2.026,1.211,3.546c0,0.803-0.109,1.511-0.328,2.125C260.822,255.276,260.552,255.724,260.177,256.15
	L260.177,256.15z M258.662,255.104c0.239-0.291,0.422-0.638,0.547-1.039c0.125-0.4,0.187-0.861,0.187-1.383
	c0-1.072-0.237-1.875-0.711-2.406c-0.474-0.53-1.096-0.797-1.867-0.797s-1.393,0.267-1.867,0.797
	c-0.474,0.531-0.711,1.334-0.711,2.406c0,1.095,0.237,1.909,0.711,2.446c0.474,0.536,1.075,0.804,1.804,0.804
	c0.271,0,0.532-0.041,0.782-0.125c-0.386-0.25-0.776-0.447-1.172-0.593l0.531-1.063
	C257.511,254.359,258.099,254.677,258.662,255.104L258.662,255.104z M262.852,257.339v-9.235h1.875v7.672h4.671v1.563H262.852
	L262.852,257.339z M270.729,249.682v-1.656h1.782v1.656H270.729L270.729,249.682z M270.729,257.339v-6.735h1.782v6.735H270.729
	L270.729,257.339z M277.435,250.604v1.422h-1.219v2.703c0,0.553,0.01,0.875,0.031,0.97c0.021,0.094,0.072,0.169,0.156,0.227
	c0.084,0.057,0.184,0.086,0.297,0.086c0.166,0,0.406-0.058,0.719-0.172l0.156,1.39c-0.416,0.178-0.885,0.267-1.406,0.267
	c-0.322,0-0.615-0.056-0.875-0.164c-0.26-0.109-0.451-0.25-0.57-0.422s-0.201-0.404-0.242-0.695
	c-0.041-0.209-0.063-0.625-0.063-1.25v-2.938h-0.813v-1.422h0.813v-1.343l1.797-1.047v2.39H277.435L277.435,250.604z
	 M282.576,255.198l1.768,0.297c-0.23,0.646-0.59,1.141-1.078,1.483c-0.49,0.345-1.105,0.517-1.844,0.517
	c-1.178,0-2.049-0.385-2.609-1.156c-0.449-0.615-0.672-1.386-0.672-2.313c0-1.125,0.293-2.002,0.883-2.633
	c0.588-0.63,1.324-0.944,2.209-0.944c1.012,0,1.805,0.331,2.383,0.991c0.578,0.662,0.854,1.676,0.822,3.039h-4.469
	c0.02,0.532,0.166,0.943,0.436,1.235c0.271,0.291,0.615,0.437,1.033,0.437c0.281,0,0.514-0.074,0.703-0.226
	C282.326,255.773,282.472,255.531,282.576,255.198L282.576,255.198z M282.671,253.386c-0.012-0.511-0.145-0.901-0.398-1.172
	c-0.256-0.271-0.566-0.407-0.93-0.407c-0.387,0-0.709,0.142-0.971,0.422c-0.25,0.292-0.375,0.678-0.375,1.157H282.671
	L282.671,253.386z M285.9,248.025h3.438c0.771,0,1.359,0.063,1.766,0.188c0.553,0.156,1.021,0.44,1.406,0.851
	c0.387,0.412,0.68,0.914,0.883,1.509c0.203,0.594,0.305,1.328,0.305,2.202c0,0.762-0.094,1.423-0.281,1.985
	c-0.229,0.677-0.563,1.225-1,1.641c-0.322,0.313-0.76,0.558-1.313,0.734c-0.416,0.135-0.973,0.203-1.672,0.203H285.9V248.025
	L285.9,248.025z M287.775,249.604v6.172h1.406c0.531,0,0.912-0.03,1.141-0.094c0.303-0.071,0.557-0.2,0.758-0.382
	c0.203-0.183,0.367-0.482,0.492-0.899c0.125-0.416,0.188-0.983,0.188-1.702c0-0.72-0.063-1.271-0.188-1.656
	c-0.125-0.386-0.301-0.688-0.529-0.906c-0.23-0.219-0.521-0.365-0.877-0.438c-0.26-0.063-0.775-0.095-1.547-0.095H287.775
	L287.775,249.604z M295.304,248.025h3.719c0.74,0,1.289,0.031,1.648,0.095c0.359,0.062,0.682,0.192,0.969,0.391
	s0.525,0.458,0.719,0.781s0.289,0.682,0.289,1.078c0,0.437-0.119,0.839-0.359,1.203c-0.238,0.364-0.557,0.641-0.953,0.827
	c0.563,0.156,0.998,0.436,1.305,0.837c0.307,0.4,0.461,0.866,0.461,1.398c0,0.427-0.098,0.841-0.297,1.242
	c-0.197,0.401-0.465,0.721-0.805,0.961c-0.338,0.239-0.758,0.385-1.258,0.437c-0.313,0.031-1.066,0.053-2.266,0.063h-3.172V248.025
	L295.304,248.025z M297.179,249.589v2.14h1.234c0.729,0,1.182-0.01,1.359-0.03c0.322-0.031,0.578-0.142,0.766-0.328
	c0.188-0.188,0.281-0.433,0.281-0.734c0-0.282-0.08-0.513-0.242-0.696c-0.16-0.182-0.398-0.288-0.711-0.319
	c-0.188-0.021-0.725-0.031-1.609-0.031H297.179L297.179,249.589z M297.179,253.275v2.5h1.75c0.678,0,1.104-0.021,1.281-0.062
	c0.281-0.052,0.51-0.177,0.688-0.375s0.266-0.459,0.266-0.782c0-0.281-0.068-0.52-0.203-0.718s-0.332-0.341-0.594-0.43
	c-0.26-0.088-0.816-0.134-1.672-0.134H297.179L297.179,253.275z"/>
<polygon fill="#FFCC99" points="50,194.89 101,194.89 101,218.89 50,218.89 50,194.89 "/>
<polygon fill="#FFFFDA" points="49,193.89 50,193.89 50,219.89 49,219.89 49,193.89 "/>
<polygon fill="#FFFFDA" points="50,193.89 101,193.89 101,194.89 50,194.89 50,193.89 "/>
<polygon fill="#B28E6B" points="50,218.89 102,218.89 102,219.89 50,219.89 50,218.89 "/>
<polygon fill="#B28E6B" points="101,193.89 102,193.89 102,218.89 101,218.89 101,193.89 "/>
<path d="M55.552,209.216l1.829-0.172c0.114,0.615,0.338,1.064,0.671,1.352c0.334,0.286,0.787,0.43,1.36,0.43
	c0.604,0,1.06-0.127,1.367-0.383c0.307-0.256,0.461-0.555,0.461-0.898c0-0.219-0.065-0.406-0.195-0.563
	c-0.131-0.156-0.357-0.292-0.68-0.406c-0.219-0.072-0.719-0.208-1.5-0.406c-1.01-0.25-1.719-0.557-2.125-0.922
	c-0.563-0.51-0.844-1.135-0.844-1.875c0-0.468,0.133-0.908,0.399-1.32c0.265-0.411,0.651-0.727,1.156-0.945
	c0.505-0.219,1.117-0.327,1.836-0.327c1.167,0,2.044,0.257,2.633,0.772c0.588,0.516,0.898,1.201,0.929,2.055l-1.875,0.078
	c-0.083-0.479-0.255-0.822-0.515-1.03c-0.261-0.209-0.657-0.313-1.188-0.313c-0.552,0-0.979,0.109-1.281,0.328
	c-0.198,0.146-0.297,0.339-0.297,0.578c0,0.219,0.089,0.407,0.266,0.563c0.239,0.208,0.817,0.419,1.734,0.633
	s1.594,0.436,2.031,0.664c0.438,0.229,0.779,0.545,1.024,0.945c0.245,0.401,0.367,0.898,0.367,1.492
	c0,0.531-0.148,1.029-0.445,1.492c-0.297,0.464-0.716,0.81-1.258,1.039s-1.214,0.344-2.016,0.344c-1.177,0-2.08-0.273-2.711-0.82
	C56.055,211.052,55.677,210.258,55.552,209.216L55.552,209.216z M72.191,211.06c0.458,0.333,0.958,0.6,1.5,0.797l-0.687,1.328
	c-0.282-0.083-0.558-0.203-0.828-0.359c-0.063-0.021-0.48-0.291-1.25-0.813c-0.615,0.26-1.292,0.392-2.032,0.392
	c-1.427,0-2.547-0.423-3.359-1.267c-0.813-0.844-1.219-2.025-1.219-3.547c0-1.521,0.406-2.703,1.219-3.547
	c0.812-0.844,1.917-1.265,3.312-1.265c1.375,0,2.467,0.421,3.274,1.265s1.211,2.026,1.211,3.547c0,0.802-0.11,1.511-0.328,2.125
	C72.837,210.185,72.566,210.633,72.191,211.06L72.191,211.06z M70.677,210.013c0.239-0.292,0.421-0.638,0.546-1.039
	c0.125-0.4,0.188-0.861,0.188-1.383c0-1.073-0.237-1.875-0.711-2.406c-0.474-0.53-1.096-0.797-1.867-0.797s-1.393,0.267-1.867,0.797
	c-0.474,0.531-0.711,1.333-0.711,2.406c0,1.094,0.237,1.909,0.711,2.445c0.474,0.537,1.075,0.805,1.804,0.805
	c0.271,0,0.532-0.042,0.782-0.125c-0.386-0.25-0.777-0.448-1.172-0.594l0.531-1.063C69.524,209.268,70.114,209.586,70.677,210.013
	L70.677,210.013z M74.866,212.247v-9.234h1.875v7.672h4.672v1.563H74.866L74.866,212.247z M82.745,212.247v-9.313h1.781v9.313
	H82.745L82.745,212.247z M86.356,204.591v-1.656h1.781v1.656H86.356L86.356,204.591z M86.356,212.247v-6.734h1.781v6.734H86.356
	L86.356,212.247z M89.89,212.247v-9.313h1.782v3.359c0.552-0.625,1.203-0.938,1.953-0.938c0.823,0,1.502,0.298,2.039,0.891
	c0.536,0.594,0.805,1.448,0.805,2.563c0,1.146-0.274,2.031-0.821,2.656s-1.211,0.938-1.992,0.938c-0.385,0-0.766-0.098-1.141-0.289
	c-0.375-0.193-0.698-0.478-0.968-0.853v0.984H89.89L89.89,212.247z M91.656,208.731c0,0.698,0.109,1.214,0.328,1.548
	c0.313,0.479,0.724,0.718,1.235,0.718c0.395,0,0.731-0.169,1.007-0.507c0.276-0.34,0.414-0.873,0.414-1.603
	c0-0.76-0.138-1.313-0.414-1.656s-0.632-0.516-1.07-0.516c-0.427,0-0.784,0.167-1.07,0.5
	C91.798,207.549,91.656,208.055,91.656,208.731L91.656,208.731z"/>
<polygon fill="#FFCC99" points="50,286.89 101,286.89 101,310.89 50,310.89 50,286.89 "/>
<polygon fill="#FFFFDA" points="49,285.89 50,285.89 50,311.89 49,311.89 49,285.89 "/>
<polygon fill="#FFFFDA" points="50,285.89 101,285.89 101,286.89 50,286.89 50,285.89 "/>
<polygon fill="#B28E6B" points="50,310.89 102,310.89 102,311.89 50,311.89 50,310.89 "/>
<polygon fill="#B28E6B" points="101,285.89 102,285.89 102,310.89 101,310.89 101,285.89 "/>
<path d="M63.345,304.535h-2.047l-0.812-2.11h-3.719L56,304.535h-2l3.625-9.313h1.985L63.345,304.535L63.345,304.535z
	 M59.875,300.847l-1.281-3.453l-1.25,3.453H59.875L59.875,300.847z M64.327,295.222h3.438c0.77,0,1.359,0.063,1.765,0.188
	c0.552,0.155,1.021,0.439,1.407,0.851c0.385,0.412,0.679,0.914,0.882,1.508c0.203,0.595,0.305,1.328,0.305,2.203
	c0,0.762-0.094,1.422-0.281,1.985c-0.229,0.677-0.563,1.224-1,1.64c-0.323,0.313-0.761,0.559-1.313,0.735
	c-0.416,0.135-0.974,0.203-1.672,0.203h-3.531V295.222L64.327,295.222z M66.202,296.8v6.172h1.406c0.532,0,0.912-0.031,1.141-0.093
	c0.302-0.073,0.555-0.201,0.758-0.383c0.203-0.184,0.367-0.482,0.492-0.899c0.125-0.416,0.188-0.983,0.188-1.703
	c0-0.719-0.063-1.271-0.188-1.655c-0.125-0.386-0.302-0.688-0.531-0.906c-0.229-0.219-0.521-0.365-0.875-0.438
	c-0.261-0.062-0.776-0.094-1.547-0.094H66.202L66.202,296.8z M73.339,299.94c0-0.947,0.141-1.744,0.422-2.391
	c0.219-0.468,0.511-0.893,0.875-1.272c0.365-0.381,0.766-0.659,1.203-0.837c0.573-0.25,1.24-0.375,2-0.375
	c1.375,0,2.474,0.428,3.297,1.281c0.823,0.855,1.235,2.037,1.235,3.547c0,1.5-0.409,2.676-1.227,3.524s-1.909,1.272-3.273,1.272
	c-1.386,0-2.487-0.422-3.305-1.266C73.749,302.582,73.339,301.42,73.339,299.94L73.339,299.94z M75.277,299.879
	c0,1.052,0.245,1.849,0.734,2.39c0.49,0.542,1.104,0.813,1.844,0.813c0.75,0,1.367-0.27,1.852-0.805
	c0.484-0.536,0.726-1.347,0.726-2.431c0-1.062-0.234-1.855-0.703-2.382c-0.469-0.527-1.094-0.79-1.875-0.79
	c-0.771,0-1.393,0.266-1.867,0.797C75.515,298.004,75.277,298.806,75.277,299.879L75.277,299.879z M83.827,304.535v-9.313h1.781
	v9.313H83.827L83.827,304.535z M87.438,296.879v-1.657h1.781v1.657H87.438L87.438,296.879z M87.438,304.535V297.8h1.781v6.735
	H87.438L87.438,304.535z M90.973,304.535v-9.313h1.781v3.36c0.552-0.625,1.203-0.938,1.953-0.938c0.823,0,1.503,0.297,2.039,0.892
	c0.537,0.594,0.805,1.448,0.805,2.562c0,1.146-0.274,2.032-0.821,2.657c-0.546,0.625-1.21,0.937-1.992,0.937
	c-0.385,0-0.765-0.096-1.14-0.288c-0.375-0.193-0.698-0.478-0.969-0.853v0.985H90.973L90.973,304.535z M92.737,301.019
	c0,0.698,0.11,1.215,0.328,1.547c0.313,0.479,0.724,0.72,1.235,0.72c0.396,0,0.732-0.169,1.008-0.508
	c0.276-0.34,0.414-0.872,0.414-1.603c0-0.76-0.138-1.312-0.414-1.656c-0.276-0.344-0.633-0.515-1.071-0.515
	c-0.427,0-0.784,0.166-1.07,0.5C92.881,299.837,92.737,300.342,92.737,301.019L92.737,301.019z"/>
<polygon fill="#BFFFBF" points="398,194.89 534,194.89 534,218.89 398,218.89 398,194.89 "/>
<polygon fill="#FFFFFF" points="397,193.89 398,193.89 398,219.89 397,219.89 397,193.89 "/>
<polygon fill="#FFFFFF" points="398,193.89 534,193.89 534,194.89 398,194.89 398,193.89 "/>
<polygon fill="#85B285" points="398,218.89 535,218.89 535,219.89 398,219.89 398,218.89 "/>
<polygon fill="#85B285" points="534,193.89 535,193.89 535,218.89 534,218.89 534,193.89 "/>
<path d="M414.529,212.247h-2.047l-0.813-2.109h-3.719l-0.766,2.109h-2l3.625-9.313h1.984L414.529,212.247L414.529,212.247z
	 M411.06,208.56l-1.281-3.453l-1.25,3.453H411.06L411.06,208.56z M415.511,202.935h3.438c0.771,0,1.359,0.063,1.766,0.188
	c0.553,0.157,1.021,0.439,1.406,0.852c0.387,0.411,0.68,0.914,0.883,1.508s0.305,1.328,0.305,2.203c0,0.761-0.094,1.422-0.281,1.984
	c-0.229,0.677-0.563,1.224-1,1.641c-0.324,0.313-0.76,0.558-1.313,0.734c-0.416,0.136-0.975,0.203-1.672,0.203h-3.531V202.935
	L415.511,202.935z M417.386,204.513v6.172h1.406c0.531,0,0.91-0.03,1.141-0.094c0.303-0.073,0.555-0.2,0.758-0.383
	s0.367-0.481,0.492-0.898s0.188-0.984,0.188-1.703s-0.063-1.271-0.188-1.656s-0.301-0.688-0.531-0.906
	c-0.229-0.219-0.52-0.364-0.875-0.438c-0.26-0.063-0.777-0.094-1.547-0.094H417.386L417.386,204.513z M424.525,207.654
	c0-0.948,0.141-1.745,0.422-2.392c0.219-0.469,0.51-0.893,0.875-1.272c0.363-0.382,0.766-0.659,1.203-0.836
	c0.572-0.25,1.238-0.375,2-0.375c1.375,0,2.473,0.427,3.297,1.28c0.822,0.854,1.234,2.036,1.234,3.547c0,1.5-0.41,2.675-1.227,3.523
	c-0.818,0.849-1.908,1.274-3.273,1.274c-1.385,0-2.488-0.423-3.307-1.267C424.933,210.294,424.525,209.133,424.525,207.654
	L424.525,207.654z M426.462,207.591c0,1.052,0.244,1.849,0.734,2.391c0.488,0.541,1.104,0.813,1.844,0.813
	c0.75,0,1.367-0.269,1.852-0.804c0.482-0.537,0.727-1.348,0.727-2.431c0-1.063-0.234-1.856-0.703-2.383
	c-0.469-0.525-1.094-0.789-1.875-0.789c-0.771,0-1.395,0.267-1.867,0.797C426.699,205.716,426.462,206.518,426.462,207.591
	L426.462,207.591z M435.011,202.935h3.438c0.771,0,1.359,0.063,1.766,0.188c0.553,0.157,1.021,0.439,1.406,0.852
	c0.387,0.411,0.68,0.914,0.883,1.508s0.305,1.328,0.305,2.203c0,0.761-0.094,1.422-0.281,1.984c-0.229,0.677-0.563,1.224-1,1.641
	c-0.324,0.313-0.76,0.558-1.313,0.734c-0.416,0.136-0.975,0.203-1.672,0.203h-3.531V202.935L435.011,202.935z M436.886,204.513
	v6.172h1.406c0.531,0,0.91-0.03,1.141-0.094c0.303-0.073,0.555-0.2,0.758-0.383s0.367-0.481,0.492-0.898s0.188-0.984,0.188-1.703
	s-0.063-1.271-0.188-1.656s-0.301-0.688-0.531-0.906c-0.229-0.219-0.52-0.364-0.875-0.438c-0.26-0.063-0.777-0.094-1.547-0.094
	H436.886L436.886,204.513z M444.416,202.935h3.719c0.74,0,1.289,0.031,1.648,0.095c0.359,0.062,0.682,0.191,0.967,0.39
	c0.287,0.198,0.527,0.459,0.721,0.781c0.191,0.322,0.289,0.683,0.289,1.079c0,0.437-0.121,0.838-0.359,1.202
	c-0.24,0.364-0.557,0.641-0.953,0.828c0.563,0.156,0.996,0.436,1.305,0.836c0.307,0.401,0.461,0.867,0.461,1.398
	c0,0.427-0.1,0.841-0.297,1.242c-0.197,0.4-0.467,0.722-0.805,0.961c-0.34,0.24-0.758,0.386-1.258,0.438
	c-0.313,0.031-1.068,0.053-2.266,0.063h-3.172V202.935L444.416,202.935z M446.291,204.497v2.141h1.234
	c0.729,0,1.182-0.01,1.359-0.031c0.322-0.031,0.578-0.141,0.766-0.327c0.188-0.188,0.281-0.434,0.281-0.735
	c0-0.281-0.082-0.513-0.242-0.695c-0.162-0.182-0.398-0.289-0.711-0.319c-0.188-0.021-0.725-0.032-1.609-0.032H446.291
	L446.291,204.497z M446.291,208.185v2.5h1.75c0.678,0,1.104-0.021,1.281-0.063c0.281-0.052,0.51-0.177,0.688-0.375
	c0.176-0.198,0.266-0.458,0.266-0.781c0-0.281-0.068-0.521-0.203-0.719c-0.137-0.198-0.334-0.341-0.594-0.43
	s-0.818-0.133-1.672-0.133H446.291L446.291,208.185z M453.787,212.247v-1.781h1.781v1.781H453.787L453.787,212.247z
	 M463.369,208.825l1.811,0.579c-0.279,1.01-0.74,1.763-1.391,2.257c-0.648,0.495-1.469,0.743-2.469,0.743
	c-1.24,0-2.26-0.423-3.053-1.267c-0.797-0.844-1.195-2-1.195-3.469c0-1.541,0.4-2.742,1.203-3.602
	c0.805-0.859,1.855-1.288,3.154-1.288c1.141,0,2.061,0.338,2.781,1.015c0.42,0.396,0.738,0.969,0.959,1.719l-1.859,0.438
	c-0.121-0.479-0.35-0.859-0.701-1.141c-0.35-0.28-0.77-0.422-1.27-0.422c-0.689,0-1.25,0.247-1.68,0.742s-0.65,1.3-0.65,2.414
	c0,1.167,0.211,2,0.641,2.5s0.98,0.75,1.66,0.75c0.5,0,0.93-0.159,1.289-0.477C462.949,210,463.21,209.503,463.369,208.825
	L463.369,208.825z M466.369,208.779c0-0.595,0.141-1.167,0.432-1.72c0.299-0.552,0.709-0.974,1.25-1.266
	c0.529-0.291,1.129-0.438,1.799-0.438c1.01,0,1.84,0.33,2.5,0.992c0.66,0.661,0.98,1.497,0.98,2.508c0,1.021-0.33,1.867-0.99,2.539
	s-1.49,1.009-2.49,1.009c-0.609,0-1.199-0.142-1.77-0.423c-0.561-0.281-0.98-0.689-1.279-1.227
	C466.509,210.219,466.369,209.56,466.369,208.779L466.369,208.779z M468.189,208.872c0,0.667,0.16,1.18,0.48,1.539
	s0.711,0.539,1.18,0.539c0.471,0,0.861-0.18,1.17-0.539c0.311-0.359,0.471-0.877,0.471-1.555c0-0.656-0.16-1.161-0.471-1.516
	c-0.309-0.354-0.699-0.531-1.17-0.531c-0.469,0-0.859,0.178-1.18,0.531C468.349,207.695,468.189,208.206,468.189,208.872
	L468.189,208.872z M480.849,212.247h-1.779v-3.438c0-0.729-0.041-1.201-0.109-1.414c-0.08-0.214-0.211-0.38-0.381-0.5
	s-0.381-0.18-0.619-0.18c-0.301,0-0.57,0.086-0.82,0.258c-0.24,0.172-0.41,0.396-0.5,0.672c-0.102,0.276-0.15,0.794-0.15,1.555
	v3.047h-1.779v-6.734h1.658v0.984c0.58-0.76,1.32-1.141,2.221-1.141c0.391,0,0.75,0.07,1.08,0.211c0.32,0.141,0.57,0.32,0.74,0.539
	s0.289,0.469,0.35,0.75s0.09,0.683,0.09,1.203V212.247L480.849,212.247z M488.789,212.247h-1.779v-3.438
	c0-0.729-0.039-1.201-0.109-1.414c-0.08-0.214-0.211-0.38-0.381-0.5s-0.379-0.18-0.619-0.18c-0.301,0-0.57,0.086-0.82,0.258
	c-0.24,0.172-0.41,0.396-0.5,0.672c-0.1,0.276-0.141,0.794-0.141,1.555v3.047h-1.789v-6.734h1.66v0.984
	c0.58-0.76,1.32-1.141,2.219-1.141c0.4,0,0.75,0.07,1.08,0.211c0.32,0.141,0.57,0.32,0.74,0.539s0.291,0.469,0.35,0.75
	c0.061,0.281,0.09,0.683,0.09,1.203V212.247L488.789,212.247z M494.519,210.106l1.76,0.298c-0.229,0.645-0.59,1.14-1.08,1.483
	c-0.479,0.344-1.1,0.517-1.84,0.517c-1.18,0-2.049-0.387-2.609-1.157c-0.449-0.614-0.67-1.385-0.67-2.313
	c0-1.125,0.289-2.003,0.879-2.633c0.592-0.63,1.33-0.945,2.211-0.945c1.01,0,1.811,0.33,2.391,0.992
	c0.57,0.661,0.85,1.674,0.82,3.039h-4.471c0.02,0.531,0.16,0.943,0.439,1.234c0.27,0.292,0.611,0.438,1.031,0.438
	c0.279,0,0.51-0.076,0.699-0.227C494.269,210.682,494.41,210.439,494.519,210.106L494.519,210.106z M494.609,208.294
	c-0.01-0.51-0.139-0.901-0.4-1.172c-0.25-0.271-0.559-0.406-0.93-0.406c-0.379,0-0.709,0.141-0.969,0.422
	c-0.25,0.292-0.371,0.677-0.371,1.156H494.609L494.609,208.294z M503.72,207.497l-1.771,0.313c-0.049-0.344-0.18-0.604-0.398-0.78
	c-0.211-0.178-0.49-0.267-0.82-0.267c-0.439,0-0.791,0.151-1.051,0.453c-0.27,0.302-0.4,0.818-0.4,1.547
	c0,0.792,0.131,1.354,0.4,1.688c0.279,0.334,0.631,0.5,1.08,0.5c0.35,0,0.631-0.097,0.84-0.289c0.211-0.192,0.361-0.523,0.439-0.992
	l1.771,0.297c-0.191,0.802-0.541,1.409-1.061,1.82c-0.51,0.412-1.199,0.618-2.07,0.618c-0.99,0-1.77-0.313-2.35-0.938
	c-0.59-0.625-0.881-1.484-0.881-2.578c0-1.115,0.291-1.981,0.881-2.602c0.58-0.619,1.381-0.93,2.391-0.93
	c0.818,0,1.469,0.178,1.959,0.531C503.16,206.242,503.509,206.779,503.72,207.497L503.72,207.497z M508.16,205.513v1.422h-1.211
	v2.703c0,0.552,0.01,0.875,0.031,0.969c0.02,0.094,0.07,0.169,0.15,0.227c0.09,0.058,0.189,0.086,0.299,0.086
	c0.17,0,0.41-0.057,0.721-0.172l0.16,1.391c-0.42,0.177-0.891,0.267-1.41,0.267c-0.32,0-0.621-0.056-0.881-0.164
	c-0.26-0.11-0.449-0.25-0.57-0.423c-0.119-0.172-0.199-0.403-0.24-0.695c-0.039-0.208-0.059-0.625-0.059-1.25v-2.938h-0.811v-1.422
	h0.811v-1.344l1.799-1.047v2.391H508.16L508.16,205.513z M509.4,204.591v-1.656h1.779v1.656H509.4L509.4,204.591z M509.4,212.247
	v-6.734h1.779v6.734H509.4L509.4,212.247z M512.589,208.779c0-0.595,0.15-1.167,0.439-1.72c0.291-0.552,0.701-0.974,1.24-1.266
	c0.541-0.291,1.141-0.438,1.801-0.438c1.01,0,1.85,0.33,2.5,0.992c0.66,0.661,0.99,1.497,0.99,2.508c0,1.021-0.33,1.867-0.99,2.539
	c-0.67,0.672-1.5,1.009-2.5,1.009c-0.609,0-1.201-0.142-1.76-0.423c-0.561-0.281-0.99-0.689-1.281-1.227
	C512.74,210.219,512.589,209.56,512.589,208.779L512.589,208.779z M514.419,208.872c0,0.667,0.16,1.18,0.471,1.539
	c0.318,0.359,0.719,0.539,1.18,0.539c0.469,0,0.859-0.18,1.18-0.539c0.311-0.359,0.461-0.877,0.461-1.555
	c0-0.656-0.15-1.161-0.461-1.516c-0.32-0.354-0.711-0.531-1.18-0.531c-0.461,0-0.861,0.178-1.18,0.531
	C514.58,207.695,514.419,208.206,514.419,208.872L514.419,208.872z M527.08,212.247H525.3v-3.438c0-0.729-0.041-1.201-0.121-1.414
	c-0.08-0.214-0.199-0.38-0.379-0.5c-0.17-0.12-0.371-0.18-0.611-0.18c-0.309,0-0.58,0.086-0.82,0.258
	c-0.25,0.172-0.42,0.396-0.51,0.672c-0.09,0.276-0.139,0.794-0.139,1.555v3.047h-1.781v-6.734h1.65v0.984
	c0.59-0.76,1.33-1.141,2.221-1.141c0.4,0,0.76,0.07,1.08,0.211c0.318,0.141,0.568,0.32,0.74,0.539c0.17,0.219,0.289,0.469,0.35,0.75
	c0.07,0.281,0.1,0.683,0.1,1.203V212.247L527.08,212.247z"/>
<polygon fill="#FFCC99" points="214,158.89 331,158.89 331,182.89 214,182.89 214,158.89 "/>
<polygon fill="#FFFFDA" points="213,157.89 214,157.89 214,183.89 213,183.89 213,157.89 "/>
<polygon fill="#FFFFDA" points="214,157.89 331,157.89 331,158.89 214,158.89 214,157.89 "/>
<polygon fill="#B28E6B" points="214,182.89 332,182.89 332,183.89 214,183.89 214,182.89 "/>
<polygon fill="#B28E6B" points="331,157.89 332,157.89 332,182.89 331,182.89 331,157.89 "/>
<path d="M218.987,173.216l1.828-0.172c0.115,0.615,0.339,1.064,0.672,1.352c0.333,0.286,0.787,0.43,1.359,0.43
	c0.605,0,1.06-0.127,1.368-0.383c0.307-0.256,0.461-0.555,0.461-0.898c0-0.219-0.066-0.406-0.196-0.563s-0.356-0.292-0.679-0.406
	c-0.219-0.072-0.719-0.208-1.5-0.406c-1.011-0.25-1.719-0.557-2.125-0.922c-0.563-0.51-0.844-1.135-0.844-1.875
	c0-0.468,0.133-0.909,0.398-1.32c0.266-0.411,0.651-0.727,1.157-0.945c0.505-0.219,1.117-0.327,1.835-0.327
	c1.167,0,2.045,0.257,2.633,0.772c0.589,0.517,0.899,1.201,0.93,2.055l-1.875,0.078c-0.083-0.479-0.255-0.822-0.516-1.03
	c-0.26-0.209-0.656-0.313-1.187-0.313c-0.552,0-0.979,0.109-1.281,0.328c-0.198,0.146-0.297,0.339-0.297,0.578
	c0,0.219,0.088,0.407,0.265,0.563c0.24,0.208,0.818,0.419,1.735,0.634c0.916,0.213,1.593,0.435,2.031,0.663
	c0.437,0.229,0.779,0.545,1.023,0.945c0.245,0.401,0.368,0.898,0.368,1.492c0,0.531-0.149,1.029-0.446,1.492
	c-0.297,0.464-0.716,0.81-1.258,1.039c-0.541,0.229-1.213,0.344-2.015,0.344c-1.177,0-2.081-0.273-2.711-0.82
	S219.112,174.258,218.987,173.216L218.987,173.216z M235.627,175.06c0.458,0.333,0.958,0.6,1.5,0.797l-0.688,1.328
	c-0.281-0.084-0.557-0.203-0.828-0.359c-0.062-0.021-0.479-0.291-1.25-0.813c-0.614,0.26-1.292,0.392-2.031,0.392
	c-1.427,0-2.547-0.423-3.36-1.267c-0.812-0.844-1.218-2.025-1.218-3.547c0-1.521,0.406-2.703,1.218-3.547
	c0.813-0.844,1.917-1.265,3.313-1.265c1.375,0,2.466,0.421,3.273,1.265c0.808,0.844,1.211,2.026,1.211,3.547
	c0,0.802-0.109,1.51-0.328,2.125C236.273,174.185,236.002,174.633,235.627,175.06L235.627,175.06z M234.111,174.013
	c0.24-0.292,0.422-0.638,0.547-1.039c0.125-0.4,0.187-0.861,0.187-1.383c0-1.073-0.236-1.875-0.71-2.406
	c-0.474-0.53-1.097-0.797-1.868-0.797c-0.77,0-1.393,0.267-1.867,0.797c-0.474,0.531-0.711,1.333-0.711,2.406
	c0,1.094,0.237,1.909,0.711,2.445c0.474,0.537,1.076,0.805,1.805,0.805c0.271,0,0.531-0.042,0.781-0.125
	c-0.385-0.25-0.776-0.448-1.172-0.594l0.531-1.063C232.96,173.268,233.549,173.586,234.111,174.013L234.111,174.013z
	 M238.302,176.247v-9.234h1.875v7.672h4.672v1.563H238.302L238.302,176.247z M246.18,168.591v-1.656h1.782v1.656H246.18
	L246.18,168.591z M246.18,176.247v-6.734h1.782v6.734H246.18L246.18,176.247z M252.886,169.513v1.422h-1.219v2.703
	c0,0.552,0.011,0.875,0.032,0.969c0.02,0.094,0.072,0.17,0.156,0.227c0.083,0.058,0.182,0.086,0.297,0.086
	c0.166,0,0.406-0.057,0.718-0.172l0.157,1.391c-0.417,0.177-0.886,0.267-1.407,0.267c-0.322,0-0.614-0.056-0.875-0.164
	c-0.26-0.11-0.45-0.25-0.57-0.423c-0.12-0.172-0.2-0.403-0.242-0.695c-0.042-0.208-0.063-0.625-0.063-1.25v-2.938h-0.812v-1.422
	h0.812v-1.344l1.797-1.047v2.391H252.886L252.886,169.513z M258.027,174.106l1.765,0.298c-0.229,0.645-0.588,1.14-1.078,1.483
	c-0.489,0.344-1.104,0.517-1.844,0.517c-1.177,0-2.046-0.387-2.609-1.157c-0.448-0.614-0.672-1.385-0.672-2.313
	c0-1.125,0.294-2.003,0.883-2.633c0.589-0.63,1.325-0.945,2.211-0.945c1.01,0,1.805,0.33,2.383,0.992
	c0.578,0.661,0.851,1.674,0.82,3.039h-4.469c0.021,0.531,0.167,0.943,0.438,1.234c0.271,0.292,0.614,0.438,1.031,0.438
	c0.281,0,0.516-0.076,0.703-0.227C257.777,174.682,257.922,174.439,258.027,174.106L258.027,174.106z M258.121,172.294
	c-0.01-0.51-0.143-0.901-0.398-1.172c-0.255-0.271-0.565-0.406-0.93-0.406c-0.385,0-0.708,0.141-0.968,0.422
	c-0.25,0.292-0.375,0.677-0.375,1.156H258.121L258.121,172.294z M260.882,173.216l1.828-0.172c0.114,0.615,0.338,1.064,0.672,1.352
	c0.333,0.286,0.786,0.43,1.359,0.43c0.604,0,1.06-0.127,1.367-0.383c0.307-0.256,0.461-0.555,0.461-0.898
	c0-0.219-0.065-0.406-0.195-0.563s-0.357-0.292-0.68-0.406c-0.219-0.072-0.719-0.208-1.5-0.406c-1.01-0.25-1.719-0.557-2.125-0.922
	c-0.562-0.51-0.844-1.135-0.844-1.875c0-0.468,0.133-0.909,0.399-1.32c0.265-0.411,0.651-0.727,1.156-0.945
	c0.505-0.219,1.117-0.327,1.836-0.327c1.167,0,2.044,0.257,2.633,0.772c0.588,0.517,0.898,1.201,0.93,2.055l-1.875,0.078
	c-0.084-0.479-0.256-0.822-0.516-1.03c-0.261-0.209-0.656-0.313-1.188-0.313c-0.552,0-0.979,0.109-1.281,0.328
	c-0.198,0.146-0.297,0.339-0.297,0.578c0,0.219,0.089,0.407,0.266,0.563c0.239,0.208,0.818,0.419,1.734,0.634
	c0.917,0.213,1.594,0.435,2.032,0.663c0.437,0.229,0.778,0.545,1.023,0.945c0.245,0.401,0.367,0.898,0.367,1.492
	c0,0.531-0.148,1.029-0.445,1.492c-0.297,0.464-0.716,0.81-1.258,1.039s-1.214,0.344-2.016,0.344c-1.177,0-2.08-0.273-2.711-0.82
	C261.385,175.052,261.007,174.258,260.882,173.216L260.882,173.216z M277.521,175.06c0.459,0.333,0.959,0.6,1.5,0.797l-0.686,1.328
	c-0.281-0.084-0.559-0.203-0.828-0.359c-0.064-0.021-0.48-0.291-1.25-0.813c-0.615,0.26-1.293,0.392-2.033,0.392
	c-1.426,0-2.546-0.423-3.358-1.267c-0.812-0.844-1.219-2.025-1.219-3.547c0-1.521,0.407-2.703,1.219-3.547
	c0.813-0.844,1.917-1.265,3.313-1.265c1.375,0,2.465,0.421,3.271,1.265c0.809,0.844,1.211,2.026,1.211,3.547
	c0,0.802-0.107,1.51-0.326,2.125C278.167,174.185,277.896,174.633,277.521,175.06L277.521,175.06z M276.007,174.013
	c0.238-0.292,0.422-0.638,0.547-1.039c0.125-0.4,0.186-0.861,0.186-1.383c0-1.073-0.236-1.875-0.711-2.406
	c-0.473-0.53-1.096-0.797-1.867-0.797c-0.77,0-1.393,0.267-1.865,0.797c-0.476,0.531-0.712,1.333-0.712,2.406
	c0,1.094,0.236,1.909,0.712,2.445c0.473,0.537,1.074,0.805,1.803,0.805c0.271,0,0.533-0.042,0.783-0.125
	c-0.387-0.25-0.777-0.448-1.172-0.594l0.529-1.063C274.855,173.268,275.443,173.586,276.007,174.013L276.007,174.013z
	 M280.197,176.247v-9.234h1.875v7.672h4.67v1.563H280.197L280.197,176.247z M288.074,166.935h3.439c0.77,0,1.357,0.063,1.764,0.188
	c0.553,0.157,1.021,0.439,1.406,0.852c0.387,0.411,0.68,0.914,0.883,1.508s0.305,1.328,0.305,2.203c0,0.761-0.094,1.422-0.279,1.984
	c-0.23,0.677-0.564,1.224-1,1.641c-0.324,0.313-0.762,0.558-1.314,0.734c-0.416,0.136-0.973,0.203-1.672,0.203h-3.531V166.935
	L288.074,166.935z M289.949,168.513v6.172h1.406c0.533,0,0.912-0.03,1.141-0.094c0.303-0.073,0.557-0.2,0.76-0.383
	c0.201-0.182,0.365-0.482,0.49-0.898c0.125-0.417,0.188-0.984,0.188-1.703s-0.063-1.271-0.188-1.656s-0.301-0.688-0.529-0.906
	c-0.23-0.219-0.521-0.364-0.875-0.438c-0.262-0.063-0.777-0.094-1.547-0.094H289.949L289.949,168.513z M297.384,176.247v-9.313
	h1.781v3.359c0.553-0.625,1.203-0.938,1.953-0.938c0.822,0,1.502,0.298,2.039,0.891c0.537,0.594,0.805,1.448,0.805,2.563
	c0,1.146-0.273,2.031-0.82,2.656s-1.211,0.938-1.992,0.938c-0.385,0-0.766-0.098-1.141-0.289c-0.375-0.193-0.697-0.478-0.969-0.853
	v0.984H297.384L297.384,176.247z M299.15,172.731c0,0.698,0.109,1.214,0.328,1.548c0.313,0.479,0.725,0.718,1.234,0.718
	c0.396,0,0.732-0.169,1.008-0.507c0.275-0.339,0.414-0.873,0.414-1.603c0-0.76-0.139-1.313-0.414-1.656s-0.633-0.516-1.07-0.516
	c-0.426,0-0.783,0.167-1.07,0.5C299.294,171.549,299.15,172.055,299.15,172.731L299.15,172.731z M305.357,176.247v-9.313h1.875
	v9.313H305.357L305.357,176.247z M315.14,176.247h-1.781v-3.438c0-0.729-0.039-1.201-0.117-1.414c-0.078-0.214-0.203-0.38-0.375-0.5
	c-0.172-0.119-0.377-0.18-0.617-0.18c-0.303,0-0.574,0.086-0.82,0.258c-0.244,0.172-0.414,0.396-0.508,0.672
	c-0.094,0.276-0.141,0.794-0.141,1.555v3.047H309v-6.734h1.656v0.984c0.584-0.76,1.322-1.141,2.219-1.141
	c0.396,0,0.756,0.07,1.078,0.211s0.57,0.32,0.742,0.539s0.289,0.469,0.352,0.75s0.094,0.683,0.094,1.203V176.247L315.14,176.247z
	 M316.175,169.513h0.984v-0.516c0-0.563,0.061-0.984,0.18-1.266s0.342-0.511,0.664-0.688s0.734-0.265,1.234-0.265
	c0.51,0,1.004,0.077,1.484,0.233l-0.234,1.25c-0.281-0.073-0.553-0.108-0.813-0.108c-0.262,0-0.447,0.059-0.563,0.179
	s-0.172,0.352-0.172,0.696v0.483h1.344v1.392h-1.344v5.343h-1.781v-5.343h-0.984V169.513L316.175,169.513z M320.863,172.779
	c0-0.595,0.146-1.167,0.439-1.72c0.291-0.552,0.705-0.974,1.242-1.266c0.535-0.291,1.137-0.438,1.803-0.438
	c1.012,0,1.844,0.33,2.5,0.992c0.658,0.661,0.986,1.497,0.986,2.508c0,1.021-0.332,1.867-0.992,2.539
	c-0.662,0.673-1.494,1.009-2.494,1.009c-0.613,0-1.203-0.142-1.764-0.423c-0.564-0.281-0.99-0.689-1.281-1.227
	C321.009,174.219,320.863,173.56,320.863,172.779L320.863,172.779z M322.691,172.872c0,0.667,0.16,1.18,0.479,1.539
	c0.316,0.359,0.711,0.539,1.178,0.539c0.469,0,0.861-0.18,1.172-0.539c0.313-0.359,0.469-0.877,0.469-1.555
	c0-0.656-0.156-1.161-0.469-1.516c-0.311-0.354-0.703-0.531-1.172-0.531c-0.467,0-0.861,0.178-1.178,0.531
	C322.851,171.695,322.691,172.206,322.691,172.872L322.691,172.872z"/>
<polygon fill="#FFCC99" points="199,77.89 347,77.89 347,101.89 199,101.89 199,77.89 "/>
<polygon fill="#FFFFDA" points="198,76.89 199,76.89 199,102.89 198,102.89 198,76.89 "/>
<polygon fill="#FFFFDA" points="199,76.89 347,76.89 347,77.89 199,77.89 199,76.89 "/>
<polygon fill="#B28E6B" points="199,101.89 348,101.89 348,102.89 199,102.89 199,101.89 "/>
<polygon fill="#B28E6B" points="347,76.89 348,76.89 348,101.89 347,101.89 347,76.89 "/>
<path d="M205.984,92.125l1.828-0.172c0.115,0.614,0.339,1.065,0.672,1.351c0.333,0.287,0.786,0.43,1.359,0.43
	c0.604,0,1.06-0.128,1.367-0.383c0.308-0.255,0.461-0.554,0.461-0.898c0-0.219-0.065-0.406-0.195-0.563
	c-0.13-0.156-0.357-0.291-0.68-0.406c-0.218-0.073-0.718-0.208-1.5-0.406c-1.01-0.25-1.718-0.557-2.125-0.922
	c-0.562-0.51-0.843-1.135-0.843-1.875c0-0.469,0.132-0.909,0.398-1.32c0.266-0.412,0.651-0.727,1.156-0.946
	c0.506-0.218,1.118-0.328,1.836-0.328c1.167,0,2.045,0.258,2.633,0.774c0.589,0.515,0.899,1.2,0.93,2.054l-1.875,0.078
	c-0.084-0.479-0.255-0.822-0.516-1.031c-0.26-0.208-0.656-0.312-1.187-0.312c-0.552,0-0.979,0.109-1.282,0.328
	c-0.197,0.146-0.296,0.338-0.296,0.578c0,0.219,0.088,0.406,0.265,0.562c0.24,0.209,0.818,0.42,1.735,0.633
	c0.916,0.214,1.593,0.435,2.031,0.664c0.437,0.23,0.778,0.545,1.023,0.946c0.245,0.401,0.367,0.898,0.367,1.492
	c0,0.531-0.148,1.028-0.445,1.492s-0.716,0.81-1.258,1.039c-0.541,0.229-1.213,0.344-2.015,0.344c-1.177,0-2.081-0.274-2.711-0.82
	C206.487,93.961,206.109,93.166,205.984,92.125L205.984,92.125z M222.625,93.968c0.458,0.334,0.958,0.599,1.5,0.797l-0.688,1.328
	c-0.281-0.083-0.557-0.203-0.828-0.359c-0.063-0.021-0.479-0.292-1.25-0.812c-0.615,0.26-1.292,0.39-2.031,0.39
	c-1.427,0-2.547-0.422-3.36-1.265c-0.812-0.844-1.218-2.026-1.218-3.547s0.406-2.703,1.218-3.547
	c0.813-0.844,1.917-1.266,3.313-1.266c1.375,0,2.466,0.422,3.273,1.266c0.808,0.844,1.211,2.026,1.211,3.547
	c0,0.802-0.109,1.51-0.328,2.125C223.27,93.093,223,93.541,222.625,93.968L222.625,93.968z M221.108,92.922
	c0.24-0.292,0.422-0.638,0.547-1.039c0.125-0.402,0.188-0.862,0.188-1.383c0-1.073-0.237-1.875-0.711-2.407
	c-0.474-0.531-1.096-0.796-1.867-0.796s-1.393,0.265-1.867,0.796c-0.474,0.532-0.711,1.334-0.711,2.407
	c0,1.093,0.237,1.909,0.711,2.445s1.076,0.805,1.805,0.805c0.271,0,0.531-0.042,0.781-0.125c-0.385-0.25-0.776-0.448-1.172-0.594
	l0.531-1.063C219.958,92.177,220.545,92.495,221.108,92.922L221.108,92.922z M225.298,95.156v-9.234h1.875v7.671h4.672v1.563
	H225.298L225.298,95.156z M233.177,87.5v-1.657h1.782V87.5H233.177L233.177,87.5z M233.177,95.156v-6.734h1.782v6.734H233.177
	L233.177,95.156z M239.882,88.422v1.421h-1.219v2.704c0,0.552,0.011,0.875,0.031,0.968c0.021,0.094,0.073,0.17,0.157,0.227
	c0.083,0.057,0.182,0.086,0.296,0.086c0.167,0,0.407-0.057,0.719-0.172l0.156,1.391c-0.416,0.177-0.885,0.265-1.406,0.265
	c-0.323,0-0.614-0.054-0.875-0.164c-0.26-0.109-0.45-0.25-0.57-0.422c-0.12-0.172-0.201-0.403-0.242-0.695
	c-0.042-0.208-0.063-0.625-0.063-1.25v-2.938h-0.812v-1.421h0.812v-1.344l1.797-1.047v2.391H239.882L239.882,88.422z
	 M245.023,93.015l1.766,0.297c-0.229,0.646-0.588,1.141-1.078,1.485c-0.49,0.343-1.104,0.515-1.844,0.515
	c-1.177,0-2.047-0.385-2.609-1.156c-0.448-0.615-0.672-1.385-0.672-2.313c0-1.125,0.294-2.002,0.883-2.632
	c0.588-0.631,1.325-0.946,2.211-0.946c1.01,0,1.804,0.331,2.383,0.993c0.578,0.661,0.851,1.674,0.82,3.039h-4.469
	c0.021,0.531,0.167,0.942,0.438,1.234c0.27,0.292,0.614,0.437,1.031,0.437c0.281,0,0.515-0.075,0.703-0.226
	C244.773,93.591,244.919,93.349,245.023,93.015L245.023,93.015z M245.118,91.203c-0.01-0.511-0.143-0.901-0.398-1.172
	c-0.255-0.271-0.565-0.406-0.93-0.406c-0.385,0-0.708,0.14-0.969,0.422c-0.25,0.291-0.375,0.677-0.375,1.156H245.118L245.118,91.203
	z M247.878,92.125l1.829-0.172c0.114,0.614,0.338,1.065,0.671,1.351c0.334,0.287,0.787,0.43,1.36,0.43
	c0.604,0,1.06-0.128,1.367-0.383c0.307-0.255,0.461-0.554,0.461-0.898c0-0.219-0.065-0.406-0.195-0.563
	c-0.131-0.156-0.357-0.291-0.68-0.406c-0.219-0.073-0.719-0.208-1.5-0.406c-1.01-0.25-1.719-0.557-2.125-0.922
	c-0.563-0.51-0.844-1.135-0.844-1.875c0-0.469,0.133-0.909,0.399-1.32c0.265-0.412,0.651-0.727,1.156-0.946
	c0.505-0.218,1.117-0.328,1.836-0.328c1.166,0,2.044,0.258,2.633,0.774c0.588,0.515,0.898,1.2,0.929,2.054l-1.875,0.078
	c-0.083-0.479-0.255-0.822-0.515-1.031c-0.261-0.208-0.657-0.312-1.188-0.312c-0.552,0-0.979,0.109-1.281,0.328
	c-0.198,0.146-0.297,0.338-0.297,0.578c0,0.219,0.089,0.406,0.266,0.562c0.239,0.209,0.817,0.42,1.734,0.633
	c0.917,0.214,1.594,0.435,2.031,0.664c0.438,0.23,0.779,0.545,1.024,0.946c0.245,0.401,0.367,0.898,0.367,1.492
	c0,0.531-0.148,1.028-0.445,1.492s-0.717,0.81-1.258,1.039c-0.542,0.229-1.214,0.344-2.016,0.344c-1.177,0-2.081-0.274-2.711-0.82
	C248.381,93.961,248.003,93.166,247.878,92.125L247.878,92.125z M264.519,93.968c0.458,0.334,0.958,0.599,1.5,0.797l-0.687,1.328
	c-0.282-0.083-0.558-0.203-0.829-0.359c-0.062-0.021-0.479-0.292-1.25-0.812c-0.614,0.26-1.291,0.39-2.031,0.39
	c-1.427,0-2.547-0.422-3.359-1.265c-0.813-0.844-1.219-2.026-1.219-3.547s0.406-2.703,1.219-3.547
	c0.812-0.844,1.917-1.266,3.312-1.266c1.375,0,2.466,0.422,3.274,1.266c0.807,0.844,1.211,2.026,1.211,3.547
	c0,0.802-0.11,1.51-0.328,2.125C265.165,93.093,264.894,93.541,264.519,93.968L264.519,93.968z M263.002,92.922
	c0.24-0.292,0.422-0.638,0.547-1.039c0.125-0.402,0.188-0.862,0.188-1.383c0-1.073-0.237-1.875-0.711-2.407
	c-0.474-0.531-1.096-0.796-1.867-0.796s-1.394,0.265-1.867,0.796c-0.474,0.532-0.711,1.334-0.711,2.407
	c0,1.093,0.237,1.909,0.711,2.445c0.473,0.536,1.075,0.805,1.804,0.805c0.271,0,0.531-0.042,0.781-0.125
	c-0.385-0.25-0.776-0.448-1.171-0.594l0.531-1.063C261.852,92.177,262.44,92.495,263.002,92.922L263.002,92.922z M267.192,95.156
	v-9.234h1.875v7.671h4.672v1.563H267.192L267.192,95.156z M275.087,95.156v-9.313h6.891v1.579h-5.016v2.062h4.672v1.578h-4.672
	v2.531h5.203v1.563H275.087L275.087,95.156z M289.867,95.156h-1.781v-3.438c0-0.729-0.039-1.2-0.117-1.414
	c-0.078-0.213-0.203-0.38-0.375-0.5c-0.172-0.119-0.377-0.179-0.617-0.179c-0.301,0-0.574,0.086-0.82,0.258
	c-0.244,0.171-0.414,0.395-0.508,0.671c-0.094,0.276-0.141,0.795-0.141,1.555v3.047h-1.781v-6.734h1.656v0.984
	c0.584-0.76,1.322-1.141,2.219-1.141c0.396,0,0.756,0.071,1.078,0.211c0.324,0.141,0.57,0.321,0.742,0.539
	c0.172,0.219,0.289,0.469,0.352,0.75c0.063,0.282,0.094,0.683,0.094,1.203V95.156L289.867,95.156z M291.511,95.593l2.047,0.25
	c0.031,0.24,0.109,0.407,0.234,0.5c0.168,0.125,0.432,0.188,0.797,0.188c0.459,0,0.807-0.073,1.047-0.219
	c0.156-0.094,0.275-0.239,0.359-0.437c0.053-0.157,0.078-0.433,0.078-0.828v-0.985c-0.531,0.729-1.203,1.094-2.016,1.094
	c-0.906,0-1.625-0.385-2.156-1.156c-0.416-0.604-0.625-1.354-0.625-2.25c0-1.136,0.273-2,0.82-2.594
	c0.547-0.594,1.221-0.891,2.023-0.891c0.832,0,1.521,0.365,2.063,1.094v-0.937h1.672v6.046c0,0.792-0.066,1.386-0.195,1.782
	c-0.131,0.396-0.314,0.705-0.555,0.929c-0.24,0.224-0.557,0.399-0.953,0.524c-0.395,0.125-0.895,0.187-1.5,0.187
	c-1.135,0-1.941-0.195-2.422-0.586c-0.479-0.39-0.719-0.888-0.719-1.492C291.511,95.76,291.511,95.687,291.511,95.593
	L291.511,95.593z M293.105,91.64c0,0.719,0.139,1.245,0.414,1.578c0.277,0.334,0.617,0.5,1.023,0.5c0.438,0,0.807-0.171,1.109-0.515
	c0.301-0.344,0.453-0.849,0.453-1.516c0-0.698-0.143-1.216-0.43-1.554c-0.287-0.339-0.654-0.508-1.102-0.508
	c-0.428,0-0.777,0.166-1.055,0.5C293.244,90.458,293.105,90.963,293.105,91.64L293.105,91.64z M299.625,87.5v-1.657h1.781V87.5
	H299.625L299.625,87.5z M299.625,95.156v-6.734h1.781v6.734H299.625L299.625,95.156z M309.361,95.156h-1.781v-3.438
	c0-0.729-0.039-1.2-0.117-1.414c-0.078-0.213-0.203-0.38-0.375-0.5c-0.172-0.119-0.377-0.179-0.617-0.179
	c-0.301,0-0.576,0.086-0.82,0.258c-0.244,0.171-0.414,0.395-0.508,0.671c-0.094,0.276-0.141,0.795-0.141,1.555v3.047h-1.781v-6.734
	h1.656v0.984c0.584-0.76,1.322-1.141,2.219-1.141c0.396,0,0.756,0.071,1.078,0.211c0.322,0.141,0.57,0.321,0.742,0.539
	c0.172,0.219,0.289,0.469,0.352,0.75c0.063,0.282,0.094,0.683,0.094,1.203V95.156L309.361,95.156z M315.083,93.015l1.766,0.297
	c-0.23,0.646-0.588,1.141-1.078,1.485c-0.49,0.343-1.104,0.515-1.844,0.515c-1.178,0-2.047-0.385-2.609-1.156
	c-0.449-0.615-0.672-1.385-0.672-2.313c0-1.125,0.293-2.002,0.883-2.632c0.588-0.631,1.324-0.946,2.211-0.946
	c1.01,0,1.805,0.331,2.383,0.993c0.578,0.661,0.852,1.674,0.82,3.039h-4.469c0.02,0.531,0.166,0.942,0.438,1.234
	s0.613,0.437,1.031,0.437c0.281,0,0.516-0.075,0.703-0.226C314.833,93.591,314.978,93.349,315.083,93.015L315.083,93.015z
	 M315.177,91.203c-0.012-0.511-0.145-0.901-0.398-1.172c-0.256-0.271-0.564-0.406-0.93-0.406c-0.385,0-0.709,0.14-0.969,0.422
	c-0.25,0.291-0.375,0.677-0.375,1.156H315.177L315.177,91.203z M318.359,95.156v-9.313h1.875v9.313H318.359L318.359,95.156z
	 M328.144,95.156h-1.781v-3.438c0-0.729-0.039-1.2-0.117-1.414c-0.078-0.213-0.203-0.38-0.375-0.5
	c-0.172-0.119-0.379-0.179-0.617-0.179c-0.303,0-0.576,0.086-0.82,0.258c-0.246,0.171-0.414,0.395-0.508,0.671
	c-0.094,0.276-0.141,0.795-0.141,1.555v3.047h-1.781v-6.734h1.656v0.984c0.582-0.76,1.322-1.141,2.219-1.141
	c0.395,0,0.756,0.071,1.078,0.211c0.322,0.141,0.57,0.321,0.742,0.539c0.172,0.219,0.289,0.469,0.352,0.75
	c0.063,0.282,0.094,0.683,0.094,1.203V95.156L328.144,95.156z M329.179,88.422h0.982v-0.516c0-0.563,0.061-0.984,0.182-1.266
	c0.119-0.281,0.34-0.51,0.664-0.687c0.322-0.177,0.732-0.266,1.232-0.266c0.512,0,1.006,0.078,1.486,0.235l-0.236,1.25
	c-0.279-0.073-0.551-0.11-0.811-0.11c-0.262,0-0.449,0.06-0.564,0.18c-0.113,0.12-0.172,0.351-0.172,0.695v0.485h1.344v1.39h-1.344
	v5.344h-1.781v-5.344h-0.982V88.422L329.179,88.422z M333.867,91.687c0-0.594,0.146-1.166,0.438-1.719
	c0.291-0.552,0.705-0.973,1.242-1.265c0.537-0.292,1.139-0.438,1.805-0.438c1.01,0,1.844,0.331,2.5,0.993
	c0.656,0.661,0.984,1.497,0.984,2.507c0,1.021-0.33,1.868-0.992,2.539c-0.662,0.672-1.492,1.008-2.492,1.008
	c-0.615,0-1.203-0.14-1.766-0.422c-0.563-0.281-0.99-0.69-1.281-1.226C334.013,93.127,333.867,92.468,333.867,91.687L333.867,91.687
	z M335.695,91.781c0,0.667,0.158,1.18,0.477,1.539s0.711,0.539,1.18,0.539s0.859-0.18,1.172-0.539s0.469-0.878,0.469-1.555
	c0-0.656-0.156-1.161-0.469-1.515s-0.703-0.532-1.172-0.532s-0.861,0.178-1.18,0.532S335.695,91.114,335.695,91.781L335.695,91.781z
	"/>
<polygon fill="#FFCC99" points="7,13.89 143,13.89 143,37.89 7,37.89 7,13.89 "/>
<polygon fill="#FFFFDA" points="6,12.89 7,12.89 7,38.89 6,38.89 6,12.89 "/>
<polygon fill="#FFFFDA" points="7,12.89 143,12.89 143,13.89 7,13.89 7,12.89 "/>
<polygon fill="#B28E6B" points="7,37.89 144,37.89 144,38.89 7,38.89 7,37.89 "/>
<polygon fill="#B28E6B" points="143,12.89 144,12.89 144,37.89 143,37.89 143,12.89 "/>
<path d="M15.466,28.809l1.828-0.172c0.115,0.615,0.339,1.065,0.672,1.352c0.333,0.286,0.786,0.43,1.359,0.43
	c0.605,0,1.06-0.128,1.368-0.383c0.307-0.255,0.461-0.555,0.461-0.899c0-0.218-0.066-0.406-0.196-0.562
	c-0.13-0.156-0.357-0.292-0.679-0.406c-0.219-0.073-0.719-0.209-1.5-0.407c-1.011-0.25-1.719-0.557-2.125-0.922
	c-0.563-0.51-0.844-1.135-0.844-1.875c0-0.468,0.133-0.908,0.398-1.32c0.266-0.411,0.651-0.726,1.156-0.945
	c0.506-0.219,1.118-0.328,1.836-0.328c1.167,0,2.045,0.257,2.633,0.773c0.589,0.516,0.899,1.201,0.93,2.055l-1.875,0.078
	c-0.083-0.479-0.255-0.823-0.516-1.031c-0.26-0.209-0.656-0.313-1.187-0.313c-0.552,0-0.979,0.11-1.281,0.328
	c-0.198,0.146-0.297,0.339-0.297,0.578c0,0.219,0.088,0.407,0.265,0.563c0.24,0.208,0.818,0.419,1.735,0.633
	c0.916,0.213,1.593,0.435,2.031,0.664c0.437,0.229,0.779,0.544,1.023,0.945c0.245,0.401,0.368,0.899,0.368,1.492
	c0,0.532-0.149,1.029-0.446,1.492c-0.297,0.464-0.716,0.81-1.258,1.04c-0.541,0.229-1.213,0.343-2.015,0.343
	c-1.177,0-2.081-0.273-2.711-0.82C15.969,30.645,15.591,29.851,15.466,28.809L15.466,28.809z M32.106,30.653
	c0.458,0.333,0.958,0.599,1.5,0.797l-0.688,1.328c-0.281-0.083-0.557-0.203-0.828-0.359c-0.062-0.021-0.479-0.292-1.25-0.813
	c-0.615,0.26-1.292,0.391-2.031,0.391c-1.427,0-2.547-0.422-3.36-1.266c-0.812-0.844-1.218-2.026-1.218-3.547
	c0-1.521,0.406-2.703,1.218-3.547c0.813-0.843,1.917-1.265,3.313-1.265c1.375,0,2.466,0.422,3.273,1.265
	c0.808,0.844,1.211,2.026,1.211,3.547c0,0.802-0.109,1.511-0.328,2.125C32.752,29.778,32.481,30.226,32.106,30.653L32.106,30.653z
	 M30.59,29.606c0.24-0.292,0.422-0.638,0.547-1.039s0.187-0.862,0.187-1.383c0-1.073-0.237-1.875-0.71-2.406
	c-0.474-0.531-1.097-0.797-1.868-0.797s-1.393,0.266-1.867,0.797c-0.474,0.531-0.711,1.333-0.711,2.406
	c0,1.094,0.237,1.909,0.711,2.445c0.474,0.537,1.076,0.805,1.805,0.805c0.271,0,0.531-0.042,0.781-0.125
	c-0.385-0.25-0.776-0.448-1.172-0.594l0.531-1.062C29.439,28.861,30.028,29.179,30.59,29.606L30.59,29.606z M34.78,31.84v-9.234
	h1.875v7.672h4.672v1.562H34.78L34.78,31.84z M42.659,24.184v-1.656h1.782v1.656H42.659L42.659,24.184z M42.659,31.84v-6.734h1.782
	v6.734H42.659L42.659,31.84z M49.364,25.106v1.422h-1.219v2.703c0,0.552,0.011,0.875,0.031,0.969
	c0.021,0.094,0.073,0.169,0.157,0.226c0.083,0.058,0.182,0.086,0.297,0.086c0.166,0,0.406-0.057,0.718-0.172l0.157,1.391
	c-0.417,0.177-0.886,0.266-1.407,0.266c-0.323,0-0.614-0.055-0.875-0.164c-0.26-0.11-0.45-0.25-0.57-0.422
	c-0.12-0.172-0.2-0.404-0.242-0.696c-0.042-0.208-0.063-0.625-0.063-1.25v-2.937h-0.812v-1.422h0.812v-1.344l1.797-1.047v2.391
	H49.364L49.364,25.106z M54.506,29.7l1.765,0.297c-0.229,0.645-0.588,1.14-1.078,1.484c-0.489,0.344-1.104,0.516-1.844,0.516
	c-1.177,0-2.047-0.386-2.609-1.157c-0.448-0.614-0.672-1.385-0.672-2.312c0-1.125,0.294-2.003,0.883-2.633
	c0.588-0.63,1.325-0.945,2.211-0.945c1.01,0,1.805,0.331,2.383,0.992c0.578,0.661,0.851,1.674,0.82,3.039h-4.469
	c0.021,0.531,0.167,0.943,0.438,1.234c0.271,0.292,0.614,0.438,1.031,0.438c0.281,0,0.516-0.076,0.703-0.227
	C54.256,30.275,54.401,30.033,54.506,29.7L54.506,29.7z M54.6,27.887c-0.01-0.51-0.143-0.901-0.398-1.172
	c-0.255-0.27-0.565-0.406-0.93-0.406c-0.385,0-0.708,0.141-0.969,0.422c-0.25,0.292-0.375,0.677-0.375,1.156H54.6L54.6,27.887z
	 M57.361,28.809l1.828-0.172c0.114,0.615,0.338,1.065,0.672,1.352c0.333,0.286,0.786,0.43,1.359,0.43
	c0.604,0,1.06-0.128,1.367-0.383c0.307-0.255,0.461-0.555,0.461-0.899c0-0.218-0.065-0.406-0.195-0.562
	c-0.13-0.156-0.357-0.292-0.68-0.406c-0.219-0.073-0.719-0.209-1.5-0.407c-1.01-0.25-1.719-0.557-2.125-0.922
	c-0.562-0.51-0.844-1.135-0.844-1.875c0-0.468,0.133-0.908,0.399-1.32c0.265-0.411,0.651-0.726,1.156-0.945
	c0.505-0.219,1.117-0.328,1.836-0.328c1.167,0,2.044,0.257,2.633,0.773c0.588,0.516,0.898,1.201,0.929,2.055l-1.875,0.078
	c-0.083-0.479-0.255-0.823-0.515-1.031c-0.261-0.209-0.656-0.313-1.188-0.313c-0.552,0-0.979,0.11-1.281,0.328
	c-0.198,0.146-0.297,0.339-0.297,0.578c0,0.219,0.089,0.407,0.266,0.563c0.239,0.208,0.818,0.419,1.734,0.633
	c0.917,0.213,1.594,0.435,2.031,0.664c0.438,0.229,0.779,0.544,1.024,0.945c0.245,0.401,0.367,0.899,0.367,1.492
	c0,0.532-0.148,1.029-0.445,1.492c-0.297,0.464-0.716,0.81-1.258,1.04c-0.542,0.229-1.214,0.343-2.016,0.343
	c-1.177,0-2.08-0.273-2.711-0.82C57.863,30.645,57.486,29.851,57.361,28.809L57.361,28.809z M74,30.653
	c0.459,0.333,0.959,0.599,1.5,0.797l-0.687,1.328c-0.282-0.083-0.558-0.203-0.828-0.359c-0.063-0.021-0.48-0.292-1.25-0.813
	c-0.615,0.26-1.292,0.391-2.032,0.391c-1.427,0-2.547-0.422-3.359-1.266c-0.813-0.844-1.219-2.026-1.219-3.547
	c0-1.521,0.406-2.703,1.219-3.547c0.813-0.843,1.917-1.265,3.312-1.265c1.375,0,2.467,0.422,3.274,1.265
	c0.807,0.844,1.211,2.026,1.211,3.547c0,0.802-0.11,1.511-0.328,2.125C74.646,29.778,74.375,30.226,74,30.653L74,30.653z
	 M72.485,29.606c0.239-0.292,0.421-0.638,0.546-1.039c0.125-0.401,0.188-0.862,0.188-1.383c0-1.073-0.237-1.875-0.711-2.406
	c-0.474-0.531-1.096-0.797-1.867-0.797s-1.393,0.266-1.867,0.797c-0.474,0.531-0.711,1.333-0.711,2.406
	c0,1.094,0.237,1.909,0.711,2.445c0.474,0.537,1.075,0.805,1.804,0.805c0.271,0,0.532-0.042,0.782-0.125
	c-0.386-0.25-0.776-0.448-1.172-0.594l0.531-1.062C71.334,28.861,71.922,29.179,72.485,29.606L72.485,29.606z M76.675,31.84v-9.234
	h1.875v7.672h4.671v1.562H76.675L76.675,31.84z M84.554,22.528h3.437c0.771,0,1.36,0.062,1.766,0.187
	c0.552,0.157,1.021,0.441,1.406,0.852c0.386,0.411,0.68,0.914,0.883,1.508c0.203,0.594,0.305,1.328,0.305,2.203
	c0,0.76-0.094,1.422-0.281,1.984c-0.23,0.677-0.563,1.224-1,1.641c-0.323,0.312-0.761,0.557-1.313,0.734
	c-0.417,0.136-0.974,0.203-1.672,0.203h-3.531V22.528L84.554,22.528z M86.429,24.106v6.172h1.406c0.531,0,0.912-0.031,1.141-0.094
	c0.302-0.073,0.555-0.2,0.758-0.383c0.203-0.182,0.367-0.481,0.492-0.898s0.187-0.984,0.187-1.703c0-0.719-0.062-1.271-0.187-1.656
	c-0.125-0.386-0.302-0.688-0.531-0.907c-0.23-0.218-0.521-0.364-0.875-0.437c-0.261-0.063-0.776-0.094-1.547-0.094H86.429
	L86.429,24.106z M93.863,31.84v-9.312h1.781v3.359c0.552-0.625,1.203-0.937,1.953-0.937c0.823,0,1.503,0.297,2.039,0.89
	c0.537,0.594,0.805,1.448,0.805,2.563c0,1.146-0.273,2.031-0.82,2.656c-0.547,0.625-1.211,0.938-1.992,0.938
	c-0.386,0-0.766-0.097-1.141-0.289c-0.375-0.193-0.698-0.477-0.969-0.852v0.984H93.863L93.863,31.84z M95.629,28.325
	c0,0.698,0.109,1.213,0.328,1.547c0.312,0.479,0.724,0.718,1.234,0.718c0.396,0,0.732-0.169,1.008-0.507
	c0.276-0.339,0.414-0.873,0.414-1.602c0-0.76-0.138-1.312-0.414-1.656c-0.276-0.344-0.633-0.516-1.07-0.516
	c-0.427,0-0.784,0.167-1.071,0.5C95.772,27.142,95.629,27.648,95.629,28.325L95.629,28.325z M101.835,31.84v-9.312h1.875v9.312
	H101.835L101.835,31.84z M111.667,31.84h-1.657v-0.984c-0.27,0.385-0.593,0.672-0.968,0.859c-0.375,0.188-0.75,0.282-1.125,0.282
	c-0.782,0-1.448-0.313-2-0.938c-0.552-0.625-0.828-1.495-0.828-2.609c0-1.146,0.268-2.016,0.804-2.61
	c0.537-0.593,1.216-0.89,2.039-0.89c0.75,0,1.401,0.312,1.953,0.937v-3.359h1.782V31.84L111.667,31.84z M106.917,28.325
	c0,0.719,0.099,1.239,0.297,1.562c0.281,0.469,0.682,0.703,1.203,0.703c0.406,0,0.755-0.174,1.047-0.523
	c0.291-0.349,0.437-0.872,0.437-1.57c0-0.771-0.141-1.328-0.422-1.672c-0.281-0.344-0.64-0.516-1.078-0.516
	c-0.417,0-0.768,0.169-1.055,0.508C107.06,27.156,106.917,27.658,106.917,28.325L106.917,28.325z M112.576,31.84l2.422-3.468
	l-2.328-3.266h2.188l1.187,1.844l1.266-1.844h2.094l-2.297,3.188l2.5,3.546h-2.188l-1.375-2.093l-1.375,2.093H112.576L112.576,31.84
	z M120.681,31.84v-9.312h6.391v1.578h-4.5v2.203h3.875v1.578h-3.875v3.953H120.681L120.681,31.84z M128.638,31.84v-9.312h1.875
	v4.141l3.797-4.141h2.531l-3.5,3.625l3.688,5.687h-2.422l-2.563-4.375l-1.531,1.563v2.812H128.638L128.638,31.84z"/>
<line fill="none" stroke="#000000" stroke-miterlimit="1.45" stroke-dasharray="6,2" x1="307.501" y1="260.84" x2="407.537" y2="285.282"/>
<polygon points="411.423,286.231 401.191,277.555 411.423,286.231 398.343,289.212 "/>
<polygon fill="none" stroke="#000000" stroke-linecap="square" stroke-miterlimit="10" points="411.423,286.231 401.191,277.555 
	411.423,286.231 398.343,289.212 "/>
<path fill="#808080" d="M339.376,258.437l0.859,2.438h-0.734l-1.141-2.563l2.156-2.313h0.766L339.376,258.437L339.376,258.437z
	 M341.501,258.437l0.844,2.438h-0.781l-1.078-2.563l2.094-2.313h0.828L341.501,258.437L341.501,258.437z M347.886,260.233
	c-0.689,0.771-1.393,1.156-2.111,1.156c-0.436,0-0.791-0.125-1.061-0.375c-0.271-0.25-0.408-0.558-0.408-0.922
	c0-0.24,0.063-0.65,0.188-1.234l0.688-3.297h0.969l-0.764,3.641c-0.064,0.313-0.096,0.552-0.096,0.719
	c0,0.208,0.066,0.372,0.195,0.492c0.131,0.12,0.32,0.18,0.57,0.18c0.283,0,0.551-0.064,0.805-0.195
	c0.256-0.131,0.479-0.308,0.664-0.531c0.189-0.225,0.344-0.492,0.469-0.805c0.074-0.197,0.162-0.542,0.268-1.031l0.514-2.469h0.986
	l-1.205,5.703h-0.889L347.886,260.233L347.886,260.233z M350.191,259.312l0.969-0.063c0,0.281,0.043,0.521,0.131,0.719
	c0.09,0.198,0.248,0.359,0.479,0.484c0.229,0.125,0.5,0.188,0.811,0.188c0.43,0,0.748-0.086,0.961-0.258
	c0.215-0.172,0.322-0.372,0.322-0.602c0-0.166-0.063-0.328-0.188-0.484c-0.137-0.146-0.459-0.331-0.971-0.555
	c-0.51-0.225-0.838-0.377-0.982-0.461c-0.24-0.146-0.422-0.317-0.547-0.516c-0.125-0.197-0.188-0.427-0.188-0.688
	c0-0.448,0.178-0.833,0.539-1.156c0.359-0.323,0.861-0.484,1.508-0.484c0.719,0,1.266,0.164,1.641,0.492s0.566,0.763,0.578,1.305
	l-0.953,0.063c-0.012-0.344-0.131-0.615-0.359-0.813s-0.553-0.297-0.969-0.297c-0.344,0-0.607,0.075-0.789,0.227
	c-0.184,0.15-0.273,0.32-0.273,0.508c0,0.177,0.078,0.333,0.234,0.469c0.104,0.094,0.379,0.234,0.828,0.422
	c0.75,0.323,1.219,0.578,1.406,0.766c0.313,0.302,0.469,0.667,0.469,1.094c0,0.281-0.086,0.557-0.258,0.828
	c-0.172,0.271-0.438,0.487-0.799,0.648c-0.357,0.161-0.777,0.242-1.256,0.242c-0.656,0-1.219-0.162-1.688-0.484
	C350.388,260.582,350.169,260.051,350.191,259.312L350.191,259.312z M359.8,259.327l0.938,0.094
	c-0.137,0.469-0.449,0.914-0.938,1.336c-0.49,0.422-1.074,0.633-1.75,0.633c-0.416,0-0.803-0.097-1.156-0.289
	c-0.355-0.192-0.625-0.477-0.814-0.852c-0.186-0.375-0.279-0.797-0.279-1.266c0-0.625,0.145-1.231,0.438-1.82
	c0.291-0.588,0.666-1.023,1.125-1.305c0.457-0.281,0.953-0.422,1.484-0.422c0.676,0,1.219,0.211,1.625,0.633
	s0.607,0.997,0.607,1.727c0,0.281-0.02,0.568-0.061,0.859h-4.203c-0.021,0.114-0.031,0.214-0.031,0.297
	c0,0.531,0.121,0.938,0.367,1.219c0.244,0.281,0.543,0.422,0.898,0.422c0.334,0,0.662-0.109,0.984-0.328
	S359.613,259.733,359.8,259.327L359.8,259.327z M356.972,257.905h3.203c0-0.094,0-0.161,0-0.203c0-0.489-0.123-0.864-0.367-1.125
	c-0.246-0.261-0.561-0.391-0.945-0.391c-0.408,0-0.783,0.144-1.125,0.43C357.394,256.903,357.138,257.332,356.972,257.905
	L356.972,257.905z M363.777,258.468l-0.797-2.469h0.766l1.031,2.594l-2.094,2.281h-0.875L363.777,258.468L363.777,258.468z
	 M365.871,258.515l-0.797-2.516h0.734l1.094,2.609l-2.172,2.266h-0.781L365.871,258.515L365.871,258.515z"/>
<line fill="none" stroke="#000000" stroke-miterlimit="1.45" stroke-dasharray="6,2" x1="239.335" y1="244.726" x2="107.814" y2="214.68"/>
<polygon points="103.915,213.789 114.276,222.311 103.915,213.789 116.95,210.612 "/>
<polygon fill="none" stroke="#000000" stroke-linecap="square" stroke-miterlimit="10" points="103.915,213.789 114.276,222.311 
	103.915,213.789 116.95,210.612 "/>
<path fill="#808080" d="M158.026,216.021l0.859,2.438h-0.734l-1.141-2.563l2.157-2.313h0.765L158.026,216.021L158.026,216.021z
	 M160.151,216.021l0.844,2.438h-0.781l-1.079-2.563l2.094-2.313h0.828L160.151,216.021L160.151,216.021z M166.535,217.817
	c-0.687,0.771-1.39,1.156-2.109,1.156c-0.438,0-0.792-0.125-1.063-0.375c-0.27-0.25-0.406-0.557-0.406-0.922
	c0-0.24,0.063-0.65,0.188-1.234l0.687-3.297h0.969l-0.766,3.641c-0.062,0.313-0.093,0.552-0.093,0.719
	c0,0.208,0.065,0.372,0.195,0.492c0.13,0.12,0.32,0.18,0.57,0.18c0.281,0,0.55-0.064,0.805-0.195
	c0.255-0.131,0.476-0.308,0.664-0.531c0.187-0.225,0.344-0.492,0.469-0.805c0.073-0.197,0.161-0.542,0.265-1.031l0.516-2.469h0.984
	l-1.203,5.703h-0.89L166.535,217.817L166.535,217.817z M168.84,216.896l0.968-0.063c0,0.281,0.045,0.521,0.133,0.719
	c0.089,0.198,0.247,0.359,0.477,0.484c0.229,0.125,0.5,0.188,0.812,0.188c0.427,0,0.748-0.086,0.961-0.258
	c0.214-0.172,0.32-0.372,0.32-0.602c0-0.166-0.062-0.328-0.187-0.484c-0.136-0.146-0.458-0.331-0.969-0.555
	c-0.51-0.225-0.838-0.377-0.984-0.461c-0.24-0.146-0.422-0.317-0.547-0.516c-0.125-0.197-0.188-0.427-0.188-0.688
	c0-0.448,0.18-0.833,0.539-1.156c0.36-0.323,0.862-0.484,1.508-0.484c0.719,0,1.266,0.164,1.641,0.492s0.568,0.763,0.578,1.305
	l-0.953,0.063c-0.011-0.344-0.13-0.615-0.359-0.813c-0.23-0.197-0.553-0.297-0.969-0.297c-0.344,0-0.607,0.075-0.789,0.227
	c-0.183,0.15-0.274,0.32-0.274,0.508c0,0.177,0.078,0.333,0.235,0.469c0.104,0.094,0.38,0.234,0.828,0.422
	c0.75,0.323,1.219,0.578,1.406,0.766c0.313,0.302,0.469,0.667,0.469,1.094c0,0.281-0.086,0.557-0.258,0.828
	c-0.172,0.271-0.438,0.487-0.797,0.648c-0.359,0.161-0.779,0.242-1.258,0.242c-0.656,0-1.218-0.162-1.687-0.484
	C169.038,218.167,168.819,217.635,168.84,216.896L168.84,216.896z M178.45,216.911l0.937,0.094
	c-0.135,0.469-0.448,0.914-0.937,1.336c-0.49,0.422-1.073,0.633-1.75,0.633c-0.417,0-0.802-0.097-1.156-0.289
	c-0.355-0.192-0.625-0.477-0.813-0.852c-0.187-0.375-0.281-0.797-0.281-1.266c0-0.625,0.146-1.231,0.437-1.82
	c0.292-0.588,0.667-1.023,1.125-1.305c0.459-0.281,0.954-0.422,1.485-0.422c0.677,0,1.219,0.211,1.625,0.633
	c0.406,0.422,0.609,0.997,0.609,1.727c0,0.281-0.021,0.568-0.062,0.859h-4.203c-0.021,0.114-0.032,0.214-0.032,0.297
	c0,0.531,0.123,0.938,0.367,1.219c0.245,0.281,0.545,0.422,0.899,0.422c0.333,0,0.661-0.109,0.984-0.328
	C178.006,217.63,178.262,217.317,178.45,216.911L178.45,216.911z M175.622,215.489h3.203c0-0.094,0-0.161,0-0.203
	c0-0.489-0.123-0.864-0.367-1.125c-0.245-0.261-0.56-0.391-0.946-0.391c-0.406,0-0.781,0.144-1.125,0.43
	C176.043,214.487,175.788,214.917,175.622,215.489L175.622,215.489z M182.427,216.052l-0.797-2.469h0.766l1.031,2.594l-2.094,2.281
	h-0.875L182.427,216.052L182.427,216.052z M184.521,216.099l-0.797-2.516h0.734l1.094,2.609l-2.172,2.266h-0.781L184.521,216.099
	L184.521,216.099z"/>
<line fill="none" stroke="#000000" stroke-miterlimit="1.45" stroke-dasharray="6,2" x1="239.335" y1="260.656" x2="107.803" y2="292.108"/>
<polygon points="103.913,293.038 116.979,296.082 103.913,293.038 114.188,284.412 "/>
<polygon fill="none" stroke="#000000" stroke-linecap="square" stroke-miterlimit="10" points="103.913,293.038 116.979,296.082 
	103.913,293.038 114.188,284.412 "/>
<path fill="#808080" d="M158.026,263.657l0.859,2.437h-0.734l-1.141-2.562l2.157-2.313h0.765L158.026,263.657L158.026,263.657z
	 M160.151,263.657l0.844,2.437h-0.781l-1.079-2.562l2.094-2.313h0.828L160.151,263.657L160.151,263.657z M166.535,265.453
	c-0.687,0.771-1.39,1.156-2.109,1.156c-0.438,0-0.792-0.124-1.063-0.375c-0.27-0.25-0.406-0.558-0.406-0.922
	c0-0.239,0.063-0.65,0.188-1.234l0.687-3.296h0.969l-0.766,3.64c-0.062,0.313-0.093,0.552-0.093,0.719
	c0,0.208,0.065,0.372,0.195,0.492c0.13,0.12,0.32,0.18,0.57,0.18c0.281,0,0.55-0.064,0.805-0.194
	c0.255-0.131,0.476-0.309,0.664-0.532c0.187-0.224,0.344-0.492,0.469-0.804c0.073-0.198,0.161-0.542,0.265-1.032l0.516-2.468h0.984
	l-1.203,5.703h-0.89L166.535,265.453L166.535,265.453z M168.84,264.532l0.968-0.063c0,0.281,0.045,0.521,0.133,0.719
	c0.089,0.198,0.247,0.359,0.477,0.484c0.229,0.125,0.5,0.188,0.812,0.188c0.427,0,0.748-0.086,0.961-0.258
	c0.214-0.172,0.32-0.372,0.32-0.602c0-0.166-0.062-0.328-0.187-0.484c-0.136-0.146-0.458-0.331-0.969-0.555
	c-0.51-0.224-0.838-0.377-0.984-0.461c-0.24-0.146-0.422-0.317-0.547-0.516c-0.125-0.197-0.188-0.427-0.188-0.688
	c0-0.448,0.18-0.833,0.539-1.156c0.36-0.323,0.862-0.483,1.508-0.483c0.719,0,1.266,0.164,1.641,0.491
	c0.375,0.328,0.568,0.764,0.578,1.305l-0.953,0.063c-0.011-0.344-0.13-0.615-0.359-0.813c-0.23-0.197-0.553-0.296-0.969-0.296
	c-0.344,0-0.607,0.074-0.789,0.226c-0.183,0.151-0.274,0.32-0.274,0.508c0,0.177,0.078,0.333,0.235,0.469
	c0.104,0.094,0.38,0.234,0.828,0.423c0.75,0.322,1.219,0.577,1.406,0.765c0.313,0.302,0.469,0.667,0.469,1.094
	c0,0.281-0.086,0.558-0.258,0.828c-0.172,0.271-0.438,0.487-0.797,0.649c-0.359,0.161-0.779,0.241-1.258,0.241
	c-0.656,0-1.218-0.161-1.687-0.484C169.038,265.802,168.819,265.271,168.84,264.532L168.84,264.532z M178.45,264.547l0.937,0.094
	c-0.135,0.469-0.448,0.914-0.937,1.336c-0.49,0.422-1.073,0.633-1.75,0.633c-0.417,0-0.802-0.097-1.156-0.288
	c-0.355-0.193-0.625-0.478-0.813-0.853c-0.187-0.375-0.281-0.797-0.281-1.266c0-0.625,0.146-1.231,0.437-1.82
	c0.292-0.588,0.667-1.023,1.125-1.305c0.459-0.281,0.954-0.421,1.485-0.421c0.677,0,1.219,0.211,1.625,0.632
	c0.406,0.422,0.609,0.998,0.609,1.727c0,0.281-0.021,0.568-0.062,0.859h-4.203c-0.021,0.115-0.032,0.214-0.032,0.297
	c0,0.531,0.123,0.938,0.367,1.219c0.245,0.281,0.545,0.422,0.899,0.422c0.333,0,0.661-0.109,0.984-0.328
	C178.006,265.266,178.262,264.953,178.45,264.547L178.45,264.547z M175.622,263.125h3.203c0-0.093,0-0.161,0-0.203
	c0-0.489-0.123-0.864-0.367-1.125c-0.245-0.26-0.56-0.39-0.946-0.39c-0.406,0-0.781,0.143-1.125,0.429
	C176.043,262.123,175.788,262.552,175.622,263.125L175.622,263.125z M182.427,263.688l-0.797-2.469h0.766l1.031,2.594l-2.094,2.281
	h-0.875L182.427,263.688L182.427,263.688z M184.521,263.734l-0.797-2.516h0.734l1.094,2.609l-2.172,2.266h-0.781L184.521,263.734
	L184.521,263.734z"/>
<line fill="none" stroke="#000000" stroke-miterlimit="1.45" stroke-dasharray="6,2" x1="307.501" y1="244.55" x2="404.962" y2="221.799"/>
<polygon points="408.859,220.89 395.808,217.774 408.859,220.89 398.537,229.461 "/>
<polygon fill="none" stroke="#000000" stroke-linecap="square" stroke-miterlimit="10" points="408.859,220.89 395.808,217.774 
	408.859,220.89 398.537,229.461 "/>
<path fill="#808080" d="M339.376,220.839l0.859,2.437h-0.734l-1.141-2.562l2.156-2.313h0.766L339.376,220.839L339.376,220.839z
	 M341.501,220.839l0.844,2.437h-0.781l-1.078-2.562l2.094-2.313h0.828L341.501,220.839L341.501,220.839z M347.886,222.636
	c-0.689,0.771-1.393,1.156-2.111,1.156c-0.436,0-0.791-0.125-1.061-0.375c-0.271-0.25-0.408-0.558-0.408-0.922
	c0-0.24,0.063-0.651,0.188-1.234l0.688-3.297h0.969l-0.764,3.64c-0.064,0.313-0.096,0.553-0.096,0.72
	c0,0.208,0.066,0.373,0.195,0.491c0.131,0.12,0.32,0.181,0.57,0.181c0.283,0,0.551-0.065,0.805-0.195
	c0.256-0.131,0.479-0.308,0.664-0.532c0.189-0.224,0.344-0.492,0.469-0.804c0.074-0.198,0.162-0.542,0.268-1.032l0.514-2.468h0.986
	l-1.205,5.703h-0.889L347.886,222.636L347.886,222.636z M350.191,221.714l0.969-0.063c0,0.281,0.043,0.521,0.131,0.72
	c0.09,0.197,0.248,0.358,0.479,0.483c0.229,0.125,0.5,0.188,0.811,0.188c0.43,0,0.748-0.086,0.961-0.258
	c0.215-0.172,0.322-0.372,0.322-0.603c0-0.166-0.063-0.328-0.188-0.483c-0.137-0.146-0.459-0.331-0.971-0.556
	c-0.51-0.224-0.838-0.377-0.982-0.461c-0.24-0.145-0.422-0.316-0.547-0.515s-0.188-0.427-0.188-0.688
	c0-0.447,0.178-0.833,0.539-1.155c0.359-0.323,0.861-0.484,1.508-0.484c0.719,0,1.266,0.164,1.641,0.492s0.566,0.763,0.578,1.305
	l-0.953,0.063c-0.012-0.345-0.131-0.614-0.359-0.813s-0.553-0.297-0.969-0.297c-0.344,0-0.607,0.075-0.789,0.226
	c-0.184,0.151-0.273,0.321-0.273,0.509c0,0.177,0.078,0.333,0.234,0.469c0.104,0.094,0.379,0.234,0.828,0.422
	c0.75,0.323,1.219,0.578,1.406,0.765c0.313,0.303,0.469,0.667,0.469,1.095c0,0.28-0.086,0.557-0.258,0.827
	c-0.172,0.271-0.438,0.487-0.799,0.649c-0.357,0.161-0.777,0.242-1.256,0.242c-0.656,0-1.219-0.162-1.688-0.485
	C350.388,222.985,350.169,222.453,350.191,221.714L350.191,221.714z M359.8,221.729l0.938,0.095
	c-0.137,0.469-0.449,0.914-0.938,1.336c-0.49,0.422-1.074,0.633-1.75,0.633c-0.416,0-0.803-0.096-1.156-0.289
	c-0.355-0.193-0.625-0.477-0.814-0.852c-0.186-0.375-0.279-0.798-0.279-1.266c0-0.625,0.145-1.231,0.438-1.821
	c0.291-0.588,0.666-1.022,1.125-1.304c0.457-0.282,0.953-0.422,1.484-0.422c0.676,0,1.219,0.211,1.625,0.633
	c0.406,0.421,0.607,0.997,0.607,1.727c0,0.28-0.02,0.567-0.061,0.858h-4.203c-0.021,0.115-0.031,0.214-0.031,0.297
	c0,0.532,0.121,0.938,0.367,1.22c0.244,0.28,0.543,0.422,0.898,0.422c0.334,0,0.662-0.109,0.984-0.328
	S359.613,222.136,359.8,221.729L359.8,221.729z M356.972,220.307h3.203c0-0.093,0-0.161,0-0.203c0-0.488-0.123-0.863-0.367-1.125
	c-0.246-0.26-0.561-0.39-0.945-0.39c-0.408,0-0.783,0.143-1.125,0.429C357.394,219.305,357.138,219.734,356.972,220.307
	L356.972,220.307z M363.777,220.87l-0.797-2.47h0.766l1.031,2.595l-2.094,2.28h-0.875L363.777,220.87L363.777,220.87z
	 M365.871,220.917l-0.797-2.517h0.734l1.094,2.61l-2.172,2.265h-0.781L365.871,220.917L365.871,220.917z"/>
<line fill="none" stroke="#000000" stroke-miterlimit="1.45" x1="273.404" y1="232.245" x2="273.404" y2="184.632"/>
<polygon points="273.404,239.245 268.403,232.245 273.404,225.245 278.404,232.245 "/>
<line fill="none" stroke="#000000" stroke-miterlimit="1.45" x1="273.404" y1="151.154" x2="273.404" y2="103.541"/>
<polygon points="273.404,158.154 268.403,151.154 273.404,144.154 278.404,151.154 "/>
<line fill="none" stroke="#000000" stroke-miterlimit="1.45" stroke-dasharray="6,2" x1="232.131" y1="77.087" x2="122.063" y2="41.779"/>
<polygon points="118.254,40.557 127.848,49.935 118.254,40.557 131.514,38.509 "/>
<polygon fill="none" stroke="#000000" stroke-linecap="square" stroke-miterlimit="10" points="118.254,40.557 127.848,49.935 
	118.254,40.557 131.514,38.509 "/>
<path fill="#808080" d="M161.605,43.975l0.859,2.438h-0.734l-1.141-2.563l2.156-2.312h0.766L161.605,43.975L161.605,43.975z
	 M163.73,43.975l0.843,2.438h-0.781l-1.078-2.563l2.094-2.312h0.828L163.73,43.975L163.73,43.975z M170.113,45.772
	c-0.687,0.771-1.391,1.156-2.109,1.156c-0.438,0-0.792-0.125-1.063-0.375s-0.406-0.557-0.406-0.922c0-0.239,0.062-0.651,0.187-1.234
	l0.688-3.297h0.969l-0.766,3.641c-0.063,0.312-0.094,0.552-0.094,0.718c0,0.209,0.065,0.373,0.196,0.493
	c0.13,0.119,0.32,0.179,0.57,0.179c0.281,0,0.549-0.065,0.805-0.195c0.255-0.13,0.476-0.307,0.664-0.531
	c0.187-0.224,0.343-0.492,0.468-0.805c0.073-0.198,0.162-0.542,0.266-1.031l0.516-2.469h0.984l-1.203,5.703h-0.891L170.113,45.772
	L170.113,45.772z M172.418,44.85l0.969-0.062c0,0.281,0.044,0.52,0.133,0.718c0.088,0.198,0.247,0.36,0.476,0.485
	s0.5,0.187,0.813,0.187c0.427,0,0.747-0.086,0.961-0.258c0.213-0.171,0.32-0.372,0.32-0.601c0-0.167-0.062-0.328-0.187-0.485
	c-0.136-0.145-0.459-0.33-0.969-0.554c-0.511-0.224-0.839-0.378-0.985-0.461c-0.239-0.146-0.421-0.318-0.546-0.516
	c-0.125-0.198-0.188-0.427-0.188-0.687c0-0.448,0.18-0.834,0.539-1.157c0.36-0.322,0.862-0.484,1.508-0.484
	c0.719,0,1.266,0.164,1.641,0.492s0.567,0.763,0.578,1.305l-0.953,0.062c-0.011-0.343-0.131-0.614-0.36-0.812
	c-0.229-0.198-0.552-0.297-0.969-0.297c-0.343,0-0.606,0.076-0.789,0.228c-0.182,0.151-0.273,0.32-0.273,0.507
	c0,0.178,0.078,0.334,0.234,0.469c0.104,0.094,0.381,0.235,0.828,0.422c0.75,0.323,1.219,0.578,1.407,0.766
	c0.312,0.302,0.468,0.666,0.468,1.093c0,0.282-0.085,0.558-0.257,0.829c-0.172,0.27-0.438,0.487-0.797,0.648
	c-0.36,0.162-0.779,0.242-1.258,0.242c-0.656,0-1.219-0.161-1.688-0.484C172.617,46.121,172.397,45.59,172.418,44.85L172.418,44.85z
	 M182.028,44.866l0.937,0.093c-0.135,0.469-0.448,0.915-0.937,1.336c-0.49,0.422-1.073,0.633-1.75,0.633
	c-0.417,0-0.803-0.096-1.157-0.289c-0.354-0.193-0.625-0.476-0.812-0.851c-0.188-0.375-0.281-0.797-0.281-1.266
	c0-0.625,0.145-1.232,0.437-1.82c0.292-0.589,0.667-1.024,1.125-1.305c0.458-0.281,0.953-0.422,1.484-0.422
	c0.678,0,1.219,0.211,1.625,0.633c0.407,0.422,0.61,0.997,0.61,1.726c0,0.282-0.021,0.568-0.063,0.86h-4.203
	c-0.021,0.114-0.031,0.213-0.031,0.297c0,0.531,0.122,0.937,0.367,1.218c0.245,0.282,0.544,0.422,0.899,0.422
	c0.333,0,0.661-0.109,0.984-0.328C181.585,45.584,181.84,45.272,182.028,44.866L182.028,44.866z M179.2,43.444h3.204
	c0-0.094,0-0.162,0-0.203c0-0.49-0.123-0.865-0.368-1.125c-0.244-0.261-0.56-0.391-0.945-0.391c-0.406,0-0.781,0.144-1.125,0.43
	C179.622,42.441,179.367,42.871,179.2,43.444L179.2,43.444z M186.005,44.006l-0.797-2.468h0.765l1.032,2.593l-2.094,2.282h-0.875
	L186.005,44.006L186.005,44.006z M188.099,44.053l-0.797-2.515h0.735l1.094,2.609l-2.172,2.266h-0.782L188.099,44.053
	L188.099,44.053z"/>
</svg>
