<?xml version="1.0" encoding="utf-8"?>
<!-- Generator: Adobe Illustrator 16.0.0, SVG Export Plug-In . SVG Version: 6.00 Build 0)  -->
<!DOCTYPE svg PUBLIC "-//W3C//DTD SVG 1.1//EN" "http://www.w3.org/Graphics/SVG/1.1/DTD/svg11.dtd">
<svg version="1.1" id="Layer_1" xmlns="http://www.w3.org/2000/svg" xmlns:xlink="http://www.w3.org/1999/xlink" x="0px" y="0px"
	 width="432px" height="288px" viewBox="0 0 432 288" enable-background="new 0 0 432 288" xml:space="preserve">
<polygon fill="#BFFFBF" points="292.999,213.89 428.999,213.89 428.999,237.89 292.999,237.89 292.999,213.89 "/>
<polygon fill="#FFFFFF" points="291.999,212.89 292.999,212.89 292.999,238.89 291.999,238.89 291.999,212.89 "/>
<polygon fill="#FFFFFF" points="292.999,212.89 428.999,212.89 428.999,213.89 292.999,213.89 292.999,212.89 "/>
<polygon fill="#85B285" points="292.999,237.89 429.999,237.89 429.999,238.89 292.999,238.89 292.999,237.89 "/>
<polygon fill="#85B285" points="428.999,212.89 429.999,212.89 429.999,237.89 428.999,237.89 428.999,212.89 "/>
<path d="M313.034,231.336h-2.047l-0.813-2.109h-3.719l-0.766,2.109h-2l3.625-9.313h1.984L313.034,231.336L313.034,231.336z
	 M309.565,227.648l-1.281-3.452l-1.25,3.452H309.565L309.565,227.648z M314.017,222.023h3.438c0.77,0,1.359,0.063,1.766,0.188
	c0.551,0.156,1.02,0.439,1.404,0.852c0.387,0.411,0.682,0.914,0.885,1.509c0.201,0.593,0.305,1.327,0.305,2.202
	c0,0.761-0.094,1.423-0.281,1.984c-0.229,0.677-0.563,1.224-1,1.641c-0.322,0.313-0.762,0.558-1.313,0.734
	c-0.416,0.135-0.975,0.203-1.672,0.203h-3.531V222.023L314.017,222.023z M315.892,223.602v6.172h1.406
	c0.531,0,0.912-0.031,1.141-0.094c0.301-0.073,0.555-0.201,0.758-0.383s0.367-0.482,0.492-0.898
	c0.125-0.417,0.186-0.984,0.186-1.702c0-0.72-0.061-1.271-0.186-1.657c-0.125-0.385-0.303-0.688-0.531-0.906
	s-0.521-0.365-0.875-0.437c-0.262-0.063-0.775-0.095-1.547-0.095H315.892L315.892,223.602z M323.028,226.742
	c0-0.947,0.143-1.744,0.422-2.391c0.221-0.469,0.512-0.893,0.875-1.273c0.365-0.38,0.768-0.658,1.203-0.836
	c0.574-0.25,1.24-0.375,2-0.375c1.375,0,2.475,0.428,3.297,1.281c0.824,0.854,1.236,2.036,1.236,3.548c0,1.5-0.41,2.674-1.229,3.522
	c-0.816,0.849-1.908,1.273-3.271,1.273c-1.387,0-2.488-0.421-3.305-1.266C323.438,229.383,323.028,228.222,323.028,226.742
	L323.028,226.742z M324.968,226.68c0,1.052,0.244,1.849,0.732,2.392c0.49,0.541,1.105,0.812,1.846,0.812
	c0.75,0,1.365-0.268,1.85-0.805c0.486-0.536,0.727-1.347,0.727-2.43c0-1.063-0.232-1.856-0.701-2.383
	c-0.471-0.525-1.096-0.789-1.875-0.789c-0.771,0-1.395,0.266-1.867,0.797C325.204,224.805,324.968,225.606,324.968,226.68
	L324.968,226.68z M333.517,222.023h3.438c0.77,0,1.359,0.063,1.766,0.188c0.551,0.156,1.02,0.439,1.404,0.852
	c0.387,0.411,0.682,0.914,0.885,1.509c0.201,0.593,0.305,1.327,0.305,2.202c0,0.761-0.094,1.423-0.281,1.984
	c-0.229,0.677-0.563,1.224-1,1.641c-0.322,0.313-0.762,0.558-1.313,0.734c-0.416,0.135-0.975,0.203-1.672,0.203h-3.531V222.023
	L333.517,222.023z M335.392,223.602v6.172h1.406c0.531,0,0.912-0.031,1.141-0.094c0.301-0.073,0.555-0.201,0.758-0.383
	s0.367-0.482,0.492-0.898c0.125-0.417,0.186-0.984,0.186-1.702c0-0.72-0.061-1.271-0.186-1.657
	c-0.125-0.385-0.303-0.688-0.531-0.906s-0.521-0.365-0.875-0.437c-0.262-0.063-0.775-0.095-1.547-0.095H335.392L335.392,223.602z
	 M342.921,222.023h3.719c0.738,0,1.289,0.031,1.646,0.094c0.359,0.063,0.684,0.192,0.971,0.391c0.285,0.198,0.525,0.458,0.719,0.781
	c0.191,0.323,0.289,0.683,0.289,1.078c0,0.438-0.121,0.839-0.361,1.204c-0.238,0.363-0.557,0.64-0.953,0.827
	c0.564,0.156,0.998,0.436,1.307,0.836c0.307,0.401,0.461,0.867,0.461,1.398c0,0.427-0.1,0.841-0.297,1.242
	c-0.199,0.4-0.467,0.722-0.807,0.961c-0.338,0.24-0.758,0.386-1.258,0.438c-0.311,0.031-1.066,0.053-2.264,0.063h-3.172V222.023
	L342.921,222.023z M344.796,223.586v2.141h1.232c0.73,0,1.184-0.011,1.361-0.03c0.322-0.032,0.578-0.142,0.764-0.329
	c0.189-0.188,0.283-0.433,0.283-0.734c0-0.281-0.082-0.513-0.244-0.695c-0.16-0.183-0.396-0.289-0.711-0.32
	c-0.186-0.021-0.723-0.031-1.609-0.031H344.796L344.796,223.586z M344.796,227.273v2.5h1.75c0.676,0,1.104-0.021,1.279-0.063
	c0.281-0.052,0.512-0.177,0.689-0.375c0.176-0.198,0.264-0.458,0.264-0.781c0-0.281-0.066-0.521-0.203-0.719
	c-0.135-0.198-0.332-0.341-0.594-0.43c-0.26-0.089-0.816-0.133-1.67-0.133H344.796L344.796,227.273z M352.292,231.336v-1.781h1.781
	v1.781H352.292L352.292,231.336z M361.872,227.914l1.814,0.578c-0.283,1.011-0.746,1.763-1.391,2.258
	c-0.646,0.495-1.471,0.742-2.471,0.742c-1.238,0-2.258-0.421-3.055-1.266c-0.795-0.844-1.195-2-1.195-3.469
	c0-1.542,0.402-2.742,1.203-3.602c0.803-0.859,1.855-1.289,3.158-1.289c1.135,0,2.061,0.339,2.781,1.016
	c0.416,0.396,0.732,0.969,0.953,1.719l-1.859,0.438c-0.115-0.479-0.348-0.859-0.697-1.141c-0.348-0.281-0.771-0.422-1.271-0.422
	c-0.689,0-1.248,0.247-1.682,0.742c-0.432,0.495-0.646,1.299-0.646,2.414c0,1.167,0.213,2,0.639,2.5c0.428,0.5,0.98,0.75,1.658,0.75
	c0.5,0,0.928-0.159,1.289-0.477C361.46,229.089,361.718,228.591,361.872,227.914L361.872,227.914z M364.87,227.867
	c0-0.594,0.146-1.166,0.438-1.719c0.293-0.552,0.707-0.974,1.242-1.266c0.537-0.292,1.139-0.437,1.805-0.437
	c1.01,0,1.844,0.329,2.5,0.991c0.656,0.661,0.984,1.497,0.984,2.509c0,1.02-0.33,1.866-0.992,2.538
	c-0.66,0.672-1.492,1.008-2.492,1.008c-0.615,0-1.203-0.141-1.766-0.421c-0.563-0.282-0.988-0.691-1.281-1.228
	C365.017,229.308,364.87,228.648,364.87,227.867L364.87,227.867z M366.698,227.961c0,0.667,0.16,1.18,0.477,1.539
	c0.318,0.359,0.711,0.539,1.18,0.539s0.859-0.18,1.172-0.539s0.469-0.877,0.469-1.554c0-0.657-0.156-1.162-0.469-1.517
	c-0.313-0.354-0.703-0.531-1.172-0.531s-0.861,0.178-1.18,0.531C366.858,226.784,366.698,227.295,366.698,227.961L366.698,227.961z
	 M373.093,224.602h1.641v0.906c0.594-0.708,1.297-1.062,2.109-1.062c0.428,0,0.799,0.088,1.117,0.265s0.58,0.442,0.789,0.797
	c0.289-0.354,0.609-0.62,0.949-0.797c0.352-0.177,0.711-0.265,1.102-0.265c0.5,0,0.92,0.099,1.26,0.296
	c0.35,0.197,0.6,0.495,0.77,0.891c0.119,0.281,0.189,0.745,0.189,1.391v4.313h-1.789v-3.859c0-0.667-0.061-1.094-0.18-1.28
	c-0.17-0.262-0.432-0.392-0.771-0.392c-0.25,0-0.479,0.075-0.699,0.227s-0.381,0.375-0.48,0.672s-0.146,0.763-0.146,1.398v3.234
	h-1.781v-3.688c0-0.656-0.031-1.081-0.094-1.273s-0.162-0.336-0.297-0.429c-0.135-0.095-0.316-0.142-0.547-0.142
	c-0.27,0-0.516,0.075-0.734,0.227s-0.379,0.364-0.477,0.641c-0.1,0.276-0.148,0.737-0.148,1.383v3.281h-1.781V224.602
	L373.093,224.602z M384.649,224.602h1.639v0.906c0.602-0.708,1.301-1.062,2.111-1.062c0.43,0,0.799,0.088,1.119,0.265
	s0.58,0.442,0.791,0.797c0.289-0.354,0.609-0.62,0.949-0.797c0.35-0.177,0.711-0.265,1.1-0.265c0.5,0,0.92,0.099,1.26,0.296
	c0.352,0.197,0.602,0.495,0.771,0.891c0.119,0.281,0.18,0.745,0.18,1.391v4.313h-1.781v-3.859c0-0.667-0.059-1.094-0.18-1.28
	c-0.17-0.262-0.43-0.392-0.77-0.392c-0.25,0-0.48,0.075-0.699,0.227c-0.221,0.151-0.381,0.375-0.48,0.672s-0.15,0.763-0.15,1.398
	v3.234h-1.779v-3.688c0-0.656-0.031-1.081-0.09-1.273c-0.07-0.192-0.16-0.336-0.301-0.429c-0.141-0.095-0.32-0.142-0.551-0.142
	c-0.27,0-0.51,0.075-0.729,0.227c-0.221,0.151-0.381,0.364-0.48,0.641s-0.15,0.737-0.15,1.383v3.281h-1.779V224.602L384.649,224.602
	z M397.679,226.648l-1.619-0.297c0.18-0.646,0.5-1.125,0.939-1.438s1.1-0.468,1.98-0.468c0.799,0,1.389,0.093,1.779,0.28
	c0.381,0.188,0.66,0.427,0.82,0.72c0.16,0.291,0.24,0.821,0.24,1.593l-0.01,2.078c0,0.594,0.02,1.031,0.08,1.313
	c0.059,0.281,0.17,0.583,0.32,0.906h-1.762c-0.059-0.114-0.109-0.291-0.18-0.531c-0.029-0.104-0.049-0.172-0.061-0.203
	c-0.309,0.291-0.639,0.514-0.979,0.664c-0.35,0.151-0.721,0.227-1.111,0.227c-0.699,0-1.25-0.19-1.639-0.57
	c-0.4-0.38-0.6-0.857-0.6-1.43c0-0.375,0.09-0.713,0.279-1.016c0.18-0.302,0.43-0.53,0.76-0.688c0.33-0.156,0.801-0.297,1.42-0.422
	c0.83-0.156,1.41-0.303,1.73-0.438v-0.172c0-0.344-0.08-0.588-0.26-0.734c-0.17-0.146-0.49-0.219-0.961-0.219
	c-0.311,0-0.549,0.063-0.73,0.188C397.938,226.117,397.8,226.336,397.679,226.648L397.679,226.648z M400.069,228.102
	c-0.23,0.073-0.59,0.161-1.08,0.266c-0.5,0.104-0.82,0.209-0.98,0.313c-0.23,0.167-0.34,0.375-0.34,0.625s0.09,0.466,0.279,0.648
	c0.182,0.183,0.42,0.273,0.701,0.273c0.32,0,0.629-0.104,0.92-0.313c0.219-0.156,0.359-0.354,0.42-0.593
	c0.061-0.146,0.08-0.434,0.08-0.86V228.102L400.069,228.102z M409.708,231.336h-1.779v-3.438c0-0.729-0.039-1.2-0.119-1.414
	s-0.201-0.381-0.381-0.5c-0.17-0.119-0.369-0.18-0.609-0.18c-0.311,0-0.58,0.086-0.82,0.258c-0.25,0.172-0.42,0.396-0.51,0.672
	c-0.09,0.276-0.141,0.795-0.141,1.555v3.047h-1.779v-6.734h1.65v0.984c0.59-0.76,1.33-1.14,2.219-1.14c0.4,0,0.76,0.069,1.08,0.21
	s0.57,0.32,0.74,0.54c0.17,0.218,0.291,0.468,0.35,0.75c0.07,0.28,0.1,0.682,0.1,1.202V231.336L409.708,231.336z M417.698,231.336
	h-1.66v-0.984c-0.27,0.386-0.59,0.672-0.969,0.859c-0.371,0.188-0.75,0.281-1.121,0.281c-0.789,0-1.449-0.313-2-0.938
	c-0.559-0.625-0.83-1.495-0.83-2.608c0-1.146,0.271-2.017,0.801-2.61c0.539-0.594,1.221-0.89,2.039-0.89
	c0.75,0,1.4,0.312,1.951,0.937v-3.359h1.789V231.336L417.698,231.336z M412.948,227.821c0,0.718,0.09,1.238,0.291,1.562
	c0.279,0.469,0.68,0.703,1.209,0.703c0.4,0,0.75-0.174,1.041-0.523c0.289-0.349,0.439-0.873,0.439-1.57
	c0-0.771-0.141-1.328-0.42-1.671c-0.279-0.345-0.641-0.517-1.08-0.517c-0.42,0-0.77,0.169-1.049,0.508
	C413.089,226.65,412.948,227.154,412.948,227.821L412.948,227.821z"/>
<polygon fill="#FFCC99" points="3.999,136.89 54.999,136.89 54.999,160.89 3.999,160.89 3.999,136.89 "/>
<polygon fill="#FFFFDA" points="2.999,135.89 3.999,135.89 3.999,161.89 2.999,161.89 2.999,135.89 "/>
<polygon fill="#FFFFDA" points="3.999,135.89 54.999,135.89 54.999,136.89 3.999,136.89 3.999,135.89 "/>
<polygon fill="#B28E6B" points="3.999,160.89 55.999,160.89 55.999,161.89 3.999,161.89 3.999,160.89 "/>
<polygon fill="#B28E6B" points="54.999,135.89 55.999,135.89 55.999,160.89 54.999,160.89 54.999,135.89 "/>
<path d="M9.757,151.557l1.828-0.172c0.115,0.615,0.339,1.065,0.672,1.353c0.333,0.285,0.786,0.429,1.359,0.429
	c0.605,0,1.06-0.127,1.368-0.382c0.307-0.256,0.46-0.556,0.46-0.899c0-0.219-0.065-0.406-0.195-0.562
	c-0.13-0.157-0.357-0.292-0.68-0.407c-0.218-0.072-0.718-0.208-1.5-0.406c-1.01-0.25-1.718-0.557-2.125-0.922
	c-0.562-0.51-0.843-1.135-0.843-1.875c0-0.468,0.133-0.909,0.398-1.32c0.266-0.411,0.651-0.727,1.156-0.944
	c0.506-0.219,1.118-0.328,1.836-0.328c1.167,0,2.045,0.257,2.633,0.772c0.589,0.517,0.899,1.201,0.93,2.056l-1.875,0.078
	c-0.083-0.479-0.255-0.823-0.516-1.031c-0.26-0.209-0.656-0.313-1.187-0.313c-0.552,0-0.979,0.109-1.282,0.328
	c-0.197,0.146-0.296,0.339-0.296,0.578c0,0.219,0.088,0.407,0.265,0.563c0.24,0.208,0.818,0.419,1.735,0.634
	c0.916,0.213,1.593,0.435,2.031,0.664c0.437,0.229,0.779,0.544,1.023,0.944c0.245,0.401,0.367,0.898,0.367,1.492
	c0,0.531-0.148,1.029-0.445,1.492c-0.297,0.464-0.716,0.81-1.258,1.039c-0.542,0.229-1.213,0.344-2.015,0.344
	c-1.177,0-2.081-0.272-2.711-0.82C10.26,153.393,9.882,152.599,9.757,151.557L9.757,151.557z M26.397,153.4
	c0.458,0.333,0.958,0.6,1.5,0.798l-0.688,1.327c-0.281-0.084-0.557-0.202-0.828-0.359c-0.062-0.021-0.479-0.291-1.25-0.813
	c-0.615,0.261-1.292,0.392-2.031,0.392c-1.427,0-2.547-0.422-3.36-1.267c-0.812-0.844-1.218-2.025-1.218-3.547
	c0-1.521,0.406-2.703,1.218-3.547c0.813-0.844,1.917-1.265,3.313-1.265c1.375,0,2.466,0.421,3.273,1.265
	c0.808,0.844,1.211,2.026,1.211,3.547c0,0.802-0.109,1.511-0.328,2.125C27.042,152.526,26.772,152.974,26.397,153.4L26.397,153.4z
	 M24.881,152.354c0.24-0.292,0.422-0.638,0.547-1.039c0.125-0.4,0.187-0.861,0.187-1.383c0-1.073-0.237-1.875-0.711-2.406
	c-0.474-0.53-1.096-0.797-1.867-0.797s-1.393,0.267-1.867,0.797c-0.474,0.531-0.711,1.333-0.711,2.406
	c0,1.095,0.237,1.909,0.711,2.445c0.474,0.537,1.076,0.805,1.805,0.805c0.271,0,0.531-0.042,0.781-0.125
	c-0.385-0.25-0.776-0.448-1.172-0.594l0.531-1.062C23.73,151.608,24.319,151.927,24.881,152.354L24.881,152.354z M29.071,154.588
	v-9.233h1.875v7.671h4.672v1.563H29.071L29.071,154.588z M36.949,154.588v-9.312h1.782v9.312H36.949L36.949,154.588z
	 M40.561,146.932v-1.655h1.781v1.655H40.561L40.561,146.932z M40.561,154.588v-6.734h1.781v6.734H40.561L40.561,154.588z
	 M44.095,154.588v-9.312h1.781v3.358c0.552-0.625,1.203-0.937,1.953-0.937c0.823,0,1.503,0.297,2.039,0.89
	c0.537,0.594,0.805,1.448,0.805,2.563c0,1.146-0.273,2.031-0.82,2.656s-1.211,0.938-1.992,0.938c-0.386,0-0.766-0.098-1.141-0.29
	s-0.698-0.477-0.969-0.852v0.984H44.095L44.095,154.588z M45.861,151.073c0,0.697,0.109,1.213,0.328,1.547
	c0.312,0.479,0.724,0.718,1.234,0.718c0.396,0,0.732-0.169,1.008-0.508c0.276-0.338,0.414-0.872,0.414-1.602
	c0-0.76-0.138-1.313-0.414-1.655c-0.276-0.345-0.633-0.517-1.07-0.517c-0.428,0-0.784,0.167-1.071,0.5
	C46.004,149.89,45.861,150.396,45.861,151.073L45.861,151.073z"/>
<polygon fill="#FFCC99" points="3.999,213.89 54.999,213.89 54.999,237.89 3.999,237.89 3.999,213.89 "/>
<polygon fill="#FFFFDA" points="2.999,212.89 3.999,212.89 3.999,238.89 2.999,238.89 2.999,212.89 "/>
<polygon fill="#FFFFDA" points="3.999,212.89 54.999,212.89 54.999,213.89 3.999,213.89 3.999,212.89 "/>
<polygon fill="#B28E6B" points="3.999,237.89 55.999,237.89 55.999,238.89 3.999,238.89 3.999,237.89 "/>
<polygon fill="#B28E6B" points="54.999,212.89 55.999,212.89 55.999,237.89 54.999,237.89 54.999,212.89 "/>
<path d="M17.55,231.336h-2.047l-0.813-2.109h-3.718l-0.766,2.109h-2l3.625-9.313h1.984L17.55,231.336L17.55,231.336z
	 M14.081,227.648l-1.281-3.452l-1.25,3.452H14.081L14.081,227.648z M18.532,222.023h3.437c0.771,0,1.36,0.063,1.766,0.188
	c0.552,0.156,1.021,0.439,1.406,0.852c0.385,0.411,0.68,0.914,0.883,1.509c0.203,0.593,0.305,1.327,0.305,2.202
	c0,0.761-0.094,1.423-0.282,1.984c-0.229,0.677-0.562,1.224-1,1.641c-0.323,0.313-0.76,0.558-1.312,0.734
	c-0.417,0.135-0.974,0.203-1.672,0.203h-3.531V222.023L18.532,222.023z M20.407,223.602v6.172h1.406
	c0.531,0,0.911-0.031,1.141-0.094c0.302-0.073,0.554-0.201,0.757-0.383s0.368-0.482,0.493-0.898
	c0.125-0.417,0.187-0.984,0.187-1.702c0-0.72-0.062-1.271-0.187-1.657c-0.125-0.385-0.303-0.688-0.532-0.906
	s-0.521-0.365-0.875-0.437c-0.26-0.063-0.776-0.095-1.547-0.095H20.407L20.407,223.602z M27.545,226.742
	c0-0.947,0.14-1.744,0.422-2.391c0.218-0.469,0.51-0.893,0.875-1.273c0.364-0.38,0.765-0.658,1.203-0.836
	c0.573-0.25,1.239-0.375,2-0.375c1.375,0,2.474,0.428,3.297,1.281c0.823,0.854,1.234,2.036,1.234,3.548
	c0,1.5-0.409,2.674-1.226,3.522c-0.818,0.849-1.909,1.273-3.274,1.273c-1.385,0-2.487-0.421-3.305-1.266
	C27.954,229.383,27.545,228.222,27.545,226.742L27.545,226.742z M29.482,226.68c0,1.052,0.245,1.849,0.735,2.392
	c0.489,0.541,1.104,0.812,1.843,0.812c0.75,0,1.368-0.268,1.852-0.805c0.484-0.536,0.727-1.347,0.727-2.43
	c0-1.063-0.235-1.856-0.704-2.383c-0.468-0.525-1.093-0.789-1.875-0.789c-0.77,0-1.393,0.266-1.867,0.797
	S29.482,225.606,29.482,226.68L29.482,226.68z M38.032,231.336v-9.313h1.781v9.313H38.032L38.032,231.336z M41.643,223.68v-1.656
	h1.782v1.656H41.643L41.643,223.68z M41.643,231.336v-6.734h1.782v6.734H41.643L41.643,231.336z M45.177,231.336v-9.313h1.781v3.359
	c0.552-0.625,1.204-0.937,1.954-0.937c0.822,0,1.502,0.296,2.039,0.89c0.536,0.594,0.804,1.448,0.804,2.563
	c0,1.146-0.273,2.031-0.82,2.656s-1.211,0.938-1.992,0.938c-0.386,0-0.766-0.097-1.141-0.289s-0.698-0.477-0.969-0.852v0.984H45.177
	L45.177,231.336z M46.943,227.821c0,0.696,0.109,1.213,0.328,1.546c0.312,0.479,0.724,0.719,1.234,0.719
	c0.396,0,0.732-0.169,1.008-0.508c0.276-0.338,0.414-0.872,0.414-1.602c0-0.761-0.138-1.313-0.414-1.655
	c-0.276-0.345-0.633-0.517-1.07-0.517c-0.427,0-0.784,0.167-1.071,0.5C47.086,226.638,46.943,227.143,46.943,227.821L46.943,227.821
	z"/>
<polygon fill="#BFFFBF" points="292.999,136.89 428.999,136.89 428.999,160.89 292.999,160.89 292.999,136.89 "/>
<polygon fill="#FFFFFF" points="291.999,135.89 292.999,135.89 292.999,161.89 291.999,161.89 291.999,135.89 "/>
<polygon fill="#FFFFFF" points="292.999,135.89 428.999,135.89 428.999,136.89 292.999,136.89 292.999,135.89 "/>
<polygon fill="#85B285" points="292.999,160.89 429.999,160.89 429.999,161.89 292.999,161.89 292.999,160.89 "/>
<polygon fill="#85B285" points="428.999,135.89 429.999,135.89 429.999,160.89 428.999,160.89 428.999,135.89 "/>
<path d="M309.067,154.588h-2.047l-0.814-2.109h-3.717l-0.766,2.109h-2l3.625-9.312h1.982L309.067,154.588L309.067,154.588z
	 M305.599,150.9l-1.281-3.452l-1.25,3.452H305.599L305.599,150.9z M310.05,145.276h3.436c0.771,0,1.361,0.062,1.768,0.187
	c0.551,0.157,1.02,0.44,1.404,0.852c0.387,0.411,0.682,0.914,0.883,1.509c0.203,0.593,0.307,1.328,0.307,2.202
	c0,0.761-0.094,1.423-0.283,1.984c-0.229,0.677-0.561,1.224-1,1.642c-0.322,0.312-0.76,0.557-1.311,0.733
	c-0.418,0.136-0.975,0.203-1.674,0.203h-3.529V145.276L310.05,145.276z M311.925,146.854v6.172h1.404
	c0.531,0,0.912-0.03,1.143-0.094c0.301-0.073,0.553-0.2,0.756-0.383c0.205-0.182,0.369-0.482,0.494-0.898
	c0.125-0.417,0.186-0.984,0.186-1.702c0-0.72-0.061-1.271-0.186-1.657c-0.125-0.385-0.303-0.688-0.533-0.906
	c-0.229-0.219-0.52-0.364-0.875-0.437c-0.26-0.063-0.775-0.095-1.545-0.095H311.925L311.925,146.854z M319.062,149.995
	c0-0.948,0.141-1.745,0.422-2.392c0.219-0.469,0.51-0.893,0.875-1.273c0.365-0.38,0.766-0.658,1.203-0.835
	c0.574-0.25,1.24-0.375,2-0.375c1.375,0,2.475,0.427,3.297,1.28c0.824,0.854,1.234,2.036,1.234,3.548c0,1.5-0.408,2.674-1.227,3.522
	c-0.816,0.85-1.908,1.274-3.273,1.274c-1.385,0-2.486-0.422-3.305-1.267C319.472,152.635,319.062,151.474,319.062,149.995
	L319.062,149.995z M320.999,149.932c0,1.052,0.244,1.85,0.734,2.392c0.49,0.541,1.105,0.812,1.844,0.812
	c0.75,0,1.367-0.268,1.852-0.805c0.484-0.536,0.727-1.347,0.727-2.429c0-1.063-0.234-1.857-0.703-2.384
	c-0.469-0.525-1.094-0.789-1.875-0.789c-0.77,0-1.393,0.267-1.867,0.797C321.235,148.057,320.999,148.858,320.999,149.932
	L320.999,149.932z M329.55,145.276h3.436c0.771,0,1.361,0.062,1.768,0.187c0.551,0.157,1.02,0.44,1.404,0.852
	c0.387,0.411,0.682,0.914,0.883,1.509c0.203,0.593,0.307,1.328,0.307,2.202c0,0.761-0.094,1.423-0.283,1.984
	c-0.229,0.677-0.561,1.224-1,1.642c-0.322,0.312-0.76,0.557-1.311,0.733c-0.418,0.136-0.975,0.203-1.674,0.203h-3.529V145.276
	L329.55,145.276z M331.425,146.854v6.172h1.404c0.531,0,0.912-0.03,1.143-0.094c0.301-0.073,0.553-0.2,0.756-0.383
	c0.205-0.182,0.369-0.482,0.494-0.898c0.125-0.417,0.186-0.984,0.186-1.702c0-0.72-0.061-1.271-0.186-1.657
	c-0.125-0.385-0.303-0.688-0.533-0.906c-0.229-0.219-0.52-0.364-0.875-0.437c-0.26-0.063-0.775-0.095-1.545-0.095H331.425
	L331.425,146.854z M338.952,145.276h3.719c0.74,0,1.289,0.03,1.648,0.094c0.359,0.062,0.682,0.191,0.969,0.39
	s0.527,0.459,0.719,0.781c0.193,0.323,0.289,0.683,0.289,1.079c0,0.437-0.119,0.838-0.359,1.203c-0.24,0.363-0.557,0.64-0.953,0.827
	c0.563,0.156,0.998,0.436,1.305,0.837c0.309,0.4,0.461,0.866,0.461,1.397c0,0.427-0.098,0.841-0.297,1.242
	c-0.197,0.401-0.467,0.722-0.805,0.961c-0.338,0.24-0.758,0.386-1.258,0.438c-0.313,0.031-1.068,0.053-2.266,0.063h-3.172V145.276
	L338.952,145.276z M340.827,146.838v2.141h1.234c0.729,0,1.182-0.01,1.359-0.03c0.322-0.032,0.578-0.142,0.766-0.328
	c0.188-0.188,0.281-0.434,0.281-0.735c0-0.281-0.08-0.513-0.242-0.695c-0.16-0.182-0.398-0.288-0.711-0.319
	c-0.188-0.021-0.725-0.032-1.609-0.032H340.827L340.827,146.838z M340.827,150.525v2.5h1.75c0.678,0,1.105-0.021,1.281-0.063
	c0.281-0.052,0.51-0.177,0.688-0.375s0.266-0.458,0.266-0.781c0-0.281-0.068-0.521-0.203-0.719s-0.332-0.341-0.594-0.429
	c-0.26-0.089-0.818-0.134-1.672-0.134H340.827L340.827,150.525z M348.325,154.588v-1.781h1.781v1.781H348.325L348.325,154.588z
	 M357.905,151.166l1.813,0.579c-0.281,1.01-0.744,1.763-1.391,2.257c-0.645,0.495-1.469,0.743-2.469,0.743
	c-1.24,0-2.258-0.422-3.055-1.267c-0.797-0.844-1.195-2-1.195-3.469c0-1.541,0.402-2.742,1.203-3.601
	c0.803-0.86,1.854-1.289,3.156-1.289c1.137,0,2.063,0.338,2.781,1.015c0.416,0.396,0.734,0.969,0.953,1.719l-1.859,0.438
	c-0.113-0.479-0.346-0.859-0.695-1.141c-0.348-0.28-0.773-0.422-1.273-0.422c-0.688,0-1.246,0.247-1.68,0.742
	c-0.432,0.495-0.648,1.3-0.648,2.414c0,1.167,0.215,2,0.641,2.5c0.428,0.5,0.979,0.75,1.656,0.75c0.5,0,0.93-0.159,1.289-0.476
	C357.491,152.341,357.749,151.844,357.905,151.166L357.905,151.166z M360.903,151.12c0-0.595,0.146-1.167,0.438-1.72
	c0.291-0.552,0.707-0.974,1.242-1.266c0.535-0.291,1.139-0.437,1.805-0.437c1.01,0,1.844,0.33,2.5,0.991s0.984,1.497,0.984,2.509
	c0,1.021-0.332,1.866-0.992,2.539c-0.662,0.672-1.492,1.008-2.492,1.008c-0.615,0-1.203-0.142-1.766-0.422
	c-0.563-0.282-0.99-0.69-1.281-1.228C361.05,152.56,360.903,151.9,360.903,151.12L360.903,151.12z M362.731,151.213
	c0,0.667,0.158,1.18,0.477,1.539c0.318,0.36,0.711,0.539,1.18,0.539s0.859-0.179,1.172-0.539c0.313-0.359,0.469-0.877,0.469-1.554
	c0-0.657-0.156-1.162-0.469-1.517c-0.313-0.354-0.703-0.53-1.172-0.53s-0.861,0.177-1.18,0.53
	C362.89,150.036,362.731,150.547,362.731,151.213L362.731,151.213z M375.392,154.588h-1.781v-3.438c0-0.729-0.039-1.2-0.117-1.413
	c-0.078-0.215-0.203-0.381-0.375-0.5c-0.172-0.12-0.379-0.181-0.619-0.181c-0.301,0-0.574,0.086-0.818,0.258
	c-0.246,0.173-0.414,0.396-0.508,0.673c-0.094,0.275-0.141,0.794-0.141,1.554v3.047h-1.783v-6.734h1.658v0.984
	c0.582-0.76,1.322-1.14,2.217-1.14c0.396,0,0.758,0.069,1.08,0.211c0.322,0.14,0.57,0.319,0.742,0.539
	c0.172,0.218,0.289,0.468,0.352,0.75c0.063,0.28,0.094,0.682,0.094,1.202V154.588L375.392,154.588z M383.329,154.588h-1.779v-3.438
	c0-0.729-0.041-1.2-0.121-1.413c-0.07-0.215-0.199-0.381-0.369-0.5c-0.17-0.12-0.381-0.181-0.621-0.181
	c-0.299,0-0.57,0.086-0.82,0.258c-0.238,0.173-0.41,0.396-0.51,0.673c-0.09,0.275-0.135,0.794-0.135,1.554v3.047h-1.783v-6.734
	h1.658v0.984c0.58-0.76,1.32-1.14,2.221-1.14c0.389,0,0.75,0.069,1.08,0.211c0.32,0.14,0.57,0.319,0.74,0.539
	c0.17,0.218,0.289,0.468,0.35,0.75c0.061,0.28,0.09,0.682,0.09,1.202V154.588L383.329,154.588z M389.06,152.448l1.76,0.297
	c-0.23,0.645-0.59,1.14-1.08,1.483c-0.49,0.345-1.1,0.517-1.84,0.517c-1.18,0-2.051-0.387-2.611-1.157
	c-0.449-0.614-0.67-1.385-0.67-2.313c0-1.125,0.291-2.003,0.881-2.633s1.33-0.944,2.211-0.944c1.01,0,1.809,0.33,2.379,0.991
	c0.58,0.661,0.859,1.675,0.82,3.039h-4.461c0.021,0.531,0.16,0.943,0.432,1.234c0.27,0.292,0.619,0.438,1.029,0.438
	c0.289,0,0.52-0.075,0.709-0.227C388.81,153.022,388.948,152.781,389.06,152.448L389.06,152.448z M389.149,150.635
	c-0.01-0.51-0.141-0.901-0.4-1.172c-0.25-0.271-0.561-0.406-0.93-0.406c-0.381,0-0.711,0.142-0.971,0.422
	c-0.25,0.292-0.369,0.678-0.369,1.156H389.149L389.149,150.635z M398.249,149.838l-1.76,0.313c-0.051-0.344-0.189-0.604-0.4-0.78
	c-0.209-0.178-0.49-0.267-0.82-0.267c-0.439,0-0.789,0.151-1.061,0.453c-0.26,0.302-0.389,0.818-0.389,1.547
	c0,0.792,0.129,1.354,0.4,1.688c0.27,0.334,0.629,0.5,1.08,0.5c0.34,0,0.619-0.096,0.84-0.289c0.209-0.192,0.359-0.523,0.439-0.992
	l1.77,0.297c-0.189,0.802-0.539,1.409-1.061,1.82c-0.51,0.412-1.199,0.618-2.068,0.618c-0.99,0-1.771-0.313-2.361-0.938
	c-0.58-0.625-0.869-1.483-0.869-2.578c0-1.114,0.289-1.981,0.869-2.602c0.59-0.619,1.381-0.929,2.391-0.929
	c0.83,0,1.48,0.177,1.959,0.53C397.698,148.583,398.05,149.12,398.249,149.838L398.249,149.838z M402.698,147.854v1.422h-1.219
	v2.703c0,0.553,0.01,0.875,0.039,0.97c0.02,0.093,0.07,0.169,0.15,0.226c0.08,0.058,0.18,0.086,0.301,0.086
	c0.16,0,0.398-0.057,0.719-0.172l0.15,1.391c-0.41,0.178-0.879,0.267-1.4,0.267c-0.33,0-0.619-0.056-0.879-0.165
	s-0.451-0.25-0.57-0.421c-0.121-0.172-0.201-0.404-0.24-0.696c-0.039-0.208-0.061-0.625-0.061-1.25v-2.938h-0.82v-1.422h0.82v-1.344
	l1.791-1.047v2.391H402.698L402.698,147.854z M403.938,146.932v-1.655h1.781v1.655H403.938L403.938,146.932z M403.938,154.588
	v-6.734h1.781v6.734H403.938L403.938,154.588z M407.13,151.12c0-0.595,0.139-1.167,0.439-1.72c0.289-0.552,0.699-0.974,1.24-1.266
	c0.529-0.291,1.139-0.437,1.799-0.437c1.01,0,1.85,0.33,2.5,0.991c0.66,0.661,0.99,1.497,0.99,2.509c0,1.021-0.33,1.866-1,2.539
	c-0.66,0.672-1.49,1.008-2.49,1.008c-0.609,0-1.199-0.142-1.76-0.422c-0.57-0.282-0.99-0.69-1.279-1.228
	C407.269,152.56,407.13,151.9,407.13,151.12L407.13,151.12z M408.958,151.213c0,0.667,0.15,1.18,0.471,1.539
	c0.32,0.36,0.711,0.539,1.18,0.539c0.471,0,0.861-0.179,1.17-0.539c0.32-0.359,0.471-0.877,0.471-1.554
	c0-0.657-0.15-1.162-0.471-1.517c-0.309-0.354-0.699-0.53-1.17-0.53c-0.469,0-0.859,0.177-1.18,0.53
	C409.108,150.036,408.958,150.547,408.958,151.213L408.958,151.213z M421.618,154.588h-1.789v-3.438c0-0.729-0.029-1.2-0.109-1.413
	c-0.08-0.215-0.211-0.381-0.381-0.5c-0.17-0.12-0.381-0.181-0.609-0.181c-0.311,0-0.58,0.086-0.83,0.258
	c-0.24,0.173-0.41,0.396-0.5,0.673c-0.1,0.275-0.141,0.794-0.141,1.554v3.047h-1.779v-6.734h1.65v0.984
	c0.578-0.76,1.318-1.14,2.219-1.14c0.4,0,0.76,0.069,1.08,0.211c0.32,0.14,0.57,0.319,0.74,0.539c0.17,0.218,0.289,0.468,0.35,0.75
	c0.061,0.28,0.1,0.682,0.1,1.202V154.588L421.618,154.588z"/>
<polygon fill="#FFCC99" points="105.999,11.89 253.999,11.89 253.999,35.89 105.999,35.89 105.999,11.89 "/>
<polygon fill="#FFFFDA" points="104.999,10.89 105.999,10.89 105.999,36.89 104.999,36.89 104.999,10.89 "/>
<polygon fill="#FFFFDA" points="105.999,10.89 253.999,10.89 253.999,11.89 105.999,11.89 105.999,10.89 "/>
<polygon fill="#B28E6B" points="105.999,35.89 254.999,35.89 254.999,36.89 105.999,36.89 105.999,35.89 "/>
<polygon fill="#B28E6B" points="253.999,10.89 254.999,10.89 254.999,35.89 253.999,35.89 253.999,10.89 "/>
<path d="M113.132,26.125l1.828-0.172c0.115,0.614,0.339,1.065,0.672,1.351c0.334,0.287,0.787,0.43,1.36,0.43
	c0.604,0,1.06-0.128,1.367-0.383c0.307-0.255,0.461-0.554,0.461-0.897c0-0.219-0.065-0.406-0.196-0.563
	c-0.13-0.156-0.356-0.291-0.679-0.406c-0.219-0.073-0.719-0.208-1.5-0.406c-1.011-0.25-1.719-0.557-2.125-0.922
	c-0.563-0.51-0.844-1.135-0.844-1.875c0-0.469,0.133-0.909,0.398-1.32c0.266-0.412,0.651-0.727,1.157-0.946
	c0.505-0.218,1.117-0.328,1.836-0.328c1.166,0,2.044,0.258,2.632,0.774c0.589,0.515,0.899,1.2,0.93,2.054l-1.875,0.078
	c-0.083-0.479-0.255-0.822-0.516-1.031c-0.26-0.208-0.656-0.312-1.187-0.312c-0.552,0-0.979,0.109-1.281,0.328
	c-0.198,0.146-0.297,0.338-0.297,0.578c0,0.219,0.088,0.406,0.265,0.562c0.24,0.209,0.818,0.42,1.735,0.633
	c0.917,0.214,1.594,0.436,2.031,0.664c0.438,0.23,0.779,0.545,1.024,0.946c0.244,0.401,0.367,0.898,0.367,1.492
	c0,0.531-0.149,1.028-0.446,1.492c-0.296,0.464-0.716,0.81-1.257,1.039c-0.542,0.229-1.214,0.344-2.016,0.344
	c-1.177,0-2.081-0.274-2.711-0.82C113.635,27.961,113.257,27.166,113.132,26.125L113.132,26.125z M129.772,27.968
	c0.458,0.334,0.958,0.599,1.5,0.797l-0.688,1.328c-0.281-0.083-0.557-0.203-0.828-0.359c-0.062-0.021-0.479-0.292-1.25-0.812
	c-0.614,0.26-1.291,0.39-2.031,0.39c-1.427,0-2.547-0.422-3.359-1.265c-0.813-0.844-1.219-2.026-1.219-3.547
	s0.406-2.703,1.219-3.547c0.813-0.844,1.916-1.266,3.313-1.266c1.375,0,2.466,0.422,3.274,1.266
	c0.807,0.844,1.211,2.026,1.211,3.547c0,0.802-0.11,1.51-0.329,2.125C130.418,27.093,130.147,27.541,129.772,27.968L129.772,27.968z
	 M128.256,26.922c0.24-0.292,0.422-0.638,0.547-1.039c0.125-0.402,0.188-0.862,0.188-1.383c0-1.073-0.237-1.875-0.711-2.407
	c-0.474-0.531-1.097-0.796-1.867-0.796c-0.771,0-1.394,0.265-1.868,0.796c-0.474,0.532-0.711,1.334-0.711,2.407
	c0,1.093,0.237,1.909,0.711,2.445s1.076,0.805,1.805,0.805c0.271,0,0.531-0.042,0.781-0.125c-0.385-0.25-0.776-0.448-1.172-0.594
	l0.532-1.063C127.105,26.177,127.694,26.495,128.256,26.922L128.256,26.922z M132.446,29.156v-9.234h1.875v7.671h4.672v1.563
	H132.446L132.446,29.156z M140.325,21.5v-1.657h1.781V21.5H140.325L140.325,21.5z M140.325,29.156v-6.734h1.781v6.734H140.325
	L140.325,29.156z M147.03,22.422v1.421h-1.219v2.704c0,0.552,0.011,0.875,0.032,0.968c0.021,0.094,0.073,0.17,0.156,0.227
	c0.083,0.057,0.182,0.086,0.297,0.086c0.166,0,0.406-0.057,0.719-0.172l0.156,1.391c-0.417,0.177-0.886,0.265-1.406,0.265
	c-0.323,0-0.615-0.054-0.875-0.164c-0.261-0.109-0.451-0.25-0.571-0.422c-0.12-0.172-0.2-0.403-0.242-0.695
	c-0.042-0.208-0.062-0.625-0.062-1.25v-2.938h-0.813v-1.421h0.813v-1.344l1.796-1.047v2.391H147.03L147.03,22.422z M152.172,27.015
	l1.765,0.297c-0.229,0.646-0.588,1.141-1.078,1.485c-0.489,0.343-1.104,0.515-1.843,0.515c-1.178,0-2.047-0.385-2.61-1.156
	c-0.448-0.615-0.672-1.385-0.672-2.313c0-1.125,0.295-2.002,0.883-2.632c0.589-0.631,1.326-0.946,2.211-0.946
	c1.01,0,1.805,0.331,2.383,0.993c0.578,0.661,0.851,1.674,0.82,3.039h-4.469c0.021,0.531,0.167,0.942,0.438,1.234
	s0.614,0.437,1.031,0.437c0.281,0,0.516-0.075,0.703-0.226C151.922,27.591,152.068,27.349,152.172,27.015L152.172,27.015z
	 M152.266,25.203c-0.011-0.511-0.144-0.901-0.399-1.172c-0.255-0.271-0.565-0.406-0.93-0.406c-0.385,0-0.708,0.14-0.968,0.422
	c-0.25,0.291-0.375,0.677-0.375,1.156H152.266L152.266,25.203z M155.027,26.125l1.828-0.172c0.114,0.614,0.338,1.065,0.672,1.351
	c0.333,0.287,0.786,0.43,1.359,0.43c0.604,0,1.06-0.128,1.367-0.383c0.308-0.255,0.461-0.554,0.461-0.897
	c0-0.219-0.065-0.406-0.195-0.563c-0.13-0.156-0.357-0.291-0.68-0.406c-0.218-0.073-0.718-0.208-1.5-0.406
	c-1.01-0.25-1.718-0.557-2.125-0.922c-0.562-0.51-0.843-1.135-0.843-1.875c0-0.469,0.132-0.909,0.398-1.32
	c0.266-0.412,0.651-0.727,1.156-0.946c0.505-0.218,1.117-0.328,1.836-0.328c1.167,0,2.044,0.258,2.633,0.774
	c0.589,0.515,0.898,1.2,0.93,2.054l-1.875,0.078c-0.083-0.479-0.256-0.822-0.516-1.031c-0.26-0.208-0.656-0.312-1.187-0.312
	c-0.553,0-0.98,0.109-1.282,0.328c-0.198,0.146-0.297,0.338-0.297,0.578c0,0.219,0.089,0.406,0.266,0.562
	c0.24,0.209,0.818,0.42,1.734,0.633c0.917,0.214,1.594,0.436,2.032,0.664c0.438,0.23,0.778,0.545,1.023,0.946
	c0.245,0.401,0.367,0.898,0.367,1.492c0,0.531-0.148,1.028-0.445,1.492s-0.716,0.81-1.258,1.039
	c-0.542,0.229-1.213,0.344-2.015,0.344c-1.178,0-2.081-0.274-2.711-0.82C155.529,27.961,155.152,27.166,155.027,26.125
	L155.027,26.125z M171.666,27.968c0.459,0.334,0.959,0.599,1.5,0.797l-0.687,1.328c-0.281-0.083-0.557-0.203-0.828-0.359
	c-0.063-0.021-0.479-0.292-1.25-0.812c-0.615,0.26-1.292,0.39-2.031,0.39c-1.428,0-2.547-0.422-3.36-1.265
	c-0.812-0.844-1.219-2.026-1.219-3.547s0.407-2.703,1.219-3.547c0.813-0.844,1.917-1.266,3.313-1.266
	c1.375,0,2.466,0.422,3.273,1.266c0.807,0.844,1.211,2.026,1.211,3.547c0,0.802-0.109,1.51-0.328,2.125
	C172.312,27.093,172.041,27.541,171.666,27.968L171.666,27.968z M170.151,26.922c0.239-0.292,0.422-0.638,0.547-1.039
	c0.125-0.402,0.187-0.862,0.187-1.383c0-1.073-0.237-1.875-0.711-2.407c-0.474-0.531-1.096-0.796-1.867-0.796
	s-1.393,0.265-1.867,0.796c-0.474,0.532-0.711,1.334-0.711,2.407c0,1.093,0.237,1.909,0.711,2.445s1.075,0.805,1.805,0.805
	c0.27,0,0.531-0.042,0.781-0.125c-0.386-0.25-0.776-0.448-1.172-0.594l0.531-1.063C169,26.177,169.588,26.495,170.151,26.922
	L170.151,26.922z M174.341,29.156v-9.234h1.875v7.671h4.672v1.563H174.341L174.341,29.156z M182.235,29.156v-9.313h6.89v1.579
	h-5.015v2.062h4.672v1.578h-4.672v2.531h5.203v1.563H182.235L182.235,29.156z M197.015,29.156h-1.781v-3.438
	c0-0.729-0.039-1.2-0.117-1.414c-0.079-0.213-0.204-0.38-0.375-0.5c-0.172-0.119-0.378-0.179-0.618-0.179
	c-0.302,0-0.575,0.086-0.82,0.258c-0.245,0.171-0.414,0.395-0.508,0.671c-0.093,0.276-0.14,0.795-0.14,1.555v3.047h-1.782v-6.734
	h1.657v0.984c0.583-0.76,1.323-1.141,2.218-1.141c0.396,0,0.756,0.071,1.079,0.211c0.322,0.141,0.57,0.321,0.742,0.539
	c0.172,0.219,0.289,0.469,0.351,0.75c0.063,0.282,0.094,0.683,0.094,1.203V29.156L197.015,29.156z M198.659,29.593l2.047,0.25
	c0.031,0.24,0.109,0.407,0.234,0.5c0.167,0.125,0.433,0.188,0.797,0.188c0.459,0,0.808-0.073,1.047-0.219
	c0.156-0.094,0.276-0.239,0.359-0.437c0.053-0.157,0.079-0.433,0.079-0.828v-0.985c-0.532,0.729-1.204,1.094-2.016,1.094
	c-0.906,0-1.625-0.385-2.156-1.156c-0.417-0.604-0.625-1.354-0.625-2.25c0-1.136,0.273-2,0.82-2.594
	c0.547-0.594,1.221-0.891,2.023-0.891c0.834,0,1.521,0.365,2.063,1.094v-0.937h1.672v6.046c0,0.792-0.065,1.386-0.195,1.782
	c-0.131,0.396-0.316,0.705-0.555,0.929c-0.24,0.224-0.557,0.399-0.953,0.524c-0.396,0.125-0.896,0.187-1.5,0.187
	c-1.136,0-1.943-0.195-2.422-0.586c-0.479-0.39-0.719-0.888-0.719-1.492C198.659,29.76,198.659,29.687,198.659,29.593
	L198.659,29.593z M200.253,25.64c0,0.719,0.138,1.245,0.414,1.578c0.276,0.334,0.617,0.5,1.023,0.5c0.438,0,0.808-0.171,1.11-0.515
	c0.302-0.344,0.453-0.849,0.453-1.516c0-0.698-0.143-1.216-0.43-1.554c-0.286-0.339-0.653-0.508-1.101-0.508
	c-0.427,0-0.779,0.166-1.055,0.5C200.391,24.458,200.253,24.963,200.253,25.64L200.253,25.64z M206.772,21.5v-1.657h1.781V21.5
	H206.772L206.772,21.5z M206.772,29.156v-6.734h1.781v6.734H206.772L206.772,29.156z M216.51,29.156h-1.783v-3.438
	c0-0.729-0.039-1.2-0.117-1.414c-0.078-0.213-0.203-0.38-0.375-0.5c-0.172-0.119-0.377-0.179-0.617-0.179
	c-0.302,0-0.575,0.086-0.82,0.258c-0.245,0.171-0.414,0.395-0.508,0.671c-0.094,0.276-0.141,0.795-0.141,1.555v3.047h-1.781v-6.734
	h1.656v0.984c0.584-0.76,1.323-1.141,2.219-1.141c0.396,0,0.755,0.071,1.078,0.211c0.323,0.141,0.571,0.321,0.742,0.539
	c0.172,0.219,0.289,0.469,0.352,0.75c0.062,0.282,0.095,0.683,0.095,1.203V29.156L216.51,29.156z M222.231,27.015l1.764,0.297
	c-0.229,0.646-0.588,1.141-1.076,1.485c-0.49,0.343-1.105,0.515-1.844,0.515c-1.178,0-2.047-0.385-2.609-1.156
	c-0.449-0.615-0.673-1.385-0.673-2.313c0-1.125,0.296-2.002,0.884-2.632c0.588-0.631,1.324-0.946,2.211-0.946
	c1.01,0,1.805,0.331,2.383,0.993c0.578,0.661,0.85,1.674,0.82,3.039h-4.471c0.021,0.531,0.168,0.942,0.439,1.234
	c0.27,0.292,0.615,0.437,1.031,0.437c0.279,0,0.516-0.075,0.703-0.226S222.128,27.349,222.231,27.015L222.231,27.015z
	 M222.325,25.203c-0.012-0.511-0.145-0.901-0.398-1.172c-0.256-0.271-0.566-0.406-0.932-0.406c-0.385,0-0.707,0.14-0.967,0.422
	c-0.25,0.291-0.375,0.677-0.375,1.156H222.325L222.325,25.203z M225.509,29.156v-9.313h1.875v9.313H225.509L225.509,29.156z
	 M235.29,29.156h-1.779v-3.438c0-0.729-0.039-1.2-0.117-1.414c-0.078-0.213-0.203-0.38-0.375-0.5
	c-0.172-0.119-0.379-0.179-0.617-0.179c-0.303,0-0.576,0.086-0.822,0.258c-0.244,0.171-0.414,0.395-0.506,0.671
	c-0.094,0.276-0.141,0.795-0.141,1.555v3.047h-1.781v-6.734h1.656v0.984c0.582-0.76,1.322-1.141,2.219-1.141
	c0.396,0,0.754,0.071,1.078,0.211c0.322,0.141,0.57,0.321,0.742,0.539c0.172,0.219,0.289,0.469,0.352,0.75
	c0.063,0.282,0.092,0.683,0.092,1.203V29.156L235.29,29.156z M236.325,22.422h0.984v-0.516c0-0.563,0.061-0.984,0.18-1.266
	c0.121-0.281,0.342-0.51,0.664-0.687c0.324-0.177,0.736-0.266,1.236-0.266c0.51,0,1.004,0.078,1.482,0.235l-0.232,1.25
	c-0.283-0.073-0.553-0.11-0.814-0.11c-0.26,0-0.447,0.06-0.561,0.18c-0.115,0.12-0.172,0.351-0.172,0.695v0.485h1.342v1.39h-1.342
	v5.344h-1.783v-5.344h-0.984V22.422L236.325,22.422z M241.015,25.687c0-0.594,0.145-1.166,0.438-1.719
	c0.291-0.552,0.705-0.973,1.242-1.265c0.537-0.292,1.137-0.438,1.805-0.438c1.01,0,1.844,0.331,2.5,0.993
	c0.656,0.661,0.984,1.497,0.984,2.507c0,1.021-0.33,1.868-0.992,2.539c-0.662,0.672-1.492,1.008-2.492,1.008
	c-0.615,0-1.203-0.14-1.766-0.422c-0.563-0.281-0.99-0.69-1.281-1.226C241.159,27.127,241.015,26.468,241.015,25.687L241.015,25.687
	z M242.843,25.781c0,0.667,0.158,1.18,0.477,1.539s0.711,0.539,1.18,0.539s0.859-0.18,1.172-0.539s0.469-0.878,0.469-1.555
	c0-0.656-0.156-1.161-0.469-1.515s-0.703-0.532-1.172-0.532s-0.861,0.178-1.18,0.532S242.843,25.114,242.843,25.781L242.843,25.781z
	"/>
<polygon fill="#FFCC99" points="291.999,54.89 427.999,54.89 427.999,78.89 291.999,78.89 291.999,54.89 "/>
<polygon fill="#FFFFDA" points="290.999,53.89 291.999,53.89 291.999,79.89 290.999,79.89 290.999,53.89 "/>
<polygon fill="#FFFFDA" points="291.999,53.89 427.999,53.89 427.999,54.89 291.999,54.89 291.999,53.89 "/>
<polygon fill="#B28E6B" points="291.999,78.89 428.999,78.89 428.999,79.89 291.999,79.89 291.999,78.89 "/>
<polygon fill="#B28E6B" points="427.999,53.89 428.999,53.89 428.999,78.89 427.999,78.89 427.999,53.89 "/>
<path d="M300.548,69.654l1.826-0.172c0.115,0.615,0.34,1.065,0.674,1.352c0.334,0.286,0.785,0.429,1.359,0.429
	c0.604,0,1.061-0.127,1.367-0.383c0.307-0.255,0.461-0.554,0.461-0.898c0-0.219-0.064-0.406-0.195-0.562
	c-0.131-0.157-0.357-0.292-0.68-0.407c-0.219-0.073-0.719-0.208-1.5-0.406c-1.012-0.25-1.719-0.557-2.125-0.922
	c-0.563-0.51-0.844-1.135-0.844-1.875c0-0.469,0.133-0.909,0.398-1.32c0.266-0.412,0.65-0.727,1.156-0.945
	c0.504-0.219,1.117-0.329,1.836-0.329c1.166,0,2.043,0.258,2.633,0.774c0.588,0.515,0.898,1.2,0.93,2.055l-1.875,0.078
	c-0.084-0.48-0.256-0.823-0.516-1.032c-0.262-0.208-0.656-0.312-1.188-0.312c-0.553,0-0.98,0.109-1.281,0.328
	c-0.199,0.146-0.297,0.339-0.297,0.578c0,0.219,0.088,0.406,0.266,0.563c0.238,0.208,0.816,0.419,1.734,0.632
	c0.916,0.214,1.594,0.435,2.031,0.665c0.438,0.229,0.777,0.544,1.023,0.945c0.244,0.401,0.367,0.898,0.367,1.492
	c0,0.531-0.148,1.029-0.445,1.492c-0.297,0.464-0.717,0.81-1.258,1.039c-0.543,0.229-1.215,0.344-2.016,0.344
	c-1.178,0-2.082-0.273-2.711-0.82C301.05,71.49,300.673,70.696,300.548,69.654L300.548,69.654z M317.187,71.498
	c0.459,0.333,0.959,0.599,1.5,0.797l-0.688,1.328c-0.281-0.084-0.557-0.203-0.828-0.36c-0.063-0.021-0.479-0.291-1.25-0.812
	c-0.613,0.26-1.291,0.39-2.031,0.39c-1.426,0-2.547-0.421-3.359-1.265c-0.813-0.844-1.219-2.026-1.219-3.547
	s0.406-2.703,1.219-3.547c0.813-0.844,1.916-1.266,3.313-1.266c1.375,0,2.467,0.422,3.273,1.266
	c0.809,0.844,1.211,2.026,1.211,3.547c0,0.802-0.109,1.51-0.328,2.125C317.833,70.623,317.562,71.071,317.187,71.498L317.187,71.498
	z M315.671,70.451c0.24-0.292,0.422-0.638,0.547-1.039c0.125-0.401,0.188-0.862,0.188-1.383c0-1.073-0.236-1.875-0.711-2.406
	c-0.473-0.532-1.096-0.797-1.867-0.797c-0.77,0-1.393,0.265-1.867,0.797c-0.475,0.531-0.711,1.333-0.711,2.406
	c0,1.094,0.236,1.909,0.711,2.445c0.475,0.537,1.076,0.805,1.805,0.805c0.271,0,0.531-0.042,0.781-0.125
	c-0.385-0.25-0.775-0.448-1.172-0.594l0.531-1.062C314.521,69.706,315.108,70.024,315.671,70.451L315.671,70.451z M319.86,72.685
	v-9.234h1.875v7.672h4.672v1.562H319.86L319.86,72.685z M327.739,65.029v-1.656h1.781v1.656H327.739L327.739,65.029z
	 M327.739,72.685v-6.734h1.781v6.734H327.739L327.739,72.685z M334.444,65.951v1.422h-1.217v2.703c0,0.552,0.01,0.875,0.031,0.969
	c0.02,0.093,0.072,0.169,0.154,0.226c0.084,0.057,0.184,0.086,0.297,0.086c0.168,0,0.406-0.057,0.721-0.172l0.156,1.391
	c-0.418,0.177-0.887,0.265-1.406,0.265c-0.324,0-0.615-0.054-0.875-0.164c-0.262-0.109-0.451-0.25-0.572-0.422
	c-0.119-0.171-0.199-0.403-0.242-0.695c-0.041-0.208-0.061-0.625-0.061-1.25v-2.937h-0.814v-1.422h0.814v-1.344l1.797-1.047v2.391
	H334.444L334.444,65.951z M339.587,70.545l1.766,0.296c-0.23,0.646-0.588,1.141-1.078,1.485c-0.49,0.344-1.104,0.515-1.844,0.515
	c-1.176,0-2.047-0.385-2.609-1.156c-0.449-0.614-0.672-1.385-0.672-2.312c0-1.125,0.295-2.003,0.883-2.633
	c0.588-0.63,1.326-0.945,2.211-0.945c1.012,0,1.805,0.33,2.383,0.992c0.578,0.661,0.852,1.674,0.82,3.039h-4.469
	c0.02,0.531,0.166,0.942,0.438,1.234s0.615,0.438,1.031,0.438c0.281,0,0.516-0.076,0.703-0.227S339.483,70.878,339.587,70.545
	L339.587,70.545z M339.681,68.732c-0.01-0.51-0.145-0.901-0.398-1.172c-0.256-0.271-0.564-0.406-0.93-0.406
	c-0.385,0-0.709,0.141-0.969,0.422c-0.25,0.291-0.375,0.677-0.375,1.156H339.681L339.681,68.732z M342.442,69.654l1.828-0.172
	c0.115,0.615,0.338,1.065,0.672,1.352c0.332,0.286,0.785,0.429,1.359,0.429c0.604,0,1.059-0.127,1.365-0.383
	c0.309-0.255,0.463-0.554,0.463-0.898c0-0.219-0.066-0.406-0.195-0.562c-0.131-0.157-0.357-0.292-0.68-0.407
	c-0.219-0.073-0.719-0.208-1.5-0.406c-1.012-0.25-1.719-0.557-2.125-0.922c-0.563-0.51-0.844-1.135-0.844-1.875
	c0-0.469,0.133-0.909,0.398-1.32c0.266-0.412,0.65-0.727,1.156-0.945c0.506-0.219,1.115-0.329,1.836-0.329
	c1.166,0,2.045,0.258,2.633,0.774c0.588,0.515,0.896,1.2,0.93,2.055l-1.875,0.078c-0.084-0.48-0.256-0.823-0.516-1.032
	c-0.26-0.208-0.656-0.312-1.188-0.312c-0.553,0-0.98,0.109-1.281,0.328c-0.199,0.146-0.299,0.339-0.299,0.578
	c0,0.219,0.09,0.406,0.268,0.563c0.24,0.208,0.816,0.419,1.732,0.632c0.918,0.214,1.596,0.435,2.033,0.665
	c0.438,0.229,0.777,0.544,1.023,0.945c0.244,0.401,0.367,0.898,0.367,1.492c0,0.531-0.148,1.029-0.445,1.492
	c-0.297,0.464-0.717,0.81-1.258,1.039s-1.213,0.344-2.016,0.344c-1.178,0-2.082-0.273-2.711-0.82
	C342.944,71.49,342.567,70.696,342.442,69.654L342.442,69.654z M359.081,71.498c0.459,0.333,0.959,0.599,1.5,0.797l-0.688,1.328
	c-0.281-0.084-0.557-0.203-0.828-0.36c-0.063-0.021-0.479-0.291-1.25-0.812c-0.615,0.26-1.291,0.39-2.031,0.39
	c-1.426,0-2.547-0.421-3.359-1.265c-0.813-0.844-1.219-2.026-1.219-3.547s0.406-2.703,1.219-3.547
	c0.813-0.844,1.918-1.266,3.313-1.266c1.375,0,2.467,0.422,3.273,1.266c0.807,0.844,1.211,2.026,1.211,3.547
	c0,0.802-0.109,1.51-0.328,2.125C359.728,70.623,359.456,71.071,359.081,71.498L359.081,71.498z M357.565,70.451
	c0.24-0.292,0.422-0.638,0.547-1.039c0.125-0.401,0.188-0.862,0.188-1.383c0-1.073-0.236-1.875-0.711-2.406
	c-0.475-0.532-1.096-0.797-1.867-0.797s-1.393,0.265-1.867,0.797c-0.473,0.531-0.711,1.333-0.711,2.406
	c0,1.094,0.238,1.909,0.711,2.445c0.475,0.537,1.076,0.805,1.805,0.805c0.271,0,0.531-0.042,0.781-0.125
	c-0.385-0.25-0.775-0.448-1.172-0.594l0.531-1.062C356.415,69.706,357.003,70.024,357.565,70.451L357.565,70.451z M361.757,72.685
	v-9.234h1.875v7.672h4.672v1.562H361.757L361.757,72.685z M369.634,63.373h3.438c0.771,0,1.359,0.062,1.766,0.187
	c0.553,0.156,1.021,0.44,1.406,0.852c0.387,0.411,0.68,0.914,0.883,1.508c0.203,0.593,0.305,1.328,0.305,2.203
	c0,0.76-0.094,1.422-0.281,1.984c-0.229,0.677-0.563,1.224-1,1.641c-0.322,0.312-0.76,0.557-1.313,0.734
	c-0.416,0.135-0.975,0.203-1.672,0.203h-3.531V63.373L369.634,63.373z M371.509,64.951v6.172h1.406c0.531,0,0.912-0.032,1.141-0.094
	c0.303-0.073,0.555-0.201,0.758-0.383c0.203-0.182,0.367-0.482,0.492-0.898c0.125-0.417,0.188-0.985,0.188-1.703
	c0-0.719-0.063-1.271-0.188-1.657c-0.125-0.385-0.301-0.687-0.531-0.906c-0.229-0.219-0.52-0.365-0.875-0.437
	c-0.26-0.063-0.775-0.094-1.547-0.094H371.509L371.509,64.951z M378.944,72.685v-9.312h1.785v3.359
	c0.549-0.625,1.199-0.937,1.949-0.937c0.82,0,1.5,0.296,2.041,0.89c0.539,0.594,0.799,1.448,0.799,2.563
	c0,1.145-0.27,2.031-0.82,2.656c-0.539,0.625-1.209,0.937-1.988,0.937c-0.381,0-0.762-0.096-1.141-0.289
	c-0.371-0.192-0.701-0.476-0.971-0.851v0.984H378.944L378.944,72.685z M380.708,69.17c0,0.697,0.111,1.213,0.33,1.546
	c0.311,0.48,0.721,0.719,1.23,0.719c0.4,0,0.74-0.169,1.01-0.508c0.281-0.338,0.42-0.872,0.42-1.601c0-0.761-0.139-1.313-0.42-1.656
	c-0.27-0.344-0.629-0.516-1.07-0.516c-0.43,0-0.779,0.167-1.068,0.5C380.849,67.987,380.708,68.492,380.708,69.17L380.708,69.17z
	 M386.919,72.685v-9.312h1.869v9.312H386.919L386.919,72.685z M396.749,72.685h-1.66v-0.984c-0.27,0.385-0.59,0.672-0.971,0.859
	c-0.369,0.188-0.75,0.281-1.119,0.281c-0.779,0-1.449-0.312-2-0.937s-0.83-1.495-0.83-2.609c0-1.146,0.27-2.016,0.801-2.61
	c0.539-0.594,1.219-0.89,2.039-0.89c0.75,0,1.4,0.312,1.961,0.937v-3.359h1.779V72.685L396.749,72.685z M391.999,69.17
	c0,0.718,0.1,1.239,0.289,1.562c0.291,0.469,0.691,0.703,1.211,0.703c0.4,0,0.75-0.174,1.039-0.523
	c0.301-0.349,0.441-0.873,0.441-1.571c0-0.77-0.141-1.328-0.42-1.671c-0.281-0.344-0.641-0.516-1.08-0.516
	c-0.41,0-0.771,0.169-1.051,0.508C392.14,68,391.999,68.503,391.999,69.17L391.999,69.17z M397.659,72.685l2.42-3.469l-2.33-3.265
	h2.189l1.191,1.844l1.26-1.844h2.1l-2.301,3.187l2.5,3.547h-2.189l-1.369-2.094l-1.381,2.094H397.659L397.659,72.685z
	 M405.759,72.685v-9.312h6.391v1.578h-4.5v2.203h3.879v1.578h-3.879v3.953H405.759L405.759,72.685z M413.72,72.685v-9.312h1.869
	v4.14l3.801-4.14h2.529l-3.5,3.625l3.689,5.687h-2.42l-2.559-4.375l-1.541,1.563v2.812H413.72L413.72,72.685z"/>
<polygon fill="#FFCC99" points="121.999,251.89 238.999,251.89 238.999,275.89 121.999,275.89 121.999,251.89 "/>
<polygon fill="#FFFFDA" points="120.999,250.89 121.999,250.89 121.999,276.89 120.999,276.89 120.999,250.89 "/>
<polygon fill="#FFFFDA" points="121.999,250.89 238.999,250.89 238.999,251.89 121.999,251.89 121.999,250.89 "/>
<polygon fill="#B28E6B" points="121.999,275.89 239.999,275.89 239.999,276.89 121.999,276.89 121.999,275.89 "/>
<polygon fill="#B28E6B" points="238.999,250.89 239.999,250.89 239.999,275.89 238.999,275.89 238.999,250.89 "/>
<path d="M124.675,266.679l1.829-0.172c0.114,0.615,0.338,1.065,0.671,1.352c0.334,0.286,0.787,0.43,1.36,0.43
	c0.604,0,1.06-0.127,1.367-0.383c0.307-0.256,0.461-0.555,0.461-0.898c0-0.219-0.065-0.406-0.195-0.563
	c-0.131-0.156-0.357-0.291-0.68-0.406c-0.219-0.073-0.719-0.208-1.5-0.406c-1.01-0.25-1.719-0.557-2.125-0.922
	c-0.563-0.51-0.844-1.135-0.844-1.875c0-0.469,0.133-0.909,0.399-1.32c0.265-0.412,0.651-0.727,1.156-0.944
	c0.505-0.22,1.117-0.329,1.836-0.329c1.166,0,2.044,0.258,2.633,0.773c0.588,0.516,0.898,1.2,0.929,2.055l-1.875,0.078
	c-0.083-0.479-0.255-0.822-0.515-1.031c-0.261-0.208-0.657-0.313-1.188-0.313c-0.552,0-0.979,0.109-1.281,0.328
	c-0.198,0.146-0.297,0.339-0.297,0.578c0,0.219,0.089,0.406,0.266,0.563c0.239,0.208,0.817,0.419,1.734,0.633
	s1.594,0.435,2.031,0.664c0.438,0.229,0.779,0.545,1.024,0.945c0.245,0.401,0.367,0.898,0.367,1.492
	c0,0.531-0.148,1.029-0.445,1.492c-0.297,0.464-0.717,0.81-1.258,1.039c-0.542,0.229-1.214,0.344-2.016,0.344
	c-1.177,0-2.081-0.273-2.711-0.82S124.8,267.721,124.675,266.679L124.675,266.679z M135.581,260.397v3.422
	c0.583-0.666,1.276-0.999,2.078-0.999c0.406,0,0.773,0.074,1.101,0.226c0.329,0.151,0.576,0.346,0.743,0.586
	c0.166,0.24,0.281,0.503,0.343,0.789c0.063,0.287,0.094,0.732,0.094,1.336v3.953h-1.781v-3.563c0-0.709-0.034-1.156-0.102-1.344
	c-0.067-0.188-0.187-0.339-0.359-0.453c-0.172-0.115-0.388-0.172-0.649-0.172c-0.291,0-0.554,0.073-0.789,0.219
	c-0.234,0.146-0.406,0.362-0.515,0.648c-0.11,0.287-0.164,0.716-0.164,1.289v3.375h-1.782v-9.313H135.581L135.581,260.397z
	 M145.662,267.569l1.766,0.297c-0.229,0.646-0.589,1.141-1.078,1.484c-0.49,0.345-1.104,0.516-1.844,0.516
	c-1.177,0-2.047-0.386-2.609-1.156c-0.448-0.614-0.672-1.385-0.672-2.313c0-1.125,0.294-2.003,0.883-2.633
	c0.588-0.63,1.325-0.944,2.211-0.944c1.01,0,1.804,0.329,2.382,0.991c0.578,0.661,0.852,1.675,0.821,3.039h-4.469
	c0.021,0.531,0.167,0.942,0.437,1.234c0.271,0.292,0.615,0.438,1.032,0.438c0.281,0,0.515-0.075,0.703-0.227
	C145.412,268.145,145.558,267.903,145.662,267.569L145.662,267.569z M145.756,265.757c-0.01-0.51-0.143-0.901-0.398-1.172
	c-0.256-0.271-0.566-0.406-0.93-0.406c-0.386,0-0.708,0.142-0.969,0.422c-0.25,0.291-0.375,0.678-0.375,1.156H145.756
	L145.756,265.757z M148.986,269.71v-9.313h1.781v9.313H148.986L148.986,269.71z M152.598,269.71v-9.313h1.781v9.313H152.598
	L152.598,269.71z M156.225,269.71v-9.313h3.953c1,0,1.724,0.086,2.172,0.258c0.448,0.172,0.808,0.472,1.078,0.898
	c0.271,0.427,0.407,0.911,0.407,1.453c0,0.698-0.206,1.276-0.618,1.734c-0.411,0.459-1.023,0.745-1.835,0.859
	c0.406,0.239,0.742,0.5,1.007,0.781c0.266,0.281,0.623,0.786,1.071,1.516l1.125,1.813h-2.235l-1.359-2.031
	c-0.49-0.719-0.823-1.172-1-1.358c-0.177-0.188-0.365-0.318-0.563-0.392c-0.198-0.073-0.51-0.108-0.937-0.108H158.1v3.89H156.225
	L156.225,269.71z M158.1,264.335h1.391c0.906,0,1.471-0.036,1.695-0.109c0.224-0.072,0.399-0.203,0.524-0.391
	s0.187-0.422,0.187-0.703c0-0.312-0.083-0.565-0.25-0.758c-0.167-0.193-0.401-0.315-0.703-0.367
	c-0.156-0.021-0.615-0.031-1.375-0.031H158.1V264.335L158.1,264.335z M165.176,266.241c0-0.594,0.146-1.166,0.437-1.719
	c0.292-0.552,0.706-0.974,1.243-1.266c0.536-0.292,1.138-0.437,1.804-0.437c1.011,0,1.844,0.329,2.5,0.991
	c0.657,0.661,0.985,1.497,0.985,2.509c0,1.02-0.331,1.866-0.992,2.538c-0.662,0.672-1.493,1.008-2.493,1.008
	c-0.614,0-1.203-0.141-1.765-0.422c-0.563-0.281-0.99-0.69-1.282-1.227C165.322,267.681,165.176,267.022,165.176,266.241
	L165.176,266.241z M167.004,266.335c0,0.667,0.159,1.18,0.477,1.539c0.317,0.359,0.711,0.539,1.179,0.539
	c0.469,0,0.86-0.18,1.172-0.539c0.313-0.359,0.469-0.877,0.469-1.554c0-0.657-0.156-1.162-0.469-1.517
	c-0.312-0.354-0.703-0.531-1.172-0.531c-0.468,0-0.862,0.178-1.179,0.531C167.163,265.158,167.004,265.668,167.004,266.335
	L167.004,266.335z M177.976,269.71v-1.016c-0.25,0.364-0.575,0.651-0.976,0.859s-0.821,0.313-1.258,0.313
	c-0.458,0-0.867-0.1-1.227-0.296c-0.359-0.198-0.619-0.48-0.781-0.845c-0.161-0.365-0.242-0.859-0.242-1.484v-4.266h1.781v3.094
	c0,0.947,0.034,1.528,0.102,1.742c0.067,0.213,0.187,0.384,0.359,0.508c0.172,0.126,0.393,0.188,0.664,0.188
	c0.302,0,0.576-0.083,0.82-0.25c0.245-0.167,0.412-0.375,0.5-0.625c0.089-0.25,0.133-0.854,0.133-1.812v-2.845h1.781v6.734H177.976
	L177.976,269.71z M184.573,262.976v1.422h-1.218v2.703c0,0.553,0.01,0.875,0.031,0.97c0.021,0.093,0.073,0.169,0.156,0.226
	s0.182,0.086,0.297,0.086c0.167,0,0.406-0.057,0.719-0.172l0.156,1.391c-0.417,0.178-0.885,0.266-1.406,0.266
	c-0.323,0-0.615-0.055-0.875-0.164c-0.261-0.109-0.451-0.25-0.571-0.422c-0.119-0.172-0.2-0.403-0.242-0.695
	c-0.041-0.208-0.062-0.625-0.062-1.25v-2.938h-0.813v-1.422h0.813v-1.344l1.797-1.047v2.391H184.573L184.573,262.976z
	 M185.809,262.054v-1.656h1.781v1.656H185.809L185.809,262.054z M185.809,269.71v-6.734h1.781v6.734H185.809L185.809,269.71z
	 M195.546,269.71h-1.782v-3.438c0-0.729-0.039-1.2-0.117-1.414s-0.203-0.381-0.375-0.5s-0.377-0.18-0.617-0.18
	c-0.302,0-0.576,0.086-0.82,0.258c-0.245,0.172-0.414,0.396-0.508,0.672c-0.094,0.276-0.141,0.795-0.141,1.555v3.047h-1.781v-6.734
	h1.656v0.984c0.584-0.76,1.323-1.14,2.219-1.14c0.396,0,0.755,0.069,1.078,0.21c0.323,0.141,0.57,0.32,0.742,0.54
	c0.172,0.218,0.289,0.468,0.352,0.75c0.062,0.28,0.094,0.682,0.094,1.202V269.71L195.546,269.71z M201.268,267.569l1.765,0.297
	c-0.229,0.646-0.588,1.141-1.078,1.484c-0.489,0.345-1.104,0.516-1.844,0.516c-1.177,0-2.046-0.386-2.609-1.156
	c-0.448-0.614-0.672-1.385-0.672-2.313c0-1.125,0.295-2.003,0.883-2.633c0.589-0.63,1.326-0.944,2.211-0.944
	c1.01,0,1.805,0.329,2.383,0.991c0.578,0.661,0.851,1.675,0.82,3.039h-4.469c0.021,0.531,0.167,0.942,0.438,1.234
	c0.271,0.292,0.614,0.438,1.031,0.438c0.281,0,0.516-0.075,0.703-0.227C201.018,268.145,201.164,267.903,201.268,267.569
	L201.268,267.569z M201.361,265.757c-0.01-0.51-0.143-0.901-0.398-1.172c-0.255-0.271-0.565-0.406-0.93-0.406
	c-0.385,0-0.708,0.142-0.968,0.422c-0.25,0.291-0.375,0.678-0.375,1.156H201.361L201.361,265.757z M203.966,267.788l1.782-0.281
	c0.073,0.354,0.226,0.62,0.461,0.797c0.234,0.177,0.56,0.267,0.976,0.267c0.469,0,0.818-0.084,1.047-0.251
	c0.156-0.114,0.234-0.271,0.234-0.469c0-0.136-0.041-0.25-0.125-0.344c-0.093-0.083-0.291-0.161-0.593-0.234
	c-1.438-0.313-2.349-0.604-2.735-0.875c-0.541-0.364-0.812-0.869-0.812-1.516c0-0.583,0.232-1.073,0.695-1.469
	c0.464-0.396,1.18-0.593,2.149-0.593c0.927,0,1.614,0.147,2.062,0.444c0.448,0.297,0.755,0.742,0.922,1.336l-1.688,0.313
	c-0.072-0.26-0.208-0.461-0.406-0.602c-0.198-0.141-0.484-0.211-0.859-0.211c-0.469,0-0.807,0.063-1.016,0.188
	c-0.135,0.094-0.203,0.219-0.203,0.375c0,0.125,0.063,0.229,0.188,0.313c0.156,0.125,0.711,0.294,1.664,0.508
	s1.617,0.477,1.992,0.789c0.375,0.323,0.562,0.766,0.562,1.328c0,0.614-0.26,1.146-0.781,1.595
	c-0.521,0.446-1.286,0.671-2.297,0.671c-0.916,0-1.643-0.188-2.179-0.563C204.469,268.929,204.123,268.424,203.966,267.788
	L203.966,267.788z M211.821,269.71v-1.781h1.782v1.781H211.821L211.821,269.71z M215.355,269.71v-9.313h1.782v3.359
	c0.551-0.625,1.204-0.937,1.954-0.937c0.82,0,1.502,0.296,2.039,0.89c0.535,0.594,0.803,1.448,0.803,2.563
	c0,1.146-0.273,2.031-0.82,2.656s-1.211,0.938-1.992,0.938c-0.385,0-0.766-0.097-1.14-0.289c-0.375-0.192-0.699-0.477-0.969-0.852
	v0.984H215.355L215.355,269.71z M217.121,266.195c0,0.696,0.109,1.213,0.328,1.546c0.313,0.479,0.724,0.719,1.233,0.719
	c0.396,0,0.732-0.169,1.008-0.508c0.277-0.338,0.414-0.872,0.414-1.602c0-0.761-0.137-1.313-0.414-1.655
	c-0.275-0.345-0.633-0.517-1.07-0.517c-0.426,0-0.782,0.167-1.069,0.5S217.121,265.517,217.121,266.195L217.121,266.195z
	 M224.702,265.022l-1.625-0.297c0.188-0.646,0.502-1.125,0.945-1.438s1.102-0.468,1.977-0.468c0.803,0,1.396,0.093,1.781,0.28
	s0.658,0.428,0.82,0.719c0.162,0.292,0.242,0.822,0.242,1.594l-0.016,2.078c0,0.594,0.029,1.031,0.086,1.313
	c0.059,0.281,0.164,0.583,0.32,0.906h-1.766c-0.053-0.114-0.109-0.292-0.172-0.531c-0.031-0.104-0.053-0.172-0.063-0.203
	c-0.313,0.291-0.641,0.514-0.984,0.664c-0.344,0.151-0.713,0.227-1.109,0.227c-0.697,0-1.244-0.19-1.641-0.57
	s-0.594-0.857-0.594-1.43c0-0.375,0.092-0.713,0.273-1.016c0.182-0.302,0.438-0.53,0.766-0.688c0.328-0.156,0.799-0.297,1.414-0.422
	c0.834-0.156,1.412-0.303,1.734-0.438v-0.172c0-0.344-0.086-0.589-0.258-0.734s-0.492-0.219-0.961-0.219
	c-0.313,0-0.557,0.063-0.734,0.188C224.964,264.491,224.817,264.71,224.702,265.022L224.702,265.022z M227.093,266.476
	c-0.229,0.073-0.592,0.161-1.086,0.266s-0.82,0.209-0.977,0.313c-0.229,0.167-0.344,0.375-0.344,0.625s0.094,0.466,0.281,0.648
	s0.422,0.273,0.703,0.273c0.322,0,0.631-0.104,0.922-0.313c0.219-0.156,0.359-0.354,0.422-0.593c0.053-0.146,0.078-0.434,0.078-0.86
	V266.476L227.093,266.476z M229.979,267.788l1.781-0.281c0.072,0.354,0.227,0.62,0.461,0.797s0.559,0.267,0.977,0.267
	c0.469,0,0.818-0.084,1.047-0.251c0.156-0.114,0.234-0.271,0.234-0.469c0-0.136-0.043-0.25-0.125-0.344
	c-0.094-0.083-0.293-0.161-0.594-0.234c-1.438-0.313-2.35-0.604-2.734-0.875c-0.543-0.364-0.813-0.869-0.813-1.516
	c0-0.583,0.23-1.073,0.695-1.469c0.463-0.396,1.18-0.593,2.148-0.593c0.926,0,1.615,0.147,2.063,0.444s0.754,0.742,0.922,1.336
	l-1.688,0.313c-0.074-0.26-0.209-0.461-0.406-0.602c-0.199-0.141-0.484-0.211-0.859-0.211c-0.469,0-0.809,0.063-1.016,0.188
	c-0.137,0.094-0.203,0.219-0.203,0.375c0,0.125,0.063,0.229,0.188,0.313c0.156,0.125,0.711,0.294,1.664,0.508
	s1.617,0.477,1.992,0.789c0.375,0.323,0.563,0.766,0.563,1.328c0,0.614-0.26,1.146-0.781,1.595
	c-0.521,0.446-1.287,0.671-2.297,0.671c-0.918,0-1.643-0.188-2.18-0.563S230.136,268.424,229.979,267.788L229.979,267.788z"/>
<polygon fill="#FFCC99" points="146.999,175.89 212.999,175.89 212.999,199.89 146.999,199.89 146.999,175.89 "/>
<polygon fill="#FFFFDA" points="145.999,174.89 146.999,174.89 146.999,200.89 145.999,200.89 145.999,174.89 "/>
<polygon fill="#FFFFDA" points="146.999,174.89 212.999,174.89 212.999,175.89 146.999,175.89 146.999,174.89 "/>
<polygon fill="#B28E6B" points="146.999,199.89 213.999,199.89 213.999,200.89 146.999,200.89 146.999,199.89 "/>
<polygon fill="#B28E6B" points="212.999,174.89 213.999,174.89 213.999,199.89 212.999,199.89 212.999,174.89 "/>
<path d="M150.685,189.931l1.828-0.172c0.115,0.615,0.339,1.065,0.672,1.352s0.786,0.43,1.359,0.43c0.605,0,1.06-0.127,1.368-0.382
	c0.307-0.256,0.46-0.556,0.46-0.899c0-0.219-0.065-0.406-0.195-0.562c-0.13-0.157-0.357-0.292-0.68-0.407
	c-0.218-0.073-0.718-0.208-1.5-0.406c-1.01-0.25-1.718-0.557-2.125-0.922c-0.562-0.51-0.843-1.135-0.843-1.875
	c0-0.468,0.133-0.909,0.398-1.32c0.266-0.412,0.651-0.727,1.156-0.944c0.506-0.22,1.118-0.328,1.836-0.328
	c1.167,0,2.045,0.257,2.633,0.772c0.589,0.517,0.899,1.2,0.93,2.056l-1.875,0.077c-0.083-0.479-0.255-0.822-0.516-1.03
	c-0.26-0.209-0.656-0.313-1.187-0.313c-0.552,0-0.979,0.109-1.282,0.328c-0.197,0.146-0.296,0.339-0.296,0.578
	c0,0.219,0.088,0.407,0.265,0.563c0.24,0.208,0.818,0.42,1.735,0.634c0.916,0.213,1.593,0.434,2.031,0.664
	c0.437,0.229,0.778,0.544,1.023,0.944c0.245,0.401,0.367,0.898,0.367,1.492c0,0.531-0.148,1.029-0.445,1.492
	c-0.297,0.464-0.716,0.81-1.258,1.039c-0.541,0.229-1.213,0.344-2.015,0.344c-1.177,0-2.081-0.272-2.711-0.82
	C151.188,191.767,150.81,190.973,150.685,189.931L150.685,189.931z M167.325,191.774c0.458,0.333,0.958,0.6,1.5,0.798l-0.688,1.327
	c-0.281-0.084-0.557-0.202-0.828-0.359c-0.063-0.021-0.479-0.291-1.25-0.813c-0.615,0.261-1.292,0.392-2.031,0.392
	c-1.427,0-2.547-0.422-3.36-1.267c-0.812-0.844-1.218-2.025-1.218-3.547c0-1.521,0.406-2.703,1.218-3.547
	c0.813-0.844,1.917-1.265,3.313-1.265c1.375,0,2.466,0.421,3.273,1.265c0.808,0.844,1.211,2.026,1.211,3.547
	c0,0.802-0.109,1.51-0.328,2.125C167.97,190.899,167.7,191.348,167.325,191.774L167.325,191.774z M165.809,190.728
	c0.24-0.292,0.422-0.638,0.547-1.039c0.125-0.4,0.187-0.861,0.187-1.383c0-1.073-0.237-1.875-0.711-2.406
	c-0.474-0.53-1.096-0.797-1.867-0.797s-1.393,0.267-1.867,0.797c-0.474,0.531-0.711,1.333-0.711,2.406
	c0,1.094,0.237,1.909,0.711,2.445c0.474,0.537,1.076,0.805,1.805,0.805c0.271,0,0.531-0.042,0.781-0.125
	c-0.385-0.25-0.776-0.448-1.172-0.594l0.531-1.063C164.658,189.982,165.246,190.301,165.809,190.728L165.809,190.728z
	 M169.999,192.962v-9.234h1.875v7.672h4.672v1.563H169.999L169.999,192.962z M177.877,185.306v-1.656h1.782v1.656H177.877
	L177.877,185.306z M177.877,192.962v-6.734h1.782v6.734H177.877L177.877,192.962z M184.583,186.228v1.422h-1.219v2.703
	c0,0.553,0.011,0.875,0.031,0.97c0.021,0.093,0.073,0.169,0.157,0.226s0.182,0.086,0.297,0.086c0.166,0,0.406-0.057,0.718-0.172
	l0.157,1.391c-0.417,0.178-0.886,0.267-1.407,0.267c-0.323,0-0.614-0.056-0.875-0.165c-0.26-0.109-0.45-0.25-0.57-0.421
	c-0.12-0.172-0.201-0.404-0.242-0.696c-0.042-0.208-0.063-0.625-0.063-1.25v-2.938h-0.812v-1.422h0.812v-1.344l1.797-1.047v2.391
	H184.583L184.583,186.228z M189.725,190.822l1.765,0.297c-0.229,0.645-0.588,1.14-1.078,1.483c-0.49,0.345-1.104,0.517-1.844,0.517
	c-1.177,0-2.047-0.387-2.609-1.157c-0.448-0.614-0.672-1.385-0.672-2.313c0-1.125,0.294-2.003,0.883-2.633
	c0.588-0.63,1.325-0.944,2.211-0.944c1.01,0,1.804,0.33,2.383,0.991c0.578,0.661,0.851,1.675,0.82,3.039h-4.469
	c0.021,0.531,0.167,0.943,0.438,1.234c0.27,0.292,0.614,0.438,1.031,0.438c0.281,0,0.516-0.075,0.703-0.227
	C189.475,191.396,189.62,191.155,189.725,190.822L189.725,190.822z M189.818,189.009c-0.01-0.51-0.143-0.901-0.398-1.172
	c-0.255-0.271-0.565-0.406-0.93-0.406c-0.385,0-0.708,0.142-0.969,0.422c-0.25,0.292-0.375,0.678-0.375,1.156H189.818
	L189.818,189.009z M193.048,183.649h3.438c0.771,0,1.359,0.063,1.765,0.188c0.552,0.157,1.021,0.44,1.407,0.852
	c0.385,0.411,0.679,0.914,0.882,1.509c0.204,0.593,0.305,1.327,0.305,2.202c0,0.761-0.094,1.423-0.281,1.984
	c-0.229,0.677-0.563,1.224-1,1.641c-0.323,0.313-0.761,0.558-1.313,0.734c-0.416,0.136-0.974,0.203-1.671,0.203h-3.532V183.649
	L193.048,183.649z M194.923,185.228v6.172h1.407c0.531,0,0.911-0.03,1.14-0.094c0.302-0.073,0.555-0.201,0.758-0.383
	s0.367-0.482,0.492-0.898c0.125-0.417,0.188-0.984,0.188-1.702c0-0.72-0.063-1.271-0.188-1.657
	c-0.125-0.385-0.302-0.688-0.531-0.906s-0.521-0.364-0.875-0.437c-0.261-0.063-0.776-0.095-1.547-0.095H194.923L194.923,185.228z
	 M202.452,183.649h3.719c0.739,0,1.289,0.031,1.648,0.095c0.36,0.062,0.683,0.191,0.969,0.39s0.526,0.458,0.719,0.781
	c0.192,0.323,0.289,0.683,0.289,1.079c0,0.437-0.12,0.838-0.36,1.203c-0.239,0.363-0.557,0.64-0.953,0.827
	c0.563,0.156,0.998,0.436,1.305,0.836c0.307,0.401,0.461,0.867,0.461,1.398c0,0.427-0.099,0.841-0.297,1.242
	c-0.198,0.4-0.466,0.722-0.805,0.961c-0.338,0.24-0.757,0.386-1.257,0.438c-0.313,0.031-1.068,0.053-2.266,0.063h-3.172V183.649
	L202.452,183.649z M204.327,185.212v2.141h1.234c0.73,0,1.183-0.011,1.36-0.03c0.323-0.032,0.578-0.142,0.765-0.328
	c0.188-0.188,0.282-0.434,0.282-0.735c0-0.281-0.081-0.513-0.242-0.695c-0.162-0.182-0.399-0.289-0.711-0.319
	c-0.188-0.021-0.724-0.032-1.61-0.032H204.327L204.327,185.212z M204.327,188.899v2.5h1.75c0.677,0,1.104-0.021,1.281-0.063
	c0.282-0.052,0.511-0.177,0.688-0.375c0.177-0.198,0.265-0.458,0.265-0.781c0-0.281-0.067-0.521-0.203-0.719
	c-0.135-0.198-0.333-0.341-0.593-0.429c-0.261-0.089-0.818-0.134-1.672-0.134H204.327L204.327,188.899z"/>
<polygon fill="#FFCC99" points="121.999,98.89 238.999,98.89 238.999,122.89 121.999,122.89 121.999,98.89 "/>
<polygon fill="#FFFFDA" points="120.999,97.89 121.999,97.89 121.999,123.89 120.999,123.89 120.999,97.89 "/>
<polygon fill="#FFFFDA" points="121.999,97.89 238.999,97.89 238.999,98.89 121.999,98.89 121.999,97.89 "/>
<polygon fill="#B28E6B" points="121.999,122.89 239.999,122.89 239.999,123.89 121.999,123.89 121.999,122.89 "/>
<polygon fill="#B28E6B" points="238.999,97.89 239.999,97.89 239.999,122.89 238.999,122.89 238.999,97.89 "/>
<path d="M126.135,113.183l1.829-0.172c0.114,0.615,0.338,1.065,0.671,1.352c0.334,0.286,0.787,0.429,1.36,0.429
	c0.604,0,1.06-0.127,1.367-0.382c0.307-0.256,0.461-0.555,0.461-0.899c0-0.219-0.065-0.406-0.195-0.562
	c-0.131-0.157-0.357-0.292-0.68-0.407c-0.219-0.072-0.719-0.208-1.5-0.406c-1.011-0.25-1.719-0.557-2.125-0.922
	c-0.563-0.51-0.844-1.135-0.844-1.875c0-0.468,0.133-0.908,0.399-1.32c0.265-0.411,0.651-0.727,1.156-0.945
	c0.505-0.219,1.117-0.328,1.836-0.328c1.166,0,2.044,0.257,2.633,0.773c0.588,0.516,0.898,1.201,0.929,2.055l-1.875,0.078
	c-0.083-0.479-0.255-0.823-0.515-1.031c-0.261-0.209-0.657-0.313-1.188-0.313c-0.552,0-0.979,0.109-1.281,0.328
	c-0.198,0.146-0.297,0.339-0.297,0.578c0,0.219,0.089,0.407,0.266,0.563c0.239,0.208,0.817,0.419,1.734,0.633
	c0.917,0.213,1.594,0.435,2.031,0.664c0.438,0.229,0.779,0.544,1.024,0.945c0.245,0.401,0.367,0.898,0.367,1.492
	c0,0.531-0.149,1.029-0.445,1.492c-0.297,0.464-0.717,0.81-1.258,1.039c-0.542,0.23-1.214,0.344-2.016,0.344
	c-1.177,0-2.081-0.273-2.711-0.82S126.26,114.225,126.135,113.183L126.135,113.183z M142.775,115.027
	c0.458,0.333,0.958,0.599,1.5,0.797l-0.687,1.328c-0.282-0.083-0.558-0.203-0.829-0.36c-0.062-0.02-0.479-0.291-1.25-0.812
	c-0.614,0.26-1.291,0.391-2.031,0.391c-1.427,0-2.547-0.422-3.359-1.266c-0.813-0.844-1.219-2.026-1.219-3.547
	c0-1.521,0.406-2.703,1.219-3.547c0.812-0.844,1.916-1.265,3.312-1.265c1.375,0,2.466,0.421,3.274,1.265
	c0.807,0.844,1.211,2.026,1.211,3.547c0,0.802-0.11,1.511-0.328,2.125C143.421,114.152,143.15,114.6,142.775,115.027
	L142.775,115.027z M141.259,113.98c0.24-0.292,0.422-0.638,0.547-1.039s0.188-0.862,0.188-1.383c0-1.073-0.237-1.875-0.711-2.406
	c-0.474-0.531-1.096-0.797-1.867-0.797s-1.394,0.266-1.868,0.797c-0.473,0.531-0.71,1.333-0.71,2.406
	c0,1.094,0.237,1.909,0.71,2.445c0.474,0.537,1.076,0.805,1.805,0.805c0.271,0,0.531-0.042,0.781-0.125
	c-0.385-0.25-0.776-0.448-1.171-0.594l0.531-1.062C140.108,113.235,140.697,113.553,141.259,113.98L141.259,113.98z
	 M145.449,116.214v-9.234h1.875v7.672h4.672v1.562H145.449L145.449,116.214z M153.328,108.558v-1.656h1.781v1.656H153.328
	L153.328,108.558z M153.328,116.214v-6.734h1.781v6.734H153.328L153.328,116.214z M160.033,109.48v1.422h-1.218v2.703
	c0,0.552,0.01,0.875,0.031,0.969c0.021,0.093,0.073,0.169,0.156,0.226c0.083,0.058,0.182,0.086,0.297,0.086
	c0.167,0,0.406-0.057,0.719-0.172l0.156,1.391c-0.417,0.177-0.885,0.266-1.406,0.266c-0.323,0-0.615-0.055-0.875-0.164
	c-0.261-0.11-0.451-0.25-0.571-0.422c-0.119-0.172-0.2-0.404-0.242-0.696c-0.041-0.208-0.062-0.625-0.062-1.25v-2.937h-0.813v-1.422
	h0.813v-1.344l1.797-1.047v2.391H160.033L160.033,109.48z M165.175,114.074l1.766,0.297c-0.23,0.645-0.589,1.14-1.079,1.484
	c-0.489,0.344-1.104,0.516-1.843,0.516c-1.177,0-2.047-0.386-2.61-1.157c-0.448-0.614-0.672-1.385-0.672-2.312
	c0-1.125,0.295-2.003,0.883-2.633c0.589-0.63,1.326-0.945,2.211-0.945c1.011,0,1.805,0.33,2.383,0.992
	c0.578,0.661,0.852,1.674,0.82,3.039h-4.468c0.02,0.531,0.166,0.943,0.437,1.234c0.271,0.292,0.615,0.438,1.031,0.438
	c0.282,0,0.516-0.076,0.703-0.227C164.925,114.649,165.071,114.407,165.175,114.074L165.175,114.074z M165.269,112.261
	c-0.011-0.51-0.144-0.901-0.399-1.172c-0.255-0.27-0.565-0.406-0.929-0.406c-0.386,0-0.709,0.141-0.969,0.422
	c-0.25,0.292-0.375,0.677-0.375,1.156H165.269L165.269,112.261z M168.03,113.183l1.828-0.172c0.115,0.615,0.339,1.065,0.672,1.352
	c0.333,0.286,0.786,0.429,1.359,0.429c0.604,0,1.06-0.127,1.368-0.382c0.307-0.256,0.46-0.555,0.46-0.899
	c0-0.219-0.065-0.406-0.195-0.562c-0.13-0.157-0.357-0.292-0.68-0.407c-0.218-0.072-0.718-0.208-1.5-0.406
	c-1.01-0.25-1.718-0.557-2.125-0.922c-0.562-0.51-0.843-1.135-0.843-1.875c0-0.468,0.133-0.908,0.398-1.32
	c0.266-0.411,0.651-0.727,1.156-0.945c0.506-0.219,1.118-0.328,1.836-0.328c1.167,0,2.045,0.257,2.633,0.773
	c0.589,0.516,0.899,1.201,0.93,2.055l-1.875,0.078c-0.084-0.479-0.255-0.823-0.516-1.031c-0.26-0.209-0.656-0.313-1.187-0.313
	c-0.552,0-0.979,0.109-1.282,0.328c-0.197,0.146-0.296,0.339-0.296,0.578c0,0.219,0.088,0.407,0.265,0.563
	c0.24,0.208,0.818,0.419,1.735,0.633c0.916,0.213,1.593,0.435,2.031,0.664c0.437,0.229,0.778,0.544,1.023,0.945
	c0.245,0.401,0.367,0.898,0.367,1.492c0,0.531-0.148,1.029-0.445,1.492c-0.297,0.464-0.716,0.81-1.258,1.039
	c-0.541,0.23-1.213,0.344-2.015,0.344c-1.177,0-2.081-0.273-2.711-0.82S168.155,114.225,168.03,113.183L168.03,113.183z
	 M184.67,115.027c0.458,0.333,0.958,0.599,1.5,0.797l-0.688,1.328c-0.281-0.083-0.557-0.203-0.828-0.36
	c-0.063-0.02-0.479-0.291-1.25-0.812c-0.615,0.26-1.292,0.391-2.031,0.391c-1.427,0-2.547-0.422-3.36-1.266
	c-0.812-0.844-1.218-2.026-1.218-3.547c0-1.521,0.406-2.703,1.218-3.547c0.813-0.844,1.917-1.265,3.313-1.265
	c1.375,0,2.466,0.421,3.273,1.265c0.808,0.844,1.211,2.026,1.211,3.547c0,0.802-0.109,1.511-0.328,2.125
	C185.315,114.152,185.045,114.6,184.67,115.027L184.67,115.027z M183.154,113.98c0.24-0.292,0.422-0.638,0.547-1.039
	s0.187-0.862,0.187-1.383c0-1.073-0.237-1.875-0.711-2.406c-0.474-0.531-1.096-0.797-1.867-0.797s-1.393,0.266-1.867,0.797
	s-0.711,1.333-0.711,2.406c0,1.094,0.237,1.909,0.711,2.445c0.474,0.537,1.076,0.805,1.805,0.805c0.271,0,0.531-0.042,0.781-0.125
	c-0.385-0.25-0.776-0.448-1.172-0.594l0.531-1.062C182.003,113.235,182.591,113.553,183.154,113.98L183.154,113.98z
	 M187.344,116.214v-9.234h1.875v7.672h4.672v1.562H187.344L187.344,116.214z M195.222,106.902h3.438
	c0.771,0,1.359,0.062,1.765,0.187c0.553,0.157,1.021,0.44,1.407,0.852c0.385,0.411,0.679,0.914,0.883,1.508
	c0.203,0.593,0.304,1.328,0.304,2.203c0,0.76-0.094,1.422-0.281,1.984c-0.229,0.677-0.563,1.224-1,1.641
	c-0.323,0.312-0.76,0.557-1.313,0.734c-0.416,0.136-0.974,0.203-1.671,0.203h-3.532V106.902L195.222,106.902z M197.097,108.48v6.172
	h1.407c0.531,0,0.911-0.031,1.14-0.094c0.302-0.073,0.555-0.2,0.758-0.383c0.203-0.182,0.367-0.481,0.492-0.898
	s0.188-0.985,0.188-1.703c0-0.719-0.063-1.271-0.188-1.657c-0.125-0.385-0.302-0.687-0.531-0.906
	c-0.229-0.219-0.521-0.364-0.875-0.437c-0.26-0.063-0.776-0.094-1.547-0.094H197.097L197.097,108.48z M204.532,116.214v-9.312h1.782
	v3.359c0.552-0.625,1.203-0.937,1.953-0.937c0.823,0,1.502,0.297,2.039,0.89c0.536,0.594,0.805,1.448,0.805,2.563
	c0,1.146-0.274,2.031-0.821,2.656c-0.547,0.625-1.211,0.938-1.992,0.938c-0.385,0-0.766-0.097-1.141-0.289
	c-0.375-0.193-0.698-0.477-0.968-0.852v0.984H204.532L204.532,116.214z M206.298,112.699c0,0.698,0.109,1.213,0.328,1.547
	c0.313,0.479,0.724,0.718,1.235,0.718c0.395,0,0.731-0.169,1.007-0.507c0.276-0.339,0.414-0.873,0.414-1.602
	c0-0.76-0.138-1.313-0.414-1.656c-0.276-0.344-0.632-0.516-1.07-0.516c-0.427,0-0.784,0.167-1.07,0.5
	C206.441,111.516,206.298,112.022,206.298,112.699L206.298,112.699z M212.505,116.214v-9.312h1.875v9.312H212.505L212.505,116.214z
	 M222.288,116.214h-1.781v-3.437c0-0.729-0.039-1.201-0.117-1.414c-0.078-0.214-0.203-0.38-0.375-0.5s-0.377-0.18-0.617-0.18
	c-0.301,0-0.576,0.086-0.82,0.258s-0.414,0.396-0.508,0.672c-0.093,0.276-0.14,0.794-0.14,1.554v3.047h-1.782v-6.734h1.657v0.984
	c0.583-0.76,1.323-1.14,2.218-1.14c0.395,0,0.756,0.07,1.078,0.211c0.324,0.14,0.57,0.32,0.742,0.539
	c0.172,0.218,0.289,0.468,0.352,0.75c0.063,0.281,0.094,0.682,0.094,1.203V116.214L222.288,116.214z M223.323,109.48h0.984v-0.516
	c0-0.562,0.059-0.984,0.18-1.265c0.119-0.282,0.34-0.511,0.664-0.688c0.322-0.177,0.734-0.265,1.234-0.265
	c0.51,0,1.006,0.078,1.484,0.234l-0.234,1.25c-0.281-0.073-0.553-0.109-0.813-0.109c-0.262,0-0.449,0.06-0.563,0.179
	c-0.115,0.12-0.172,0.352-0.172,0.696v0.484h1.344v1.391h-1.344v5.343h-1.781v-5.343h-0.984V109.48L223.323,109.48z
	 M228.011,112.746c0-0.594,0.146-1.167,0.438-1.719c0.293-0.552,0.707-0.974,1.242-1.266c0.537-0.291,1.139-0.437,1.805-0.437
	c1.012,0,1.846,0.33,2.5,0.992c0.656,0.661,0.984,1.497,0.984,2.508c0,1.021-0.33,1.867-0.992,2.539s-1.492,1.008-2.492,1.008
	c-0.613,0-1.203-0.141-1.766-0.422c-0.563-0.282-0.988-0.69-1.281-1.227C228.157,114.186,228.011,113.527,228.011,112.746
	L228.011,112.746z M229.841,112.839c0,0.667,0.156,1.18,0.475,1.539c0.318,0.36,0.711,0.539,1.18,0.539
	c0.471,0,0.859-0.179,1.174-0.539c0.311-0.359,0.467-0.877,0.467-1.554c0-0.657-0.156-1.162-0.467-1.516
	c-0.314-0.354-0.703-0.531-1.174-0.531c-0.469,0-0.861,0.177-1.18,0.531C229.997,111.662,229.841,112.173,229.841,112.839
	L229.841,112.839z"/>
<line fill="none" stroke="#000000" stroke-miterlimit="1.45" stroke-dasharray="6,2" x1="146.532" y1="179.448" x2="61.965" y2="157.859"/>
<polygon points="58.09,156.871 68.233,165.652 58.09,156.871 71.201,154.024 "/>
<polygon fill="none" stroke="#000000" stroke-linecap="square" stroke-miterlimit="10" points="58.09,156.871 68.233,165.652 
	58.09,156.871 71.201,154.024 "/>
<path fill="#808080" d="M88.703,154.451l0.859,2.438h-0.734l-1.141-2.563l2.157-2.313h0.765L88.703,154.451L88.703,154.451z
	 M90.828,154.451l0.844,2.438H90.89l-1.078-2.563l2.094-2.313h0.828L90.828,154.451L90.828,154.451z M97.211,156.248
	c-0.687,0.771-1.39,1.156-2.109,1.156c-0.438,0-0.792-0.125-1.063-0.375c-0.27-0.25-0.406-0.558-0.406-0.923
	c0-0.238,0.063-0.65,0.188-1.233l0.687-3.297h0.969l-0.766,3.641c-0.062,0.313-0.093,0.552-0.093,0.719
	c0,0.208,0.065,0.372,0.195,0.492s0.32,0.179,0.57,0.179c0.281,0,0.55-0.064,0.805-0.194s0.476-0.308,0.664-0.531
	c0.187-0.224,0.344-0.492,0.469-0.805c0.073-0.198,0.161-0.541,0.265-1.031l0.516-2.469h0.984l-1.203,5.703h-0.89L97.211,156.248
	L97.211,156.248z M99.516,155.326l0.969-0.063c0,0.281,0.044,0.521,0.133,0.718c0.089,0.198,0.247,0.36,0.477,0.485
	c0.229,0.125,0.5,0.188,0.812,0.188c0.427,0,0.747-0.087,0.961-0.258c0.214-0.172,0.32-0.373,0.32-0.602
	c0-0.167-0.062-0.328-0.187-0.484c-0.136-0.146-0.459-0.331-0.969-0.555c-0.51-0.224-0.838-0.378-0.984-0.461
	c-0.24-0.146-0.422-0.318-0.547-0.517c-0.125-0.197-0.188-0.427-0.188-0.687c0-0.448,0.18-0.833,0.539-1.156
	c0.36-0.322,0.862-0.484,1.508-0.484c0.719,0,1.266,0.164,1.641,0.491c0.375,0.329,0.568,0.764,0.578,1.306l-0.953,0.063
	c-0.011-0.344-0.13-0.614-0.36-0.813c-0.229-0.198-0.552-0.297-0.968-0.297c-0.344,0-0.607,0.076-0.789,0.227
	c-0.183,0.151-0.274,0.32-0.274,0.508c0,0.178,0.078,0.333,0.235,0.468c0.104,0.095,0.38,0.235,0.828,0.423
	c0.75,0.322,1.218,0.578,1.406,0.766c0.312,0.302,0.469,0.667,0.469,1.094c0,0.281-0.086,0.558-0.258,0.828
	c-0.172,0.271-0.438,0.487-0.797,0.648c-0.359,0.162-0.779,0.242-1.258,0.242c-0.656,0-1.219-0.161-1.687-0.484
	C99.714,156.597,99.496,156.065,99.516,155.326L99.516,155.326z M109.126,155.342l0.937,0.094c-0.135,0.469-0.448,0.914-0.937,1.336
	c-0.49,0.421-1.073,0.633-1.75,0.633c-0.417,0-0.802-0.097-1.156-0.289c-0.355-0.192-0.625-0.477-0.813-0.852
	c-0.187-0.375-0.281-0.797-0.281-1.266c0-0.625,0.146-1.232,0.437-1.82c0.292-0.589,0.667-1.023,1.125-1.305
	c0.459-0.281,0.953-0.422,1.485-0.422c0.677,0,1.218,0.211,1.625,0.633c0.406,0.422,0.609,0.997,0.609,1.727
	c0,0.281-0.021,0.567-0.062,0.859h-4.204c-0.02,0.115-0.031,0.214-0.031,0.297c0,0.531,0.123,0.938,0.367,1.219
	c0.245,0.281,0.545,0.421,0.899,0.421c0.333,0,0.661-0.108,0.984-0.327C108.683,156.061,108.938,155.748,109.126,155.342
	L109.126,155.342z M106.298,153.92h3.203c0-0.094,0-0.161,0-0.203c0-0.49-0.123-0.865-0.367-1.125
	c-0.245-0.261-0.56-0.391-0.946-0.391c-0.406,0-0.781,0.143-1.125,0.43C106.72,152.917,106.464,153.347,106.298,153.92
	L106.298,153.92z M113.103,154.481l-0.797-2.468h0.766l1.031,2.593l-2.094,2.282h-0.875L113.103,154.481L113.103,154.481z
	 M115.197,154.529l-0.797-2.516h0.734l1.094,2.609l-2.172,2.266h-0.781L115.197,154.529L115.197,154.529z"/>
<line fill="none" stroke="#000000" stroke-miterlimit="1.45" stroke-dasharray="6,2" x1="146.532" y1="196.817" x2="61.965" y2="218.406"/>
<polygon points="58.09,219.395 71.201,222.241 58.09,219.395 68.233,210.614 "/>
<polygon fill="none" stroke="#000000" stroke-linecap="square" stroke-miterlimit="10" points="58.09,219.395 71.201,222.241 
	58.09,219.395 68.233,210.614 "/>
<path fill="#808080" d="M88.703,194.652l0.859,2.438h-0.734l-1.141-2.563l2.157-2.312h0.765L88.703,194.652L88.703,194.652z
	 M90.828,194.652l0.844,2.438H90.89l-1.078-2.563l2.094-2.312h0.828L90.828,194.652L90.828,194.652z M97.211,196.449
	c-0.687,0.771-1.39,1.155-2.109,1.155c-0.438,0-0.792-0.125-1.063-0.375c-0.27-0.25-0.406-0.557-0.406-0.921
	c0-0.239,0.063-0.65,0.188-1.234l0.687-3.297h0.969l-0.766,3.641c-0.062,0.312-0.093,0.552-0.093,0.719
	c0,0.208,0.065,0.372,0.195,0.492s0.32,0.18,0.57,0.18c0.281,0,0.55-0.065,0.805-0.195c0.255-0.131,0.476-0.308,0.664-0.531
	c0.187-0.225,0.344-0.492,0.469-0.806c0.073-0.197,0.161-0.54,0.265-1.03l0.516-2.469h0.984l-1.203,5.702h-0.89L97.211,196.449
	L97.211,196.449z M99.516,195.527l0.969-0.063c0,0.281,0.044,0.521,0.133,0.719c0.089,0.197,0.247,0.359,0.477,0.484
	c0.229,0.125,0.5,0.187,0.812,0.187c0.427,0,0.747-0.085,0.961-0.257c0.214-0.172,0.32-0.373,0.32-0.602
	c0-0.167-0.062-0.328-0.187-0.484c-0.136-0.146-0.459-0.331-0.969-0.555c-0.51-0.225-0.838-0.378-0.984-0.461
	c-0.24-0.146-0.422-0.318-0.547-0.517c-0.125-0.196-0.188-0.427-0.188-0.687c0-0.448,0.18-0.833,0.539-1.156
	c0.36-0.323,0.862-0.484,1.508-0.484c0.719,0,1.266,0.163,1.641,0.492c0.375,0.328,0.568,0.764,0.578,1.305l-0.953,0.063
	c-0.011-0.344-0.13-0.615-0.36-0.813c-0.229-0.198-0.552-0.297-0.968-0.297c-0.344,0-0.607,0.075-0.789,0.227
	c-0.183,0.151-0.274,0.32-0.274,0.508c0,0.177,0.078,0.333,0.235,0.468c0.104,0.095,0.38,0.235,0.828,0.423
	c0.75,0.322,1.218,0.577,1.406,0.766c0.312,0.302,0.469,0.667,0.469,1.094c0,0.281-0.086,0.558-0.258,0.828
	c-0.172,0.271-0.438,0.487-0.797,0.648c-0.359,0.161-0.779,0.241-1.258,0.241c-0.656,0-1.219-0.16-1.687-0.483
	C99.714,196.798,99.496,196.267,99.516,195.527L99.516,195.527z M109.126,195.543l0.937,0.094c-0.135,0.468-0.448,0.914-0.937,1.336
	c-0.49,0.422-1.073,0.632-1.75,0.632c-0.417,0-0.802-0.096-1.156-0.289c-0.355-0.191-0.625-0.476-0.813-0.851
	c-0.187-0.375-0.281-0.797-0.281-1.266c0-0.625,0.146-1.232,0.437-1.82c0.292-0.589,0.667-1.024,1.125-1.305
	c0.459-0.281,0.953-0.422,1.485-0.422c0.677,0,1.218,0.211,1.625,0.633c0.406,0.422,0.609,0.998,0.609,1.727
	c0,0.281-0.021,0.567-0.062,0.859h-4.204c-0.02,0.115-0.031,0.214-0.031,0.297c0,0.531,0.123,0.937,0.367,1.219
	c0.245,0.281,0.545,0.422,0.899,0.422c0.333,0,0.661-0.109,0.984-0.329C108.683,196.262,108.938,195.949,109.126,195.543
	L109.126,195.543z M106.298,194.121h3.203c0-0.094,0-0.161,0-0.203c0-0.49-0.123-0.865-0.367-1.125
	c-0.245-0.26-0.56-0.391-0.946-0.391c-0.406,0-0.781,0.144-1.125,0.43C106.72,193.118,106.464,193.548,106.298,194.121
	L106.298,194.121z M113.103,194.684l-0.797-2.469h0.766l1.031,2.594l-2.094,2.281h-0.875L113.103,194.684L113.103,194.684z
	 M115.197,194.729l-0.797-2.515h0.734l1.094,2.609l-2.172,2.266h-0.781L115.197,194.729L115.197,194.729z"/>
<line fill="none" stroke="#000000" stroke-miterlimit="1.45" stroke-dasharray="6,2" x1="214.626" y1="180.891" x2="293.884" y2="164.046"/>
<polygon points="297.798,163.215 284.812,159.84 297.798,163.215 287.306,171.578 "/>
<polygon fill="none" stroke="#000000" stroke-linecap="square" stroke-miterlimit="10" points="297.798,163.215 284.812,159.84 
	297.798,163.215 287.306,171.578 "/>
<path fill="#808080" d="M240.22,159.81l0.859,2.438h-0.734l-1.141-2.563l2.156-2.312h0.766L240.22,159.81L240.22,159.81z
	 M242.345,159.81l0.844,2.438h-0.781l-1.078-2.563l2.094-2.312h0.828L242.345,159.81L242.345,159.81z M248.728,161.606
	c-0.688,0.771-1.391,1.156-2.109,1.156c-0.438,0-0.791-0.125-1.063-0.375s-0.406-0.557-0.406-0.922c0-0.239,0.063-0.651,0.188-1.234
	l0.688-3.297h0.969l-0.766,3.642c-0.063,0.312-0.094,0.552-0.094,0.719c0,0.208,0.064,0.372,0.195,0.492s0.32,0.179,0.57,0.179
	c0.281,0,0.549-0.065,0.805-0.195s0.477-0.307,0.664-0.53c0.188-0.225,0.344-0.492,0.469-0.806c0.072-0.197,0.162-0.541,0.266-1.03
	l0.516-2.47h0.984l-1.203,5.703h-0.891L248.728,161.606L248.728,161.606z M251.032,160.685l0.969-0.062
	c0,0.281,0.045,0.521,0.135,0.718c0.088,0.198,0.246,0.36,0.475,0.485c0.23,0.125,0.5,0.187,0.814,0.187
	c0.426,0,0.746-0.086,0.961-0.257c0.213-0.172,0.318-0.373,0.318-0.602c0-0.167-0.063-0.328-0.188-0.484
	c-0.135-0.146-0.457-0.331-0.967-0.555c-0.512-0.225-0.84-0.378-0.986-0.461c-0.238-0.146-0.422-0.318-0.547-0.517
	s-0.188-0.427-0.188-0.687c0-0.448,0.182-0.833,0.539-1.156c0.359-0.323,0.863-0.485,1.508-0.485c0.721,0,1.266,0.164,1.641,0.492
	c0.375,0.329,0.568,0.763,0.58,1.305l-0.955,0.063c-0.01-0.344-0.129-0.615-0.359-0.813c-0.229-0.197-0.551-0.297-0.969-0.297
	c-0.342,0-0.605,0.076-0.789,0.228c-0.182,0.15-0.273,0.319-0.273,0.508c0,0.177,0.078,0.333,0.234,0.468
	c0.105,0.094,0.381,0.235,0.828,0.422c0.75,0.323,1.219,0.578,1.408,0.767c0.311,0.302,0.467,0.667,0.467,1.094
	c0,0.281-0.086,0.557-0.258,0.828c-0.17,0.271-0.438,0.486-0.795,0.647c-0.361,0.162-0.779,0.242-1.258,0.242
	c-0.656,0-1.221-0.161-1.689-0.483C251.231,161.956,251.013,161.425,251.032,160.685L251.032,160.685z M260.642,160.701l0.938,0.094
	c-0.135,0.468-0.447,0.914-0.938,1.336c-0.488,0.421-1.072,0.632-1.75,0.632c-0.416,0-0.801-0.096-1.156-0.289
	c-0.354-0.191-0.625-0.476-0.811-0.851c-0.189-0.375-0.283-0.797-0.283-1.267c0-0.625,0.146-1.231,0.438-1.819
	c0.293-0.589,0.668-1.024,1.125-1.306c0.459-0.28,0.953-0.422,1.484-0.422c0.678,0,1.219,0.211,1.625,0.633
	c0.408,0.423,0.611,0.997,0.611,1.728c0,0.281-0.021,0.567-0.064,0.859h-4.203c-0.02,0.114-0.031,0.214-0.031,0.297
	c0,0.53,0.123,0.937,0.367,1.219c0.246,0.281,0.545,0.421,0.898,0.421c0.334,0,0.662-0.109,0.984-0.328
	C260.2,161.42,260.454,161.106,260.642,160.701L260.642,160.701z M257.813,159.279h3.203c0-0.095,0-0.161,0-0.203
	c0-0.49-0.121-0.865-0.367-1.125c-0.244-0.262-0.559-0.392-0.945-0.392c-0.404,0-0.779,0.144-1.125,0.431
	C258.235,158.275,257.981,158.706,257.813,159.279L257.813,159.279z M264.618,159.841l-0.795-2.468h0.766l1.029,2.593l-2.092,2.282
	h-0.875L264.618,159.841L264.618,159.841z M266.714,159.888l-0.799-2.515h0.736l1.092,2.608l-2.17,2.267h-0.783L266.714,159.888
	L266.714,159.888z"/>
<line fill="none" stroke="#000000" stroke-miterlimit="1.45" stroke-dasharray="6,2" x1="214.626" y1="195.375" x2="293.884" y2="212.22"/>
<polygon points="297.798,213.051 287.306,204.688 297.798,213.051 284.812,216.426 "/>
<polygon fill="none" stroke="#000000" stroke-linecap="square" stroke-miterlimit="10" points="297.798,213.051 287.306,204.688 
	297.798,213.051 284.812,216.426 "/>
<path fill="#808080" d="M240.22,190.746l0.859,2.437h-0.734l-1.141-2.562l2.156-2.313h0.766L240.22,190.746L240.22,190.746z
	 M242.345,190.746l0.844,2.437h-0.781l-1.078-2.562l2.094-2.313h0.828L242.345,190.746L242.345,190.746z M248.728,192.542
	c-0.688,0.771-1.391,1.157-2.109,1.157c-0.438,0-0.791-0.125-1.063-0.375s-0.406-0.559-0.406-0.922c0-0.24,0.063-0.651,0.188-1.235
	l0.688-3.296h0.969l-0.766,3.64c-0.063,0.313-0.094,0.552-0.094,0.719c0,0.208,0.064,0.372,0.195,0.492s0.32,0.181,0.57,0.181
	c0.281,0,0.549-0.065,0.805-0.195c0.256-0.131,0.477-0.309,0.664-0.532s0.344-0.492,0.469-0.804
	c0.072-0.198,0.162-0.542,0.266-1.032l0.516-2.468h0.984l-1.203,5.703h-0.891L248.728,192.542L248.728,192.542z M251.032,191.621
	l0.969-0.063c0,0.281,0.045,0.521,0.135,0.719c0.088,0.198,0.246,0.359,0.475,0.484c0.23,0.125,0.5,0.188,0.814,0.188
	c0.426,0,0.746-0.086,0.961-0.259c0.213-0.172,0.318-0.371,0.318-0.602c0-0.166-0.063-0.328-0.188-0.484
	c-0.135-0.146-0.457-0.331-0.967-0.555c-0.512-0.224-0.84-0.377-0.986-0.461c-0.238-0.145-0.422-0.317-0.547-0.515
	c-0.125-0.198-0.188-0.428-0.188-0.688c0-0.448,0.182-0.833,0.539-1.156c0.359-0.322,0.863-0.483,1.508-0.483
	c0.721,0,1.266,0.164,1.641,0.492c0.375,0.327,0.568,0.763,0.58,1.304l-0.955,0.063c-0.01-0.344-0.129-0.614-0.359-0.813
	c-0.229-0.197-0.551-0.296-0.969-0.296c-0.342,0-0.605,0.075-0.789,0.226c-0.182,0.151-0.273,0.32-0.273,0.508
	c0,0.178,0.078,0.333,0.234,0.47c0.105,0.093,0.381,0.233,0.828,0.422c0.75,0.323,1.219,0.578,1.408,0.765
	c0.311,0.302,0.467,0.667,0.467,1.094c0,0.281-0.086,0.558-0.258,0.828c-0.17,0.271-0.438,0.487-0.795,0.649
	c-0.361,0.161-0.779,0.242-1.258,0.242c-0.656,0-1.221-0.162-1.689-0.485C251.231,192.891,251.013,192.359,251.032,191.621
	L251.032,191.621z M260.642,191.636l0.938,0.094c-0.135,0.47-0.447,0.914-0.938,1.336c-0.488,0.423-1.072,0.634-1.75,0.634
	c-0.416,0-0.801-0.098-1.156-0.289c-0.354-0.193-0.625-0.478-0.811-0.853c-0.189-0.375-0.283-0.797-0.283-1.266
	c0-0.625,0.146-1.231,0.438-1.82c0.293-0.588,0.668-1.022,1.125-1.305c0.459-0.281,0.953-0.421,1.484-0.421
	c0.678,0,1.219,0.211,1.625,0.632c0.408,0.422,0.611,0.998,0.611,1.727c0,0.281-0.021,0.568-0.064,0.859h-4.203
	c-0.02,0.115-0.031,0.214-0.031,0.297c0,0.531,0.123,0.938,0.367,1.219c0.246,0.281,0.545,0.423,0.898,0.423
	c0.334,0,0.662-0.11,0.984-0.328C260.2,192.354,260.454,192.042,260.642,191.636L260.642,191.636z M257.813,190.214h3.203
	c0-0.093,0-0.161,0-0.203c0-0.489-0.121-0.864-0.367-1.125c-0.244-0.26-0.559-0.39-0.945-0.39c-0.404,0-0.779,0.143-1.125,0.429
	C258.235,189.212,257.981,189.641,257.813,190.214L257.813,190.214z M264.618,190.776l-0.795-2.469h0.766l1.029,2.595l-2.092,2.28
	h-0.875L264.618,190.776L264.618,190.776z M266.714,190.824l-0.799-2.517h0.736l1.092,2.609l-2.17,2.266h-0.783L266.714,190.824
	L266.714,190.824z"/>
<line fill="none" stroke="#000000" stroke-miterlimit="1.45" stroke-dasharray="6,2" x1="180.552" y1="201.361" x2="180.552" y2="246.637"/>
<polygon points="180.552,250.637 186.552,238.637 180.552,250.637 174.552,238.637 "/>
<polygon fill="none" stroke="#000000" stroke-linecap="square" stroke-miterlimit="10" points="180.552,250.637 186.552,238.637 
	180.552,250.637 174.552,238.637 "/>
<path fill="#808080" d="M148.456,228l0.859,2.437h-0.734l-1.141-2.562l2.157-2.313h0.765L148.456,228L148.456,228z M150.581,228
	l0.844,2.437h-0.782l-1.078-2.562l2.094-2.313h0.828L150.581,228L150.581,228z M156.964,229.797
	c-0.687,0.771-1.39,1.156-2.109,1.156c-0.438,0-0.792-0.125-1.063-0.375c-0.27-0.25-0.406-0.558-0.406-0.922
	c0-0.24,0.063-0.651,0.188-1.234l0.687-3.297h0.969l-0.766,3.64c-0.062,0.313-0.093,0.553-0.093,0.719
	c0,0.209,0.065,0.373,0.195,0.492c0.13,0.12,0.32,0.181,0.57,0.181c0.281,0,0.55-0.065,0.805-0.195s0.476-0.308,0.664-0.532
	c0.187-0.223,0.344-0.492,0.469-0.804c0.073-0.198,0.161-0.542,0.265-1.031l0.516-2.469h0.984l-1.203,5.703h-0.89L156.964,229.797
	L156.964,229.797z M159.269,228.875l0.969-0.063c0,0.282,0.044,0.521,0.133,0.72c0.089,0.197,0.247,0.358,0.477,0.483
	c0.229,0.125,0.5,0.188,0.812,0.188c0.427,0,0.747-0.086,0.961-0.258c0.214-0.173,0.32-0.372,0.32-0.602
	c0-0.167-0.062-0.329-0.187-0.485c-0.136-0.146-0.459-0.33-0.969-0.555c-0.51-0.223-0.838-0.377-0.984-0.46
	c-0.24-0.146-0.422-0.318-0.547-0.516c-0.125-0.198-0.188-0.428-0.188-0.688c0-0.447,0.18-0.833,0.539-1.156
	c0.36-0.322,0.862-0.483,1.508-0.483c0.719,0,1.266,0.164,1.641,0.492s0.568,0.763,0.578,1.305l-0.953,0.062
	c-0.011-0.344-0.13-0.613-0.36-0.812c-0.229-0.198-0.552-0.297-0.968-0.297c-0.344,0-0.607,0.075-0.789,0.226
	c-0.183,0.151-0.274,0.321-0.274,0.508c0,0.178,0.078,0.334,0.235,0.47c0.104,0.094,0.38,0.233,0.828,0.422
	c0.75,0.323,1.218,0.578,1.406,0.765c0.312,0.303,0.469,0.667,0.469,1.094c0,0.281-0.086,0.558-0.258,0.828
	c-0.172,0.271-0.438,0.487-0.797,0.649c-0.359,0.161-0.779,0.242-1.258,0.242c-0.656,0-1.219-0.162-1.687-0.484
	C159.467,230.146,159.249,229.614,159.269,228.875L159.269,228.875z M168.879,228.89l0.937,0.094
	c-0.135,0.47-0.448,0.914-0.937,1.337c-0.49,0.422-1.073,0.633-1.75,0.633c-0.417,0-0.802-0.097-1.156-0.289
	c-0.355-0.193-0.625-0.478-0.813-0.853c-0.187-0.375-0.281-0.797-0.281-1.265c0-0.625,0.146-1.232,0.437-1.821
	c0.292-0.588,0.667-1.022,1.125-1.304c0.459-0.282,0.953-0.422,1.485-0.422c0.677,0,1.218,0.211,1.625,0.633
	c0.406,0.421,0.609,0.997,0.609,1.726c0,0.281-0.021,0.568-0.062,0.86h-4.204c-0.02,0.114-0.031,0.213-0.031,0.296
	c0,0.532,0.123,0.938,0.367,1.219c0.245,0.281,0.545,0.423,0.899,0.423c0.333,0,0.661-0.109,0.984-0.328
	C168.436,229.608,168.691,229.297,168.879,228.89L168.879,228.89z M166.051,227.469h3.203c0-0.094,0-0.162,0-0.204
	c0-0.489-0.123-0.864-0.367-1.125c-0.245-0.26-0.56-0.39-0.946-0.39c-0.406,0-0.781,0.143-1.125,0.429
	C166.473,226.466,166.217,226.896,166.051,227.469L166.051,227.469z M172.856,228.031l-0.797-2.47h0.766l1.031,2.595l-2.094,2.28
	h-0.875L172.856,228.031L172.856,228.031z M174.95,228.078l-0.797-2.517h0.734l1.094,2.61l-2.172,2.265h-0.781L174.95,228.078
	L174.95,228.078z"/>
<line fill="none" stroke="#000000" stroke-miterlimit="1.45" stroke-dasharray="6,2" x1="180.552" y1="174.904" x2="180.552" y2="129.629"/>
<polygon points="180.552,125.629 174.552,137.629 180.552,125.629 186.552,137.629 "/>
<polygon fill="none" stroke="#000000" stroke-linecap="square" stroke-miterlimit="10" points="180.552,125.629 174.552,137.629 
	180.552,125.629 186.552,137.629 "/>
<path fill="#808080" d="M148.456,151.252l0.859,2.437h-0.734l-1.141-2.562l2.157-2.313h0.765L148.456,151.252L148.456,151.252z
	 M150.581,151.252l0.844,2.437h-0.782l-1.078-2.562l2.094-2.313h0.828L150.581,151.252L150.581,151.252z M156.964,153.049
	c-0.687,0.771-1.39,1.156-2.109,1.156c-0.438,0-0.792-0.125-1.063-0.375c-0.27-0.25-0.406-0.558-0.406-0.922
	c0-0.239,0.063-0.651,0.188-1.234l0.687-3.297h0.969l-0.766,3.641c-0.062,0.313-0.093,0.553-0.093,0.718
	c0,0.21,0.065,0.373,0.195,0.493c0.13,0.119,0.32,0.18,0.57,0.18c0.281,0,0.55-0.065,0.805-0.195s0.476-0.307,0.664-0.531
	c0.187-0.224,0.344-0.493,0.469-0.805c0.073-0.198,0.161-0.542,0.265-1.031l0.516-2.469h0.984l-1.203,5.703h-0.89L156.964,153.049
	L156.964,153.049z M159.269,152.127l0.969-0.063c0,0.282,0.044,0.521,0.133,0.72c0.089,0.197,0.247,0.359,0.477,0.484
	c0.229,0.125,0.5,0.188,0.812,0.188c0.427,0,0.747-0.086,0.961-0.258c0.214-0.173,0.32-0.372,0.32-0.602
	c0-0.167-0.062-0.328-0.187-0.484c-0.136-0.146-0.459-0.33-0.969-0.555c-0.51-0.224-0.838-0.378-0.984-0.461
	c-0.24-0.146-0.422-0.317-0.547-0.516s-0.188-0.427-0.188-0.688c0-0.447,0.18-0.834,0.539-1.156c0.36-0.323,0.862-0.484,1.508-0.484
	c0.719,0,1.266,0.164,1.641,0.492s0.568,0.763,0.578,1.305l-0.953,0.062c-0.011-0.343-0.13-0.613-0.36-0.812
	c-0.229-0.198-0.552-0.297-0.968-0.297c-0.344,0-0.607,0.075-0.789,0.227c-0.183,0.151-0.274,0.32-0.274,0.507
	c0,0.178,0.078,0.334,0.235,0.47c0.104,0.094,0.38,0.233,0.828,0.422c0.75,0.323,1.218,0.578,1.406,0.766
	c0.312,0.303,0.469,0.666,0.469,1.094c0,0.281-0.086,0.558-0.258,0.827c-0.172,0.271-0.438,0.487-0.797,0.649
	c-0.359,0.161-0.779,0.242-1.258,0.242c-0.656,0-1.219-0.161-1.687-0.484C159.467,153.397,159.249,152.867,159.269,152.127
	L159.269,152.127z M168.879,152.143l0.937,0.094c-0.135,0.469-0.448,0.913-0.937,1.336c-0.49,0.422-1.073,0.633-1.75,0.633
	c-0.417,0-0.802-0.097-1.156-0.289c-0.355-0.193-0.625-0.478-0.813-0.853c-0.187-0.375-0.281-0.796-0.281-1.265
	c0-0.625,0.146-1.232,0.437-1.82c0.292-0.589,0.667-1.023,1.125-1.305c0.459-0.281,0.953-0.422,1.485-0.422
	c0.677,0,1.218,0.211,1.625,0.633c0.406,0.422,0.609,0.997,0.609,1.727c0,0.281-0.021,0.567-0.062,0.859h-4.204
	c-0.02,0.114-0.031,0.213-0.031,0.297c0,0.531,0.123,0.938,0.367,1.219c0.245,0.281,0.545,0.422,0.899,0.422
	c0.333,0,0.661-0.109,0.984-0.328C168.436,152.861,168.691,152.549,168.879,152.143L168.879,152.143z M166.051,150.721h3.203
	c0-0.094,0-0.162,0-0.203c0-0.489-0.123-0.864-0.367-1.125c-0.245-0.261-0.56-0.391-0.946-0.391c-0.406,0-0.781,0.143-1.125,0.43
	C166.473,149.718,166.217,150.147,166.051,150.721L166.051,150.721z M172.856,151.283l-0.797-2.47h0.766l1.031,2.595l-2.094,2.28
	h-0.875L172.856,151.283L172.856,151.283z M174.95,151.33l-0.797-2.517h0.734l1.094,2.61l-2.172,2.265h-0.781L174.95,151.33
	L174.95,151.33z"/>
<line fill="none" stroke="#000000" stroke-miterlimit="1.45" x1="180.552" y1="37.547" x2="180.552" y2="91.153"/>
<polygon points="180.552,98.153 175.552,91.153 180.552,84.153 185.552,91.153 "/>
<line fill="none" stroke="#000000" stroke-miterlimit="1.45" stroke-dasharray="6,2" x1="235.433" y1="98.154" x2="301.356" y2="82.261"/>
<polygon points="305.245,81.324 292.173,78.303 305.245,81.324 294.985,89.969 "/>
<polygon fill="none" stroke="#000000" stroke-linecap="square" stroke-miterlimit="10" points="305.245,81.324 292.173,78.303 
	305.245,81.324 294.985,89.969 "/>
<path fill="#808080" d="M252.833,77.458l0.859,2.438h-0.732l-1.143-2.563l2.156-2.312h0.766L252.833,77.458L252.833,77.458z
	 M254.96,77.458l0.844,2.438h-0.783l-1.078-2.563l2.094-2.312h0.828L254.96,77.458L254.96,77.458z M261.343,79.255
	c-0.688,0.771-1.393,1.156-2.109,1.156c-0.438,0-0.793-0.125-1.063-0.375c-0.271-0.25-0.406-0.557-0.406-0.921
	c0-0.24,0.061-0.651,0.186-1.235l0.689-3.297h0.969l-0.766,3.641c-0.063,0.312-0.096,0.552-0.096,0.719
	c0,0.208,0.066,0.372,0.197,0.492c0.129,0.12,0.32,0.18,0.57,0.18c0.281,0,0.549-0.066,0.805-0.196
	c0.254-0.13,0.477-0.307,0.664-0.531c0.188-0.224,0.342-0.492,0.467-0.805c0.074-0.198,0.162-0.541,0.268-1.031l0.516-2.469h0.984
	l-1.203,5.703h-0.893L261.343,79.255L261.343,79.255z M263.647,78.333l0.969-0.062c0,0.281,0.043,0.521,0.133,0.719
	c0.088,0.197,0.246,0.359,0.477,0.484c0.229,0.125,0.5,0.187,0.813,0.187c0.428,0,0.746-0.085,0.961-0.257
	c0.213-0.172,0.32-0.373,0.32-0.602c0-0.167-0.063-0.328-0.188-0.484c-0.137-0.146-0.459-0.331-0.969-0.555
	c-0.512-0.224-0.84-0.378-0.984-0.461c-0.24-0.146-0.422-0.318-0.547-0.516c-0.125-0.197-0.188-0.427-0.188-0.687
	c0-0.448,0.18-0.833,0.539-1.156s0.861-0.485,1.508-0.485c0.719,0,1.266,0.164,1.641,0.493c0.375,0.328,0.566,0.763,0.578,1.304
	l-0.953,0.063c-0.012-0.344-0.131-0.615-0.359-0.813c-0.229-0.198-0.553-0.297-0.969-0.297c-0.344,0-0.607,0.076-0.789,0.227
	c-0.184,0.151-0.273,0.32-0.273,0.508c0,0.177,0.078,0.333,0.234,0.468c0.104,0.094,0.381,0.235,0.828,0.422
	c0.75,0.323,1.219,0.578,1.406,0.766c0.313,0.302,0.469,0.667,0.469,1.094c0,0.281-0.086,0.557-0.258,0.828
	s-0.438,0.487-0.797,0.648c-0.359,0.162-0.779,0.242-1.258,0.242c-0.656,0-1.219-0.161-1.688-0.484
	C263.845,79.604,263.626,79.073,263.647,78.333L263.647,78.333z M273.257,78.349l0.938,0.094c-0.135,0.468-0.449,0.914-0.938,1.336
	c-0.49,0.422-1.072,0.632-1.75,0.632c-0.416,0-0.803-0.096-1.156-0.289c-0.355-0.192-0.625-0.476-0.813-0.851
	s-0.281-0.797-0.281-1.266c0-0.625,0.145-1.232,0.438-1.82c0.291-0.589,0.666-1.024,1.125-1.305
	c0.457-0.281,0.953-0.422,1.484-0.422c0.678,0,1.219,0.211,1.625,0.633s0.609,0.998,0.609,1.727c0,0.281-0.021,0.567-0.063,0.859
	h-4.203c-0.021,0.115-0.031,0.214-0.031,0.297c0,0.531,0.121,0.937,0.367,1.219c0.244,0.281,0.543,0.422,0.898,0.422
	c0.334,0,0.662-0.11,0.984-0.329C272.813,79.068,273.069,78.755,273.257,78.349L273.257,78.349z M270.429,76.927h3.203
	c0-0.094,0-0.161,0-0.203c0-0.49-0.123-0.865-0.367-1.125c-0.244-0.26-0.561-0.391-0.945-0.391c-0.406,0-0.781,0.144-1.125,0.43
	C270.851,75.924,270.595,76.354,270.429,76.927L270.429,76.927z M277.233,77.49l-0.797-2.469h0.766l1.031,2.594l-2.094,2.281h-0.875
	L277.233,77.49L277.233,77.49z M279.327,77.536l-0.797-2.515h0.734l1.094,2.609l-2.172,2.266h-0.781L279.327,77.536L279.327,77.536z
	"/>
</svg>
