<?xml version="1.0" encoding="utf-8"?>
<!-- Generator: Adobe Illustrator 16.0.0, SVG Export Plug-In . SVG Version: 6.00 Build 0)  -->
<!DOCTYPE svg PUBLIC "-//W3C//DTD SVG 1.1//EN" "http://www.w3.org/Graphics/SVG/1.1/DTD/svg11.dtd">
<svg version="1.1" id="Layer_1" xmlns="http://www.w3.org/2000/svg" xmlns:xlink="http://www.w3.org/1999/xlink" x="0px" y="0px"
	 width="396px" height="180px" viewBox="0 0 396 180" enable-background="new 0 0 396 180" xml:space="preserve">
<polygon fill="#FFCC99" points="288.36,21.945 336.36,21.945 336.36,44.945 288.36,44.945 288.36,21.945 "/>
<polygon fill="#FFFFDA" points="287.36,20.945 288.36,20.945 288.36,45.945 287.36,45.945 287.36,20.945 "/>
<polygon fill="#FFFFDA" points="288.36,20.945 336.36,20.945 336.36,21.945 288.36,21.945 288.36,20.945 "/>
<polygon fill="#B28E6B" points="288.36,44.945 337.36,44.945 337.36,45.945 288.36,45.945 288.36,44.945 "/>
<polygon fill="#B28E6B" points="336.36,20.945 337.36,20.945 337.36,44.945 336.36,44.945 336.36,20.945 "/>
<path d="M300.34,39.269h-2.047l-0.813-2.11h-3.719l-0.766,2.11h-2l3.625-9.313h1.984L300.34,39.269L300.34,39.269z M296.872,35.581
	l-1.281-3.453l-1.25,3.453H296.872L296.872,35.581z M301.321,29.956h3.439c0.77,0,1.359,0.063,1.764,0.188
	c0.553,0.156,1.021,0.44,1.406,0.851c0.387,0.412,0.68,0.914,0.883,1.508c0.203,0.594,0.307,1.328,0.307,2.203
	c0,0.76-0.096,1.422-0.281,1.984c-0.23,0.678-0.564,1.224-1,1.641c-0.324,0.313-0.762,0.557-1.314,0.734
	c-0.416,0.136-0.973,0.204-1.672,0.204h-3.531V29.956L301.321,29.956z M303.196,31.534v6.172h1.406c0.533,0,0.912-0.031,1.143-0.094
	c0.301-0.073,0.555-0.2,0.758-0.382c0.203-0.183,0.367-0.482,0.492-0.899s0.186-0.984,0.186-1.703c0-0.719-0.061-1.271-0.186-1.656
	c-0.125-0.386-0.303-0.688-0.531-0.907c-0.23-0.218-0.521-0.364-0.875-0.437c-0.262-0.063-0.777-0.094-1.547-0.094H303.196
	L303.196,31.534z M310.334,34.674c0-0.948,0.141-1.745,0.422-2.391c0.219-0.469,0.512-0.893,0.875-1.273
	c0.365-0.38,0.766-0.659,1.203-0.836c0.574-0.25,1.24-0.375,2-0.375c1.375,0,2.475,0.427,3.297,1.281
	c0.824,0.854,1.234,2.037,1.234,3.547c0,1.5-0.408,2.674-1.227,3.523c-0.816,0.849-1.908,1.274-3.273,1.274
	c-1.385,0-2.486-0.422-3.305-1.266C310.745,37.314,310.334,36.153,310.334,34.674L310.334,34.674z M312.272,34.611
	c0,1.052,0.246,1.849,0.734,2.391c0.49,0.542,1.104,0.812,1.844,0.812c0.75,0,1.367-0.268,1.852-0.804
	c0.484-0.537,0.727-1.347,0.727-2.43c0-1.062-0.234-1.857-0.703-2.383c-0.469-0.526-1.094-0.789-1.875-0.789
	c-0.77,0-1.393,0.266-1.867,0.797C312.51,32.736,312.272,33.539,312.272,34.611L312.272,34.611z M320.821,39.269v-9.313h1.781v9.313
	H320.821L320.821,39.269z M324.434,31.611v-1.656h1.781v1.656H324.434L324.434,31.611z M324.434,39.269v-6.735h1.781v6.735H324.434
	L324.434,39.269z M327.967,39.269v-9.313h1.781v3.359c0.553-0.625,1.203-0.937,1.953-0.937c0.822,0,1.504,0.297,2.039,0.891
	c0.535,0.593,0.805,1.447,0.805,2.562c0,1.146-0.273,2.031-0.82,2.656s-1.211,0.938-1.992,0.938c-0.385,0-0.766-0.097-1.141-0.289
	c-0.375-0.193-0.697-0.477-0.969-0.852v0.985H327.967L327.967,39.269z M329.733,35.752c0,0.698,0.109,1.213,0.328,1.547
	c0.313,0.479,0.725,0.719,1.234,0.719c0.396,0,0.73-0.17,1.008-0.508c0.277-0.339,0.414-0.873,0.414-1.602
	c0-0.76-0.137-1.312-0.414-1.656c-0.277-0.344-0.633-0.516-1.07-0.516c-0.428,0-0.783,0.167-1.07,0.5
	C329.875,34.57,329.733,35.076,329.733,35.752L329.733,35.752z"/>
<polygon fill="#FFDD00" points="139.36,84.945 227.36,84.945 227.36,132.945 139.36,132.945 139.36,84.945 "/>
<polygon fill="#FFFF00" points="138.36,83.945 139.36,83.945 139.36,133.945 138.36,133.945 138.36,83.945 "/>
<polygon fill="#FFFF00" points="139.36,83.945 227.36,83.945 227.36,84.945 139.36,84.945 139.36,83.945 "/>
<polygon fill="#B29A00" points="139.36,132.945 228.36,132.945 228.36,133.945 139.36,133.945 139.36,132.945 "/>
<polygon fill="#B29A00" points="227.36,83.945 228.36,83.945 228.36,132.945 227.36,132.945 227.36,83.945 "/>
<path d="M147.694,98.185V97.2l5.688-2.406v1.047l-4.516,1.844l4.516,1.875v1.047L147.694,98.185L147.694,98.185z M154.702,98.185
	V97.2l5.687-2.406v1.047l-4.515,1.844l4.515,1.875v1.047L154.702,98.185L154.702,98.185z M161.85,94.56v-1.219h1.063v1.219H161.85
	L161.85,94.56z M161.85,101.935v-6.219h1.063v6.219H161.85L161.85,101.935z M164.516,101.935v-6.219h0.938v0.875
	c0.458-0.678,1.12-1.016,1.984-1.016c0.375,0,0.722,0.067,1.039,0.203c0.318,0.135,0.555,0.313,0.711,0.531
	c0.156,0.219,0.266,0.474,0.328,0.766c0.032,0.197,0.047,0.541,0.047,1.031v3.828h-1.047v-3.781c0-0.438-0.041-0.761-0.125-0.969
	c-0.083-0.208-0.229-0.378-0.437-0.508s-0.453-0.195-0.735-0.195c-0.447,0-0.835,0.144-1.164,0.43
	c-0.328,0.286-0.492,0.825-0.492,1.617v3.406H164.516L164.516,101.935z M173.487,100.996l0.156,0.923
	c-0.302,0.063-0.567,0.094-0.797,0.094c-0.385,0-0.682-0.061-0.89-0.181c-0.209-0.118-0.357-0.277-0.445-0.476
	c-0.089-0.198-0.133-0.615-0.133-1.25v-3.578h-0.766v-0.813h0.766v-1.547l1.047-0.625v2.172h1.062v0.813h-1.062v3.641
	c0,0.302,0.018,0.494,0.054,0.577c0.037,0.084,0.097,0.151,0.18,0.204s0.203,0.078,0.359,0.078
	C173.143,101.028,173.3,101.018,173.487,100.996L173.487,100.996z M178.774,99.935l1.094,0.125c-0.167,0.635-0.484,1.13-0.953,1.484
	c-0.469,0.354-1.063,0.531-1.781,0.531c-0.907,0-1.628-0.281-2.165-0.844c-0.536-0.563-0.804-1.349-0.804-2.36
	c0-1.041,0.271-1.851,0.812-2.429c0.542-0.578,1.24-0.867,2.094-0.867c0.833,0,1.513,0.281,2.039,0.844s0.789,1.359,0.789,2.391
	c0,0.062,0,0.156,0,0.281h-4.64c0.041,0.688,0.234,1.211,0.578,1.57c0.343,0.359,0.776,0.539,1.297,0.539
	c0.385,0,0.716-0.102,0.992-0.305C178.402,100.692,178.618,100.371,178.774,99.935L178.774,99.935z M175.321,98.231h3.469
	c-0.042-0.531-0.172-0.927-0.391-1.188c-0.344-0.406-0.781-0.609-1.312-0.609c-0.49,0-0.899,0.161-1.227,0.484
	C175.532,97.241,175.352,97.68,175.321,98.231L175.321,98.231z M181.182,101.935v-6.219h0.954v0.938
	c0.239-0.438,0.46-0.727,0.664-0.867c0.203-0.141,0.429-0.211,0.679-0.211c0.354,0,0.714,0.109,1.078,0.328l-0.359,0.984
	c-0.26-0.156-0.516-0.234-0.766-0.234c-0.239,0-0.45,0.07-0.632,0.211c-0.183,0.141-0.31,0.336-0.383,0.586
	c-0.125,0.375-0.188,0.781-0.188,1.219v3.266H181.182L181.182,101.935z M185.444,101.935v-5.406h-0.937v-0.813h0.937v-0.672
	c0-0.416,0.037-0.725,0.109-0.923c0.105-0.28,0.284-0.505,0.54-0.671c0.255-0.167,0.612-0.25,1.07-0.25
	c0.302,0,0.63,0.036,0.984,0.109l-0.156,0.906c-0.219-0.031-0.427-0.047-0.625-0.047c-0.323,0-0.549,0.067-0.68,0.202
	c-0.13,0.137-0.195,0.392-0.195,0.767v0.578h1.219v0.813h-1.219v5.406H185.444L185.444,101.935z M192.591,101.169
	c-0.396,0.334-0.774,0.567-1.133,0.702c-0.36,0.137-0.748,0.204-1.164,0.204c-0.688,0-1.214-0.167-1.578-0.5
	c-0.365-0.334-0.547-0.761-0.547-1.281c0-0.303,0.067-0.58,0.203-0.836c0.135-0.256,0.318-0.458,0.547-0.609
	s0.484-0.263,0.765-0.336c0.198-0.063,0.511-0.12,0.938-0.172c0.844-0.095,1.469-0.213,1.875-0.359c0-0.146,0-0.235,0-0.266
	c0-0.438-0.099-0.745-0.297-0.922c-0.271-0.229-0.672-0.344-1.203-0.344c-0.49,0-0.854,0.086-1.094,0.257
	c-0.239,0.173-0.417,0.478-0.531,0.914l-1.031-0.14c0.093-0.438,0.25-0.792,0.468-1.063c0.219-0.271,0.532-0.479,0.938-0.625
	c0.406-0.146,0.875-0.219,1.406-0.219s0.964,0.063,1.297,0.188s0.578,0.281,0.734,0.469c0.157,0.188,0.266,0.427,0.328,0.719
	c0.032,0.178,0.047,0.5,0.047,0.969v1.406c0,0.979,0.024,1.6,0.071,1.859s0.138,0.51,0.273,0.75h-1.109
	C192.69,101.716,192.622,101.461,192.591,101.169L192.591,101.169z M192.497,98.81c-0.386,0.156-0.958,0.292-1.719,0.406
	c-0.437,0.063-0.745,0.133-0.922,0.211c-0.177,0.078-0.315,0.189-0.414,0.336c-0.099,0.146-0.148,0.313-0.148,0.5
	c0,0.281,0.106,0.516,0.32,0.703s0.523,0.28,0.93,0.28c0.406,0,0.768-0.088,1.086-0.265c0.317-0.177,0.549-0.422,0.695-0.735
	c0.115-0.238,0.172-0.588,0.172-1.046V98.81L192.497,98.81z M199.264,99.653l1.031,0.141c-0.115,0.709-0.406,1.266-0.875,1.672
	c-0.469,0.405-1.041,0.609-1.719,0.609c-0.854,0-1.539-0.278-2.055-0.836c-0.515-0.558-0.773-1.356-0.773-2.398
	c0-0.666,0.112-1.252,0.336-1.759c0.224-0.505,0.562-0.882,1.015-1.132c0.453-0.25,0.951-0.375,1.493-0.375
	c0.666,0,1.216,0.169,1.648,0.508s0.711,0.825,0.836,1.461L199.17,97.7c-0.094-0.417-0.266-0.731-0.516-0.945
	c-0.25-0.213-0.552-0.32-0.906-0.32c-0.531,0-0.964,0.19-1.297,0.57s-0.5,0.981-0.5,1.805c0,0.844,0.161,1.453,0.484,1.828
	c0.323,0.375,0.74,0.563,1.25,0.563c0.417,0,0.764-0.125,1.039-0.375S199.18,100.185,199.264,99.653L199.264,99.653z
	 M205.452,99.935l1.094,0.125c-0.166,0.635-0.484,1.13-0.953,1.484c-0.469,0.354-1.063,0.531-1.781,0.531
	c-0.906,0-1.627-0.281-2.164-0.844s-0.805-1.349-0.805-2.36c0-1.041,0.27-1.851,0.813-2.429c0.541-0.578,1.24-0.867,2.094-0.867
	c0.834,0,1.514,0.281,2.039,0.844s0.789,1.359,0.789,2.391c0,0.062,0,0.156,0,0.281h-4.641c0.041,0.688,0.234,1.211,0.578,1.57
	s0.775,0.539,1.297,0.539c0.387,0,0.715-0.102,0.992-0.305S205.295,100.371,205.452,99.935L205.452,99.935z M201.999,98.231h3.469
	c-0.041-0.531-0.172-0.927-0.391-1.188c-0.344-0.406-0.781-0.609-1.313-0.609c-0.49,0-0.898,0.161-1.227,0.484
	C202.209,97.241,202.03,97.68,201.999,98.231L201.999,98.231z M213.422,98.185l-5.688,2.422V99.56l4.5-1.875l-4.5-1.844v-1.047
	l5.688,2.406V98.185L213.422,98.185z M220.43,98.185l-5.688,2.422V99.56l4.5-1.875l-4.5-1.844v-1.047l5.688,2.406V98.185
	L220.43,98.185z"/>
<path d="M157.151,126.641v-9.313h1.875v9.313H157.151L157.151,126.641z M160.872,126.641v-9.234h1.875v7.672h4.672v1.563H160.872
	L160.872,126.641z M168.751,118.984v-1.656h1.781v1.656H168.751L168.751,118.984z M168.751,126.641v-6.734h1.781v6.734H168.751
	L168.751,126.641z M175.456,119.906v1.422h-1.219v2.703c0,0.553,0.011,0.875,0.032,0.97c0.02,0.094,0.072,0.169,0.156,0.226
	c0.083,0.058,0.182,0.086,0.297,0.086c0.166,0,0.406-0.057,0.718-0.172l0.157,1.391c-0.417,0.178-0.886,0.267-1.407,0.267
	c-0.322,0-0.614-0.056-0.875-0.164c-0.26-0.11-0.45-0.25-0.57-0.422c-0.12-0.173-0.2-0.404-0.242-0.696
	c-0.042-0.208-0.063-0.625-0.063-1.25v-2.938h-0.812v-1.422h0.812v-1.344l1.797-1.047v2.391H175.456L175.456,119.906z
	 M180.598,124.501l1.765,0.297c-0.229,0.646-0.588,1.14-1.078,1.483c-0.489,0.345-1.104,0.517-1.844,0.517
	c-1.177,0-2.046-0.387-2.609-1.157c-0.448-0.614-0.672-1.385-0.672-2.313c0-1.125,0.294-2.003,0.883-2.633
	c0.589-0.63,1.326-0.944,2.211-0.944c1.01,0,1.805,0.33,2.383,0.991c0.578,0.662,0.851,1.676,0.82,3.039h-4.469
	c0.021,0.531,0.167,0.943,0.438,1.234c0.271,0.292,0.614,0.438,1.031,0.438c0.281,0,0.516-0.075,0.703-0.227
	C180.348,125.075,180.494,124.834,180.598,124.501L180.598,124.501z M180.691,122.688c-0.01-0.51-0.143-0.901-0.398-1.172
	c-0.255-0.271-0.565-0.406-0.93-0.406c-0.385,0-0.708,0.142-0.968,0.422c-0.25,0.292-0.375,0.678-0.375,1.156H180.691
	L180.691,122.688z M192.328,126.641h-2.047l-0.813-2.109h-3.718l-0.766,2.109h-2l3.625-9.313h1.984L192.328,126.641L192.328,126.641
	z M188.859,122.953l-1.281-3.452l-1.25,3.452H188.859L188.859,122.953z M193.31,117.328h3.438c0.771,0,1.358,0.063,1.765,0.188
	c0.553,0.157,1.021,0.44,1.406,0.852c0.385,0.412,0.68,0.914,0.883,1.509c0.203,0.594,0.305,1.327,0.305,2.202
	c0,0.761-0.094,1.423-0.281,1.984c-0.229,0.677-0.563,1.224-1,1.641c-0.322,0.313-0.76,0.558-1.313,0.734
	c-0.417,0.136-0.973,0.203-1.671,0.203h-3.531V117.328L193.31,117.328z M195.185,118.906v6.172h1.406c0.531,0,0.911-0.03,1.14-0.094
	c0.304-0.073,0.556-0.2,0.758-0.383c0.203-0.182,0.367-0.481,0.492-0.898s0.188-0.983,0.188-1.702c0-0.72-0.063-1.271-0.188-1.656
	c-0.125-0.386-0.303-0.688-0.531-0.907c-0.229-0.218-0.521-0.364-0.875-0.437c-0.26-0.063-0.776-0.095-1.547-0.095H195.185
	L195.185,118.906z M202.323,122.048c0-0.948,0.141-1.745,0.422-2.392c0.219-0.469,0.51-0.893,0.875-1.272
	c0.363-0.381,0.766-0.659,1.203-0.836c0.572-0.25,1.238-0.375,2-0.375c1.375,0,2.475,0.427,3.297,1.28
	c0.822,0.854,1.234,2.036,1.234,3.548c0,1.5-0.41,2.674-1.227,3.522c-0.818,0.849-1.908,1.274-3.273,1.274
	c-1.385,0-2.486-0.422-3.305-1.267C202.731,124.688,202.323,123.526,202.323,122.048L202.323,122.048z M204.26,121.984
	c0,1.052,0.244,1.85,0.734,2.392c0.488,0.542,1.104,0.812,1.844,0.812c0.75,0,1.367-0.268,1.852-0.804
	c0.484-0.537,0.727-1.348,0.727-2.431c0-1.063-0.234-1.856-0.703-2.383c-0.469-0.525-1.094-0.789-1.875-0.789
	c-0.771,0-1.393,0.267-1.867,0.797C204.497,120.109,204.26,120.911,204.26,121.984L204.26,121.984z"/>
<polygon fill="#BFFFBF" points="8.36,131.945 86.36,131.945 86.36,169.945 8.36,169.945 8.36,131.945 "/>
<polygon fill="#FFFFFF" points="7.36,130.945 8.36,130.945 8.36,170.945 7.36,170.945 7.36,130.945 "/>
<polygon fill="#FFFFFF" points="8.36,130.945 86.36,130.945 86.36,131.945 8.36,131.945 8.36,130.945 "/>
<polygon fill="#85B285" points="8.36,169.945 87.36,169.945 87.36,170.945 8.36,170.945 8.36,169.945 "/>
<polygon fill="#85B285" points="86.36,130.945 87.36,130.945 87.36,169.945 86.36,169.945 86.36,130.945 "/>
<path d="M33.045,149.507h-2.047l-0.812-2.109h-3.719l-0.766,2.109h-2l3.625-9.313h1.985L33.045,149.507L33.045,149.507z
	 M29.576,145.819l-1.281-3.454l-1.25,3.454H29.576L29.576,145.819z M34.027,140.194h3.438c0.771,0,1.359,0.063,1.765,0.188
	c0.552,0.155,1.021,0.439,1.407,0.852c0.385,0.411,0.679,0.914,0.882,1.507c0.203,0.595,0.305,1.329,0.305,2.204
	c0,0.76-0.094,1.421-0.281,1.984c-0.229,0.677-0.563,1.224-1,1.641c-0.323,0.313-0.761,0.558-1.313,0.734
	c-0.416,0.135-0.974,0.203-1.672,0.203h-3.531V140.194L34.027,140.194z M35.902,141.772v6.172h1.406
	c0.532,0,0.912-0.032,1.141-0.094c0.302-0.073,0.555-0.201,0.758-0.383c0.203-0.183,0.367-0.482,0.492-0.898
	c0.125-0.417,0.188-0.984,0.188-1.704c0-0.718-0.063-1.27-0.188-1.655s-0.302-0.688-0.531-0.906s-0.521-0.365-0.875-0.438
	c-0.261-0.062-0.776-0.093-1.547-0.093H35.902L35.902,141.772z M43.04,144.912c0-0.947,0.141-1.743,0.422-2.39
	c0.219-0.469,0.511-0.894,0.875-1.274c0.365-0.38,0.766-0.658,1.203-0.836c0.573-0.25,1.24-0.375,2-0.375
	c1.375,0,2.474,0.428,3.297,1.282c0.823,0.854,1.235,2.036,1.235,3.546c0,1.5-0.409,2.676-1.227,3.524s-1.909,1.272-3.273,1.272
	c-1.386,0-2.487-0.422-3.305-1.265C43.449,147.554,43.04,146.392,43.04,144.912L43.04,144.912z M44.978,144.851
	c0,1.052,0.245,1.849,0.734,2.39c0.49,0.542,1.104,0.813,1.844,0.813c0.75,0,1.367-0.269,1.852-0.806
	c0.484-0.535,0.726-1.346,0.726-2.429c0-1.063-0.234-1.856-0.703-2.383c-0.469-0.526-1.094-0.789-1.875-0.789
	c-0.771,0-1.393,0.265-1.867,0.797C45.215,142.976,44.978,143.777,44.978,144.851L44.978,144.851z M53.527,140.194h3.438
	c0.771,0,1.359,0.063,1.765,0.188c0.552,0.155,1.021,0.439,1.407,0.852c0.385,0.411,0.679,0.914,0.882,1.507
	c0.203,0.595,0.305,1.329,0.305,2.204c0,0.76-0.094,1.421-0.281,1.984c-0.229,0.677-0.563,1.224-1,1.641
	c-0.323,0.313-0.761,0.558-1.313,0.734c-0.416,0.135-0.974,0.203-1.672,0.203h-3.531V140.194L53.527,140.194z M55.402,141.772v6.172
	h1.406c0.532,0,0.912-0.032,1.141-0.094c0.302-0.073,0.555-0.201,0.758-0.383c0.203-0.183,0.367-0.482,0.492-0.898
	c0.125-0.417,0.188-0.984,0.188-1.704c0-0.718-0.063-1.27-0.188-1.655s-0.302-0.688-0.531-0.906s-0.521-0.365-0.875-0.438
	c-0.261-0.062-0.776-0.093-1.547-0.093H55.402L55.402,141.772z M62.931,140.194h3.719c0.739,0,1.289,0.031,1.648,0.093
	c0.36,0.063,0.682,0.193,0.969,0.392c0.286,0.198,0.526,0.458,0.719,0.781c0.192,0.322,0.289,0.682,0.289,1.077
	c0,0.438-0.12,0.84-0.36,1.203c-0.239,0.365-0.557,0.642-0.953,0.829c0.563,0.156,0.998,0.435,1.305,0.836
	c0.307,0.401,0.461,0.867,0.461,1.398c0,0.427-0.099,0.841-0.297,1.242c-0.198,0.4-0.466,0.721-0.805,0.961
	c-0.338,0.239-0.758,0.385-1.258,0.438c-0.312,0.031-1.067,0.052-2.265,0.063h-3.172V140.194L62.931,140.194z M64.806,141.757v2.141
	h1.234c0.73,0,1.183-0.011,1.36-0.032c0.323-0.03,0.578-0.14,0.765-0.328c0.188-0.187,0.282-0.432,0.282-0.733
	c0-0.281-0.081-0.513-0.243-0.695c-0.161-0.183-0.398-0.289-0.711-0.321c-0.187-0.021-0.723-0.03-1.609-0.03H64.806L64.806,141.757z
	 M64.806,145.444v2.5h1.75c0.677,0,1.104-0.021,1.281-0.063c0.281-0.053,0.511-0.178,0.688-0.375
	c0.177-0.198,0.265-0.458,0.265-0.781c0-0.281-0.067-0.521-0.203-0.719c-0.135-0.198-0.333-0.341-0.594-0.431
	c-0.26-0.088-0.817-0.132-1.671-0.132H64.806L64.806,145.444z"/>
<path d="M22.66,162.011l1.813,0.579c-0.281,1.01-0.745,1.763-1.391,2.257c-0.645,0.495-1.468,0.743-2.468,0.743
	c-1.24,0-2.258-0.422-3.055-1.267c-0.797-0.844-1.195-2-1.195-3.469c0-1.541,0.401-2.742,1.203-3.601
	c0.802-0.86,1.854-1.289,3.156-1.289c1.135,0,2.062,0.338,2.781,1.015c0.417,0.396,0.735,0.969,0.953,1.719l-1.859,0.438
	c-0.115-0.479-0.346-0.859-0.695-1.141c-0.349-0.28-0.774-0.422-1.274-0.422c-0.687,0-1.247,0.247-1.679,0.742
	c-0.433,0.495-0.649,1.3-0.649,2.414c0,1.167,0.214,2,0.641,2.5c0.427,0.5,0.979,0.75,1.656,0.75c0.5,0,0.93-0.159,1.289-0.476
	C22.246,163.186,22.504,162.688,22.66,162.011L22.66,162.011z M25.658,161.965c0-0.595,0.146-1.167,0.438-1.72
	c0.291-0.552,0.705-0.974,1.242-1.266c0.536-0.291,1.138-0.437,1.804-0.437c1.011,0,1.844,0.329,2.5,0.991
	c0.657,0.661,0.985,1.497,0.985,2.509c0,1.021-0.331,1.866-0.992,2.538c-0.662,0.673-1.493,1.009-2.493,1.009
	c-0.614,0-1.203-0.142-1.765-0.422c-0.563-0.282-0.99-0.69-1.281-1.228C25.804,163.404,25.658,162.745,25.658,161.965
	L25.658,161.965z M27.486,162.058c0,0.667,0.159,1.18,0.477,1.539c0.317,0.359,0.711,0.539,1.179,0.539
	c0.469,0,0.86-0.18,1.172-0.539c0.313-0.359,0.469-0.877,0.469-1.554c0-0.657-0.156-1.162-0.469-1.517
	c-0.312-0.354-0.703-0.531-1.172-0.531c-0.468,0-0.862,0.178-1.179,0.531C27.645,160.881,27.486,161.392,27.486,162.058
	L27.486,162.058z M33.88,158.698h1.641v0.906c0.594-0.708,1.297-1.062,2.109-1.062c0.427,0,0.8,0.088,1.117,0.265
	c0.318,0.177,0.581,0.443,0.789,0.797c0.292-0.354,0.61-0.62,0.954-0.797c0.343-0.177,0.708-0.265,1.093-0.265
	c0.5,0,0.922,0.099,1.266,0.297c0.344,0.197,0.599,0.494,0.766,0.89c0.125,0.281,0.187,0.745,0.187,1.391v4.313h-1.781v-3.859
	c0-0.667-0.063-1.094-0.188-1.28c-0.166-0.262-0.422-0.392-0.765-0.392c-0.25,0-0.485,0.076-0.703,0.228
	c-0.219,0.15-0.378,0.375-0.477,0.672c-0.099,0.296-0.148,0.763-0.148,1.397v3.234h-1.782v-3.688c0-0.655-0.031-1.081-0.093-1.273
	c-0.063-0.192-0.162-0.336-0.297-0.429c-0.136-0.095-0.318-0.142-0.547-0.142c-0.271,0-0.516,0.076-0.735,0.228
	c-0.218,0.15-0.377,0.363-0.476,0.64c-0.099,0.276-0.149,0.737-0.149,1.383v3.281H33.88V158.698L33.88,158.698z M45.439,158.698
	h1.641v0.906c0.594-0.708,1.297-1.062,2.109-1.062c0.427,0,0.8,0.088,1.117,0.265c0.318,0.177,0.581,0.443,0.79,0.797
	c0.291-0.354,0.609-0.62,0.953-0.797c0.343-0.177,0.708-0.265,1.093-0.265c0.5,0,0.922,0.099,1.266,0.297
	c0.344,0.197,0.599,0.494,0.766,0.89c0.125,0.281,0.187,0.745,0.187,1.391v4.313H53.58v-3.859c0-0.667-0.063-1.094-0.188-1.28
	c-0.166-0.262-0.421-0.392-0.765-0.392c-0.25,0-0.485,0.076-0.703,0.228c-0.219,0.15-0.378,0.375-0.477,0.672
	c-0.099,0.296-0.148,0.763-0.148,1.397v3.234h-1.782v-3.688c0-0.655-0.031-1.081-0.093-1.273c-0.063-0.192-0.162-0.336-0.297-0.429
	c-0.136-0.095-0.318-0.142-0.547-0.142c-0.271,0-0.516,0.076-0.734,0.228c-0.219,0.15-0.378,0.363-0.477,0.64
	c-0.099,0.276-0.148,0.737-0.148,1.383v3.281h-1.782V158.698L45.439,158.698z M58.467,160.745l-1.625-0.297
	c0.188-0.646,0.503-1.125,0.945-1.438c0.443-0.313,1.102-0.468,1.977-0.468c0.802,0,1.396,0.093,1.781,0.28
	c0.386,0.188,0.659,0.428,0.821,0.72c0.161,0.291,0.242,0.822,0.242,1.593l-0.016,2.079c0,0.593,0.029,1.03,0.086,1.312
	s0.164,0.583,0.32,0.906h-1.765c-0.052-0.114-0.11-0.291-0.172-0.531c-0.031-0.104-0.052-0.172-0.063-0.203
	c-0.313,0.292-0.64,0.514-0.984,0.664c-0.344,0.151-0.714,0.228-1.109,0.228c-0.698,0-1.245-0.191-1.641-0.571
	s-0.594-0.856-0.594-1.429c0-0.375,0.091-0.714,0.274-1.017c0.182-0.302,0.437-0.53,0.765-0.688c0.328-0.156,0.8-0.296,1.414-0.421
	c0.834-0.157,1.412-0.303,1.735-0.438v-0.172c0-0.344-0.086-0.588-0.258-0.734c-0.172-0.146-0.492-0.219-0.961-0.219
	c-0.313,0-0.557,0.063-0.734,0.188C58.728,160.215,58.582,160.433,58.467,160.745L58.467,160.745z M60.858,162.198
	c-0.229,0.073-0.591,0.161-1.086,0.267c-0.495,0.104-0.821,0.208-0.977,0.312c-0.229,0.167-0.344,0.375-0.344,0.625
	s0.094,0.466,0.282,0.649c0.187,0.182,0.422,0.272,0.703,0.272c0.323,0,0.63-0.104,0.922-0.313c0.218-0.156,0.359-0.354,0.422-0.593
	c0.052-0.146,0.078-0.434,0.078-0.86V162.198L60.858,162.198z M70.494,165.433h-1.781v-3.438c0-0.729-0.039-1.2-0.117-1.414
	c-0.079-0.214-0.204-0.38-0.375-0.5c-0.172-0.119-0.378-0.18-0.618-0.18c-0.302,0-0.575,0.086-0.82,0.258s-0.414,0.396-0.508,0.672
	c-0.094,0.276-0.14,0.795-0.14,1.555v3.047h-1.782v-6.734h1.657v0.984c0.583-0.76,1.323-1.14,2.218-1.14
	c0.396,0,0.756,0.069,1.078,0.211c0.323,0.14,0.571,0.319,0.743,0.539c0.172,0.218,0.289,0.468,0.351,0.75
	c0.063,0.28,0.094,0.682,0.094,1.202V165.433L70.494,165.433z M78.482,165.433h-1.656v-0.984c-0.271,0.386-0.594,0.672-0.969,0.859
	s-0.75,0.282-1.125,0.282c-0.781,0-1.448-0.313-2-0.938c-0.552-0.625-0.828-1.495-0.828-2.608c0-1.146,0.268-2.017,0.804-2.61
	c0.537-0.593,1.216-0.89,2.039-0.89c0.75,0,1.401,0.312,1.954,0.937v-3.359h1.781V165.433L78.482,165.433z M73.732,161.918
	c0,0.718,0.099,1.238,0.297,1.562c0.281,0.469,0.682,0.703,1.203,0.703c0.406,0,0.755-0.174,1.047-0.523
	c0.291-0.349,0.437-0.872,0.437-1.569c0-0.771-0.14-1.329-0.422-1.672c-0.281-0.345-0.64-0.517-1.078-0.517
	c-0.417,0-0.768,0.169-1.055,0.508C73.875,160.747,73.732,161.251,73.732,161.918L73.732,161.918z"/>
<polygon fill="#BFFFBF" points="8.36,72.945 86.36,72.945 86.36,110.945 8.36,110.945 8.36,72.945 "/>
<polygon fill="#FFFFFF" points="7.36,71.945 8.36,71.945 8.36,111.945 7.36,111.945 7.36,71.945 "/>
<polygon fill="#FFFFFF" points="8.36,71.945 86.36,71.945 86.36,72.945 8.36,72.945 8.36,71.945 "/>
<polygon fill="#85B285" points="8.36,110.945 87.36,110.945 87.36,111.945 8.36,111.945 8.36,110.945 "/>
<polygon fill="#85B285" points="86.36,71.945 87.36,71.945 87.36,110.945 86.36,110.945 86.36,71.945 "/>
<path d="M33.045,90.638h-2.047l-0.812-2.11h-3.719l-0.766,2.11h-2l3.625-9.313h1.985L33.045,90.638L33.045,90.638z M29.576,86.95
	l-1.281-3.453l-1.25,3.453H29.576L29.576,86.95z M34.027,81.325h3.438c0.771,0,1.359,0.063,1.765,0.188
	c0.552,0.156,1.021,0.44,1.407,0.851c0.385,0.412,0.679,0.914,0.882,1.508c0.203,0.594,0.305,1.328,0.305,2.203
	c0,0.761-0.094,1.422-0.281,1.985c-0.229,0.677-0.563,1.224-1,1.64c-0.323,0.313-0.761,0.558-1.313,0.735
	c-0.416,0.135-0.974,0.203-1.672,0.203h-3.531V81.325L34.027,81.325z M35.902,82.902v6.172h1.406c0.532,0,0.912-0.031,1.141-0.093
	c0.302-0.073,0.555-0.201,0.758-0.383c0.203-0.183,0.367-0.482,0.492-0.899c0.125-0.416,0.188-0.984,0.188-1.703
	c0-0.719-0.063-1.271-0.188-1.656c-0.125-0.385-0.302-0.688-0.531-0.906c-0.229-0.219-0.521-0.365-0.875-0.438
	c-0.261-0.062-0.776-0.094-1.547-0.094H35.902L35.902,82.902z M43.04,86.043c0-0.948,0.141-1.745,0.422-2.391
	c0.219-0.468,0.511-0.893,0.875-1.273c0.365-0.38,0.766-0.659,1.203-0.836c0.573-0.25,1.24-0.375,2-0.375
	c1.375,0,2.474,0.427,3.297,1.281c0.823,0.854,1.235,2.037,1.235,3.547c0,1.5-0.409,2.675-1.227,3.524s-1.909,1.273-3.273,1.273
	c-1.386,0-2.487-0.422-3.305-1.266C43.449,88.685,43.04,87.522,43.04,86.043L43.04,86.043z M44.978,85.981
	c0,1.052,0.245,1.849,0.734,2.39c0.49,0.542,1.104,0.813,1.844,0.813c0.75,0,1.367-0.269,1.852-0.805
	c0.484-0.536,0.726-1.346,0.726-2.43c0-1.062-0.234-1.856-0.703-2.383c-0.469-0.526-1.094-0.789-1.875-0.789
	c-0.771,0-1.393,0.266-1.867,0.797C45.215,84.106,44.978,84.909,44.978,85.981L44.978,85.981z M53.527,81.325h3.438
	c0.771,0,1.359,0.063,1.765,0.188c0.552,0.156,1.021,0.44,1.407,0.851c0.385,0.412,0.679,0.914,0.882,1.508
	c0.203,0.594,0.305,1.328,0.305,2.203c0,0.761-0.094,1.422-0.281,1.985c-0.229,0.677-0.563,1.224-1,1.64
	c-0.323,0.313-0.761,0.558-1.313,0.735c-0.416,0.135-0.974,0.203-1.672,0.203h-3.531V81.325L53.527,81.325z M55.402,82.902v6.172
	h1.406c0.532,0,0.912-0.031,1.141-0.093c0.302-0.073,0.555-0.201,0.758-0.383c0.203-0.183,0.367-0.482,0.492-0.899
	c0.125-0.416,0.188-0.984,0.188-1.703c0-0.719-0.063-1.271-0.188-1.656c-0.125-0.385-0.302-0.688-0.531-0.906
	c-0.229-0.219-0.521-0.365-0.875-0.438c-0.261-0.062-0.776-0.094-1.547-0.094H55.402L55.402,82.902z M62.931,81.325h3.719
	c0.739,0,1.289,0.032,1.648,0.094c0.36,0.063,0.682,0.193,0.969,0.391c0.286,0.198,0.526,0.458,0.719,0.781
	c0.192,0.323,0.289,0.682,0.289,1.078c0,0.438-0.12,0.839-0.36,1.203c-0.239,0.365-0.557,0.641-0.953,0.828
	c0.563,0.157,0.998,0.435,1.305,0.836c0.307,0.401,0.461,0.867,0.461,1.399c0,0.427-0.099,0.841-0.297,1.242
	c-0.198,0.401-0.466,0.721-0.805,0.961c-0.338,0.239-0.758,0.385-1.258,0.437c-0.312,0.032-1.067,0.052-2.265,0.063h-3.172V81.325
	L62.931,81.325z M64.806,82.888v2.14h1.234c0.73,0,1.183-0.01,1.36-0.031c0.323-0.031,0.578-0.14,0.765-0.328
	c0.188-0.187,0.282-0.432,0.282-0.734c0-0.282-0.081-0.513-0.243-0.696c-0.161-0.182-0.398-0.289-0.711-0.32
	c-0.187-0.021-0.723-0.031-1.609-0.031H64.806L64.806,82.888z M64.806,86.575v2.5h1.75c0.677,0,1.104-0.021,1.281-0.062
	c0.281-0.052,0.511-0.177,0.688-0.375c0.177-0.198,0.265-0.459,0.265-0.781c0-0.282-0.067-0.521-0.203-0.719
	c-0.135-0.198-0.333-0.341-0.594-0.43c-0.26-0.088-0.817-0.133-1.671-0.133H64.806L64.806,86.575z"/>
<path d="M18.693,103.142l1.813,0.578c-0.282,1.011-0.745,1.763-1.391,2.258s-1.469,0.742-2.469,0.742
	c-1.239,0-2.257-0.422-3.054-1.266s-1.196-2-1.196-3.469c0-1.542,0.401-2.742,1.203-3.602c0.803-0.859,1.855-1.289,3.157-1.289
	c1.135,0,2.062,0.339,2.781,1.016c0.417,0.396,0.734,0.969,0.953,1.719l-1.859,0.438c-0.115-0.479-0.347-0.859-0.696-1.14
	c-0.349-0.282-0.773-0.423-1.273-0.423c-0.688,0-1.247,0.247-1.68,0.742c-0.432,0.495-0.648,1.299-0.648,2.414
	c0,1.167,0.213,2,0.64,2.5c0.428,0.5,0.98,0.75,1.657,0.75c0.5,0,0.929-0.159,1.289-0.477
	C18.279,104.316,18.537,103.818,18.693,103.142L18.693,103.142z M21.691,103.095c0-0.593,0.146-1.166,0.437-1.718
	c0.292-0.554,0.706-0.975,1.242-1.267c0.537-0.292,1.138-0.438,1.805-0.438c1.011,0,1.844,0.331,2.5,0.993
	c0.656,0.66,0.984,1.496,0.984,2.507c0,1.021-0.33,1.868-0.992,2.54c-0.661,0.671-1.492,1.007-2.492,1.007
	c-0.614,0-1.203-0.141-1.766-0.422c-0.562-0.281-0.989-0.69-1.281-1.227C21.837,104.534,21.691,103.877,21.691,103.095
	L21.691,103.095z M23.519,103.188c0,0.667,0.159,1.18,0.476,1.539c0.318,0.36,0.711,0.539,1.18,0.539s0.859-0.179,1.172-0.539
	c0.312-0.359,0.469-0.877,0.469-1.555c0-0.656-0.157-1.161-0.469-1.516c-0.313-0.354-0.703-0.53-1.172-0.53s-0.862,0.177-1.18,0.53
	C23.678,102.012,23.519,102.521,23.519,103.188L23.519,103.188z M36.179,106.563h-1.782v-3.437c0-0.73-0.039-1.201-0.117-1.414
	c-0.078-0.215-0.203-0.382-0.375-0.5c-0.172-0.12-0.377-0.181-0.617-0.181c-0.302,0-0.576,0.086-0.82,0.259
	c-0.245,0.172-0.414,0.395-0.508,0.672c-0.094,0.275-0.141,0.794-0.141,1.554v3.047h-1.781v-6.734h1.656v0.984
	c0.584-0.76,1.323-1.141,2.219-1.141c0.396,0,0.755,0.07,1.078,0.211c0.323,0.141,0.57,0.32,0.742,0.539
	c0.172,0.219,0.289,0.469,0.352,0.75c0.062,0.281,0.094,0.683,0.094,1.204V106.563L36.179,106.563z M44.119,106.563h-1.781v-3.437
	c0-0.73-0.039-1.201-0.117-1.414c-0.078-0.215-0.203-0.382-0.375-0.5c-0.172-0.12-0.378-0.181-0.617-0.181
	c-0.302,0-0.576,0.086-0.82,0.259c-0.245,0.172-0.415,0.395-0.508,0.672c-0.094,0.275-0.141,0.794-0.141,1.554v3.047h-1.781v-6.734
	h1.656v0.984c0.583-0.76,1.323-1.141,2.219-1.141c0.396,0,0.755,0.07,1.078,0.211c0.323,0.141,0.57,0.32,0.742,0.539
	s0.289,0.469,0.352,0.75c0.062,0.281,0.093,0.683,0.093,1.204V106.563L44.119,106.563z M49.842,104.423l1.765,0.297
	c-0.229,0.646-0.588,1.141-1.078,1.484c-0.489,0.344-1.104,0.516-1.844,0.516c-1.177,0-2.046-0.385-2.609-1.156
	c-0.448-0.615-0.672-1.385-0.672-2.312c0-1.125,0.294-2.004,0.883-2.634c0.588-0.63,1.325-0.945,2.211-0.945
	c1.01,0,1.805,0.331,2.383,0.993c0.578,0.66,0.851,1.674,0.82,3.038h-4.469c0.021,0.531,0.167,0.942,0.438,1.234
	s0.614,0.438,1.031,0.438c0.281,0,0.516-0.076,0.703-0.228C49.592,104.998,49.737,104.757,49.842,104.423L49.842,104.423z
	 M49.935,102.61c-0.01-0.51-0.143-0.9-0.398-1.172c-0.255-0.271-0.565-0.406-0.93-0.406c-0.385,0-0.708,0.141-0.968,0.422
	c-0.25,0.291-0.375,0.678-0.375,1.156H49.935L49.935,102.61z M59.04,101.813l-1.765,0.313c-0.052-0.345-0.185-0.605-0.399-0.782
	c-0.213-0.177-0.487-0.266-0.82-0.266c-0.438,0-0.789,0.151-1.055,0.453c-0.265,0.303-0.398,0.818-0.398,1.547
	c0,0.791,0.135,1.354,0.406,1.688c0.271,0.334,0.63,0.5,1.078,0.5c0.344,0,0.623-0.096,0.836-0.289
	c0.214-0.193,0.362-0.523,0.445-0.992l1.766,0.297c-0.187,0.803-0.539,1.409-1.055,1.82c-0.515,0.412-1.205,0.617-2.07,0.617
	c-0.989,0-1.776-0.313-2.359-0.938c-0.584-0.625-0.875-1.484-0.875-2.578c0-1.114,0.291-1.981,0.875-2.602
	c0.583-0.62,1.38-0.93,2.39-0.93c0.823,0,1.477,0.178,1.961,0.531C58.486,100.559,58.832,101.095,59.04,101.813L59.04,101.813z
	 M63.489,99.829v1.423H62.27v2.702c0,0.553,0.011,0.875,0.032,0.969c0.02,0.094,0.073,0.17,0.156,0.227s0.182,0.086,0.297,0.086
	c0.166,0,0.406-0.057,0.718-0.172l0.157,1.391c-0.417,0.178-0.886,0.266-1.407,0.266c-0.322,0-0.614-0.054-0.875-0.164
	c-0.26-0.109-0.45-0.25-0.57-0.422c-0.12-0.171-0.2-0.403-0.242-0.695c-0.042-0.208-0.063-0.625-0.063-1.25v-2.937h-0.812v-1.423
	h0.812v-1.344l1.797-1.047v2.391H63.489L63.489,99.829z M64.724,98.907v-1.655h1.782v1.655H64.724L64.724,98.907z M64.724,106.563
	v-6.734h1.782v6.734H64.724L64.724,106.563z M67.914,103.095c0-0.593,0.146-1.166,0.438-1.718c0.292-0.554,0.706-0.975,1.242-1.267
	c0.537-0.292,1.138-0.438,1.805-0.438c1.01,0,1.844,0.331,2.5,0.993c0.656,0.66,0.984,1.496,0.984,2.507
	c0,1.021-0.331,1.868-0.992,2.54c-0.662,0.671-1.492,1.007-2.492,1.007c-0.615,0-1.203-0.141-1.766-0.422
	c-0.562-0.281-0.989-0.69-1.281-1.227C68.06,104.534,67.914,103.877,67.914,103.095L67.914,103.095z M69.743,103.188
	c0,0.667,0.158,1.18,0.476,1.539c0.318,0.36,0.711,0.539,1.18,0.539c0.469,0,0.859-0.179,1.172-0.539
	c0.312-0.359,0.468-0.877,0.468-1.555c0-0.656-0.156-1.161-0.468-1.516c-0.313-0.354-0.703-0.53-1.172-0.53
	c-0.469,0-0.862,0.177-1.18,0.53C69.901,102.012,69.743,102.521,69.743,103.188L69.743,103.188z M82.402,106.563h-1.781v-3.437
	c0-0.73-0.039-1.201-0.117-1.414c-0.078-0.215-0.203-0.382-0.375-0.5c-0.172-0.12-0.378-0.181-0.617-0.181
	c-0.303,0-0.576,0.086-0.821,0.259c-0.245,0.172-0.414,0.395-0.508,0.672c-0.093,0.275-0.14,0.794-0.14,1.554v3.047h-1.781v-6.734
	h1.656v0.984c0.583-0.76,1.323-1.141,2.219-1.141c0.395,0,0.755,0.07,1.078,0.211c0.323,0.141,0.57,0.32,0.742,0.539
	c0.172,0.219,0.289,0.469,0.351,0.75c0.063,0.281,0.094,0.683,0.094,1.204V106.563L82.402,106.563z"/>
<polygon fill="#FFCC99" points="150.36,21.945 216.36,21.945 216.36,44.945 150.36,44.945 150.36,21.945 "/>
<polygon fill="#FFFFDA" points="149.36,20.945 150.36,20.945 150.36,45.945 149.36,45.945 149.36,20.945 "/>
<polygon fill="#FFFFDA" points="150.36,20.945 216.36,20.945 216.36,21.945 150.36,21.945 150.36,20.945 "/>
<polygon fill="#B28E6B" points="150.36,44.945 217.36,44.945 217.36,45.945 150.36,45.945 150.36,44.945 "/>
<polygon fill="#B28E6B" points="216.36,20.945 217.36,20.945 217.36,44.945 216.36,44.945 216.36,20.945 "/>
<path d="M159.066,39.269v-9.235h1.875v7.672h4.672v1.563H159.066L159.066,39.269z M166.945,31.611v-1.656h1.781v1.656H166.945
	L166.945,31.611z M166.945,39.269v-6.735h1.781v6.735H166.945L166.945,39.269z M173.65,32.534v1.422h-1.219v2.703
	c0,0.552,0.011,0.875,0.032,0.969c0.02,0.094,0.073,0.169,0.156,0.227c0.083,0.057,0.182,0.085,0.297,0.085
	c0.166,0,0.406-0.057,0.719-0.171l0.156,1.39c-0.417,0.177-0.886,0.266-1.406,0.266c-0.323,0-0.615-0.055-0.875-0.164
	c-0.261-0.11-0.451-0.25-0.571-0.422c-0.12-0.172-0.2-0.404-0.242-0.695c-0.042-0.209-0.062-0.625-0.062-1.25v-2.938h-0.813v-1.422
	h0.813v-1.344l1.796-1.046v2.39H173.65L173.65,32.534z M178.792,37.127l1.765,0.297c-0.229,0.646-0.588,1.14-1.078,1.484
	c-0.489,0.344-1.104,0.516-1.843,0.516c-1.178,0-2.047-0.386-2.61-1.156c-0.448-0.615-0.672-1.386-0.672-2.313
	c0-1.125,0.295-2.003,0.883-2.633c0.589-0.63,1.326-0.945,2.211-0.945c1.01,0,1.805,0.331,2.383,0.992
	c0.578,0.662,0.851,1.675,0.82,3.039h-4.469c0.021,0.531,0.167,0.943,0.438,1.235c0.271,0.291,0.614,0.437,1.031,0.437
	c0.281,0,0.516-0.075,0.703-0.226C178.542,37.703,178.688,37.46,178.792,37.127L178.792,37.127z M178.886,35.314
	c-0.011-0.51-0.144-0.901-0.399-1.171c-0.255-0.271-0.565-0.407-0.93-0.407c-0.385,0-0.708,0.141-0.968,0.422
	c-0.25,0.292-0.375,0.677-0.375,1.156H178.886L178.886,35.314z M190.522,39.269h-2.047l-0.813-2.11h-3.718l-0.766,2.11h-2
	l3.625-9.313h1.984L190.522,39.269L190.522,39.269z M187.053,35.581l-1.281-3.453l-1.25,3.453H187.053L187.053,35.581z
	 M191.504,29.956h3.437c0.771,0,1.36,0.063,1.766,0.188c0.552,0.156,1.021,0.44,1.405,0.851c0.386,0.412,0.681,0.914,0.884,1.508
	c0.203,0.594,0.305,1.328,0.305,2.203c0,0.76-0.094,1.422-0.283,1.984c-0.229,0.678-0.561,1.224-1,1.641
	c-0.323,0.313-0.76,0.557-1.312,0.734c-0.417,0.136-0.974,0.204-1.672,0.204h-3.531V29.956L191.504,29.956z M193.379,31.534v6.172
	h1.406c0.531,0,0.911-0.031,1.141-0.094c0.302-0.073,0.554-0.2,0.757-0.382c0.203-0.183,0.368-0.482,0.493-0.899
	s0.187-0.984,0.187-1.703c0-0.719-0.062-1.271-0.187-1.656c-0.125-0.386-0.303-0.688-0.532-0.907
	c-0.229-0.218-0.521-0.364-0.875-0.437c-0.26-0.063-0.776-0.094-1.547-0.094H193.379L193.379,31.534z M200.516,34.674
	c0-0.948,0.141-1.745,0.422-2.391c0.219-0.469,0.512-0.893,0.875-1.273c0.365-0.38,0.766-0.659,1.203-0.836
	c0.574-0.25,1.24-0.375,2-0.375c1.375,0,2.475,0.427,3.297,1.281c0.824,0.854,1.234,2.037,1.234,3.547
	c0,1.5-0.408,2.674-1.225,3.523c-0.818,0.849-1.91,1.274-3.275,1.274c-1.385,0-2.486-0.422-3.305-1.266
	C200.926,37.314,200.516,36.153,200.516,34.674L200.516,34.674z M202.454,34.611c0,1.052,0.246,1.849,0.734,2.391
	c0.49,0.542,1.105,0.812,1.844,0.812c0.75,0,1.367-0.268,1.852-0.804c0.484-0.537,0.727-1.347,0.727-2.43
	c0-1.062-0.234-1.857-0.703-2.383c-0.469-0.526-1.094-0.789-1.875-0.789c-0.77,0-1.393,0.266-1.867,0.797
	C202.69,32.736,202.454,33.539,202.454,34.611L202.454,34.611z"/>
<polygon fill="#BFFFBF" points="8.36,13.945 86.36,13.945 86.36,51.945 8.36,51.945 8.36,13.945 "/>
<polygon fill="#FFFFFF" points="7.36,12.945 8.36,12.945 8.36,52.945 7.36,52.945 7.36,12.945 "/>
<polygon fill="#FFFFFF" points="8.36,12.945 86.36,12.945 86.36,13.945 8.36,13.945 8.36,12.945 "/>
<polygon fill="#85B285" points="8.36,51.945 87.36,51.945 87.36,52.945 8.36,52.945 8.36,51.945 "/>
<polygon fill="#85B285" points="86.36,12.945 87.36,12.945 87.36,51.945 86.36,51.945 86.36,12.945 "/>
<path d="M33.045,31.769h-2.047l-0.812-2.11h-3.719l-0.766,2.11h-2l3.625-9.313h1.985L33.045,31.769L33.045,31.769z M29.576,28.081
	l-1.281-3.453l-1.25,3.453H29.576L29.576,28.081z M34.027,22.456h3.438c0.771,0,1.359,0.063,1.765,0.188
	c0.552,0.156,1.021,0.44,1.407,0.851c0.385,0.412,0.679,0.914,0.882,1.508c0.203,0.594,0.305,1.328,0.305,2.203
	c0,0.76-0.094,1.422-0.281,1.984c-0.229,0.678-0.563,1.224-1,1.641c-0.323,0.313-0.761,0.557-1.313,0.734
	c-0.416,0.136-0.974,0.204-1.672,0.204h-3.531V22.456L34.027,22.456z M35.902,24.034v6.172h1.406c0.532,0,0.912-0.031,1.141-0.094
	c0.302-0.073,0.555-0.2,0.758-0.382c0.203-0.183,0.367-0.482,0.492-0.899s0.188-0.984,0.188-1.703c0-0.719-0.063-1.271-0.188-1.656
	c-0.125-0.386-0.302-0.688-0.531-0.907c-0.229-0.218-0.521-0.364-0.875-0.437c-0.261-0.063-0.776-0.094-1.547-0.094H35.902
	L35.902,24.034z M43.04,27.174c0-0.948,0.141-1.745,0.422-2.391c0.219-0.469,0.511-0.893,0.875-1.273
	c0.365-0.38,0.766-0.659,1.203-0.836c0.573-0.25,1.24-0.375,2-0.375c1.375,0,2.474,0.427,3.297,1.281
	c0.823,0.854,1.235,2.037,1.235,3.547c0,1.5-0.409,2.674-1.227,3.523c-0.818,0.849-1.909,1.274-3.273,1.274
	c-1.386,0-2.487-0.422-3.305-1.266C43.449,29.814,43.04,28.653,43.04,27.174L43.04,27.174z M44.978,27.111
	c0,1.052,0.245,1.849,0.734,2.391c0.49,0.542,1.104,0.812,1.844,0.812c0.75,0,1.367-0.268,1.852-0.804
	c0.484-0.537,0.726-1.347,0.726-2.43c0-1.062-0.234-1.857-0.703-2.383c-0.469-0.526-1.094-0.789-1.875-0.789
	c-0.771,0-1.393,0.266-1.867,0.797C45.215,25.236,44.978,26.039,44.978,27.111L44.978,27.111z M53.527,22.456h3.438
	c0.771,0,1.359,0.063,1.765,0.188c0.552,0.156,1.021,0.44,1.407,0.851c0.385,0.412,0.679,0.914,0.882,1.508
	c0.203,0.594,0.305,1.328,0.305,2.203c0,0.76-0.094,1.422-0.281,1.984c-0.229,0.678-0.563,1.224-1,1.641
	c-0.323,0.313-0.761,0.557-1.313,0.734c-0.416,0.136-0.974,0.204-1.672,0.204h-3.531V22.456L53.527,22.456z M55.402,24.034v6.172
	h1.406c0.532,0,0.912-0.031,1.141-0.094c0.302-0.073,0.555-0.2,0.758-0.382c0.203-0.183,0.367-0.482,0.492-0.899
	s0.188-0.984,0.188-1.703c0-0.719-0.063-1.271-0.188-1.656c-0.125-0.386-0.302-0.688-0.531-0.907
	c-0.229-0.218-0.521-0.364-0.875-0.437c-0.261-0.063-0.776-0.094-1.547-0.094H55.402L55.402,24.034z M62.931,22.456h3.719
	c0.739,0,1.289,0.031,1.648,0.094c0.36,0.062,0.682,0.193,0.969,0.39c0.286,0.198,0.526,0.459,0.719,0.782
	c0.192,0.323,0.289,0.682,0.289,1.078c0,0.437-0.12,0.838-0.36,1.203c-0.239,0.365-0.557,0.641-0.953,0.828
	c0.563,0.156,0.998,0.435,1.305,0.836c0.307,0.401,0.461,0.867,0.461,1.398c0,0.428-0.099,0.842-0.297,1.243
	c-0.198,0.401-0.466,0.721-0.805,0.961c-0.338,0.239-0.758,0.385-1.258,0.437c-0.312,0.031-1.067,0.052-2.265,0.063h-3.172V22.456
	L62.931,22.456z M64.806,24.019v2.14h1.234c0.73,0,1.183-0.01,1.36-0.031c0.323-0.031,0.578-0.141,0.765-0.328
	c0.188-0.188,0.282-0.432,0.282-0.735c0-0.281-0.081-0.513-0.243-0.695c-0.161-0.182-0.398-0.289-0.711-0.32
	c-0.187-0.021-0.723-0.031-1.609-0.031H64.806L64.806,24.019z M64.806,27.706v2.5h1.75c0.677,0,1.104-0.021,1.281-0.062
	c0.281-0.053,0.511-0.178,0.688-0.375c0.177-0.198,0.265-0.459,0.265-0.782c0-0.281-0.067-0.521-0.203-0.718
	c-0.135-0.198-0.333-0.342-0.594-0.43c-0.26-0.089-0.817-0.133-1.671-0.133H64.806L64.806,27.706z"/>
<path d="M16.698,47.694v-9.313h3.953c1,0,1.724,0.086,2.172,0.258c0.448,0.172,0.807,0.472,1.078,0.899
	c0.271,0.427,0.406,0.911,0.406,1.453c0,0.698-0.206,1.276-0.617,1.734s-1.023,0.745-1.836,0.859c0.406,0.24,0.742,0.5,1.008,0.782
	c0.266,0.281,0.622,0.786,1.07,1.515l1.125,1.813h-2.234l-1.36-2.031c-0.489-0.719-0.822-1.172-1-1.36
	c-0.177-0.187-0.364-0.317-0.562-0.39c-0.198-0.073-0.51-0.11-0.938-0.11h-0.39v3.891H16.698L16.698,47.694z M18.573,42.319h1.39
	c0.907,0,1.472-0.037,1.696-0.11c0.224-0.072,0.398-0.203,0.523-0.39c0.125-0.188,0.188-0.422,0.188-0.703
	c0-0.313-0.084-0.565-0.25-0.758c-0.167-0.193-0.401-0.315-0.703-0.367c-0.157-0.021-0.615-0.032-1.375-0.032h-1.469V42.319
	L18.573,42.319z M29.977,45.554l1.765,0.297c-0.229,0.646-0.588,1.141-1.078,1.484c-0.489,0.344-1.104,0.516-1.844,0.516
	c-1.177,0-2.046-0.385-2.609-1.156c-0.448-0.615-0.672-1.386-0.672-2.313c0-1.125,0.294-2.002,0.883-2.632
	c0.588-0.631,1.325-0.946,2.211-0.946c1.01,0,1.805,0.331,2.383,0.992c0.578,0.662,0.851,1.675,0.82,3.039h-4.469
	c0.021,0.532,0.167,0.943,0.438,1.235s0.614,0.437,1.031,0.437c0.281,0,0.516-0.075,0.703-0.226
	C29.727,46.129,29.872,45.888,29.977,45.554L29.977,45.554z M30.07,43.742c-0.01-0.511-0.143-0.901-0.398-1.172
	s-0.565-0.406-0.93-0.406c-0.385,0-0.708,0.14-0.968,0.421c-0.25,0.292-0.375,0.678-0.375,1.157H30.07L30.07,43.742z M39.175,42.944
	l-1.765,0.312c-0.052-0.343-0.185-0.604-0.399-0.781c-0.213-0.177-0.487-0.266-0.82-0.266c-0.438,0-0.789,0.152-1.055,0.454
	c-0.265,0.302-0.398,0.817-0.398,1.546c0,0.792,0.135,1.355,0.406,1.688s0.63,0.5,1.078,0.5c0.344,0,0.623-0.096,0.836-0.289
	c0.214-0.193,0.362-0.524,0.445-0.992l1.766,0.297c-0.187,0.802-0.539,1.408-1.055,1.82c-0.515,0.411-1.205,0.617-2.07,0.617
	c-0.989,0-1.776-0.312-2.359-0.937c-0.584-0.625-0.875-1.485-0.875-2.579c0-1.114,0.291-1.981,0.875-2.601
	c0.583-0.62,1.38-0.93,2.39-0.93c0.823,0,1.477,0.177,1.961,0.531C38.621,41.689,38.967,42.226,39.175,42.944L39.175,42.944z
	 M40.108,44.226c0-0.594,0.146-1.167,0.438-1.719c0.292-0.552,0.706-0.974,1.242-1.265c0.537-0.292,1.138-0.438,1.805-0.438
	c1.01,0,1.844,0.331,2.5,0.992c0.656,0.662,0.984,1.498,0.984,2.508c0,1.021-0.331,1.867-0.992,2.539
	c-0.661,0.672-1.492,1.008-2.492,1.008c-0.615,0-1.203-0.141-1.766-0.422c-0.562-0.281-0.989-0.69-1.281-1.226
	C40.254,45.666,40.108,45.006,40.108,44.226L40.108,44.226z M41.937,44.319c0,0.667,0.158,1.18,0.476,1.539
	c0.318,0.359,0.711,0.539,1.18,0.539c0.469,0,0.859-0.18,1.172-0.539c0.312-0.359,0.468-0.878,0.468-1.555
	c0-0.656-0.156-1.161-0.468-1.515c-0.313-0.355-0.703-0.532-1.172-0.532c-0.469,0-0.862,0.177-1.18,0.532
	C42.095,43.143,41.937,43.652,41.937,44.319L41.937,44.319z M50.174,47.694h-1.781v-6.735h1.656v0.954
	c0.282-0.459,0.537-0.758,0.766-0.899c0.229-0.14,0.484-0.211,0.766-0.211c0.406,0,0.797,0.11,1.172,0.328l-0.547,1.563
	c-0.302-0.198-0.584-0.297-0.844-0.297c-0.25,0-0.461,0.07-0.633,0.211c-0.172,0.141-0.307,0.391-0.406,0.75
	c-0.099,0.359-0.149,1.112-0.149,2.258V47.694L50.174,47.694z M59.702,47.694h-1.656v-0.985c-0.271,0.386-0.594,0.672-0.969,0.86
	c-0.375,0.187-0.75,0.281-1.125,0.281c-0.781,0-1.448-0.312-2-0.937c-0.552-0.625-0.828-1.495-0.828-2.61
	c0-1.146,0.268-2.015,0.805-2.609c0.536-0.594,1.216-0.891,2.039-0.891c0.75,0,1.401,0.313,1.953,0.938v-3.36h1.781V47.694
	L59.702,47.694z M54.952,44.179c0,0.719,0.099,1.24,0.297,1.563c0.281,0.468,0.682,0.703,1.203,0.703
	c0.406,0,0.755-0.175,1.047-0.524s0.438-0.872,0.438-1.57c0-0.771-0.141-1.328-0.422-1.672c-0.282-0.344-0.641-0.515-1.078-0.515
	c-0.417,0-0.769,0.169-1.055,0.507C55.095,43.01,54.952,43.513,54.952,44.179L54.952,44.179z M60.846,45.772l1.782-0.281
	c0.072,0.354,0.226,0.62,0.46,0.797c0.235,0.177,0.56,0.265,0.977,0.265c0.469,0,0.818-0.083,1.047-0.25
	c0.156-0.114,0.234-0.271,0.234-0.469c0-0.135-0.041-0.25-0.125-0.343c-0.093-0.084-0.291-0.162-0.593-0.235
	c-1.438-0.312-2.349-0.604-2.735-0.875c-0.542-0.364-0.812-0.869-0.812-1.515c0-0.584,0.231-1.073,0.695-1.469
	c0.463-0.396,1.18-0.594,2.148-0.594c0.927,0,1.615,0.149,2.063,0.446c0.448,0.296,0.755,0.742,0.922,1.335l-1.688,0.313
	c-0.073-0.26-0.208-0.461-0.406-0.602c-0.198-0.14-0.484-0.211-0.859-0.211c-0.469,0-0.808,0.063-1.016,0.188
	c-0.135,0.094-0.203,0.219-0.203,0.375c0,0.125,0.062,0.229,0.187,0.312c0.157,0.125,0.711,0.295,1.664,0.508
	c0.954,0.214,1.618,0.477,1.993,0.789c0.375,0.323,0.562,0.766,0.562,1.328c0,0.615-0.26,1.146-0.781,1.594
	c-0.521,0.448-1.287,0.672-2.297,0.672c-0.917,0-1.643-0.187-2.18-0.562C61.349,46.914,61.003,46.408,60.846,45.772L60.846,45.772z
	 M72.607,45.554l1.766,0.297c-0.229,0.646-0.588,1.141-1.078,1.484c-0.49,0.344-1.104,0.516-1.844,0.516
	c-1.177,0-2.047-0.385-2.609-1.156c-0.448-0.615-0.672-1.386-0.672-2.313c0-1.125,0.294-2.002,0.883-2.632
	c0.588-0.631,1.325-0.946,2.211-0.946c1.01,0,1.804,0.331,2.383,0.992c0.578,0.662,0.851,1.675,0.82,3.039h-4.469
	c0.021,0.532,0.167,0.943,0.438,1.235s0.614,0.437,1.031,0.437c0.281,0,0.515-0.075,0.703-0.226
	C72.357,46.129,72.503,45.888,72.607,45.554L72.607,45.554z M72.701,43.742c-0.01-0.511-0.143-0.901-0.398-1.172
	s-0.565-0.406-0.93-0.406c-0.385,0-0.708,0.14-0.969,0.421c-0.25,0.292-0.375,0.678-0.375,1.157H72.701L72.701,43.742z
	 M79.025,40.959v1.422h-1.219v2.703c0,0.553,0.011,0.875,0.031,0.969c0.021,0.094,0.073,0.169,0.157,0.227
	c0.083,0.057,0.182,0.086,0.297,0.086c0.166,0,0.406-0.058,0.718-0.172l0.157,1.39c-0.417,0.178-0.886,0.266-1.407,0.266
	c-0.323,0-0.614-0.055-0.875-0.164c-0.26-0.109-0.45-0.25-0.57-0.422c-0.12-0.172-0.2-0.403-0.242-0.695
	c-0.042-0.208-0.063-0.625-0.063-1.25v-2.938h-0.812v-1.422h0.812v-1.343l1.797-1.047v2.39H79.025L79.025,40.959z"/>
<polygon fill="#99CCFF" points="327.36,84.945 385.36,84.945 385.36,132.945 327.36,132.945 327.36,84.945 "/>
<polygon fill="#DAFFFF" points="326.36,83.945 327.36,83.945 327.36,133.945 326.36,133.945 326.36,83.945 "/>
<polygon fill="#DAFFFF" points="327.36,83.945 385.36,83.945 385.36,84.945 327.36,84.945 327.36,83.945 "/>
<polygon fill="#6B8EB2" points="327.36,132.945 386.36,132.945 386.36,133.945 327.36,133.945 327.36,132.945 "/>
<polygon fill="#6B8EB2" points="385.36,83.945 386.36,83.945 386.36,132.945 385.36,132.945 385.36,83.945 "/>
<path d="M332.852,102.939v-9.234h1.875v7.673h4.672v1.562H332.852L332.852,102.939z M340.729,95.283v-1.655h1.781v1.655H340.729
	L340.729,95.283z M340.729,102.939v-6.734h1.781v6.734H340.729L340.729,102.939z M347.436,96.205v1.423h-1.219v2.702
	c0,0.553,0.01,0.875,0.031,0.97c0.02,0.093,0.072,0.169,0.154,0.226c0.086,0.059,0.184,0.086,0.299,0.086
	c0.166,0,0.406-0.057,0.719-0.172l0.156,1.391c-0.416,0.178-0.887,0.267-1.406,0.267c-0.324,0-0.615-0.055-0.875-0.164
	c-0.26-0.11-0.451-0.25-0.57-0.422c-0.121-0.172-0.201-0.404-0.242-0.696c-0.043-0.208-0.063-0.625-0.063-1.25v-2.937h-0.813v-1.423
	h0.813v-1.344l1.797-1.047v2.391H347.436L347.436,96.205z M352.577,100.8l1.766,0.297c-0.229,0.645-0.588,1.14-1.078,1.483
	c-0.49,0.345-1.104,0.517-1.844,0.517c-1.176,0-2.047-0.386-2.609-1.157c-0.447-0.614-0.672-1.385-0.672-2.312
	c0-1.125,0.295-2.003,0.883-2.634c0.588-0.63,1.326-0.944,2.211-0.944c1.012,0,1.805,0.33,2.383,0.992
	c0.58,0.66,0.852,1.674,0.82,3.038h-4.469c0.021,0.531,0.168,0.943,0.438,1.234c0.271,0.292,0.615,0.438,1.031,0.438
	c0.281,0,0.516-0.076,0.703-0.228C352.327,101.375,352.473,101.133,352.577,100.8L352.577,100.8z M352.67,98.986
	c-0.01-0.51-0.143-0.9-0.398-1.172c-0.256-0.271-0.564-0.406-0.93-0.406c-0.385,0-0.707,0.142-0.969,0.422
	c-0.25,0.292-0.375,0.678-0.375,1.156H352.67L352.67,98.986z M355.885,102.939v-9.312h2.813l1.688,6.358l1.672-6.358h2.813v9.312
	h-1.75v-7.328l-1.844,7.328h-1.813l-1.828-7.328v7.328H355.885L355.885,102.939z M368.057,98.253l-1.625-0.298
	c0.189-0.646,0.504-1.125,0.947-1.438c0.441-0.313,1.1-0.468,1.975-0.468c0.803,0,1.396,0.093,1.781,0.28
	c0.387,0.188,0.66,0.428,0.822,0.72c0.16,0.291,0.242,0.823,0.242,1.593l-0.018,2.079c0,0.593,0.029,1.031,0.086,1.312
	c0.059,0.281,0.164,0.583,0.322,0.906h-1.766c-0.053-0.114-0.109-0.291-0.174-0.531c-0.029-0.104-0.051-0.172-0.061-0.203
	c-0.314,0.292-0.641,0.514-0.986,0.664c-0.344,0.151-0.713,0.228-1.107,0.228c-0.699,0-1.246-0.191-1.643-0.571
	c-0.395-0.38-0.594-0.856-0.594-1.429c0-0.375,0.092-0.714,0.275-1.017c0.182-0.302,0.436-0.53,0.764-0.688
	c0.33-0.156,0.801-0.296,1.416-0.421c0.832-0.157,1.41-0.303,1.734-0.438v-0.172c0-0.344-0.088-0.588-0.26-0.733
	c-0.172-0.146-0.49-0.22-0.961-0.22c-0.311,0-0.557,0.063-0.732,0.188C368.319,97.722,368.172,97.939,368.057,98.253L368.057,98.253
	z M370.45,99.705c-0.23,0.073-0.592,0.161-1.086,0.267c-0.496,0.104-0.82,0.208-0.979,0.312c-0.229,0.167-0.342,0.375-0.342,0.625
	s0.092,0.467,0.281,0.649c0.186,0.182,0.422,0.272,0.701,0.272c0.324,0,0.631-0.104,0.924-0.313
	c0.219-0.156,0.357-0.354,0.422-0.593c0.051-0.146,0.078-0.434,0.078-0.86V99.705L370.45,99.705z M380.084,102.939h-1.781v-3.437
	c0-0.729-0.039-1.201-0.117-1.414c-0.078-0.214-0.203-0.38-0.375-0.5s-0.377-0.181-0.617-0.181c-0.303,0-0.574,0.086-0.82,0.259
	c-0.244,0.172-0.414,0.396-0.508,0.672c-0.094,0.275-0.141,0.794-0.141,1.554v3.047h-1.779v-6.734h1.654v0.984
	c0.584-0.76,1.324-1.14,2.221-1.14c0.395,0,0.754,0.069,1.076,0.211c0.324,0.14,0.57,0.319,0.742,0.539
	c0.172,0.218,0.289,0.468,0.352,0.75c0.063,0.28,0.094,0.682,0.094,1.203V102.939L380.084,102.939z"/>
<line fill="none" stroke="#000000" stroke-miterlimit="1.45" x1="87.558" y1="74.444" x2="143.737" y2="47.426"/>
<polygon points="150.046,44.393 145.904,51.932 137.429,50.459 141.57,42.92 "/>
<line fill="none" stroke="#000000" stroke-miterlimit="1.45" x1="85.261" y1="131.432" x2="166.473" y2="51.101"/>
<polygon points="171.45,46.178 169.99,54.655 161.497,56.022 162.957,47.545 "/>
<line fill="none" stroke="#000000" stroke-miterlimit="1.45" stroke-dasharray="6,2" x1="184.066" y1="46.232" x2="184.066" y2="69.856"/>
<polygon fill="#FFFFFF" points="184.066,84.856 190.066,68.856 178.066,68.856 "/>
<polygon fill="none" stroke="#000000" stroke-miterlimit="1.45" points="184.066,84.856 190.066,68.856 178.066,68.856 "/>
<line fill="none" stroke="#000000" stroke-miterlimit="1.45" stroke-dasharray="6,2" x1="150.033" y1="33.699" x2="92.548" y2="33.699"/>
<polygon points="88.548,33.699 100.548,39.699 88.548,33.699 100.548,27.699 "/>
<polygon fill="none" stroke="#000000" stroke-linecap="square" stroke-miterlimit="10" points="88.548,33.699 100.548,39.699 
	88.548,33.699 100.548,27.699 "/>
<path fill="#808080" d="M102.135,23.013l1.094,3.11h-0.938l-1.453-3.25l2.75-2.954h0.969L102.135,23.013L102.135,23.013z
	 M104.838,23.013l1.062,3.11h-1l-1.343-3.266l2.64-2.938h1.063L104.838,23.013L104.838,23.013z M112.952,25.31
	c-0.875,0.99-1.765,1.484-2.672,1.484c-0.562,0-1.015-0.161-1.359-0.484c-0.344-0.323-0.516-0.719-0.516-1.187
	c0-0.303,0.078-0.823,0.235-1.563l0.875-4.203h1.234l-0.969,4.641c-0.083,0.395-0.125,0.697-0.125,0.906
	c0,0.271,0.084,0.484,0.25,0.64c0.167,0.157,0.412,0.235,0.735,0.235c0.343,0,0.682-0.086,1.015-0.258
	c0.334-0.172,0.62-0.401,0.86-0.687c0.239-0.287,0.432-0.623,0.578-1.008c0.104-0.25,0.219-0.693,0.344-1.328l0.656-3.141h1.25
	l-1.516,7.266h-1.156L112.952,25.31L112.952,25.31z M115.895,24.138l1.234-0.078c0,0.354,0.055,0.659,0.164,0.914
	c0.109,0.255,0.313,0.461,0.609,0.617c0.297,0.157,0.638,0.235,1.024,0.235c0.552,0,0.963-0.11,1.234-0.328
	c0.271-0.219,0.406-0.474,0.406-0.766c0-0.219-0.078-0.422-0.234-0.609c-0.167-0.198-0.578-0.435-1.234-0.711
	c-0.657-0.276-1.078-0.472-1.266-0.586c-0.302-0.188-0.531-0.409-0.687-0.664c-0.157-0.256-0.235-0.545-0.235-0.868
	c0-0.572,0.229-1.065,0.688-1.476c0.458-0.412,1.099-0.617,1.922-0.617c0.906,0,1.599,0.211,2.078,0.633
	c0.479,0.421,0.724,0.976,0.734,1.664l-1.203,0.078c-0.021-0.438-0.177-0.784-0.469-1.039c-0.291-0.256-0.703-0.383-1.234-0.383
	c-0.427,0-0.761,0.099-1,0.297c-0.24,0.198-0.36,0.411-0.36,0.64c0,0.219,0.105,0.417,0.313,0.594
	c0.135,0.115,0.49,0.297,1.062,0.547c0.948,0.406,1.542,0.729,1.782,0.969c0.396,0.385,0.593,0.849,0.593,1.39
	c0,0.354-0.109,0.706-0.328,1.055c-0.218,0.349-0.554,0.628-1.007,0.836c-0.454,0.208-0.987,0.312-1.602,0.312
	c-0.844,0-1.557-0.208-2.141-0.625C116.145,25.752,115.863,25.076,115.895,24.138L115.895,24.138z M128.113,24.153l1.203,0.125
	c-0.177,0.594-0.575,1.161-1.195,1.703c-0.62,0.542-1.362,0.812-2.226,0.812c-0.532,0-1.024-0.125-1.477-0.375
	c-0.453-0.25-0.797-0.612-1.031-1.085c-0.235-0.474-0.352-1.014-0.352-1.618c0-0.802,0.185-1.575,0.555-2.32s0.846-1.297,1.43-1.656
	c0.583-0.36,1.213-0.539,1.89-0.539c0.865,0,1.555,0.268,2.071,0.804c0.515,0.537,0.773,1.269,0.773,2.196
	c0,0.354-0.031,0.718-0.094,1.093h-5.344c-0.02,0.146-0.031,0.276-0.031,0.391c0,0.677,0.156,1.195,0.469,1.555
	c0.312,0.359,0.698,0.539,1.156,0.539c0.417,0,0.831-0.141,1.242-0.422C127.564,25.076,127.884,24.675,128.113,24.153
	L128.113,24.153z M124.52,22.356h4.078c0-0.125,0-0.219,0-0.281c0-0.615-0.154-1.086-0.461-1.414s-0.706-0.493-1.196-0.493
	c-0.531,0-1.015,0.183-1.453,0.547C125.051,21.081,124.728,21.627,124.52,22.356L124.52,22.356z M133.181,23.06l-1.016-3.141h0.984
	l1.313,3.313l-2.672,2.891h-1.125L133.181,23.06L133.181,23.06z M135.853,23.123l-1.016-3.204h0.922l1.406,3.313l-2.781,2.891
	h-0.985L135.853,23.123L135.853,23.123z"/>
<line fill="none" stroke="#000000" stroke-miterlimit="1.45" x1="229.045" y1="109.869" x2="319.401" y2="109.869"/>
<polygon points="326.401,109.869 319.401,114.869 312.401,109.869 319.401,104.869 "/>
<line fill="none" stroke="#000000" stroke-miterlimit="1.45" stroke-dasharray="6,2" x1="339.354" y1="84.853" x2="315.838" y2="50.354"/>
<polygon points="313.586,47.048 315.387,60.344 313.586,47.048 325.303,53.584 "/>
<polygon fill="none" stroke="#000000" stroke-linecap="square" stroke-miterlimit="10" points="313.586,47.048 315.387,60.344 
	313.586,47.048 325.303,53.584 "/>
<path fill="#808080" d="M339.786,67.424l1.094,3.109h-0.938l-1.453-3.25l2.75-2.953h0.969L339.786,67.424L339.786,67.424z
	 M342.489,67.424l1.063,3.109h-1l-1.344-3.265l2.641-2.938h1.063L342.489,67.424L342.489,67.424z M350.602,69.722
	c-0.875,0.989-1.764,1.484-2.672,1.484c-0.561,0-1.014-0.161-1.357-0.484c-0.346-0.323-0.518-0.719-0.518-1.188
	c0-0.302,0.078-0.823,0.236-1.562l0.875-4.203h1.232l-0.969,4.64c-0.082,0.396-0.125,0.698-0.125,0.906
	c0,0.271,0.084,0.485,0.25,0.641c0.168,0.156,0.412,0.234,0.736,0.234c0.342,0,0.682-0.086,1.014-0.257
	c0.334-0.172,0.621-0.401,0.861-0.688c0.238-0.286,0.432-0.622,0.578-1.008c0.104-0.25,0.219-0.692,0.344-1.328l0.656-3.14h1.25
	l-1.518,7.265h-1.154L350.602,69.722L350.602,69.722z M353.545,68.549l1.234-0.078c0,0.354,0.055,0.658,0.164,0.914
	c0.109,0.255,0.313,0.461,0.609,0.617c0.297,0.156,0.637,0.234,1.023,0.234c0.553,0,0.963-0.109,1.234-0.328
	c0.271-0.219,0.406-0.474,0.406-0.765c0-0.219-0.078-0.422-0.234-0.61c-0.168-0.198-0.578-0.435-1.234-0.711
	c-0.656-0.276-1.078-0.471-1.266-0.586c-0.303-0.187-0.531-0.409-0.688-0.664c-0.156-0.255-0.234-0.544-0.234-0.867
	c0-0.573,0.229-1.065,0.688-1.477c0.459-0.411,1.1-0.617,1.922-0.617c0.906,0,1.6,0.211,2.078,0.633s0.725,0.977,0.734,1.664
	l-1.203,0.078c-0.021-0.437-0.178-0.784-0.469-1.039c-0.291-0.255-0.703-0.383-1.234-0.383c-0.428,0-0.762,0.099-1,0.297
	c-0.24,0.198-0.359,0.412-0.359,0.641c0,0.219,0.105,0.417,0.313,0.594c0.135,0.114,0.49,0.297,1.063,0.547
	c0.947,0.406,1.541,0.729,1.781,0.968c0.396,0.386,0.594,0.849,0.594,1.391c0,0.354-0.109,0.706-0.328,1.055
	s-0.555,0.627-1.008,0.836c-0.453,0.208-0.986,0.312-1.602,0.312c-0.844,0-1.557-0.208-2.141-0.625
	C353.795,70.164,353.514,69.486,353.545,68.549L353.545,68.549z M365.764,68.564l1.203,0.125c-0.178,0.594-0.576,1.162-1.195,1.704
	c-0.621,0.541-1.361,0.812-2.227,0.812c-0.531,0-1.023-0.125-1.477-0.375s-0.797-0.612-1.031-1.086s-0.352-1.013-0.352-1.617
	c0-0.802,0.186-1.576,0.555-2.32c0.369-0.745,0.846-1.297,1.43-1.657c0.584-0.359,1.213-0.539,1.891-0.539
	c0.865,0,1.555,0.268,2.07,0.805c0.516,0.536,0.773,1.268,0.773,2.195c0,0.354-0.031,0.719-0.094,1.094h-5.344
	c-0.02,0.146-0.031,0.276-0.031,0.391c0,0.677,0.156,1.195,0.469,1.554c0.313,0.36,0.697,0.539,1.156,0.539
	c0.416,0,0.83-0.14,1.242-0.421C365.215,69.486,365.536,69.085,365.764,68.564L365.764,68.564z M362.17,66.769h4.078
	c0-0.125,0-0.219,0-0.282c0-0.614-0.154-1.086-0.461-1.414c-0.307-0.328-0.705-0.492-1.195-0.492c-0.531,0-1.016,0.182-1.453,0.547
	C362.702,65.492,362.379,66.039,362.17,66.769L362.17,66.769z M370.833,67.472l-1.018-3.141h0.984l1.314,3.313l-2.674,2.89h-1.125
	L370.833,67.472L370.833,67.472z M373.504,67.534l-1.016-3.203h0.922l1.404,3.313l-2.779,2.89h-0.986L373.504,67.534L373.504,67.534
	z"/>
<line fill="none" stroke="#000000" stroke-miterlimit="1.45" stroke-dasharray="6,2" x1="326.413" y1="87.541" x2="222.598" y2="35.937"/>
<polygon points="219.016,34.157 227.092,44.871 219.016,34.157 232.432,34.125 "/>
<polygon fill="none" stroke="#000000" stroke-linecap="square" stroke-miterlimit="10" points="219.016,34.157 227.092,44.871 
	219.016,34.157 232.432,34.125 "/>
<path fill="#808080" d="M245.135,75.661l1.094,3.109h-0.938l-1.453-3.25l2.75-2.953h0.969L245.135,75.661L245.135,75.661z
	 M247.838,75.661l1.063,3.109h-1l-1.344-3.265l2.641-2.938h1.063L247.838,75.661L247.838,75.661z M255.954,77.958
	c-0.875,0.99-1.766,1.484-2.672,1.484c-0.563,0-1.016-0.161-1.359-0.484s-0.516-0.719-0.516-1.188c0-0.302,0.078-0.822,0.234-1.562
	l0.875-4.203h1.234l-0.969,4.64c-0.084,0.396-0.125,0.698-0.125,0.907c0,0.271,0.084,0.484,0.25,0.64
	c0.166,0.157,0.41,0.235,0.734,0.235c0.344,0,0.682-0.086,1.016-0.258s0.619-0.401,0.859-0.688c0.238-0.286,0.432-0.622,0.578-1.007
	c0.104-0.25,0.219-0.693,0.344-1.329l0.656-3.14h1.25l-1.516,7.265h-1.156L255.954,77.958L255.954,77.958z M258.895,76.786
	l1.234-0.078c0,0.354,0.055,0.659,0.164,0.914c0.111,0.255,0.313,0.461,0.611,0.617c0.295,0.156,0.637,0.235,1.021,0.235
	c0.553,0,0.963-0.11,1.234-0.329c0.271-0.218,0.406-0.474,0.406-0.765c0-0.219-0.078-0.422-0.234-0.61
	c-0.166-0.197-0.578-0.434-1.234-0.711c-0.656-0.276-1.078-0.471-1.266-0.585c-0.301-0.188-0.531-0.409-0.688-0.665
	c-0.156-0.255-0.234-0.544-0.234-0.867c0-0.573,0.229-1.065,0.688-1.476c0.459-0.412,1.1-0.617,1.922-0.617
	c0.906,0,1.6,0.21,2.078,0.632c0.48,0.422,0.725,0.977,0.734,1.664l-1.203,0.079c-0.021-0.438-0.176-0.784-0.469-1.04
	c-0.291-0.255-0.703-0.382-1.234-0.382c-0.426,0-0.76,0.099-1,0.297c-0.24,0.197-0.359,0.411-0.359,0.64
	c0,0.219,0.105,0.417,0.313,0.594c0.135,0.115,0.49,0.297,1.063,0.547c0.947,0.406,1.541,0.729,1.781,0.969
	c0.396,0.385,0.594,0.849,0.594,1.39c0,0.354-0.109,0.706-0.328,1.055s-0.555,0.627-1.008,0.836
	c-0.451,0.208-0.986,0.312-1.602,0.312c-0.844,0-1.557-0.208-2.141-0.625C259.145,78.4,258.864,77.724,258.895,76.786
	L258.895,76.786z M271.114,76.802l1.203,0.125c-0.178,0.593-0.574,1.161-1.195,1.703c-0.619,0.541-1.361,0.812-2.227,0.812
	c-0.531,0-1.023-0.125-1.477-0.375s-0.797-0.612-1.031-1.086s-0.352-1.013-0.352-1.617c0-0.802,0.186-1.575,0.555-2.32
	c0.371-0.745,0.846-1.297,1.43-1.656c0.584-0.36,1.213-0.539,1.891-0.539c0.865,0,1.555,0.268,2.07,0.804
	c0.516,0.537,0.773,1.268,0.773,2.196c0,0.354-0.031,0.718-0.094,1.093h-5.344c-0.02,0.146-0.031,0.276-0.031,0.391
	c0,0.677,0.156,1.195,0.469,1.555c0.313,0.359,0.699,0.539,1.156,0.539c0.418,0,0.832-0.141,1.244-0.422
	C270.565,77.724,270.885,77.323,271.114,76.802L271.114,76.802z M267.52,75.004h4.078c0-0.125,0-0.219,0-0.281
	c0-0.615-0.154-1.086-0.461-1.415c-0.307-0.328-0.705-0.492-1.195-0.492c-0.531,0-1.016,0.183-1.453,0.547
	C268.051,73.729,267.729,74.275,267.52,75.004L267.52,75.004z M276.182,75.708l-1.016-3.141h0.984l1.313,3.313l-2.672,2.89h-1.125
	L276.182,75.708L276.182,75.708z M278.854,75.77l-1.016-3.203h0.922l1.406,3.313l-2.781,2.89h-0.984L278.854,75.77L278.854,75.77z"
	/>
</svg>
