<?xml version="1.0" encoding="utf-8"?>
<!-- Generator: Adobe Illustrator 16.0.0, SVG Export Plug-In . SVG Version: 6.00 Build 0)  -->
<!DOCTYPE svg PUBLIC "-//W3C//DTD SVG 1.1//EN" "http://www.w3.org/Graphics/SVG/1.1/DTD/svg11.dtd">
<svg version="1.1" id="Layer_1" xmlns="http://www.w3.org/2000/svg" xmlns:xlink="http://www.w3.org/1999/xlink" x="0px" y="0px"
	 width="288px" height="72px" viewBox="0 0 288 72" enable-background="new 0 0 288 72" xml:space="preserve">
<polyline fill-rule="evenodd" clip-rule="evenodd" fill="#99CC00" points="136.055,36.948 136.055,50.148 189.814,50.148 
	189.814,36.948 136.055,36.948 "/>
<polyline fill-rule="evenodd" clip-rule="evenodd" fill="#FF9900" points="136.055,50.029 136.055,63.949 189.814,63.949 
	189.814,50.029 136.055,50.029 "/>
<text transform="matrix(1 0 0 1 52.6563 33.3589)"><tspan x="0" y="0" font-family="'Arial-BoldMT'" font-size="9.96">Fo</tspan><tspan x="12.228" y="0" font-family="'Arial-BoldMT'" font-size="9.96">r</tspan></text>
<text transform="matrix(1 0 0 1 99.1016 33.3589)"><tspan x="0" y="0" font-family="'Arial-BoldMT'" font-size="9.96">S</tspan><tspan x="6.604" y="0" font-family="'Arial-BoldMT'" font-size="9.96">ub</tspan><tspan x="18.831" y="0" font-family="'Arial-BoldMT'" font-size="9.96">0</tspan></text>
<text transform="matrix(1 0 0 1 140.0156 33.3589)"><tspan x="0" y="0" font-family="'Arial-BoldMT'" font-size="9.96">S</tspan><tspan x="6.604" y="0" font-family="'Arial-BoldMT'" font-size="9.96">ub</tspan><tspan x="18.831" y="0" font-family="'Arial-BoldMT'" font-size="9.96">0</tspan><tspan x="24.36" y="0" font-family="'Arial-BoldMT'" font-size="9.96">/D</tspan><tspan x="34.32" y="0" font-family="'Arial-BoldMT'" font-size="9.96">L</tspan><tspan x="40.435" y="0" font-family="'Arial-BoldMT'" font-size="9.96">L</tspan></text>
<text transform="matrix(1 0 0 1 193.8984 33.3589)"><tspan x="0" y="0" font-family="'Arial-BoldMT'" font-size="9.96">S</tspan><tspan x="6.604" y="0" font-family="'Arial-BoldMT'" font-size="9.96">ub</tspan><tspan x="18.831" y="0" font-family="'Arial-BoldMT'" font-size="9.96">0</tspan><tspan x="24.36" y="0" font-family="'Arial-BoldMT'" font-size="9.96">/</tspan><tspan x="27.128" y="0" font-family="'Arial-BoldMT'" font-size="9.96">V</tspan><tspan x="33.731" y="0" font-family="'Arial-BoldMT'" font-size="9.96">BA</tspan></text>
<text transform="matrix(1 0 0 1 16.5391 46.4375)"><tspan x="0" y="0" font-family="'Arial-BoldMT'" font-size="9.96">x3</tspan><tspan x="11.059" y="0" font-family="'Arial-BoldMT'" font-size="9.96">2</tspan></text>
<text transform="matrix(1 0 0 1 53.8594 46.4375)"><tspan x="0" y="0" font-family="'ArialMT'" font-size="9.96">2</tspan><tspan x="5.529" y="0" font-family="'ArialMT'" font-size="9.96">.1</tspan></text>
<text transform="matrix(1 0 0 1 104.375 46.4375)"><tspan x="0" y="0" font-family="'ArialMT'" font-size="9.96">1</tspan><tspan x="5.529" y="0" font-family="'ArialMT'" font-size="9.96">.6</tspan></text>
<text transform="matrix(1 0 0 1 156.4609 46.4375)"><tspan x="0" y="0" font-family="'ArialMT'" font-size="9.96">7</tspan><tspan x="5.529" y="0" font-family="'ArialMT'" font-size="9.96">.8</tspan></text>
<text transform="matrix(1 0 0 1 212.2578 46.4375)"><tspan x="0" y="0" font-family="'ArialMT'" font-size="9.96">5</tspan><tspan x="5.529" y="0" font-family="'ArialMT'" font-size="9.96">6</tspan></text>
<text transform="matrix(1 0 0 1 246.8203 46.4375)"><tspan x="0" y="0" font-family="'Arial-BoldMT'" font-size="9.96">V</tspan><tspan x="6.604" y="0" font-family="'Arial-BoldMT'" font-size="9.96">B</tspan><tspan x="13.796" y="0" font-family="'Arial-BoldMT'" font-size="9.96">A</tspan><tspan x="20.641" y="0" font-family="'Arial-BoldMT'" font-size="9.96">6</tspan></text>
<text transform="matrix(1 0 0 1 16.5391 59.2734)"><tspan x="0" y="0" font-family="'Arial-BoldMT'" font-size="9.96">x6</tspan><tspan x="11.059" y="0" font-family="'Arial-BoldMT'" font-size="9.96">4</tspan></text>
<text transform="matrix(1 0 0 1 53.8594 59.2734)"><tspan x="0" y="0" font-family="'ArialMT'" font-size="9.96">2</tspan><tspan x="5.529" y="0" font-family="'ArialMT'" font-size="9.96">.1</tspan></text>
<text transform="matrix(1 0 0 1 104.375 59.2734)"><tspan x="0" y="0" font-family="'ArialMT'" font-size="9.96">1</tspan><tspan x="5.529" y="0" font-family="'ArialMT'" font-size="9.96">.9</tspan></text>
<text transform="matrix(1 0 0 1 152.2578 59.2734)"><tspan x="0" y="0" font-family="'Arial-BoldMT'" font-size="9.96">195</tspan><tspan x="16.588" y="0" font-family="'Arial-BoldMT'" font-size="9.96">0</tspan></text>
<text transform="matrix(1 0 0 1 212.2578 59.2734)"><tspan x="0" y="0" font-family="'ArialMT'" font-size="9.96">4</tspan><tspan x="5.529" y="0" font-family="'ArialMT'" font-size="9.96">9</tspan></text>
<text transform="matrix(1 0 0 1 246.8203 59.2734)"><tspan x="0" y="0" font-family="'Arial-BoldMT'" font-size="9.96">V</tspan><tspan x="6.604" y="0" font-family="'Arial-BoldMT'" font-size="9.96">B</tspan><tspan x="13.796" y="0" font-family="'Arial-BoldMT'" font-size="9.96">A</tspan><tspan x="20.641" y="0" font-family="'Arial-BoldMT'" font-size="9.96">7</tspan></text>
<text transform="matrix(1 0 0 1 180.5781 20.2808)"><tspan x="0" y="0" font-family="'Arial-BoldMT'" font-size="9.96">V</tspan><tspan x="6.604" y="0" font-family="'Arial-BoldMT'" font-size="9.96">BA</tspan></text>
<polygon fill-rule="evenodd" clip-rule="evenodd" fill="none" points="137.015,11.028 244.895,11.028 244.895,23.869 
	137.015,23.869 137.015,11.028 "/>
<text transform="matrix(1 0 0 1 82.4219 20.2808)" font-family="'Arial-BoldMT'" font-size="9.96">C</text>
<polygon fill-rule="evenodd" clip-rule="evenodd" fill="none" points="35.015,11.028 135.095,11.028 135.095,23.869 35.015,23.869 
	35.015,11.028 "/>
<polyline fill-rule="evenodd" clip-rule="evenodd" points="10.655,8.628 10.655,9.588 13.535,9.588 13.535,8.628 10.655,8.628 "/>
<polyline fill-rule="evenodd" clip-rule="evenodd" points="12.575,10.548 12.575,11.508 13.535,11.508 13.535,10.548 12.575,10.548 
	"/>
<polyline fill-rule="evenodd" clip-rule="evenodd" points="134.615,10.548 134.615,11.508 135.575,11.508 135.575,10.548 
	134.615,10.548 "/>
<polyline fill-rule="evenodd" clip-rule="evenodd" points="13.535,8.628 13.535,9.588 134.615,9.588 134.615,8.628 13.535,8.628 "/>
<polyline fill-rule="evenodd" clip-rule="evenodd" points="13.535,10.548 13.535,11.508 134.615,11.508 134.615,10.548 
	13.535,10.548 "/>
<polyline fill-rule="evenodd" clip-rule="evenodd" points="134.615,8.628 134.615,9.588 137.495,9.588 137.495,8.628 134.615,8.628 
	"/>
<polyline fill-rule="evenodd" clip-rule="evenodd" points="136.535,10.548 136.535,11.508 137.495,11.508 137.495,10.548 
	136.535,10.548 "/>
<line fill="none" stroke="#000000" stroke-width="0" stroke-linecap="square" stroke-miterlimit="10" x1="35.495" y1="23.388" x2="134.615" y2="23.388"/>
<polyline fill-rule="evenodd" clip-rule="evenodd" points="35.495,23.388 35.495,24.348 134.615,24.348 134.615,23.388 
	35.495,23.388 "/>
<line fill="none" stroke="#000000" stroke-width="0" stroke-linecap="square" stroke-miterlimit="10" x1="13.535" y1="36.468" x2="134.615" y2="36.468"/>
<polyline fill-rule="evenodd" clip-rule="evenodd" points="13.535,36.468 13.535,37.428 134.615,37.428 134.615,36.468 
	13.535,36.468 "/>
<line fill="none" stroke="#000000" stroke-width="0" stroke-linecap="square" stroke-miterlimit="10" x1="13.535" y1="49.549" x2="134.615" y2="49.549"/>
<polyline fill-rule="evenodd" clip-rule="evenodd" points="13.535,49.549 13.535,50.508 134.615,50.508 134.615,49.549 
	13.535,49.549 "/>
<polyline fill-rule="evenodd" clip-rule="evenodd" points="10.655,8.628 10.655,11.508 11.615,11.508 11.615,8.628 10.655,8.628 "/>
<polyline fill-rule="evenodd" clip-rule="evenodd" points="12.575,10.548 12.575,11.508 13.535,11.508 13.535,10.548 12.575,10.548 
	"/>
<polyline fill-rule="evenodd" clip-rule="evenodd" points="12.575,62.389 12.575,63.348 13.535,63.348 13.535,62.389 12.575,62.389 
	"/>
<polyline fill-rule="evenodd" clip-rule="evenodd" points="10.655,64.309 10.655,65.268 13.535,65.268 13.535,64.309 10.655,64.309 
	"/>
<polyline fill-rule="evenodd" clip-rule="evenodd" points="134.615,62.389 134.615,63.348 135.575,63.348 135.575,62.389 
	134.615,62.389 "/>
<polyline fill-rule="evenodd" clip-rule="evenodd" points="134.615,10.548 134.615,11.508 135.575,11.508 135.575,10.548 
	134.615,10.548 "/>
<polyline fill-rule="evenodd" clip-rule="evenodd" points="136.535,10.548 136.535,11.508 137.495,11.508 137.495,10.548 
	136.535,10.548 "/>
<polyline fill-rule="evenodd" clip-rule="evenodd" points="13.535,62.389 13.535,63.348 134.615,63.348 134.615,62.389 
	13.535,62.389 "/>
<polyline fill-rule="evenodd" clip-rule="evenodd" points="13.535,64.309 13.535,65.268 134.615,65.268 134.615,64.309 
	13.535,64.309 "/>
<polyline fill-rule="evenodd" clip-rule="evenodd" points="136.535,62.389 136.535,63.348 137.495,63.348 137.495,62.389 
	136.535,62.389 "/>
<polyline fill-rule="evenodd" clip-rule="evenodd" points="134.615,64.309 134.615,65.268 137.495,65.268 137.495,64.309 
	134.615,64.309 "/>
<polyline fill-rule="evenodd" clip-rule="evenodd" points="275.735,10.548 275.735,11.508 276.695,11.508 276.695,10.548 
	275.735,10.548 "/>
<polyline fill-rule="evenodd" clip-rule="evenodd" points="277.655,8.628 277.655,11.508 278.615,11.508 278.615,8.628 
	277.655,8.628 "/>
<polyline fill-rule="evenodd" clip-rule="evenodd" points="12.575,62.389 12.575,63.348 13.535,63.348 13.535,62.389 12.575,62.389 
	"/>
<polyline fill-rule="evenodd" clip-rule="evenodd" points="10.655,62.389 10.655,65.268 11.615,65.268 11.615,62.389 10.655,62.389 
	"/>
<polyline fill-rule="evenodd" clip-rule="evenodd" points="136.535,62.389 136.535,63.348 137.495,63.348 137.495,62.389 
	136.535,62.389 "/>
<polyline fill-rule="evenodd" clip-rule="evenodd" points="134.615,62.389 134.615,63.348 135.575,63.348 135.575,62.389 
	134.615,62.389 "/>
<polyline fill-rule="evenodd" clip-rule="evenodd" points="277.655,62.389 277.655,65.268 278.615,65.268 278.615,62.389 
	277.655,62.389 "/>
<polyline fill-rule="evenodd" clip-rule="evenodd" points="275.735,62.389 275.735,63.348 276.695,63.348 276.695,62.389 
	275.735,62.389 "/>
<polyline fill-rule="evenodd" clip-rule="evenodd" points="10.655,11.508 10.655,62.389 11.615,62.389 11.615,11.508 10.655,11.508 
	"/>
<polyline fill-rule="evenodd" clip-rule="evenodd" points="12.575,11.508 12.575,62.389 13.535,62.389 13.535,11.508 12.575,11.508 
	"/>
<line fill="none" stroke="#000000" stroke-width="0" stroke-linecap="square" stroke-miterlimit="10" x1="34.535" y1="11.508" x2="34.535" y2="62.389"/>
<polyline fill-rule="evenodd" clip-rule="evenodd" points="34.535,11.508 34.535,62.389 35.495,62.389 35.495,11.508 34.535,11.508 
	"/>
<line fill="none" stroke="#000000" stroke-width="0" stroke-linecap="square" stroke-miterlimit="10" x1="85.055" y1="24.348" x2="85.055" y2="62.389"/>
<polyline fill-rule="evenodd" clip-rule="evenodd" points="85.055,24.348 85.055,62.389 86.015,62.389 86.015,24.348 85.055,24.348 
	"/>
<polyline fill-rule="evenodd" clip-rule="evenodd" points="134.615,11.508 134.615,62.389 135.575,62.389 135.575,11.508 
	134.615,11.508 "/>
<polyline fill-rule="evenodd" clip-rule="evenodd" points="136.535,11.508 136.535,62.389 137.495,62.389 137.495,11.508 
	136.535,11.508 "/>
<line fill="none" stroke="#000000" stroke-width="0" stroke-linecap="square" stroke-miterlimit="10" x1="189.215" y1="24.348" x2="189.215" y2="62.389"/>
<polyline fill-rule="evenodd" clip-rule="evenodd" points="189.215,24.348 189.215,62.389 190.175,62.389 190.175,24.348 
	189.215,24.348 "/>
<line fill="none" stroke="#000000" stroke-width="0" stroke-linecap="square" stroke-miterlimit="10" x1="244.415" y1="11.508" x2="244.415" y2="62.389"/>
<polyline fill-rule="evenodd" clip-rule="evenodd" points="244.415,11.508 244.415,62.389 245.375,62.389 245.375,11.508 
	244.415,11.508 "/>
<polyline fill-rule="evenodd" clip-rule="evenodd" points="275.735,11.508 275.735,62.389 276.695,62.389 276.695,11.508 
	275.735,11.508 "/>
<polyline fill-rule="evenodd" clip-rule="evenodd" points="277.655,11.508 277.655,62.389 278.615,62.389 278.615,11.508 
	277.655,11.508 "/>
<polyline fill-rule="evenodd" clip-rule="evenodd" points="275.735,10.548 275.735,11.508 276.695,11.508 276.695,10.548 
	275.735,10.548 "/>
<polyline fill-rule="evenodd" clip-rule="evenodd" points="275.735,8.628 275.735,9.588 278.615,9.588 278.615,8.628 275.735,8.628 
	"/>
<polyline fill-rule="evenodd" clip-rule="evenodd" points="137.495,8.628 137.495,9.588 275.735,9.588 275.735,8.628 137.495,8.628 
	"/>
<polyline fill-rule="evenodd" clip-rule="evenodd" points="137.495,10.548 137.495,11.508 275.735,11.508 275.735,10.548 
	137.495,10.548 "/>
<line fill="none" stroke="#000000" stroke-width="0" stroke-linecap="square" stroke-miterlimit="10" x1="137.495" y1="23.388" x2="245.375" y2="23.388"/>
<polyline fill-rule="evenodd" clip-rule="evenodd" points="137.495,23.388 137.495,24.348 245.375,24.348 245.375,23.388 
	137.495,23.388 "/>
<line fill="none" stroke="#000000" stroke-width="0" stroke-linecap="square" stroke-miterlimit="10" x1="137.495" y1="36.468" x2="275.735" y2="36.468"/>
<polyline fill-rule="evenodd" clip-rule="evenodd" points="137.495,36.468 137.495,37.428 275.735,37.428 275.735,36.468 
	137.495,36.468 "/>
<line fill="none" stroke="#000000" stroke-width="0" stroke-linecap="square" stroke-miterlimit="10" x1="137.495" y1="49.549" x2="275.735" y2="49.549"/>
<polyline fill-rule="evenodd" clip-rule="evenodd" points="137.495,49.549 137.495,50.508 275.735,50.508 275.735,49.549 
	137.495,49.549 "/>
<polyline fill-rule="evenodd" clip-rule="evenodd" points="275.735,64.309 275.735,65.268 278.615,65.268 278.615,64.309 
	275.735,64.309 "/>
<polyline fill-rule="evenodd" clip-rule="evenodd" points="275.735,62.389 275.735,63.348 276.695,63.348 276.695,62.389 
	275.735,62.389 "/>
<polyline fill-rule="evenodd" clip-rule="evenodd" points="137.495,62.389 137.495,63.348 275.735,63.348 275.735,62.389 
	137.495,62.389 "/>
<polyline fill-rule="evenodd" clip-rule="evenodd" points="137.495,64.309 137.495,65.268 275.735,65.268 275.735,64.309 
	137.495,64.309 "/>
</svg>
