<?xml version="1.0" encoding="utf-8"?>
<!-- Generator: Adobe Illustrator 16.0.0, SVG Export Plug-In . SVG Version: 6.00 Build 0)  -->
<!DOCTYPE svg PUBLIC "-//W3C//DTD SVG 1.1//EN" "http://www.w3.org/Graphics/SVG/1.1/DTD/svg11.dtd">
<svg version="1.1" id="Layer_1" xmlns="http://www.w3.org/2000/svg" xmlns:xlink="http://www.w3.org/1999/xlink" x="0px" y="0px"
	 width="288px" height="72px" viewBox="0 0 288 72" enable-background="new 0 0 288 72" xml:space="preserve">
<g>
	<polyline fill-rule="evenodd" clip-rule="evenodd" fill="#F79910" points="136.38,49.081 136.38,61.92 189.18,61.92 189.18,49.081 
		136.38,49.081 	"/>
	<text transform="matrix(1 0 0 1 52.0215 32.4038)"><tspan x="0" y="0" font-family="'Arial-BoldMT'" font-size="9.96">Fo</tspan><tspan x="12.228" y="0" font-family="'Arial-BoldMT'" font-size="9.96">r</tspan></text>
	<text transform="matrix(1 0 0 1 98.4668 32.4038)"><tspan x="0" y="0" font-family="'Arial-BoldMT'" font-size="9.96">S</tspan><tspan x="6.604" y="0" font-family="'Arial-BoldMT'" font-size="9.96">ub</tspan><tspan x="18.831" y="0" font-family="'Arial-BoldMT'" font-size="9.96">0</tspan></text>
	<text transform="matrix(1 0 0 1 139.3809 32.4038)"><tspan x="0" y="0" font-family="'Arial-BoldMT'" font-size="9.96">S</tspan><tspan x="6.604" y="0" font-family="'Arial-BoldMT'" font-size="9.96">ub</tspan><tspan x="18.831" y="0" font-family="'Arial-BoldMT'" font-size="9.96">0</tspan><tspan x="24.36" y="0" font-family="'Arial-BoldMT'" font-size="9.96">/D</tspan><tspan x="34.321" y="0" font-family="'Arial-BoldMT'" font-size="9.96">L</tspan><tspan x="40.434" y="0" font-family="'Arial-BoldMT'" font-size="9.96">L</tspan></text>
	<text transform="matrix(1 0 0 1 193.2642 32.4038)"><tspan x="0" y="0" font-family="'Arial-BoldMT'" font-size="9.96">S</tspan><tspan x="6.604" y="0" font-family="'Arial-BoldMT'" font-size="9.96">ub</tspan><tspan x="18.83" y="0" font-family="'Arial-BoldMT'" font-size="9.96">0</tspan><tspan x="24.359" y="0" font-family="'Arial-BoldMT'" font-size="9.96">/</tspan><tspan x="27.127" y="0" font-family="'Arial-BoldMT'" font-size="9.96">V</tspan><tspan x="33.73" y="0" font-family="'Arial-BoldMT'" font-size="9.96">BA</tspan></text>
	<text transform="matrix(1 0 0 1 15.9043 45.4897)"><tspan x="0" y="0" font-family="'Arial-BoldMT'" font-size="9.96">x3</tspan><tspan x="11.059" y="0" font-family="'Arial-BoldMT'" font-size="9.96">2</tspan></text>
	<text transform="matrix(1 0 0 1 50.4668 45.4897)"><tspan x="0" y="0" font-family="'ArialMT'" font-size="9.96">1</tspan><tspan x="5.529" y="0" font-family="'ArialMT'" font-size="9.96">.</tspan><tspan x="8.296" y="0" font-family="'ArialMT'" font-size="9.96">3</tspan><tspan x="13.826" y="0" font-family="'ArialMT'" font-size="9.96">6</tspan></text>
	<text transform="matrix(1 0 0 1 100.9824 45.4897)"><tspan x="0" y="0" font-family="'ArialMT'" font-size="9.96">1</tspan><tspan x="5.529" y="0" font-family="'ArialMT'" font-size="9.96">.</tspan><tspan x="8.296" y="0" font-family="'ArialMT'" font-size="9.96">3</tspan><tspan x="13.826" y="0" font-family="'ArialMT'" font-size="9.96">1</tspan></text>
	<text transform="matrix(1 0 0 1 155.8267 45.4897)"><tspan x="0" y="0" font-family="'ArialMT'" font-size="9.96">7</tspan><tspan x="5.529" y="0" font-family="'ArialMT'" font-size="9.96">.4</tspan></text>
	<text transform="matrix(1 0 0 1 207.4282 45.4897)"><tspan x="0" y="0" font-family="'ArialMT'" font-size="9.96">53</tspan><tspan x="11.059" y="0" font-family="'ArialMT'" font-size="9.96">.6</tspan></text>
	<text transform="matrix(1 0 0 1 246.186 45.4897)"><tspan x="0" y="0" font-family="'Arial-BoldMT'" font-size="9.96">V</tspan><tspan x="6.604" y="0" font-family="'Arial-BoldMT'" font-size="9.96">B</tspan><tspan x="13.795" y="0" font-family="'Arial-BoldMT'" font-size="9.96">A</tspan><tspan x="20.641" y="0" font-family="'Arial-BoldMT'" font-size="9.96">6</tspan></text>
	<text transform="matrix(1 0 0 1 15.9043 58.3335)"><tspan x="0" y="0" font-family="'Arial-BoldMT'" font-size="9.96">x6</tspan><tspan x="11.059" y="0" font-family="'Arial-BoldMT'" font-size="9.96">4</tspan></text>
	<text transform="matrix(1 0 0 1 50.4668 58.3335)"><tspan x="0" y="0" font-family="'ArialMT'" font-size="9.96">1</tspan><tspan x="5.529" y="0" font-family="'ArialMT'" font-size="9.96">.</tspan><tspan x="8.296" y="0" font-family="'ArialMT'" font-size="9.96">4</tspan><tspan x="13.826" y="0" font-family="'ArialMT'" font-size="9.96">6</tspan></text>
	<text transform="matrix(1 0 0 1 100.9824 58.3335)"><tspan x="0" y="0" font-family="'ArialMT'" font-size="9.96">1</tspan><tspan x="5.529" y="0" font-family="'ArialMT'" font-size="9.96">.</tspan><tspan x="8.296" y="0" font-family="'ArialMT'" font-size="9.96">3</tspan><tspan x="13.826" y="0" font-family="'ArialMT'" font-size="9.96">4</tspan></text>
	<text transform="matrix(1 0 0 1 151.6235 58.3335)"><tspan x="0" y="0" font-family="'Arial-BoldMT'" font-size="9.96">195</tspan><tspan x="16.588" y="0" font-family="'Arial-BoldMT'" font-size="9.96">0</tspan></text>
	<text transform="matrix(1 0 0 1 207.4282 58.3335)"><tspan x="0" y="0" font-family="'ArialMT'" font-size="9.96">47</tspan><tspan x="11.059" y="0" font-family="'ArialMT'" font-size="9.96">.9</tspan></text>
	<text transform="matrix(1 0 0 1 246.186 58.3335)"><tspan x="0" y="0" font-family="'Arial-BoldMT'" font-size="9.96">V</tspan><tspan x="6.604" y="0" font-family="'Arial-BoldMT'" font-size="9.96">B</tspan><tspan x="13.795" y="0" font-family="'Arial-BoldMT'" font-size="9.96">A</tspan><tspan x="20.641" y="0" font-family="'Arial-BoldMT'" font-size="9.96">7</tspan></text>
	<g>
		<defs>
			<polygon id="SVGID_1_" points="136.38,10.081 244.26,10.081 244.26,22.92 136.38,22.92 136.38,10.081 			"/>
		</defs>
		<clipPath id="SVGID_2_">
			<use xlink:href="#SVGID_1_"  overflow="visible"/>
		</clipPath>
		<g clip-path="url(#SVGID_2_)">
			<text transform="matrix(1 0 0 1 179.9438 19.3257)"><tspan x="0" y="0" font-family="'Arial-BoldMT'" font-size="9.96">V</tspan><tspan x="6.604" y="0" font-family="'Arial-BoldMT'" font-size="9.96">BA</tspan></text>
		</g>
	</g>
	<g>
		<defs>
			<polygon id="SVGID_3_" points="34.38,10.081 134.46,10.081 134.46,22.92 34.38,22.92 34.38,10.081 			"/>
		</defs>
		<clipPath id="SVGID_4_">
			<use xlink:href="#SVGID_3_"  overflow="visible"/>
		</clipPath>
		<g clip-path="url(#SVGID_4_)">
			<text transform="matrix(1 0 0 1 81.7871 19.3257)" font-family="'Arial-BoldMT'" font-size="9.96">C</text>
		</g>
	</g>
	<polyline fill-rule="evenodd" clip-rule="evenodd" points="10.02,7.68 10.02,8.64 12.9,8.64 12.9,7.68 10.02,7.68 	"/>
	<polyline fill-rule="evenodd" clip-rule="evenodd" points="11.94,9.6 11.94,10.56 12.9,10.56 12.9,9.6 11.94,9.6 	"/>
	<polyline fill-rule="evenodd" clip-rule="evenodd" points="133.98,9.6 133.98,10.56 134.94,10.56 134.94,9.6 133.98,9.6 	"/>
	<polyline fill-rule="evenodd" clip-rule="evenodd" points="12.9,7.68 12.9,8.64 133.98,8.64 133.98,7.68 12.9,7.68 	"/>
	<polyline fill-rule="evenodd" clip-rule="evenodd" points="12.9,9.6 12.9,10.56 133.98,10.56 133.98,9.6 12.9,9.6 	"/>
	<polyline fill-rule="evenodd" clip-rule="evenodd" points="133.98,7.68 133.98,8.64 136.86,8.64 136.86,7.68 133.98,7.68 	"/>
	<polyline fill-rule="evenodd" clip-rule="evenodd" points="135.9,9.6 135.9,10.56 136.86,10.56 136.86,9.6 135.9,9.6 	"/>
	
		<line fill="none" stroke="#000000" stroke-width="0" stroke-linecap="square" stroke-miterlimit="10" x1="34.86" y1="22.44" x2="133.98" y2="22.44"/>
	<polyline fill-rule="evenodd" clip-rule="evenodd" points="34.86,22.44 34.86,23.4 133.98,23.4 133.98,22.44 34.86,22.44 	"/>
	
		<line fill="none" stroke="#000000" stroke-width="0" stroke-linecap="square" stroke-miterlimit="10" x1="12.9" y1="35.521" x2="133.98" y2="35.521"/>
	<polyline fill-rule="evenodd" clip-rule="evenodd" points="12.9,35.521 12.9,36.48 133.98,36.48 133.98,35.521 12.9,35.521 	"/>
	
		<line fill="none" stroke="#000000" stroke-width="0" stroke-linecap="square" stroke-miterlimit="10" x1="12.9" y1="48.6" x2="133.98" y2="48.6"/>
	<polyline fill-rule="evenodd" clip-rule="evenodd" points="12.9,48.6 12.9,49.561 133.98,49.561 133.98,48.6 12.9,48.6 	"/>
	<polyline fill-rule="evenodd" clip-rule="evenodd" points="10.02,7.68 10.02,10.56 10.98,10.56 10.98,7.68 10.02,7.68 	"/>
	<polyline fill-rule="evenodd" clip-rule="evenodd" points="11.94,9.6 11.94,10.56 12.9,10.56 12.9,9.6 11.94,9.6 	"/>
	<polyline fill-rule="evenodd" clip-rule="evenodd" points="11.94,61.44 11.94,62.401 12.9,62.401 12.9,61.44 11.94,61.44 	"/>
	<polyline fill-rule="evenodd" clip-rule="evenodd" points="10.02,63.362 10.02,64.321 12.9,64.321 12.9,63.362 10.02,63.362 	"/>
	<polyline fill-rule="evenodd" clip-rule="evenodd" points="133.98,61.44 133.98,62.401 134.94,62.401 134.94,61.44 133.98,61.44 	
		"/>
	<polyline fill-rule="evenodd" clip-rule="evenodd" points="133.98,9.6 133.98,10.56 134.94,10.56 134.94,9.6 133.98,9.6 	"/>
	<polyline fill-rule="evenodd" clip-rule="evenodd" points="135.9,9.6 135.9,10.56 136.86,10.56 136.86,9.6 135.9,9.6 	"/>
	<polyline fill-rule="evenodd" clip-rule="evenodd" points="12.9,61.44 12.9,62.401 133.98,62.401 133.98,61.44 12.9,61.44 	"/>
	<polyline fill-rule="evenodd" clip-rule="evenodd" points="12.9,63.362 12.9,64.321 133.98,64.321 133.98,63.362 12.9,63.362 	"/>
	<polyline fill-rule="evenodd" clip-rule="evenodd" points="135.9,61.44 135.9,62.401 136.86,62.401 136.86,61.44 135.9,61.44 	"/>
	<polyline fill-rule="evenodd" clip-rule="evenodd" points="133.98,63.362 133.98,64.321 136.86,64.321 136.86,63.362 
		133.98,63.362 	"/>
	<polyline fill-rule="evenodd" clip-rule="evenodd" points="275.1,9.6 275.1,10.56 276.061,10.56 276.061,9.6 275.1,9.6 	"/>
	<polyline fill-rule="evenodd" clip-rule="evenodd" points="277.02,7.68 277.02,10.56 277.981,10.56 277.981,7.68 277.02,7.68 	"/>
	<polyline fill-rule="evenodd" clip-rule="evenodd" points="11.94,61.44 11.94,62.401 12.9,62.401 12.9,61.44 11.94,61.44 	"/>
	<polyline fill-rule="evenodd" clip-rule="evenodd" points="10.02,61.44 10.02,64.321 10.98,64.321 10.98,61.44 10.02,61.44 	"/>
	<polyline fill-rule="evenodd" clip-rule="evenodd" points="135.9,61.44 135.9,62.401 136.86,62.401 136.86,61.44 135.9,61.44 	"/>
	<polyline fill-rule="evenodd" clip-rule="evenodd" points="133.98,61.44 133.98,62.401 134.94,62.401 134.94,61.44 133.98,61.44 	
		"/>
	<polyline fill-rule="evenodd" clip-rule="evenodd" points="277.02,61.44 277.02,64.321 277.981,64.321 277.981,61.44 277.02,61.44 
			"/>
	<polyline fill-rule="evenodd" clip-rule="evenodd" points="275.1,61.44 275.1,62.401 276.061,62.401 276.061,61.44 275.1,61.44 	
		"/>
	<polyline fill-rule="evenodd" clip-rule="evenodd" points="10.02,10.56 10.02,61.44 10.98,61.44 10.98,10.56 10.02,10.56 	"/>
	<polyline fill-rule="evenodd" clip-rule="evenodd" points="11.94,10.56 11.94,61.44 12.9,61.44 12.9,10.56 11.94,10.56 	"/>
	
		<line fill="none" stroke="#000000" stroke-width="0" stroke-linecap="square" stroke-miterlimit="10" x1="33.9" y1="10.56" x2="33.9" y2="61.44"/>
	<polyline fill-rule="evenodd" clip-rule="evenodd" points="33.9,10.56 33.9,61.44 34.86,61.44 34.86,10.56 33.9,10.56 	"/>
	
		<line fill="none" stroke="#000000" stroke-width="0" stroke-linecap="square" stroke-miterlimit="10" x1="84.42" y1="23.4" x2="84.42" y2="61.44"/>
	<polyline fill-rule="evenodd" clip-rule="evenodd" points="84.42,23.4 84.42,61.44 85.38,61.44 85.38,23.4 84.42,23.4 	"/>
	<polyline fill-rule="evenodd" clip-rule="evenodd" points="133.98,10.56 133.98,61.44 134.94,61.44 134.94,10.56 133.98,10.56 	"/>
	<polyline fill-rule="evenodd" clip-rule="evenodd" points="135.9,10.56 135.9,61.44 136.86,61.44 136.86,10.56 135.9,10.56 	"/>
	
		<line fill="none" stroke="#000000" stroke-width="0" stroke-linecap="square" stroke-miterlimit="10" x1="188.581" y1="23.4" x2="188.581" y2="61.44"/>
	<polyline fill-rule="evenodd" clip-rule="evenodd" points="188.581,23.4 188.581,61.44 189.54,61.44 189.54,23.4 188.581,23.4 	"/>
	
		<line fill="none" stroke="#000000" stroke-width="0" stroke-linecap="square" stroke-miterlimit="10" x1="243.78" y1="10.56" x2="243.78" y2="61.44"/>
	<polyline fill-rule="evenodd" clip-rule="evenodd" points="243.78,10.56 243.78,61.44 244.741,61.44 244.741,10.56 243.78,10.56 	
		"/>
	<polyline fill-rule="evenodd" clip-rule="evenodd" points="275.1,10.56 275.1,61.44 276.061,61.44 276.061,10.56 275.1,10.56 	"/>
	<polyline fill-rule="evenodd" clip-rule="evenodd" points="277.02,10.56 277.02,61.44 277.981,61.44 277.981,10.56 277.02,10.56 	
		"/>
	<polyline fill-rule="evenodd" clip-rule="evenodd" points="275.1,9.6 275.1,10.56 276.061,10.56 276.061,9.6 275.1,9.6 	"/>
	<polyline fill-rule="evenodd" clip-rule="evenodd" points="275.1,7.68 275.1,8.64 277.981,8.64 277.981,7.68 275.1,7.68 	"/>
	<polyline fill-rule="evenodd" clip-rule="evenodd" points="136.86,7.68 136.86,8.64 275.1,8.64 275.1,7.68 136.86,7.68 	"/>
	<polyline fill-rule="evenodd" clip-rule="evenodd" points="136.86,9.6 136.86,10.56 275.1,10.56 275.1,9.6 136.86,9.6 	"/>
	
		<line fill="none" stroke="#000000" stroke-width="0" stroke-linecap="square" stroke-miterlimit="10" x1="136.86" y1="22.44" x2="244.741" y2="22.44"/>
	<polyline fill-rule="evenodd" clip-rule="evenodd" points="136.86,22.44 136.86,23.4 244.741,23.4 244.741,22.44 136.86,22.44 	"/>
	
		<line fill="none" stroke="#000000" stroke-width="0" stroke-linecap="square" stroke-miterlimit="10" x1="136.86" y1="35.521" x2="275.1" y2="35.521"/>
	<polyline fill-rule="evenodd" clip-rule="evenodd" points="136.86,35.521 136.86,36.48 275.1,36.48 275.1,35.521 136.86,35.521 	
		"/>
	
		<line fill="none" stroke="#000000" stroke-width="0" stroke-linecap="square" stroke-miterlimit="10" x1="136.86" y1="48.6" x2="275.1" y2="48.6"/>
	<polyline fill-rule="evenodd" clip-rule="evenodd" points="136.86,48.6 136.86,49.561 275.1,49.561 275.1,48.6 136.86,48.6 	"/>
	<polyline fill-rule="evenodd" clip-rule="evenodd" points="275.1,63.362 275.1,64.321 277.981,64.321 277.981,63.362 275.1,63.362 
			"/>
	<polyline fill-rule="evenodd" clip-rule="evenodd" points="275.1,61.44 275.1,62.401 276.061,62.401 276.061,61.44 275.1,61.44 	
		"/>
	<polyline fill-rule="evenodd" clip-rule="evenodd" points="136.86,61.44 136.86,62.401 275.1,62.401 275.1,61.44 136.86,61.44 	"/>
	<polyline fill-rule="evenodd" clip-rule="evenodd" points="136.86,63.362 136.86,64.321 275.1,64.321 275.1,63.362 136.86,63.362 	
		"/>
</g>
</svg>
